<svg xmlns="http://www.w3.org/2000/svg" xmlns:xlink="http://www.w3.org/1999/xlink" width="96" zoomAndPan="magnify" viewBox="0 0 72 72" height="96" preserveAspectRatio="xMidYMid meet" version="1.0"><defs><g/><clipPath id="05f0d5623e"><path d="M 0.679688 0 L 4 0 L 4 5 L 0.679688 5 Z M 0.679688 0 " clip-rule="nonzero"/></clipPath><clipPath id="a3900c634b"><rect x="0" width="5" y="0" height="7"/></clipPath><clipPath id="a5828638c7"><rect x="0" width="5" y="0" height="8"/></clipPath><clipPath id="8323484b94"><rect x="0" width="5" y="0" height="7"/></clipPath><clipPath id="e7a52d3769"><rect x="0" width="6" y="0" height="8"/></clipPath><clipPath id="88d3e574f8"><path d="M 15.53125 12 L 19.835938 12 L 19.835938 16.304688 L 15.53125 16.304688 Z M 15.53125 12 " clip-rule="nonzero"/></clipPath><clipPath id="21c5a8e64f"><path d="M 17.683594 12 C 16.496094 12 15.53125 12.964844 15.53125 14.152344 C 15.53125 15.339844 16.496094 16.304688 17.683594 16.304688 C 18.871094 16.304688 19.835938 15.339844 19.835938 14.152344 C 19.835938 12.964844 18.871094 12 17.683594 12 Z M 17.683594 12 " clip-rule="nonzero"/></clipPath><clipPath id="4df357b36b"><path d="M 0.53125 0 L 4.835938 0 L 4.835938 4.304688 L 0.53125 4.304688 Z M 0.53125 0 " clip-rule="nonzero"/></clipPath><clipPath id="1064535f42"><path d="M 2.683594 0 C 1.496094 0 0.53125 0.964844 0.53125 2.152344 C 0.53125 3.339844 1.496094 4.304688 2.683594 4.304688 C 3.871094 4.304688 4.835938 3.339844 4.835938 2.152344 C 4.835938 0.964844 3.871094 0 2.683594 0 Z M 2.683594 0 " clip-rule="nonzero"/></clipPath><clipPath id="df9f73d2bf"><rect x="0" width="5" y="0" height="5"/></clipPath><clipPath id="42c711572f"><path d="M 7.199219 26.976562 L 11.503906 26.976562 L 11.503906 31.28125 L 7.199219 31.28125 Z M 7.199219 26.976562 " clip-rule="nonzero"/></clipPath><clipPath id="1939da4ae3"><path d="M 9.351562 26.976562 C 8.164062 26.976562 7.199219 27.941406 7.199219 29.128906 C 7.199219 30.316406 8.164062 31.28125 9.351562 31.28125 C 10.542969 31.28125 11.503906 30.316406 11.503906 29.128906 C 11.503906 27.941406 10.542969 26.976562 9.351562 26.976562 Z M 9.351562 26.976562 " clip-rule="nonzero"/></clipPath><clipPath id="f507c25984"><path d="M 0.199219 0.976562 L 4.503906 0.976562 L 4.503906 5.28125 L 0.199219 5.28125 Z M 0.199219 0.976562 " clip-rule="nonzero"/></clipPath><clipPath id="d23910e98c"><path d="M 2.351562 0.976562 C 1.164062 0.976562 0.199219 1.941406 0.199219 3.128906 C 0.199219 4.316406 1.164062 5.28125 2.351562 5.28125 C 3.542969 5.28125 4.503906 4.316406 4.503906 3.128906 C 4.503906 1.941406 3.542969 0.976562 2.351562 0.976562 Z M 2.351562 0.976562 " clip-rule="nonzero"/></clipPath><clipPath id="d6fabdccf9"><rect x="0" width="5" y="0" height="6"/></clipPath><clipPath id="03a2942f4b"><path d="M 23.859375 26.976562 L 28.167969 26.976562 L 28.167969 31.28125 L 23.859375 31.28125 Z M 23.859375 26.976562 " clip-rule="nonzero"/></clipPath><clipPath id="4372c30ec9"><path d="M 26.011719 26.976562 C 24.824219 26.976562 23.859375 27.941406 23.859375 29.128906 C 23.859375 30.316406 24.824219 31.28125 26.011719 31.28125 C 27.203125 31.28125 28.167969 30.316406 28.167969 29.128906 C 28.167969 27.941406 27.203125 26.976562 26.011719 26.976562 Z M 26.011719 26.976562 " clip-rule="nonzero"/></clipPath><clipPath id="ef47d063bd"><path d="M 0.859375 0.976562 L 5.167969 0.976562 L 5.167969 5.28125 L 0.859375 5.28125 Z M 0.859375 0.976562 " clip-rule="nonzero"/></clipPath><clipPath id="76140ec3df"><path d="M 3.011719 0.976562 C 1.824219 0.976562 0.859375 1.941406 0.859375 3.128906 C 0.859375 4.316406 1.824219 5.28125 3.011719 5.28125 C 4.203125 5.28125 5.167969 4.316406 5.167969 3.128906 C 5.167969 1.941406 4.203125 0.976562 3.011719 0.976562 Z M 3.011719 0.976562 " clip-rule="nonzero"/></clipPath><clipPath id="2be510dd24"><rect x="0" width="6" y="0" height="6"/></clipPath><clipPath id="cec2b30502"><path d="M 15.53125 17.679688 L 19.835938 17.679688 L 19.835938 21.984375 L 15.53125 21.984375 Z M 15.53125 17.679688 " clip-rule="nonzero"/></clipPath><clipPath id="753aff9f88"><path d="M 17.683594 17.679688 C 16.496094 17.679688 15.53125 18.640625 15.53125 19.832031 C 15.53125 21.019531 16.496094 21.984375 17.683594 21.984375 C 18.871094 21.984375 19.835938 21.019531 19.835938 19.832031 C 19.835938 18.640625 18.871094 17.679688 17.683594 17.679688 Z M 17.683594 17.679688 " clip-rule="nonzero"/></clipPath><clipPath id="9ef4a10920"><path d="M 0.53125 0.679688 L 4.835938 0.679688 L 4.835938 4.984375 L 0.53125 4.984375 Z M 0.53125 0.679688 " clip-rule="nonzero"/></clipPath><clipPath id="fd713349f7"><path d="M 2.683594 0.679688 C 1.496094 0.679688 0.53125 1.640625 0.53125 2.832031 C 0.53125 4.019531 1.496094 4.984375 2.683594 4.984375 C 3.871094 4.984375 4.835938 4.019531 4.835938 2.832031 C 4.835938 1.640625 3.871094 0.679688 2.683594 0.679688 Z M 2.683594 0.679688 " clip-rule="nonzero"/></clipPath><clipPath id="cc3c35bf6e"><rect x="0" width="5" y="0" height="5"/></clipPath><clipPath id="5feda62762"><path d="M 15.53125 6.195312 L 19.835938 6.195312 L 19.835938 10.5 L 15.53125 10.5 Z M 15.53125 6.195312 " clip-rule="nonzero"/></clipPath><clipPath id="310e022457"><path d="M 17.683594 6.195312 C 16.496094 6.195312 15.53125 7.160156 15.53125 8.347656 C 15.53125 9.535156 16.496094 10.5 17.683594 10.5 C 18.871094 10.5 19.835938 9.535156 19.835938 8.347656 C 19.835938 7.160156 18.871094 6.195312 17.683594 6.195312 Z M 17.683594 6.195312 " clip-rule="nonzero"/></clipPath><clipPath id="a74f6c2296"><path d="M 0.53125 0.195312 L 4.835938 0.195312 L 4.835938 4.5 L 0.53125 4.5 Z M 0.53125 0.195312 " clip-rule="nonzero"/></clipPath><clipPath id="f945870519"><path d="M 2.683594 0.195312 C 1.496094 0.195312 0.53125 1.160156 0.53125 2.347656 C 0.53125 3.535156 1.496094 4.5 2.683594 4.5 C 3.871094 4.5 4.835938 3.535156 4.835938 2.347656 C 4.835938 1.160156 3.871094 0.195312 2.683594 0.195312 Z M 2.683594 0.195312 " clip-rule="nonzero"/></clipPath><clipPath id="979696e6a3"><rect x="0" width="5" y="0" height="5"/></clipPath><clipPath id="2b2d9f10ab"><path d="M 52.164062 12 L 56.46875 12 L 56.46875 16.304688 L 52.164062 16.304688 Z M 52.164062 12 " clip-rule="nonzero"/></clipPath><clipPath id="bff7aba34f"><path d="M 54.316406 12 C 53.128906 12 52.164062 12.964844 52.164062 14.152344 C 52.164062 15.339844 53.128906 16.304688 54.316406 16.304688 C 55.503906 16.304688 56.46875 15.339844 56.46875 14.152344 C 56.46875 12.964844 55.503906 12 54.316406 12 Z M 54.316406 12 " clip-rule="nonzero"/></clipPath><clipPath id="542fb5cd86"><path d="M 0.164062 0 L 4.46875 0 L 4.46875 4.304688 L 0.164062 4.304688 Z M 0.164062 0 " clip-rule="nonzero"/></clipPath><clipPath id="04c9c0e3a7"><path d="M 2.316406 0 C 1.128906 0 0.164062 0.964844 0.164062 2.152344 C 0.164062 3.339844 1.128906 4.304688 2.316406 4.304688 C 3.503906 4.304688 4.46875 3.339844 4.46875 2.152344 C 4.46875 0.964844 3.503906 0 2.316406 0 Z M 2.316406 0 " clip-rule="nonzero"/></clipPath><clipPath id="b16c1b4b22"><rect x="0" width="5" y="0" height="5"/></clipPath><clipPath id="76f6f49caf"><path d="M 43.832031 26.976562 L 48.140625 26.976562 L 48.140625 31.28125 L 43.832031 31.28125 Z M 43.832031 26.976562 " clip-rule="nonzero"/></clipPath><clipPath id="70c125c14b"><path d="M 45.988281 26.976562 C 44.796875 26.976562 43.832031 27.941406 43.832031 29.128906 C 43.832031 30.316406 44.796875 31.28125 45.988281 31.28125 C 47.175781 31.28125 48.140625 30.316406 48.140625 29.128906 C 48.140625 27.941406 47.175781 26.976562 45.988281 26.976562 Z M 45.988281 26.976562 " clip-rule="nonzero"/></clipPath><clipPath id="d617f4bd9b"><path d="M 0.832031 0.976562 L 5.140625 0.976562 L 5.140625 5.28125 L 0.832031 5.28125 Z M 0.832031 0.976562 " clip-rule="nonzero"/></clipPath><clipPath id="26971e2814"><path d="M 2.988281 0.976562 C 1.796875 0.976562 0.832031 1.941406 0.832031 3.128906 C 0.832031 4.316406 1.796875 5.28125 2.988281 5.28125 C 4.175781 5.28125 5.140625 4.316406 5.140625 3.128906 C 5.140625 1.941406 4.175781 0.976562 2.988281 0.976562 Z M 2.988281 0.976562 " clip-rule="nonzero"/></clipPath><clipPath id="4064e6bec2"><rect x="0" width="6" y="0" height="6"/></clipPath><clipPath id="94993677ff"><path d="M 60.496094 26.976562 L 64.800781 26.976562 L 64.800781 31.28125 L 60.496094 31.28125 Z M 60.496094 26.976562 " clip-rule="nonzero"/></clipPath><clipPath id="55e28da69d"><path d="M 62.648438 26.976562 C 61.457031 26.976562 60.496094 27.941406 60.496094 29.128906 C 60.496094 30.316406 61.457031 31.28125 62.648438 31.28125 C 63.835938 31.28125 64.800781 30.316406 64.800781 29.128906 C 64.800781 27.941406 63.835938 26.976562 62.648438 26.976562 Z M 62.648438 26.976562 " clip-rule="nonzero"/></clipPath><clipPath id="44e9679b56"><path d="M 0.496094 0.976562 L 4.800781 0.976562 L 4.800781 5.28125 L 0.496094 5.28125 Z M 0.496094 0.976562 " clip-rule="nonzero"/></clipPath><clipPath id="138f6613df"><path d="M 2.648438 0.976562 C 1.457031 0.976562 0.496094 1.941406 0.496094 3.128906 C 0.496094 4.316406 1.457031 5.28125 2.648438 5.28125 C 3.835938 5.28125 4.800781 4.316406 4.800781 3.128906 C 4.800781 1.941406 3.835938 0.976562 2.648438 0.976562 Z M 2.648438 0.976562 " clip-rule="nonzero"/></clipPath><clipPath id="8f6a8ab9ca"><rect x="0" width="5" y="0" height="6"/></clipPath><clipPath id="479c71b37d"><path d="M 52.164062 17.679688 L 56.46875 17.679688 L 56.46875 21.984375 L 52.164062 21.984375 Z M 52.164062 17.679688 " clip-rule="nonzero"/></clipPath><clipPath id="243e381f83"><path d="M 54.316406 17.679688 C 53.128906 17.679688 52.164062 18.640625 52.164062 19.832031 C 52.164062 21.019531 53.128906 21.984375 54.316406 21.984375 C 55.503906 21.984375 56.46875 21.019531 56.46875 19.832031 C 56.46875 18.640625 55.503906 17.679688 54.316406 17.679688 Z M 54.316406 17.679688 " clip-rule="nonzero"/></clipPath><clipPath id="3f4fb2fcef"><path d="M 0.164062 0.679688 L 4.46875 0.679688 L 4.46875 4.984375 L 0.164062 4.984375 Z M 0.164062 0.679688 " clip-rule="nonzero"/></clipPath><clipPath id="d51314e7e4"><path d="M 2.316406 0.679688 C 1.128906 0.679688 0.164062 1.640625 0.164062 2.832031 C 0.164062 4.019531 1.128906 4.984375 2.316406 4.984375 C 3.503906 4.984375 4.46875 4.019531 4.46875 2.832031 C 4.46875 1.640625 3.503906 0.679688 2.316406 0.679688 Z M 2.316406 0.679688 " clip-rule="nonzero"/></clipPath><clipPath id="38b43b7507"><rect x="0" width="5" y="0" height="5"/></clipPath><clipPath id="8ddd12306c"><path d="M 15.53125 47.804688 L 19.835938 47.804688 L 19.835938 52.109375 L 15.53125 52.109375 Z M 15.53125 47.804688 " clip-rule="nonzero"/></clipPath><clipPath id="b67b8bbacc"><path d="M 17.683594 47.804688 C 16.496094 47.804688 15.53125 48.769531 15.53125 49.957031 C 15.53125 51.148438 16.496094 52.109375 17.683594 52.109375 C 18.871094 52.109375 19.835938 51.148438 19.835938 49.957031 C 19.835938 48.769531 18.871094 47.804688 17.683594 47.804688 Z M 17.683594 47.804688 " clip-rule="nonzero"/></clipPath><clipPath id="675d236d80"><path d="M 0.53125 0.804688 L 4.835938 0.804688 L 4.835938 5.109375 L 0.53125 5.109375 Z M 0.53125 0.804688 " clip-rule="nonzero"/></clipPath><clipPath id="86d8b0fa68"><path d="M 2.683594 0.804688 C 1.496094 0.804688 0.53125 1.769531 0.53125 2.957031 C 0.53125 4.148438 1.496094 5.109375 2.683594 5.109375 C 3.871094 5.109375 4.835938 4.148438 4.835938 2.957031 C 4.835938 1.769531 3.871094 0.804688 2.683594 0.804688 Z M 2.683594 0.804688 " clip-rule="nonzero"/></clipPath><clipPath id="0fa6c7b7fc"><rect x="0" width="5" y="0" height="6"/></clipPath><clipPath id="532c5f0d68"><path d="M 7.199219 62.78125 L 11.503906 62.78125 L 11.503906 67.085938 L 7.199219 67.085938 Z M 7.199219 62.78125 " clip-rule="nonzero"/></clipPath><clipPath id="e39a47bd36"><path d="M 9.351562 62.78125 C 8.164062 62.78125 7.199219 63.746094 7.199219 64.933594 C 7.199219 66.125 8.164062 67.085938 9.351562 67.085938 C 10.542969 67.085938 11.503906 66.125 11.503906 64.933594 C 11.503906 63.746094 10.542969 62.78125 9.351562 62.78125 Z M 9.351562 62.78125 " clip-rule="nonzero"/></clipPath><clipPath id="ac69d82311"><path d="M 0.199219 0.78125 L 4.503906 0.78125 L 4.503906 5.085938 L 0.199219 5.085938 Z M 0.199219 0.78125 " clip-rule="nonzero"/></clipPath><clipPath id="be1fd8ff6b"><path d="M 2.351562 0.78125 C 1.164062 0.78125 0.199219 1.746094 0.199219 2.933594 C 0.199219 4.125 1.164062 5.085938 2.351562 5.085938 C 3.542969 5.085938 4.503906 4.125 4.503906 2.933594 C 4.503906 1.746094 3.542969 0.78125 2.351562 0.78125 Z M 2.351562 0.78125 " clip-rule="nonzero"/></clipPath><clipPath id="3d5adb52a2"><rect x="0" width="5" y="0" height="6"/></clipPath><clipPath id="bff21cba97"><path d="M 23.859375 62.78125 L 28.167969 62.78125 L 28.167969 67.085938 L 23.859375 67.085938 Z M 23.859375 62.78125 " clip-rule="nonzero"/></clipPath><clipPath id="84be6b77d7"><path d="M 26.011719 62.78125 C 24.824219 62.78125 23.859375 63.746094 23.859375 64.933594 C 23.859375 66.125 24.824219 67.085938 26.011719 67.085938 C 27.203125 67.085938 28.167969 66.125 28.167969 64.933594 C 28.167969 63.746094 27.203125 62.78125 26.011719 62.78125 Z M 26.011719 62.78125 " clip-rule="nonzero"/></clipPath><clipPath id="272a4fd710"><path d="M 0.859375 0.78125 L 5.167969 0.78125 L 5.167969 5.085938 L 0.859375 5.085938 Z M 0.859375 0.78125 " clip-rule="nonzero"/></clipPath><clipPath id="b049b1b40a"><path d="M 3.011719 0.78125 C 1.824219 0.78125 0.859375 1.746094 0.859375 2.933594 C 0.859375 4.125 1.824219 5.085938 3.011719 5.085938 C 4.203125 5.085938 5.167969 4.125 5.167969 2.933594 C 5.167969 1.746094 4.203125 0.78125 3.011719 0.78125 Z M 3.011719 0.78125 " clip-rule="nonzero"/></clipPath><clipPath id="68139736a4"><rect x="0" width="6" y="0" height="6"/></clipPath><clipPath id="cdb17fa254"><path d="M 15.53125 53.484375 L 19.835938 53.484375 L 19.835938 57.789062 L 15.53125 57.789062 Z M 15.53125 53.484375 " clip-rule="nonzero"/></clipPath><clipPath id="57c1c0bef2"><path d="M 17.683594 53.484375 C 16.496094 53.484375 15.53125 54.449219 15.53125 55.636719 C 15.53125 56.824219 16.496094 57.789062 17.683594 57.789062 C 18.871094 57.789062 19.835938 56.824219 19.835938 55.636719 C 19.835938 54.449219 18.871094 53.484375 17.683594 53.484375 Z M 17.683594 53.484375 " clip-rule="nonzero"/></clipPath><clipPath id="b3d6d1de06"><path d="M 0.53125 0.484375 L 4.835938 0.484375 L 4.835938 4.789062 L 0.53125 4.789062 Z M 0.53125 0.484375 " clip-rule="nonzero"/></clipPath><clipPath id="df9431c593"><path d="M 2.683594 0.484375 C 1.496094 0.484375 0.53125 1.449219 0.53125 2.636719 C 0.53125 3.824219 1.496094 4.789062 2.683594 4.789062 C 3.871094 4.789062 4.835938 3.824219 4.835938 2.636719 C 4.835938 1.449219 3.871094 0.484375 2.683594 0.484375 Z M 2.683594 0.484375 " clip-rule="nonzero"/></clipPath><clipPath id="35a7777635"><rect x="0" width="5" y="0" height="5"/></clipPath><clipPath id="455671602a"><path d="M 15.53125 42 L 19.835938 42 L 19.835938 46.304688 L 15.53125 46.304688 Z M 15.53125 42 " clip-rule="nonzero"/></clipPath><clipPath id="21cacb8468"><path d="M 17.683594 42 C 16.496094 42 15.53125 42.964844 15.53125 44.152344 C 15.53125 45.339844 16.496094 46.304688 17.683594 46.304688 C 18.871094 46.304688 19.835938 45.339844 19.835938 44.152344 C 19.835938 42.964844 18.871094 42 17.683594 42 Z M 17.683594 42 " clip-rule="nonzero"/></clipPath><clipPath id="a02704fe0e"><path d="M 0.53125 0 L 4.835938 0 L 4.835938 4.304688 L 0.53125 4.304688 Z M 0.53125 0 " clip-rule="nonzero"/></clipPath><clipPath id="4bed0eb2f2"><path d="M 2.683594 0 C 1.496094 0 0.53125 0.964844 0.53125 2.152344 C 0.53125 3.339844 1.496094 4.304688 2.683594 4.304688 C 3.871094 4.304688 4.835938 3.339844 4.835938 2.152344 C 4.835938 0.964844 3.871094 0 2.683594 0 Z M 2.683594 0 " clip-rule="nonzero"/></clipPath><clipPath id="ba2c07c82c"><rect x="0" width="5" y="0" height="5"/></clipPath><clipPath id="13e7fdd396"><path d="M 52.164062 47.804688 L 56.46875 47.804688 L 56.46875 52.109375 L 52.164062 52.109375 Z M 52.164062 47.804688 " clip-rule="nonzero"/></clipPath><clipPath id="741277f7d1"><path d="M 54.316406 47.804688 C 53.128906 47.804688 52.164062 48.769531 52.164062 49.957031 C 52.164062 51.148438 53.128906 52.109375 54.316406 52.109375 C 55.503906 52.109375 56.46875 51.148438 56.46875 49.957031 C 56.46875 48.769531 55.503906 47.804688 54.316406 47.804688 Z M 54.316406 47.804688 " clip-rule="nonzero"/></clipPath><clipPath id="8b2fd51578"><path d="M 0.164062 0.804688 L 4.46875 0.804688 L 4.46875 5.109375 L 0.164062 5.109375 Z M 0.164062 0.804688 " clip-rule="nonzero"/></clipPath><clipPath id="e26927f739"><path d="M 2.316406 0.804688 C 1.128906 0.804688 0.164062 1.769531 0.164062 2.957031 C 0.164062 4.148438 1.128906 5.109375 2.316406 5.109375 C 3.503906 5.109375 4.46875 4.148438 4.46875 2.957031 C 4.46875 1.769531 3.503906 0.804688 2.316406 0.804688 Z M 2.316406 0.804688 " clip-rule="nonzero"/></clipPath><clipPath id="e49bb0926f"><rect x="0" width="5" y="0" height="6"/></clipPath><clipPath id="031a2adce0"><path d="M 43.832031 62.78125 L 48.140625 62.78125 L 48.140625 67.085938 L 43.832031 67.085938 Z M 43.832031 62.78125 " clip-rule="nonzero"/></clipPath><clipPath id="06c1e3d1c2"><path d="M 45.988281 62.78125 C 44.796875 62.78125 43.832031 63.746094 43.832031 64.933594 C 43.832031 66.125 44.796875 67.085938 45.988281 67.085938 C 47.175781 67.085938 48.140625 66.125 48.140625 64.933594 C 48.140625 63.746094 47.175781 62.78125 45.988281 62.78125 Z M 45.988281 62.78125 " clip-rule="nonzero"/></clipPath><clipPath id="e694cd3b48"><path d="M 0.832031 0.78125 L 5.140625 0.78125 L 5.140625 5.085938 L 0.832031 5.085938 Z M 0.832031 0.78125 " clip-rule="nonzero"/></clipPath><clipPath id="01ec721a29"><path d="M 2.988281 0.78125 C 1.796875 0.78125 0.832031 1.746094 0.832031 2.933594 C 0.832031 4.125 1.796875 5.085938 2.988281 5.085938 C 4.175781 5.085938 5.140625 4.125 5.140625 2.933594 C 5.140625 1.746094 4.175781 0.78125 2.988281 0.78125 Z M 2.988281 0.78125 " clip-rule="nonzero"/></clipPath><clipPath id="9c9ae0a446"><rect x="0" width="6" y="0" height="6"/></clipPath><clipPath id="cd2a996962"><path d="M 60.496094 62.78125 L 64.800781 62.78125 L 64.800781 67.085938 L 60.496094 67.085938 Z M 60.496094 62.78125 " clip-rule="nonzero"/></clipPath><clipPath id="56feb02607"><path d="M 62.648438 62.78125 C 61.457031 62.78125 60.496094 63.746094 60.496094 64.933594 C 60.496094 66.125 61.457031 67.085938 62.648438 67.085938 C 63.835938 67.085938 64.800781 66.125 64.800781 64.933594 C 64.800781 63.746094 63.835938 62.78125 62.648438 62.78125 Z M 62.648438 62.78125 " clip-rule="nonzero"/></clipPath><clipPath id="3b74c0b816"><path d="M 0.496094 0.78125 L 4.800781 0.78125 L 4.800781 5.085938 L 0.496094 5.085938 Z M 0.496094 0.78125 " clip-rule="nonzero"/></clipPath><clipPath id="a0470e1c79"><path d="M 2.648438 0.78125 C 1.457031 0.78125 0.496094 1.746094 0.496094 2.933594 C 0.496094 4.125 1.457031 5.085938 2.648438 5.085938 C 3.835938 5.085938 4.800781 4.125 4.800781 2.933594 C 4.800781 1.746094 3.835938 0.78125 2.648438 0.78125 Z M 2.648438 0.78125 " clip-rule="nonzero"/></clipPath><clipPath id="4fc74f3650"><rect x="0" width="5" y="0" height="6"/></clipPath><clipPath id="00a6234198"><path d="M 52.164062 53.484375 L 56.46875 53.484375 L 56.46875 57.789062 L 52.164062 57.789062 Z M 52.164062 53.484375 " clip-rule="nonzero"/></clipPath><clipPath id="3549b8c718"><path d="M 54.316406 53.484375 C 53.128906 53.484375 52.164062 54.449219 52.164062 55.636719 C 52.164062 56.824219 53.128906 57.789062 54.316406 57.789062 C 55.503906 57.789062 56.46875 56.824219 56.46875 55.636719 C 56.46875 54.449219 55.503906 53.484375 54.316406 53.484375 Z M 54.316406 53.484375 " clip-rule="nonzero"/></clipPath><clipPath id="4a528f2e62"><path d="M 0.164062 0.484375 L 4.46875 0.484375 L 4.46875 4.789062 L 0.164062 4.789062 Z M 0.164062 0.484375 " clip-rule="nonzero"/></clipPath><clipPath id="e1cc6e4e3b"><path d="M 2.316406 0.484375 C 1.128906 0.484375 0.164062 1.449219 0.164062 2.636719 C 0.164062 3.824219 1.128906 4.789062 2.316406 4.789062 C 3.503906 4.789062 4.46875 3.824219 4.46875 2.636719 C 4.46875 1.449219 3.503906 0.484375 2.316406 0.484375 Z M 2.316406 0.484375 " clip-rule="nonzero"/></clipPath><clipPath id="b49c4ea9a1"><rect x="0" width="5" y="0" height="5"/></clipPath><clipPath id="0272aab6a3"><path d="M 52.164062 42 L 56.46875 42 L 56.46875 46.304688 L 52.164062 46.304688 Z M 52.164062 42 " clip-rule="nonzero"/></clipPath><clipPath id="69d68558cb"><path d="M 54.316406 42 C 53.128906 42 52.164062 42.964844 52.164062 44.152344 C 52.164062 45.339844 53.128906 46.304688 54.316406 46.304688 C 55.503906 46.304688 56.46875 45.339844 56.46875 44.152344 C 56.46875 42.964844 55.503906 42 54.316406 42 Z M 54.316406 42 " clip-rule="nonzero"/></clipPath><clipPath id="facce69e68"><path d="M 0.164062 0 L 4.46875 0 L 4.46875 4.304688 L 0.164062 4.304688 Z M 0.164062 0 " clip-rule="nonzero"/></clipPath><clipPath id="52b10e900b"><path d="M 2.316406 0 C 1.128906 0 0.164062 0.964844 0.164062 2.152344 C 0.164062 3.339844 1.128906 4.304688 2.316406 4.304688 C 3.503906 4.304688 4.46875 3.339844 4.46875 2.152344 C 4.46875 0.964844 3.503906 0 2.316406 0 Z M 2.316406 0 " clip-rule="nonzero"/></clipPath><clipPath id="f023a2ccca"><rect x="0" width="5" y="0" height="5"/></clipPath></defs><path stroke-linecap="butt" transform="matrix(0.000000001309, 0.75, -0.75, 0.000000001309, 36.749998, 0.000002)" fill="none" stroke-linejoin="miter" d="M -0.00000266841 0.999998 L 96.000001 0.999998 " stroke="#ffffff" stroke-width="2" stroke-opacity="1" stroke-miterlimit="4"/><path stroke-linecap="butt" transform="matrix(-0.75, 0, 0, -0.75, 71.999997, 36.75)" fill="none" stroke-linejoin="miter" d="M -0.000004 1.000001 L 96 1.000001 " stroke="#ffffff" stroke-width="2" stroke-opacity="1" stroke-miterlimit="4"/><g transform="matrix(1, 0, 0, 1, 1, -0.000000000000001479)"><g clip-path="url(#a3900c634b)"><g clip-path="url(#05f0d5623e)"><g fill="#ffffff" fill-opacity="1"><g transform="translate(0.718769, 4.500052)"><g><path d="M 3.21875 0 L 2.765625 0 L 2.4375 -0.984375 L 0.90625 -0.984375 L 0.578125 0 L 0.140625 0 L 1.390625 -3.5625 L 1.96875 -3.5625 Z M 1.640625 -3.140625 L 1.03125 -1.328125 L 2.3125 -1.328125 L 1.703125 -3.140625 Z M 1.640625 -3.140625 "/></g></g></g></g></g></g><g transform="matrix(1, 0, 0, 1, 1, 36)"><g clip-path="url(#a5828638c7)"><g fill="#ffffff" fill-opacity="1"><g transform="translate(0.647154, 5.550042)"><g><path d="M 1.96875 0.046875 C 1.65625 0.046875 1.375 -0.0195312 1.125 -0.15625 C 0.882812 -0.300781 0.695312 -0.507812 0.5625 -0.78125 C 0.425781 -1.0625 0.359375 -1.394531 0.359375 -1.78125 C 0.359375 -2.164062 0.425781 -2.492188 0.5625 -2.765625 C 0.695312 -3.046875 0.882812 -3.257812 1.125 -3.40625 C 1.375 -3.550781 1.65625 -3.625 1.96875 -3.625 C 2.300781 -3.625 2.578125 -3.5625 2.796875 -3.4375 C 3.023438 -3.3125 3.1875 -3.117188 3.28125 -2.859375 L 3.015625 -2.6875 L 2.953125 -2.6875 C 2.859375 -2.882812 2.734375 -3.023438 2.578125 -3.109375 C 2.421875 -3.203125 2.21875 -3.25 1.96875 -3.25 C 1.75 -3.25 1.550781 -3.195312 1.375 -3.09375 C 1.195312 -2.988281 1.054688 -2.828125 0.953125 -2.609375 C 0.859375 -2.398438 0.8125 -2.125 0.8125 -1.78125 C 0.8125 -1.445312 0.859375 -1.171875 0.953125 -0.953125 C 1.054688 -0.734375 1.195312 -0.570312 1.375 -0.46875 C 1.550781 -0.375 1.75 -0.328125 1.96875 -0.328125 C 2.226562 -0.328125 2.441406 -0.382812 2.609375 -0.5 C 2.773438 -0.613281 2.894531 -0.800781 2.96875 -1.0625 L 3.03125 -1.0625 L 3.3125 -0.921875 C 3.226562 -0.609375 3.070312 -0.367188 2.84375 -0.203125 C 2.613281 -0.0351562 2.320312 0.046875 1.96875 0.046875 Z M 1.96875 0.046875 "/></g></g></g></g></g><g transform="matrix(1, 0, 0, 1, 37, -0.000000000000001479)"><g clip-path="url(#8323484b94)"><g fill="#ffffff" fill-opacity="1"><g transform="translate(1.129705, 4.500052)"><g><path d="M 0.546875 0 L 0.546875 -3.5625 L 1.890625 -3.5625 C 2.109375 -3.5625 2.296875 -3.523438 2.453125 -3.453125 C 2.609375 -3.390625 2.722656 -3.289062 2.796875 -3.15625 C 2.867188 -3.03125 2.90625 -2.878906 2.90625 -2.703125 C 2.90625 -2.546875 2.863281 -2.40625 2.78125 -2.28125 C 2.695312 -2.15625 2.578125 -2.054688 2.421875 -1.984375 L 2.421875 -1.9375 C 2.660156 -1.875 2.84375 -1.765625 2.96875 -1.609375 C 3.09375 -1.460938 3.15625 -1.269531 3.15625 -1.03125 C 3.15625 -0.695312 3.054688 -0.441406 2.859375 -0.265625 C 2.660156 -0.0859375 2.375 0 2 0 Z M 1.875 -2.078125 C 2.070312 -2.078125 2.222656 -2.125 2.328125 -2.21875 C 2.441406 -2.320312 2.5 -2.46875 2.5 -2.65625 C 2.5 -2.84375 2.445312 -2.984375 2.34375 -3.078125 C 2.238281 -3.171875 2.082031 -3.21875 1.875 -3.21875 L 0.953125 -3.21875 L 0.953125 -2.078125 Z M 1.96875 -0.34375 C 2.46875 -0.34375 2.71875 -0.570312 2.71875 -1.03125 C 2.71875 -1.488281 2.46875 -1.71875 1.96875 -1.71875 L 0.953125 -1.71875 L 0.953125 -0.34375 Z M 1.96875 -0.34375 "/></g></g></g></g></g><g transform="matrix(1, 0, 0, 1, 37, 36)"><g clip-path="url(#e7a52d3769)"><g fill="#ffffff" fill-opacity="1"><g transform="translate(0.950665, 5.550042)"><g><path d="M 1.6875 -3.5625 C 2.050781 -3.5625 2.363281 -3.5 2.625 -3.375 C 2.882812 -3.25 3.082031 -3.050781 3.21875 -2.78125 C 3.363281 -2.519531 3.4375 -2.1875 3.4375 -1.78125 C 3.4375 -1.382812 3.363281 -1.050781 3.21875 -0.78125 C 3.082031 -0.519531 2.882812 -0.320312 2.625 -0.1875 C 2.363281 -0.0625 2.050781 0 1.6875 0 L 0.546875 0 L 0.546875 -3.5625 Z M 1.65625 -0.359375 C 1.945312 -0.359375 2.191406 -0.40625 2.390625 -0.5 C 2.585938 -0.59375 2.734375 -0.742188 2.828125 -0.953125 C 2.929688 -1.160156 2.984375 -1.4375 2.984375 -1.78125 C 2.984375 -2.132812 2.929688 -2.414062 2.828125 -2.625 C 2.734375 -2.832031 2.585938 -2.984375 2.390625 -3.078125 C 2.191406 -3.171875 1.945312 -3.21875 1.65625 -3.21875 L 0.953125 -3.21875 L 0.953125 -0.359375 Z M 1.65625 -0.359375 "/></g></g></g></g></g><g clip-path="url(#88d3e574f8)"><g clip-path="url(#21c5a8e64f)"><g transform="matrix(1, 0, 0, 1, 15, 12)"><g clip-path="url(#df9f73d2bf)"><g clip-path="url(#4df357b36b)"><g clip-path="url(#1064535f42)"><path fill="#ffde59" d="M 0.53125 0 L 4.835938 0 L 4.835938 4.304688 L 0.53125 4.304688 Z M 0.53125 0 " fill-opacity="1" fill-rule="nonzero"/></g></g></g></g></g></g><g clip-path="url(#42c711572f)"><g clip-path="url(#1939da4ae3)"><g transform="matrix(1, 0, 0, 1, 7, 26)"><g clip-path="url(#d6fabdccf9)"><g clip-path="url(#f507c25984)"><g clip-path="url(#d23910e98c)"><path fill="#00bf63" d="M 0.199219 0.976562 L 4.503906 0.976562 L 4.503906 5.28125 L 0.199219 5.28125 Z M 0.199219 0.976562 " fill-opacity="1" fill-rule="nonzero"/></g></g></g></g></g></g><g clip-path="url(#03a2942f4b)"><g clip-path="url(#4372c30ec9)"><g transform="matrix(1, 0, 0, 1, 23, 26)"><g clip-path="url(#2be510dd24)"><g clip-path="url(#ef47d063bd)"><g clip-path="url(#76140ec3df)"><path fill="#cc0000" d="M 0.859375 0.976562 L 5.167969 0.976562 L 5.167969 5.28125 L 0.859375 5.28125 Z M 0.859375 0.976562 " fill-opacity="1" fill-rule="nonzero"/></g></g></g></g></g></g><g clip-path="url(#cec2b30502)"><g clip-path="url(#753aff9f88)"><g transform="matrix(1, 0, 0, 1, 15, 17)"><g clip-path="url(#cc3c35bf6e)"><g clip-path="url(#9ef4a10920)"><g clip-path="url(#fd713349f7)"><path fill="#ffde59" d="M 0.53125 0.679688 L 4.835938 0.679688 L 4.835938 4.984375 L 0.53125 4.984375 Z M 0.53125 0.679688 " fill-opacity="1" fill-rule="nonzero"/></g></g></g></g></g></g><g clip-path="url(#5feda62762)"><g clip-path="url(#310e022457)"><g transform="matrix(1, 0, 0, 1, 15, 6)"><g clip-path="url(#979696e6a3)"><g clip-path="url(#a74f6c2296)"><g clip-path="url(#f945870519)"><path fill="#ffffff" d="M 0.53125 0.195312 L 4.835938 0.195312 L 4.835938 4.5 L 0.53125 4.5 Z M 0.53125 0.195312 " fill-opacity="1" fill-rule="nonzero"/></g></g></g></g></g></g><g clip-path="url(#2b2d9f10ab)"><g clip-path="url(#bff7aba34f)"><g transform="matrix(1, 0, 0, 1, 52, 12)"><g clip-path="url(#b16c1b4b22)"><g clip-path="url(#542fb5cd86)"><g clip-path="url(#04c9c0e3a7)"><path fill="#ffffff" d="M 0.164062 0 L 4.46875 0 L 4.46875 4.304688 L 0.164062 4.304688 Z M 0.164062 0 " fill-opacity="1" fill-rule="nonzero"/></g></g></g></g></g></g><g clip-path="url(#76f6f49caf)"><g clip-path="url(#70c125c14b)"><g transform="matrix(1, 0, 0, 1, 43, 26)"><g clip-path="url(#4064e6bec2)"><g clip-path="url(#d617f4bd9b)"><g clip-path="url(#26971e2814)"><path fill="#00bf63" d="M 0.832031 0.976562 L 5.140625 0.976562 L 5.140625 5.28125 L 0.832031 5.28125 Z M 0.832031 0.976562 " fill-opacity="1" fill-rule="nonzero"/></g></g></g></g></g></g><g clip-path="url(#94993677ff)"><g clip-path="url(#55e28da69d)"><g transform="matrix(1, 0, 0, 1, 60, 26)"><g clip-path="url(#8f6a8ab9ca)"><g clip-path="url(#44e9679b56)"><g clip-path="url(#138f6613df)"><path fill="#cc0000" d="M 0.496094 0.976562 L 4.800781 0.976562 L 4.800781 5.28125 L 0.496094 5.28125 Z M 0.496094 0.976562 " fill-opacity="1" fill-rule="nonzero"/></g></g></g></g></g></g><g clip-path="url(#479c71b37d)"><g clip-path="url(#243e381f83)"><g transform="matrix(1, 0, 0, 1, 52, 17)"><g clip-path="url(#38b43b7507)"><g clip-path="url(#3f4fb2fcef)"><g clip-path="url(#d51314e7e4)"><path fill="#ffffff" d="M 0.164062 0.679688 L 4.46875 0.679688 L 4.46875 4.984375 L 0.164062 4.984375 Z M 0.164062 0.679688 " fill-opacity="1" fill-rule="nonzero"/></g></g></g></g></g></g><g clip-path="url(#8ddd12306c)"><g clip-path="url(#b67b8bbacc)"><g transform="matrix(1, 0, 0, 1, 15, 47)"><g clip-path="url(#0fa6c7b7fc)"><g clip-path="url(#675d236d80)"><g clip-path="url(#86d8b0fa68)"><path fill="#ffffff" d="M 0.53125 0.804688 L 4.835938 0.804688 L 4.835938 5.109375 L 0.53125 5.109375 Z M 0.53125 0.804688 " fill-opacity="1" fill-rule="nonzero"/></g></g></g></g></g></g><g clip-path="url(#532c5f0d68)"><g clip-path="url(#e39a47bd36)"><g transform="matrix(1, 0, 0, 1, 7, 62)"><g clip-path="url(#3d5adb52a2)"><g clip-path="url(#ac69d82311)"><g clip-path="url(#be1fd8ff6b)"><path fill="#00bf63" d="M 0.199219 0.78125 L 4.503906 0.78125 L 4.503906 5.085938 L 0.199219 5.085938 Z M 0.199219 0.78125 " fill-opacity="1" fill-rule="nonzero"/></g></g></g></g></g></g><g clip-path="url(#bff21cba97)"><g clip-path="url(#84be6b77d7)"><g transform="matrix(1, 0, 0, 1, 23, 62)"><g clip-path="url(#68139736a4)"><g clip-path="url(#272a4fd710)"><g clip-path="url(#b049b1b40a)"><path fill="#cc0000" d="M 0.859375 0.78125 L 5.167969 0.78125 L 5.167969 5.085938 L 0.859375 5.085938 Z M 0.859375 0.78125 " fill-opacity="1" fill-rule="nonzero"/></g></g></g></g></g></g><g clip-path="url(#cdb17fa254)"><g clip-path="url(#57c1c0bef2)"><g transform="matrix(1, 0, 0, 1, 15, 53)"><g clip-path="url(#35a7777635)"><g clip-path="url(#b3d6d1de06)"><g clip-path="url(#df9431c593)"><path fill="#ffffff" d="M 0.53125 0.484375 L 4.835938 0.484375 L 4.835938 4.789062 L 0.53125 4.789062 Z M 0.53125 0.484375 " fill-opacity="1" fill-rule="nonzero"/></g></g></g></g></g></g><g clip-path="url(#455671602a)"><g clip-path="url(#21cacb8468)"><g transform="matrix(1, 0, 0, 1, 15, 42)"><g clip-path="url(#ba2c07c82c)"><g clip-path="url(#a02704fe0e)"><g clip-path="url(#4bed0eb2f2)"><path fill="#ffffff" d="M 0.53125 0 L 4.835938 0 L 4.835938 4.304688 L 0.53125 4.304688 Z M 0.53125 0 " fill-opacity="1" fill-rule="nonzero"/></g></g></g></g></g></g><g clip-path="url(#13e7fdd396)"><g clip-path="url(#741277f7d1)"><g transform="matrix(1, 0, 0, 1, 52, 47)"><g clip-path="url(#e49bb0926f)"><g clip-path="url(#8b2fd51578)"><g clip-path="url(#e26927f739)"><path fill="#ffffff" d="M 0.164062 0.804688 L 4.46875 0.804688 L 4.46875 5.109375 L 0.164062 5.109375 Z M 0.164062 0.804688 " fill-opacity="1" fill-rule="nonzero"/></g></g></g></g></g></g><g clip-path="url(#031a2adce0)"><g clip-path="url(#06c1e3d1c2)"><g transform="matrix(1, 0, 0, 1, 43, 62)"><g clip-path="url(#9c9ae0a446)"><g clip-path="url(#e694cd3b48)"><g clip-path="url(#01ec721a29)"><path fill="#00bf63" d="M 0.832031 0.78125 L 5.140625 0.78125 L 5.140625 5.085938 L 0.832031 5.085938 Z M 0.832031 0.78125 " fill-opacity="1" fill-rule="nonzero"/></g></g></g></g></g></g><g clip-path="url(#cd2a996962)"><g clip-path="url(#56feb02607)"><g transform="matrix(1, 0, 0, 1, 60, 62)"><g clip-path="url(#4fc74f3650)"><g clip-path="url(#3b74c0b816)"><g clip-path="url(#a0470e1c79)"><path fill="#cc0000" d="M 0.496094 0.78125 L 4.800781 0.78125 L 4.800781 5.085938 L 0.496094 5.085938 Z M 0.496094 0.78125 " fill-opacity="1" fill-rule="nonzero"/></g></g></g></g></g></g><g clip-path="url(#00a6234198)"><g clip-path="url(#3549b8c718)"><g transform="matrix(1, 0, 0, 1, 52, 53)"><g clip-path="url(#b49c4ea9a1)"><g clip-path="url(#4a528f2e62)"><g clip-path="url(#e1cc6e4e3b)"><path fill="#ffffff" d="M 0.164062 0.484375 L 4.46875 0.484375 L 4.46875 4.789062 L 0.164062 4.789062 Z M 0.164062 0.484375 " fill-opacity="1" fill-rule="nonzero"/></g></g></g></g></g></g><g clip-path="url(#0272aab6a3)"><g clip-path="url(#69d68558cb)"><g transform="matrix(1, 0, 0, 1, 52, 42)"><g clip-path="url(#f023a2ccca)"><g clip-path="url(#facce69e68)"><g clip-path="url(#52b10e900b)"><path fill="#ffde59" d="M 0.164062 0 L 4.46875 0 L 4.46875 4.304688 L 0.164062 4.304688 Z M 0.164062 0 " fill-opacity="1" fill-rule="nonzero"/></g></g></g></g></g></g></svg>