<svg xmlns="http://www.w3.org/2000/svg" xmlns:xlink="http://www.w3.org/1999/xlink" width="96" zoomAndPan="magnify" viewBox="0 0 72 72" height="96" preserveAspectRatio="xMidYMid meet" version="1.0"><defs><g/><clipPath id="50817f24ff"><path d="M 17 48 L 34 48 L 34 64 L 17 64 Z M 17 48 " clip-rule="nonzero"/></clipPath><clipPath id="b2a87a5f4c"><path d="M 35.804688 51.152344 L 21.269531 64.640625 L 16.402344 59.394531 L 30.9375 45.910156 Z M 35.804688 51.152344 " clip-rule="nonzero"/></clipPath><clipPath id="dd4ffe8f30"><path d="M 22.289062 63.65625 L 31.582031 55.03125 C 31.941406 54.699219 32.195312 54.269531 32.308594 53.792969 L 33.46875 48.984375 C 33.507812 48.824219 33.464844 48.652344 33.351562 48.53125 C 33.238281 48.40625 33.070312 48.351562 32.90625 48.378906 L 28.023438 49.175781 C 27.542969 49.253906 27.09375 49.476562 26.734375 49.808594 L 17.441406 58.429688 C 17.441406 58.429688 17.136719 60.148438 18.84375 61.992188 C 20.554688 63.832031 22.289062 63.65625 22.289062 63.65625 Z M 22.289062 63.65625 " clip-rule="nonzero"/></clipPath><clipPath id="2ece8775f2"><path d="M 0.0390625 0.238281 L 16.601562 0.238281 L 16.601562 15.839844 L 0.0390625 15.839844 Z M 0.0390625 0.238281 " clip-rule="nonzero"/></clipPath><clipPath id="4701a0a814"><path d="M 18.804688 3.152344 L 4.269531 16.640625 L -0.597656 11.394531 L 13.9375 -2.089844 Z M 18.804688 3.152344 " clip-rule="nonzero"/></clipPath><clipPath id="18ded88f91"><path d="M 5.289062 15.65625 L 14.582031 7.03125 C 14.941406 6.699219 15.195312 6.269531 15.308594 5.792969 L 16.46875 0.984375 C 16.507812 0.824219 16.464844 0.652344 16.351562 0.53125 C 16.238281 0.40625 16.070312 0.351562 15.90625 0.378906 L 11.023438 1.175781 C 10.542969 1.253906 10.09375 1.476562 9.734375 1.808594 L 0.441406 10.429688 C 0.441406 10.429688 0.136719 12.148438 1.84375 13.992188 C 3.554688 15.832031 5.289062 15.65625 5.289062 15.65625 Z M 5.289062 15.65625 " clip-rule="nonzero"/></clipPath><clipPath id="b7f6d678a5"><rect x="0" width="17" y="0" height="16"/></clipPath><clipPath id="0474a08268"><path d="M 26.238281 23.996094 L 46.0625 23.996094 L 46.0625 31.152344 L 26.238281 31.152344 Z M 26.238281 23.996094 " clip-rule="nonzero"/></clipPath><clipPath id="2c231e7a84"><path d="M 27.652344 31.125 L 40.332031 31.125 C 40.820312 31.125 41.296875 30.980469 41.707031 30.710938 L 45.828125 27.976562 C 45.964844 27.882812 46.050781 27.726562 46.050781 27.5625 C 46.050781 27.394531 45.964844 27.238281 45.828125 27.144531 L 41.707031 24.410156 C 41.296875 24.140625 40.820312 23.996094 40.332031 23.996094 L 27.652344 23.996094 C 27.652344 23.996094 26.261719 25.050781 26.261719 27.5625 C 26.261719 30.070312 27.652344 31.125 27.652344 31.125 Z M 27.652344 31.125 " clip-rule="nonzero"/></clipPath><clipPath id="c62ecc3dce"><path d="M 0.238281 0.996094 L 20.0625 0.996094 L 20.0625 8.152344 L 0.238281 8.152344 Z M 0.238281 0.996094 " clip-rule="nonzero"/></clipPath><clipPath id="75fedef0a6"><path d="M 1.652344 8.125 L 14.332031 8.125 C 14.820312 8.125 15.296875 7.980469 15.707031 7.710938 L 19.828125 4.976562 C 19.964844 4.882812 20.050781 4.726562 20.050781 4.5625 C 20.050781 4.394531 19.964844 4.238281 19.828125 4.144531 L 15.707031 1.410156 C 15.296875 1.140625 14.820312 0.996094 14.332031 0.996094 L 1.652344 0.996094 C 1.652344 0.996094 0.261719 2.050781 0.261719 4.5625 C 0.261719 7.070312 1.652344 8.125 1.652344 8.125 Z M 1.652344 8.125 " clip-rule="nonzero"/></clipPath><clipPath id="2b457185e1"><rect x="0" width="21" y="0" height="9"/></clipPath><clipPath id="0c3a204133"><path d="M 1 2 L 4.921875 2 L 4.921875 7 L 1 7 Z M 1 2 " clip-rule="nonzero"/></clipPath><clipPath id="23fd3f9547"><rect x="0" width="5" y="0" height="8"/></clipPath><clipPath id="d1e59efff5"><path d="M 0.480469 2 L 4 2 L 4 6 L 0.480469 6 Z M 0.480469 2 " clip-rule="nonzero"/></clipPath><clipPath id="f93c1dba1f"><rect x="0" width="5" y="0" height="8"/></clipPath></defs><g clip-path="url(#50817f24ff)"><g clip-path="url(#b2a87a5f4c)"><g clip-path="url(#dd4ffe8f30)"><g transform="matrix(1, 0, 0, 1, 17, 48)"><g clip-path="url(#b7f6d678a5)"><g clip-path="url(#2ece8775f2)"><g clip-path="url(#4701a0a814)"><g clip-path="url(#18ded88f91)"><path fill="#000000" d="M 19.070312 2.867188 L 4.273438 16.601562 L -0.574219 11.375 L 14.222656 -2.355469 Z M 19.070312 2.867188 " fill-opacity="1" fill-rule="nonzero"/></g></g></g></g></g></g></g></g><g clip-path="url(#0474a08268)"><g clip-path="url(#2c231e7a84)"><g transform="matrix(1, 0, 0, 1, 26, 23)"><g clip-path="url(#2b457185e1)"><g clip-path="url(#c62ecc3dce)"><g clip-path="url(#75fedef0a6)"><path fill="#000000" d="M 20.453125 8.125 L 0.265625 8.125 L 0.265625 0.996094 L 20.453125 0.996094 Z M 20.453125 8.125 " fill-opacity="1" fill-rule="nonzero"/></g></g></g></g></g></g><path fill="#000000" d="M 42.132812 27.1875 L 42.882812 27.1875 L 42.882812 27.9375 L 42.132812 27.9375 M 43.632812 27.1875 L 44.382812 27.1875 L 44.382812 27.9375 L 43.632812 27.9375 M 45.132812 27.1875 L 45.882812 27.1875 L 45.882812 27.9375 L 45.132812 27.9375 M 46.632812 27.1875 L 47.382812 27.1875 L 47.382812 27.9375 L 46.632812 27.9375 M 48.132812 27.1875 L 48.882812 27.1875 L 48.882812 27.9375 L 48.132812 27.9375 M 49.632812 27.1875 L 50.382812 27.1875 L 50.382812 27.9375 L 49.632812 27.9375 " fill-opacity="1" fill-rule="nonzero"/><path stroke-linecap="round" transform="matrix(0.75, 0, 0, 0.75, 42.132879, 27.189024)" fill="none" stroke-linejoin="round" d="M 9.020745 -1.002033 L 11.020745 0.497968 L 9.020745 1.997968 " stroke="#000000" stroke-width="1" stroke-opacity="1" stroke-miterlimit="4"/><path fill="#000000" d="M 30.226562 50.921875 L 30.773438 50.410156 L 31.285156 50.960938 L 30.734375 51.472656 M 31.324219 49.902344 L 31.875 49.390625 L 32.382812 49.941406 L 31.835938 50.449219 M 32.425781 48.878906 L 32.972656 48.371094 L 33.484375 48.921875 L 32.933594 49.429688 M 33.523438 47.859375 L 34.074219 47.351562 L 34.582031 47.898438 L 34.035156 48.410156 M 34.625 46.839844 L 35.171875 46.328125 L 35.683594 46.878906 L 35.132812 47.390625 M 35.722656 45.820312 L 36.273438 45.308594 L 36.78125 45.859375 L 36.234375 46.371094 " fill-opacity="1" fill-rule="nonzero"/><path stroke-linecap="round" transform="matrix(0.549765, -0.510155, 0.510155, 0.549765, 30.224933, 50.921162)" fill="none" stroke-linejoin="round" d="M 9.018498 -1.001881 L 11.02055 0.500659 L 9.020043 1.997992 " stroke="#000000" stroke-width="1" stroke-opacity="1" stroke-miterlimit="4"/><g transform="matrix(1, 0, 0, 1, 33, 23)"><g clip-path="url(#23fd3f9547)"><g clip-path="url(#0c3a204133)"><g fill="#ffffff" fill-opacity="1"><g transform="translate(1.054107, 6.230685)"><g><path d="M 0.546875 0 L 0.546875 -3.5625 L 1.890625 -3.5625 C 2.109375 -3.5625 2.296875 -3.523438 2.453125 -3.453125 C 2.609375 -3.390625 2.722656 -3.289062 2.796875 -3.15625 C 2.867188 -3.03125 2.90625 -2.878906 2.90625 -2.703125 C 2.90625 -2.546875 2.863281 -2.40625 2.78125 -2.28125 C 2.695312 -2.15625 2.578125 -2.054688 2.421875 -1.984375 L 2.421875 -1.9375 C 2.660156 -1.875 2.84375 -1.765625 2.96875 -1.609375 C 3.09375 -1.460938 3.15625 -1.269531 3.15625 -1.03125 C 3.15625 -0.695312 3.054688 -0.441406 2.859375 -0.265625 C 2.660156 -0.0859375 2.375 0 2 0 Z M 1.875 -2.078125 C 2.070312 -2.078125 2.222656 -2.125 2.328125 -2.21875 C 2.441406 -2.320312 2.5 -2.46875 2.5 -2.65625 C 2.5 -2.84375 2.445312 -2.984375 2.34375 -3.078125 C 2.238281 -3.171875 2.082031 -3.21875 1.875 -3.21875 L 0.953125 -3.21875 L 0.953125 -2.078125 Z M 1.96875 -0.34375 C 2.46875 -0.34375 2.71875 -0.570312 2.71875 -1.03125 C 2.71875 -1.488281 2.46875 -1.71875 1.96875 -1.71875 L 0.953125 -1.71875 L 0.953125 -0.34375 Z M 1.96875 -0.34375 "/></g></g></g></g></g></g><g transform="matrix(1, 0, 0, 1, 24, 51)"><g clip-path="url(#f93c1dba1f)"><g clip-path="url(#d1e59efff5)"><g fill="#ffffff" fill-opacity="1"><g transform="translate(0.519063, 5.792569)"><g><path d="M 3.21875 0 L 2.765625 0 L 2.4375 -0.984375 L 0.90625 -0.984375 L 0.578125 0 L 0.140625 0 L 1.390625 -3.5625 L 1.96875 -3.5625 Z M 1.640625 -3.140625 L 1.03125 -1.328125 L 2.3125 -1.328125 L 1.703125 -3.140625 Z M 1.640625 -3.140625 "/></g></g></g></g></g></g></svg>