<svg xmlns="http://www.w3.org/2000/svg" xmlns:xlink="http://www.w3.org/1999/xlink" width="96" zoomAndPan="magnify" viewBox="0 0 72 72" height="96" preserveAspectRatio="xMidYMid meet" version="1.0"><defs><g/><clipPath id="6d5422946f"><path d="M 7.175781 32.433594 L 27 32.433594 L 27 39.589844 L 7.175781 39.589844 Z M 7.175781 32.433594 " clip-rule="nonzero"/></clipPath><clipPath id="3ab2dec227"><path d="M 8.59375 39.5625 L 21.269531 39.5625 C 21.757812 39.5625 22.238281 39.417969 22.644531 39.144531 L 26.765625 36.410156 C 26.90625 36.320312 26.988281 36.164062 26.988281 35.996094 C 26.988281 35.832031 26.90625 35.675781 26.765625 35.582031 L 22.644531 32.847656 C 22.238281 32.578125 21.757812 32.433594 21.269531 32.433594 L 8.59375 32.433594 C 8.59375 32.433594 7.199219 33.484375 7.199219 35.996094 C 7.199219 38.507812 8.59375 39.5625 8.59375 39.5625 Z M 8.59375 39.5625 " clip-rule="nonzero"/></clipPath><clipPath id="7b7d43c452"><path d="M 0.175781 0.433594 L 20 0.433594 L 20 7.589844 L 0.175781 7.589844 Z M 0.175781 0.433594 " clip-rule="nonzero"/></clipPath><clipPath id="39d44a3678"><path d="M 1.59375 7.5625 L 14.269531 7.5625 C 14.757812 7.5625 15.238281 7.417969 15.644531 7.144531 L 19.765625 4.410156 C 19.90625 4.320312 19.988281 4.164062 19.988281 3.996094 C 19.988281 3.832031 19.90625 3.675781 19.765625 3.582031 L 15.644531 0.847656 C 15.238281 0.578125 14.757812 0.433594 14.269531 0.433594 L 1.59375 0.433594 C 1.59375 0.433594 0.199219 1.484375 0.199219 3.996094 C 0.199219 6.507812 1.59375 7.5625 1.59375 7.5625 Z M 1.59375 7.5625 " clip-rule="nonzero"/></clipPath><clipPath id="4f283c3f1a"><rect x="0" width="20" y="0" height="8"/></clipPath><clipPath id="a9587075a2"><rect x="0" width="3" y="0" height="8"/></clipPath><clipPath id="21b6e39411"><path d="M 45 12 L 64.824219 12 L 64.824219 19.128906 L 45 19.128906 Z M 45 12 " clip-rule="nonzero"/></clipPath><clipPath id="ee797f5b55"><path d="M 63.40625 12 L 50.730469 12 C 50.242188 12 49.761719 12.144531 49.355469 12.414062 L 45.234375 15.148438 C 45.09375 15.242188 45.011719 15.398438 45.011719 15.5625 C 45.011719 15.730469 45.09375 15.886719 45.234375 15.980469 L 49.355469 18.714844 C 49.761719 18.984375 50.242188 19.128906 50.730469 19.128906 L 63.40625 19.128906 C 63.40625 19.128906 64.800781 18.074219 64.800781 15.5625 C 64.800781 13.054688 63.40625 12 63.40625 12 Z M 63.40625 12 " clip-rule="nonzero"/></clipPath><clipPath id="c0e3c36bea"><path d="M 0 0 L 19.800781 0 L 19.800781 7.128906 L 0 7.128906 Z M 0 0 " clip-rule="nonzero"/></clipPath><clipPath id="4a45eaac8e"><path d="M 18.40625 0 L 5.730469 0 C 5.242188 0 4.761719 0.144531 4.355469 0.414062 L 0.234375 3.148438 C 0.09375 3.242188 0.0117188 3.398438 0.0117188 3.5625 C 0.0117188 3.730469 0.09375 3.886719 0.234375 3.980469 L 4.355469 6.714844 C 4.761719 6.984375 5.242188 7.128906 5.730469 7.128906 L 18.40625 7.128906 C 18.40625 7.128906 19.800781 6.074219 19.800781 3.5625 C 19.800781 1.054688 18.40625 0 18.40625 0 Z M 18.40625 0 " clip-rule="nonzero"/></clipPath><clipPath id="a35d397d5c"><rect x="0" width="20" y="0" height="8"/></clipPath><clipPath id="46aa04d1c0"><path d="M 45 52.84375 L 64.824219 52.84375 L 64.824219 60 L 45 60 Z M 45 52.84375 " clip-rule="nonzero"/></clipPath><clipPath id="d4f3056d44"><path d="M 63.40625 52.871094 L 50.730469 52.871094 C 50.242188 52.871094 49.761719 53.015625 49.355469 53.285156 L 45.234375 56.019531 C 45.09375 56.113281 45.011719 56.269531 45.011719 56.4375 C 45.011719 56.601562 45.09375 56.757812 45.234375 56.851562 L 49.355469 59.585938 C 49.761719 59.855469 50.242188 60 50.730469 60 L 63.40625 60 C 63.40625 60 64.800781 58.945312 64.800781 56.4375 C 64.800781 53.925781 63.40625 52.871094 63.40625 52.871094 Z M 63.40625 52.871094 " clip-rule="nonzero"/></clipPath><clipPath id="a9ad3a2033"><path d="M 0 0.84375 L 19.800781 0.84375 L 19.800781 8 L 0 8 Z M 0 0.84375 " clip-rule="nonzero"/></clipPath><clipPath id="e3dc82559f"><path d="M 18.40625 0.871094 L 5.730469 0.871094 C 5.242188 0.871094 4.761719 1.015625 4.355469 1.285156 L 0.234375 4.019531 C 0.09375 4.113281 0.0117188 4.269531 0.0117188 4.4375 C 0.0117188 4.601562 0.09375 4.757812 0.234375 4.851562 L 4.355469 7.585938 C 4.761719 7.855469 5.242188 8 5.730469 8 L 18.40625 8 C 18.40625 8 19.800781 6.945312 19.800781 4.4375 C 19.800781 1.925781 18.40625 0.871094 18.40625 0.871094 Z M 18.40625 0.871094 " clip-rule="nonzero"/></clipPath><clipPath id="fefe4e72f6"><rect x="0" width="20" y="0" height="8"/></clipPath><clipPath id="4844128c0b"><rect x="0" width="5" y="0" height="8"/></clipPath><clipPath id="f776caf294"><rect x="0" width="7" y="0" height="8"/></clipPath></defs><g clip-path="url(#6d5422946f)"><g clip-path="url(#3ab2dec227)"><g transform="matrix(1, 0, 0, 1, 7, 32)"><g clip-path="url(#4f283c3f1a)"><g clip-path="url(#7b7d43c452)"><g clip-path="url(#39d44a3678)"><path fill="#000000" d="M 20.390625 7.5625 L 0.203125 7.5625 L 0.203125 0.433594 L 20.390625 0.433594 Z M 20.390625 7.5625 " fill-opacity="1" fill-rule="nonzero"/></g></g></g></g></g></g><path fill="#000000" d="M 23.070312 35.625 L 23.820312 35.625 L 23.820312 36.375 L 23.070312 36.375 M 24.570312 35.625 L 25.320312 35.625 L 25.320312 36.375 L 24.570312 36.375 M 26.070312 35.625 L 26.820312 35.625 L 26.820312 36.375 L 26.070312 36.375 M 27.570312 35.625 L 28.320312 35.625 L 28.320312 36.375 L 27.570312 36.375 M 29.070312 35.625 L 29.820312 35.625 L 29.820312 36.375 L 29.070312 36.375 M 30.570312 35.625 L 31.320312 35.625 L 31.320312 36.375 L 30.570312 36.375 " fill-opacity="1" fill-rule="nonzero"/><path stroke-linecap="round" transform="matrix(0.75, 0, 0, 0.75, 23.071528, 35.625001)" fill="none" stroke-linejoin="round" d="M 9.019213 -1.000001 L 11.019213 0.499999 L 9.019213 1.999999 " stroke="#000000" stroke-width="1" stroke-opacity="1" stroke-miterlimit="4"/><g transform="matrix(1, 0, 0, 1, 15, 32)"><g clip-path="url(#a9587075a2)"><g fill="#ffffff" fill-opacity="1"><g transform="translate(0.956312, 5.666683)"><g><path d="M 0.953125 0 L 0.546875 0 L 0.546875 -3.5625 L 0.953125 -3.5625 Z M 0.953125 0 "/></g></g></g></g></g><g clip-path="url(#21b6e39411)"><g clip-path="url(#ee797f5b55)"><g transform="matrix(1, 0, 0, 1, 45, 12)"><g clip-path="url(#a35d397d5c)"><g clip-path="url(#c0e3c36bea)"><g clip-path="url(#4a45eaac8e)"><path fill="#000000" d="M -0.390625 0 L 19.796875 0 L 19.796875 7.128906 L -0.390625 7.128906 Z M -0.390625 0 " fill-opacity="1" fill-rule="nonzero"/></g></g></g></g></g></g><path fill="#000000" d="M 48.925781 15.9375 L 48.175781 15.9375 L 48.175781 15.1875 L 48.925781 15.1875 M 47.425781 15.9375 L 46.675781 15.9375 L 46.675781 15.1875 L 47.425781 15.1875 M 45.925781 15.9375 L 45.175781 15.9375 L 45.175781 15.1875 L 45.925781 15.1875 M 44.425781 15.9375 L 43.675781 15.9375 L 43.675781 15.1875 L 44.425781 15.1875 M 42.925781 15.9375 L 42.175781 15.9375 L 42.175781 15.1875 L 42.925781 15.1875 M 41.425781 15.9375 L 40.675781 15.9375 L 40.675781 15.1875 L 41.425781 15.1875 " fill-opacity="1" fill-rule="nonzero"/><path stroke-linecap="round" transform="matrix(-0.75, 0, 0, -0.75, 48.925186, 15.939003)" fill="none" stroke-linejoin="round" d="M 9.02004 -0.997996 L 11.02004 0.502004 L 9.02004 2.002004 " stroke="#000000" stroke-width="1" stroke-opacity="1" stroke-miterlimit="4"/><g clip-path="url(#46aa04d1c0)"><g clip-path="url(#d4f3056d44)"><g transform="matrix(1, 0, 0, 1, 45, 52)"><g clip-path="url(#fefe4e72f6)"><g clip-path="url(#a9ad3a2033)"><g clip-path="url(#e3dc82559f)"><path fill="#000000" d="M -0.390625 0.871094 L 19.796875 0.871094 L 19.796875 8 L -0.390625 8 Z M -0.390625 0.871094 " fill-opacity="1" fill-rule="nonzero"/></g></g></g></g></g></g><path fill="#000000" d="M 48.925781 56.8125 L 48.175781 56.8125 L 48.175781 56.0625 L 48.925781 56.0625 M 47.425781 56.8125 L 46.675781 56.8125 L 46.675781 56.0625 L 47.425781 56.0625 M 45.925781 56.8125 L 45.175781 56.8125 L 45.175781 56.0625 L 45.925781 56.0625 M 44.425781 56.8125 L 43.675781 56.8125 L 43.675781 56.0625 L 44.425781 56.0625 M 42.925781 56.8125 L 42.175781 56.8125 L 42.175781 56.0625 L 42.925781 56.0625 M 41.425781 56.8125 L 40.675781 56.8125 L 40.675781 56.0625 L 41.425781 56.0625 " fill-opacity="1" fill-rule="nonzero"/><path stroke-linecap="round" transform="matrix(-0.75, 0, 0, -0.75, 48.925186, 56.811002)" fill="none" stroke-linejoin="round" d="M 9.02004 -1.001997 L 11.02004 0.498003 L 9.02004 1.998003 " stroke="#000000" stroke-width="1" stroke-opacity="1" stroke-miterlimit="4"/><g transform="matrix(1, 0, 0, 1, 52, 11)"><g clip-path="url(#4844128c0b)"><g fill="#ffffff" fill-opacity="1"><g transform="translate(1.200308, 6.230686)"><g><path d="M 0.953125 0 L 0.546875 0 L 0.546875 -3.5625 L 0.953125 -3.5625 Z M 0.953125 0 "/></g></g><g transform="translate(2.701789, 6.230686)"><g><path d="M 0.953125 0 L 0.546875 0 L 0.546875 -3.5625 L 0.953125 -3.5625 Z M 0.953125 0 "/></g></g></g></g></g><g transform="matrix(1, 0, 0, 1, 52, 52)"><g clip-path="url(#f776caf294)"><g fill="#ffffff" fill-opacity="1"><g transform="translate(1.122182, 6.102681)"><g><path d="M 0.953125 0 L 0.546875 0 L 0.546875 -3.5625 L 0.953125 -3.5625 Z M 0.953125 0 "/></g></g><g transform="translate(2.623663, 6.102681)"><g><path d="M 0.953125 0 L 0.546875 0 L 0.546875 -3.5625 L 0.953125 -3.5625 Z M 0.953125 0 "/></g></g><g transform="translate(4.125145, 6.102681)"><g><path d="M 0.953125 0 L 0.546875 0 L 0.546875 -3.5625 L 0.953125 -3.5625 Z M 0.953125 0 "/></g></g></g></g></g></svg>