<svg xmlns="http://www.w3.org/2000/svg" xmlns:xlink="http://www.w3.org/1999/xlink" width="96" zoomAndPan="magnify" viewBox="0 0 72 72" height="96" preserveAspectRatio="xMidYMid meet" version="1.0"><defs><clipPath id="fe4f8190c1"><path d="M 42.34375 12 L 52.695312 12 L 52.695312 22.351562 L 42.34375 22.351562 Z M 42.34375 12 " clip-rule="nonzero"/></clipPath><clipPath id="92b39778f8"><path d="M 47.519531 12 C 44.660156 12 42.34375 14.316406 42.34375 17.175781 C 42.34375 20.03125 44.660156 22.351562 47.519531 22.351562 C 50.378906 22.351562 52.695312 20.03125 52.695312 17.175781 C 52.695312 14.316406 50.378906 12 47.519531 12 Z M 47.519531 12 " clip-rule="nonzero"/></clipPath><clipPath id="1fb5b53b6c"><path d="M 0.34375 0 L 10.695312 0 L 10.695312 10.351562 L 0.34375 10.351562 Z M 0.34375 0 " clip-rule="nonzero"/></clipPath><clipPath id="ccda4e36b1"><path d="M 5.519531 0 C 2.660156 0 0.34375 2.316406 0.34375 5.175781 C 0.34375 8.03125 2.660156 10.351562 5.519531 10.351562 C 8.378906 10.351562 10.695312 8.03125 10.695312 5.175781 C 10.695312 2.316406 8.378906 0 5.519531 0 Z M 5.519531 0 " clip-rule="nonzero"/></clipPath><clipPath id="c83b94f129"><rect x="0" width="11" y="0" height="11"/></clipPath><clipPath id="80f6d1ded1"><path d="M 42.34375 25.648438 L 52.695312 25.648438 L 52.695312 36 L 42.34375 36 Z M 42.34375 25.648438 " clip-rule="nonzero"/></clipPath><clipPath id="286ddfb81a"><path d="M 47.519531 25.648438 C 44.660156 25.648438 42.34375 27.96875 42.34375 30.824219 C 42.34375 33.683594 44.660156 36 47.519531 36 C 50.378906 36 52.695312 33.683594 52.695312 30.824219 C 52.695312 27.96875 50.378906 25.648438 47.519531 25.648438 Z M 47.519531 25.648438 " clip-rule="nonzero"/></clipPath><clipPath id="644ce5eee0"><path d="M 0.34375 0.648438 L 10.695312 0.648438 L 10.695312 11 L 0.34375 11 Z M 0.34375 0.648438 " clip-rule="nonzero"/></clipPath><clipPath id="436aa6ade2"><path d="M 5.519531 0.648438 C 2.660156 0.648438 0.34375 2.96875 0.34375 5.824219 C 0.34375 8.683594 2.660156 11 5.519531 11 C 8.378906 11 10.695312 8.683594 10.695312 5.824219 C 10.695312 2.96875 8.378906 0.648438 5.519531 0.648438 Z M 5.519531 0.648438 " clip-rule="nonzero"/></clipPath><clipPath id="a331d25ef7"><rect x="0" width="11" y="0" height="11"/></clipPath><clipPath id="1f393438d9"><path d="M 19.304688 48 L 29.65625 48 L 29.65625 58.351562 L 19.304688 58.351562 Z M 19.304688 48 " clip-rule="nonzero"/></clipPath><clipPath id="99eb0f4422"><path d="M 24.480469 48 C 21.621094 48 19.304688 50.316406 19.304688 53.175781 C 19.304688 56.03125 21.621094 58.351562 24.480469 58.351562 C 27.339844 58.351562 29.65625 56.03125 29.65625 53.175781 C 29.65625 50.316406 27.339844 48 24.480469 48 Z M 24.480469 48 " clip-rule="nonzero"/></clipPath><clipPath id="a0c20ee195"><path d="M 0.304688 0 L 10.65625 0 L 10.65625 10.351562 L 0.304688 10.351562 Z M 0.304688 0 " clip-rule="nonzero"/></clipPath><clipPath id="90726f9a12"><path d="M 5.480469 0 C 2.621094 0 0.304688 2.316406 0.304688 5.175781 C 0.304688 8.03125 2.621094 10.351562 5.480469 10.351562 C 8.339844 10.351562 10.65625 8.03125 10.65625 5.175781 C 10.65625 2.316406 8.339844 0 5.480469 0 Z M 5.480469 0 " clip-rule="nonzero"/></clipPath><clipPath id="28a26f797e"><rect x="0" width="11" y="0" height="11"/></clipPath></defs><g clip-path="url(#fe4f8190c1)"><g clip-path="url(#92b39778f8)"><g transform="matrix(1, 0, 0, 1, 42, 12)"><g clip-path="url(#c83b94f129)"><g clip-path="url(#1fb5b53b6c)"><g clip-path="url(#ccda4e36b1)"><path fill="#cc0000" d="M 0.34375 0 L 10.695312 0 L 10.695312 10.351562 L 0.34375 10.351562 Z M 0.34375 0 " fill-opacity="1" fill-rule="nonzero"/></g></g></g></g></g></g><g clip-path="url(#80f6d1ded1)"><g clip-path="url(#286ddfb81a)"><g transform="matrix(1, 0, 0, 1, 42, 25)"><g clip-path="url(#a331d25ef7)"><g clip-path="url(#644ce5eee0)"><g clip-path="url(#436aa6ade2)"><path fill="#cc0000" d="M 0.34375 0.648438 L 10.695312 0.648438 L 10.695312 11 L 0.34375 11 Z M 0.34375 0.648438 " fill-opacity="1" fill-rule="nonzero"/></g></g></g></g></g></g><g clip-path="url(#1f393438d9)"><g clip-path="url(#99eb0f4422)"><g transform="matrix(1, 0, 0, 1, 19, 48)"><g clip-path="url(#28a26f797e)"><g clip-path="url(#a0c20ee195)"><g clip-path="url(#90726f9a12)"><path fill="#cc0000" d="M 0.304688 0 L 10.65625 0 L 10.65625 10.351562 L 0.304688 10.351562 Z M 0.304688 0 " fill-opacity="1" fill-rule="nonzero"/></g></g></g></g></g></g></svg>