<svg xmlns="http://www.w3.org/2000/svg" xmlns:xlink="http://www.w3.org/1999/xlink" width="96" zoomAndPan="magnify" viewBox="0 0 72 72" height="96" preserveAspectRatio="xMidYMid meet" version="1.0"><defs><clipPath id="778efedead"><path d="M 19.304688 18.824219 L 29.65625 18.824219 L 29.65625 29.175781 L 19.304688 29.175781 Z M 19.304688 18.824219 " clip-rule="nonzero"/></clipPath><clipPath id="ff42bfe317"><path d="M 24.480469 18.824219 C 21.621094 18.824219 19.304688 21.140625 19.304688 24 C 19.304688 26.859375 21.621094 29.175781 24.480469 29.175781 C 27.339844 29.175781 29.65625 26.859375 29.65625 24 C 29.65625 21.140625 27.339844 18.824219 24.480469 18.824219 Z M 24.480469 18.824219 " clip-rule="nonzero"/></clipPath><clipPath id="d46dfb1481"><path d="M 0.304688 0.824219 L 10.65625 0.824219 L 10.65625 11.175781 L 0.304688 11.175781 Z M 0.304688 0.824219 " clip-rule="nonzero"/></clipPath><clipPath id="7f752ab23a"><path d="M 5.480469 0.824219 C 2.621094 0.824219 0.304688 3.140625 0.304688 6 C 0.304688 8.859375 2.621094 11.175781 5.480469 11.175781 C 8.339844 11.175781 10.65625 8.859375 10.65625 6 C 10.65625 3.140625 8.339844 0.824219 5.480469 0.824219 Z M 5.480469 0.824219 " clip-rule="nonzero"/></clipPath><clipPath id="a6e896a90d"><rect x="0" width="11" y="0" height="12"/></clipPath><clipPath id="ba30bd0134"><path d="M 19.304688 33 L 29.65625 33 L 29.65625 43.351562 L 19.304688 43.351562 Z M 19.304688 33 " clip-rule="nonzero"/></clipPath><clipPath id="92323c16ff"><path d="M 24.480469 33 C 21.621094 33 19.304688 35.316406 19.304688 38.175781 C 19.304688 41.03125 21.621094 43.351562 24.480469 43.351562 C 27.339844 43.351562 29.65625 41.03125 29.65625 38.175781 C 29.65625 35.316406 27.339844 33 24.480469 33 Z M 24.480469 33 " clip-rule="nonzero"/></clipPath><clipPath id="8b78b63f8e"><path d="M 0.304688 0 L 10.65625 0 L 10.65625 10.351562 L 0.304688 10.351562 Z M 0.304688 0 " clip-rule="nonzero"/></clipPath><clipPath id="4b571000bc"><path d="M 5.480469 0 C 2.621094 0 0.304688 2.316406 0.304688 5.175781 C 0.304688 8.03125 2.621094 10.351562 5.480469 10.351562 C 8.339844 10.351562 10.65625 8.03125 10.65625 5.175781 C 10.65625 2.316406 8.339844 0 5.480469 0 Z M 5.480469 0 " clip-rule="nonzero"/></clipPath><clipPath id="90387497bb"><rect x="0" width="11" y="0" height="11"/></clipPath><clipPath id="f2f4acff28"><path d="M 38.609375 48 L 48.960938 48 L 48.960938 58.351562 L 38.609375 58.351562 Z M 38.609375 48 " clip-rule="nonzero"/></clipPath><clipPath id="3cc4b68dad"><path d="M 43.785156 48 C 40.925781 48 38.609375 50.316406 38.609375 53.175781 C 38.609375 56.03125 40.925781 58.351562 43.785156 58.351562 C 46.644531 58.351562 48.960938 56.03125 48.960938 53.175781 C 48.960938 50.316406 46.644531 48 43.785156 48 Z M 43.785156 48 " clip-rule="nonzero"/></clipPath><clipPath id="ce5f2b1372"><path d="M 0.609375 0 L 10.960938 0 L 10.960938 10.351562 L 0.609375 10.351562 Z M 0.609375 0 " clip-rule="nonzero"/></clipPath><clipPath id="dab1d70035"><path d="M 5.785156 0 C 2.925781 0 0.609375 2.316406 0.609375 5.175781 C 0.609375 8.03125 2.925781 10.351562 5.785156 10.351562 C 8.644531 10.351562 10.960938 8.03125 10.960938 5.175781 C 10.960938 2.316406 8.644531 0 5.785156 0 Z M 5.785156 0 " clip-rule="nonzero"/></clipPath><clipPath id="0b96714a53"><rect x="0" width="11" y="0" height="11"/></clipPath></defs><g clip-path="url(#778efedead)"><g clip-path="url(#ff42bfe317)"><g transform="matrix(1, 0, 0, 1, 19, 18)"><g clip-path="url(#a6e896a90d)"><g clip-path="url(#d46dfb1481)"><g clip-path="url(#7f752ab23a)"><path fill="#ffde59" d="M 0.304688 0.824219 L 10.65625 0.824219 L 10.65625 11.175781 L 0.304688 11.175781 Z M 0.304688 0.824219 " fill-opacity="1" fill-rule="nonzero"/></g></g></g></g></g></g><g clip-path="url(#ba30bd0134)"><g clip-path="url(#92323c16ff)"><g transform="matrix(1, 0, 0, 1, 19, 33)"><g clip-path="url(#90387497bb)"><g clip-path="url(#8b78b63f8e)"><g clip-path="url(#4b571000bc)"><path fill="#ffffff" d="M 0.304688 0 L 10.65625 0 L 10.65625 10.351562 L 0.304688 10.351562 Z M 0.304688 0 " fill-opacity="1" fill-rule="nonzero"/></g></g></g></g></g></g><g clip-path="url(#f2f4acff28)"><g clip-path="url(#3cc4b68dad)"><g transform="matrix(1, 0, 0, 1, 38, 48)"><g clip-path="url(#0b96714a53)"><g clip-path="url(#ce5f2b1372)"><g clip-path="url(#dab1d70035)"><path fill="#ffffff" d="M 0.609375 0 L 10.960938 0 L 10.960938 10.351562 L 0.609375 10.351562 Z M 0.609375 0 " fill-opacity="1" fill-rule="nonzero"/></g></g></g></g></g></g></svg>