<svg xmlns="http://www.w3.org/2000/svg" xmlns:xlink="http://www.w3.org/1999/xlink" width="96" zoomAndPan="magnify" viewBox="0 0 72 72" height="96" preserveAspectRatio="xMidYMid meet" version="1.0"><defs><g/><clipPath id="314d5c3f6a"><path d="M 48.996094 48.871094 L 56.148438 48.871094 L 56.148438 68.699219 L 48.996094 68.699219 Z M 48.996094 48.871094 " clip-rule="nonzero"/></clipPath><clipPath id="d90e1c9b44"><path d="M 56.121094 67.28125 L 56.121094 54.605469 C 56.121094 54.117188 55.976562 53.636719 55.707031 53.230469 L 52.972656 49.109375 C 52.882812 48.96875 52.726562 48.886719 52.558594 48.886719 C 52.390625 48.886719 52.234375 48.96875 52.144531 49.109375 L 49.410156 53.230469 C 49.140625 53.636719 48.996094 54.117188 48.996094 54.605469 L 48.996094 67.28125 C 48.996094 67.28125 50.046875 68.675781 52.558594 68.675781 C 55.070312 68.675781 56.121094 67.28125 56.121094 67.28125 Z M 56.121094 67.28125 " clip-rule="nonzero"/></clipPath><clipPath id="3250dda57c"><path d="M 0.996094 0.871094 L 8.148438 0.871094 L 8.148438 20.699219 L 0.996094 20.699219 Z M 0.996094 0.871094 " clip-rule="nonzero"/></clipPath><clipPath id="c665ddeda1"><path d="M 8.121094 19.28125 L 8.121094 6.605469 C 8.121094 6.117188 7.976562 5.636719 7.707031 5.230469 L 4.972656 1.109375 C 4.882812 0.96875 4.726562 0.886719 4.558594 0.886719 C 4.390625 0.886719 4.234375 0.96875 4.144531 1.109375 L 1.410156 5.230469 C 1.140625 5.636719 0.996094 6.117188 0.996094 6.605469 L 0.996094 19.28125 C 0.996094 19.28125 2.046875 20.675781 4.558594 20.675781 C 7.070312 20.675781 8.121094 19.28125 8.121094 19.28125 Z M 8.121094 19.28125 " clip-rule="nonzero"/></clipPath><clipPath id="f4d18a6cf7"><rect x="0" width="9" y="0" height="21"/></clipPath><clipPath id="4a0d7090a6"><path d="M 12.21875 32.433594 L 32.042969 32.433594 L 32.042969 39.589844 L 12.21875 39.589844 Z M 12.21875 32.433594 " clip-rule="nonzero"/></clipPath><clipPath id="82de54573b"><path d="M 13.632812 39.5625 L 26.308594 39.5625 C 26.800781 39.5625 27.277344 39.417969 27.683594 39.144531 L 31.804688 36.410156 C 31.945312 36.320312 32.027344 36.164062 32.027344 35.996094 C 32.027344 35.832031 31.945312 35.675781 31.804688 35.582031 L 27.683594 32.847656 C 27.277344 32.578125 26.800781 32.433594 26.308594 32.433594 L 13.632812 32.433594 C 13.632812 32.433594 12.238281 33.484375 12.238281 35.996094 C 12.238281 38.507812 13.632812 39.5625 13.632812 39.5625 Z M 13.632812 39.5625 " clip-rule="nonzero"/></clipPath><clipPath id="b1767c002b"><path d="M 0.21875 0.433594 L 20.042969 0.433594 L 20.042969 7.589844 L 0.21875 7.589844 Z M 0.21875 0.433594 " clip-rule="nonzero"/></clipPath><clipPath id="5f127210f9"><path d="M 1.632812 7.5625 L 14.308594 7.5625 C 14.800781 7.5625 15.277344 7.417969 15.683594 7.144531 L 19.804688 4.410156 C 19.945312 4.320312 20.027344 4.164062 20.027344 3.996094 C 20.027344 3.832031 19.945312 3.675781 19.804688 3.582031 L 15.683594 0.847656 C 15.277344 0.578125 14.800781 0.433594 14.308594 0.433594 L 1.632812 0.433594 C 1.632812 0.433594 0.238281 1.484375 0.238281 3.996094 C 0.238281 6.507812 1.632812 7.5625 1.632812 7.5625 Z M 1.632812 7.5625 " clip-rule="nonzero"/></clipPath><clipPath id="b215aa0f2a"><rect x="0" width="21" y="0" height="8"/></clipPath><clipPath id="d75ecb2121"><path d="M 0.640625 2 L 4 2 L 4 6 L 0.640625 6 Z M 0.640625 2 " clip-rule="nonzero"/></clipPath><clipPath id="b409d56987"><rect x="0" width="5" y="0" height="8"/></clipPath><clipPath id="af62ec3b12"><path d="M 0.441406 1 L 15 1 L 15 4 L 0.441406 4 Z M 0.441406 1 " clip-rule="nonzero"/></clipPath><clipPath id="2317ad9246"><rect x="0" width="16" y="0" height="5"/></clipPath><clipPath id="a5dfce76ee"><rect x="0" width="5" y="0" height="8"/></clipPath></defs><g clip-path="url(#314d5c3f6a)"><g clip-path="url(#d90e1c9b44)"><g transform="matrix(1, 0, 0, 1, 48, 48)"><g clip-path="url(#f4d18a6cf7)"><g clip-path="url(#3250dda57c)"><g clip-path="url(#c665ddeda1)"><path fill="#000000" d="M 8.121094 0.484375 L 8.121094 20.667969 L 0.996094 20.667969 L 0.996094 0.484375 Z M 8.121094 0.484375 " fill-opacity="1" fill-rule="nonzero"/></g></g></g></g></g></g><g clip-path="url(#4a0d7090a6)"><g clip-path="url(#82de54573b)"><g transform="matrix(1, 0, 0, 1, 12, 32)"><g clip-path="url(#b215aa0f2a)"><g clip-path="url(#b1767c002b)"><g clip-path="url(#5f127210f9)"><path fill="#000000" d="M 20.429688 7.5625 L 0.246094 7.5625 L 0.246094 0.433594 L 20.429688 0.433594 Z M 20.429688 7.5625 " fill-opacity="1" fill-rule="nonzero"/></g></g></g></g></g></g><g transform="matrix(1, 0, 0, 1, 20, 32)"><g clip-path="url(#b409d56987)"><g clip-path="url(#d75ecb2121)"><g fill="#ffffff" fill-opacity="1"><g transform="translate(0.656057, 5.666691)"><g><path d="M 3.21875 0 L 2.765625 0 L 2.4375 -0.984375 L 0.90625 -0.984375 L 0.578125 0 L 0.140625 0 L 1.390625 -3.5625 L 1.96875 -3.5625 Z M 1.640625 -3.140625 L 1.03125 -1.328125 L 2.3125 -1.328125 L 1.703125 -3.140625 Z M 1.640625 -3.140625 "/></g></g></g></g></g></g><path stroke-linecap="butt" transform="matrix(0.75, 0.000000000000000888, -0.000000000000000888, 0.75, 16.152914, 21.650597)" fill="none" stroke-linejoin="miter" d="M -0.000759969 0.502329 L 9.259657 0.502329 " stroke="#000000" stroke-width="1" stroke-opacity="1" stroke-miterlimit="4"/><path stroke-linecap="round" transform="matrix(0.75, 0.000000000000000888, -0.000000000000000888, 0.75, 16.152914, 21.650597)" fill-opacity="1" fill="#000000" fill-rule="nonzero" stroke-linejoin="round" d="M 9.509657 -0.997671 L 11.509657 0.502329 L 9.509657 2.002329 Z M 9.509657 -0.997671 " stroke="#000000" stroke-width="1" stroke-opacity="1" stroke-miterlimit="4"/><g transform="matrix(1, 0, 0, 1, 13, 16)"><g clip-path="url(#2317ad9246)"><g clip-path="url(#af62ec3b12)"><g fill="#000000" fill-opacity="1"><g transform="translate(0.597333, 3.672435)"><g><path d="M 1.1875 0.03125 C 1 0.03125 0.832031 -0.0078125 0.6875 -0.09375 C 0.539062 -0.1875 0.425781 -0.3125 0.34375 -0.46875 C 0.257812 -0.632812 0.21875 -0.835938 0.21875 -1.078125 C 0.21875 -1.304688 0.257812 -1.503906 0.34375 -1.671875 C 0.425781 -1.835938 0.539062 -1.960938 0.6875 -2.046875 C 0.832031 -2.128906 1 -2.171875 1.1875 -2.171875 C 1.382812 -2.171875 1.546875 -2.132812 1.671875 -2.0625 C 1.804688 -1.988281 1.90625 -1.875 1.96875 -1.71875 L 1.8125 -1.609375 L 1.765625 -1.609375 C 1.710938 -1.734375 1.640625 -1.820312 1.546875 -1.875 C 1.453125 -1.925781 1.332031 -1.953125 1.1875 -1.953125 C 1.050781 -1.953125 0.929688 -1.921875 0.828125 -1.859375 C 0.722656 -1.796875 0.640625 -1.695312 0.578125 -1.5625 C 0.515625 -1.4375 0.484375 -1.273438 0.484375 -1.078125 C 0.484375 -0.867188 0.515625 -0.695312 0.578125 -0.5625 C 0.640625 -0.4375 0.722656 -0.34375 0.828125 -0.28125 C 0.929688 -0.226562 1.050781 -0.203125 1.1875 -0.203125 C 1.34375 -0.203125 1.46875 -0.234375 1.5625 -0.296875 C 1.664062 -0.367188 1.738281 -0.484375 1.78125 -0.640625 L 1.828125 -0.640625 L 1.984375 -0.5625 C 1.929688 -0.363281 1.835938 -0.210938 1.703125 -0.109375 C 1.566406 -0.015625 1.394531 0.03125 1.1875 0.03125 Z M 1.1875 0.03125 "/></g></g><g transform="translate(2.697958, 3.672435)"><g><path d="M 1.109375 0.03125 C 0.835938 0.03125 0.632812 -0.0351562 0.5 -0.171875 C 0.375 -0.304688 0.3125 -0.503906 0.3125 -0.765625 L 0.3125 -2.140625 L 0.5625 -2.140625 L 0.5625 -0.765625 C 0.5625 -0.578125 0.601562 -0.4375 0.6875 -0.34375 C 0.78125 -0.25 0.921875 -0.203125 1.109375 -0.203125 C 1.472656 -0.203125 1.65625 -0.390625 1.65625 -0.765625 L 1.65625 -2.140625 L 1.90625 -2.140625 L 1.90625 -0.765625 C 1.90625 -0.503906 1.835938 -0.304688 1.703125 -0.171875 C 1.566406 -0.0351562 1.367188 0.03125 1.109375 0.03125 Z M 1.109375 0.03125 "/></g></g><g transform="translate(4.905519, 3.672435)"><g><path d="M 0.328125 0 L 0.328125 -2.140625 L 1.109375 -2.140625 C 1.242188 -2.140625 1.359375 -2.113281 1.453125 -2.0625 C 1.554688 -2.019531 1.628906 -1.953125 1.671875 -1.859375 C 1.722656 -1.773438 1.75 -1.675781 1.75 -1.5625 C 1.75 -1.425781 1.71875 -1.316406 1.65625 -1.234375 C 1.59375 -1.148438 1.488281 -1.085938 1.34375 -1.046875 L 1.34375 -1.015625 C 1.414062 -0.984375 1.472656 -0.9375 1.515625 -0.875 C 1.554688 -0.820312 1.597656 -0.738281 1.640625 -0.625 L 1.828125 0 L 1.578125 0 L 1.359375 -0.65625 C 1.335938 -0.726562 1.304688 -0.785156 1.265625 -0.828125 C 1.234375 -0.878906 1.191406 -0.914062 1.140625 -0.9375 C 1.097656 -0.957031 1.035156 -0.96875 0.953125 -0.96875 L 0.578125 -0.96875 L 0.578125 0 Z M 1.09375 -1.171875 C 1.226562 -1.171875 1.328125 -1.203125 1.390625 -1.265625 C 1.460938 -1.328125 1.5 -1.421875 1.5 -1.546875 C 1.5 -1.671875 1.460938 -1.765625 1.390625 -1.828125 C 1.328125 -1.890625 1.226562 -1.921875 1.09375 -1.921875 L 0.578125 -1.921875 L 0.578125 -1.171875 Z M 1.09375 -1.171875 "/></g></g><g transform="translate(6.888954, 3.672435)"><g><path d="M 0.328125 0 L 0.328125 -2.140625 L 1.109375 -2.140625 C 1.242188 -2.140625 1.359375 -2.113281 1.453125 -2.0625 C 1.554688 -2.019531 1.628906 -1.953125 1.671875 -1.859375 C 1.722656 -1.773438 1.75 -1.675781 1.75 -1.5625 C 1.75 -1.425781 1.71875 -1.316406 1.65625 -1.234375 C 1.59375 -1.148438 1.488281 -1.085938 1.34375 -1.046875 L 1.34375 -1.015625 C 1.414062 -0.984375 1.472656 -0.9375 1.515625 -0.875 C 1.554688 -0.820312 1.597656 -0.738281 1.640625 -0.625 L 1.828125 0 L 1.578125 0 L 1.359375 -0.65625 C 1.335938 -0.726562 1.304688 -0.785156 1.265625 -0.828125 C 1.234375 -0.878906 1.191406 -0.914062 1.140625 -0.9375 C 1.097656 -0.957031 1.035156 -0.96875 0.953125 -0.96875 L 0.578125 -0.96875 L 0.578125 0 Z M 1.09375 -1.171875 C 1.226562 -1.171875 1.328125 -1.203125 1.390625 -1.265625 C 1.460938 -1.328125 1.5 -1.421875 1.5 -1.546875 C 1.5 -1.671875 1.460938 -1.765625 1.390625 -1.828125 C 1.328125 -1.890625 1.226562 -1.921875 1.09375 -1.921875 L 0.578125 -1.921875 L 0.578125 -1.171875 Z M 1.09375 -1.171875 "/></g></g><g transform="translate(8.87239, 3.672435)"><g><path d="M 0.578125 -1.015625 L 0.578125 -0.203125 L 1.671875 -0.203125 L 1.671875 0 L 0.328125 0 L 0.328125 -2.140625 L 1.640625 -2.140625 L 1.640625 -1.9375 L 0.578125 -1.9375 L 0.578125 -1.21875 L 1.515625 -1.21875 L 1.515625 -1.015625 Z M 0.578125 -1.015625 "/></g></g><g transform="translate(10.681506, 3.672435)"><g><path d="M 0.5625 0 L 0.328125 0 L 0.328125 -2.140625 L 0.640625 -2.140625 L 1.671875 -0.5 L 1.71875 -0.515625 L 1.71875 -2.140625 L 1.953125 -2.140625 L 1.953125 0 L 1.6875 0 L 0.609375 -1.75 L 0.5625 -1.75 Z M 0.5625 0 "/></g></g><g transform="translate(12.96524, 3.672435)"><g><path d="M 1.671875 -2.140625 L 1.671875 -1.921875 L 1 -1.921875 L 1 0 L 0.75 0 L 0.75 -1.921875 L 0.078125 -1.921875 L 0.078125 -2.140625 Z M 1.671875 -2.140625 "/></g></g></g></g></g></g><path fill="#000000" d="M 52.183594 52.835938 L 52.183594 52.085938 L 52.933594 52.085938 L 52.933594 52.835938 M 52.183594 51.335938 L 52.183594 50.585938 L 52.933594 50.585938 L 52.933594 51.335938 M 52.183594 49.835938 L 52.183594 49.085938 L 52.933594 49.085938 L 52.933594 49.835938 M 52.183594 48.335938 L 52.183594 47.585938 L 52.933594 47.585938 L 52.933594 48.335938 M 52.183594 46.835938 L 52.183594 46.085938 L 52.933594 46.085938 L 52.933594 46.835938 M 52.183594 45.335938 L 52.183594 44.585938 L 52.933594 44.585938 L 52.933594 45.335938 " fill-opacity="1" fill-rule="nonzero"/><path stroke-linecap="round" transform="matrix(0, -0.75, 0.75, 0, 52.183356, 52.834337)" fill="none" stroke-linejoin="round" d="M 9.018699 -0.999683 L 11.018699 0.500317 L 9.018699 2.000317 " stroke="#000000" stroke-width="1" stroke-opacity="1" stroke-miterlimit="4"/><path fill="#000000" d="M 28.113281 35.625 L 28.863281 35.625 L 28.863281 36.375 L 28.113281 36.375 M 29.613281 35.625 L 30.363281 35.625 L 30.363281 36.375 L 29.613281 36.375 M 31.113281 35.625 L 31.863281 35.625 L 31.863281 36.375 L 31.113281 36.375 M 32.613281 35.625 L 33.363281 35.625 L 33.363281 36.375 L 32.613281 36.375 M 34.113281 35.625 L 34.863281 35.625 L 34.863281 36.375 L 34.113281 36.375 M 35.613281 35.625 L 36.363281 35.625 L 36.363281 36.375 L 35.613281 36.375 " fill-opacity="1" fill-rule="nonzero"/><path stroke-linecap="round" transform="matrix(0.75, 0, 0, 0.75, 28.11153, 35.625001)" fill="none" stroke-linejoin="round" d="M 9.017961 -1.000001 L 11.017961 0.499999 L 9.017961 1.999999 " stroke="#000000" stroke-width="1" stroke-opacity="1" stroke-miterlimit="4"/><g transform="matrix(1, 0, 0, 1, 50, 54)"><g clip-path="url(#a5dfce76ee)"><g fill="#ffffff" fill-opacity="1"><g transform="translate(0.841227, 6.246934)"><g><path d="M 0.546875 0 L 0.546875 -3.5625 L 1.890625 -3.5625 C 2.109375 -3.5625 2.296875 -3.523438 2.453125 -3.453125 C 2.609375 -3.390625 2.722656 -3.289062 2.796875 -3.15625 C 2.867188 -3.03125 2.90625 -2.878906 2.90625 -2.703125 C 2.90625 -2.546875 2.863281 -2.40625 2.78125 -2.28125 C 2.695312 -2.15625 2.578125 -2.054688 2.421875 -1.984375 L 2.421875 -1.9375 C 2.660156 -1.875 2.84375 -1.765625 2.96875 -1.609375 C 3.09375 -1.460938 3.15625 -1.269531 3.15625 -1.03125 C 3.15625 -0.695312 3.054688 -0.441406 2.859375 -0.265625 C 2.660156 -0.0859375 2.375 0 2 0 Z M 1.875 -2.078125 C 2.070312 -2.078125 2.222656 -2.125 2.328125 -2.21875 C 2.441406 -2.320312 2.5 -2.46875 2.5 -2.65625 C 2.5 -2.84375 2.445312 -2.984375 2.34375 -3.078125 C 2.238281 -3.171875 2.082031 -3.21875 1.875 -3.21875 L 0.953125 -3.21875 L 0.953125 -2.078125 Z M 1.96875 -0.34375 C 2.46875 -0.34375 2.71875 -0.570312 2.71875 -1.03125 C 2.71875 -1.488281 2.46875 -1.71875 1.96875 -1.71875 L 0.953125 -1.71875 L 0.953125 -0.34375 Z M 1.96875 -0.34375 "/></g></g></g></g></g></svg>