<svg xmlns="http://www.w3.org/2000/svg" xmlns:xlink="http://www.w3.org/1999/xlink" width="96" zoomAndPan="magnify" viewBox="0 0 72 72" height="96" preserveAspectRatio="xMidYMid meet" version="1.0"><defs><g/><clipPath id="638375f6a0"><path d="M 13.511719 40.867188 L 33.335938 40.867188 L 33.335938 48 L 13.511719 48 Z M 13.511719 40.867188 " clip-rule="nonzero"/></clipPath><clipPath id="9a29021c9e"><path d="M 14.929688 47.996094 L 27.605469 47.996094 C 28.09375 47.996094 28.574219 47.851562 28.980469 47.582031 L 33.101562 44.847656 C 33.242188 44.753906 33.324219 44.601562 33.324219 44.433594 C 33.324219 44.265625 33.242188 44.109375 33.101562 44.019531 L 28.980469 41.285156 C 28.574219 41.011719 28.09375 40.867188 27.605469 40.867188 L 14.929688 40.867188 C 14.929688 40.867188 13.535156 41.921875 13.535156 44.433594 C 13.535156 46.945312 14.929688 47.996094 14.929688 47.996094 Z M 14.929688 47.996094 " clip-rule="nonzero"/></clipPath><clipPath id="c4a042b700"><path d="M 0.511719 0.867188 L 20.335938 0.867188 L 20.335938 8 L 0.511719 8 Z M 0.511719 0.867188 " clip-rule="nonzero"/></clipPath><clipPath id="fb38cc4b59"><path d="M 1.929688 7.996094 L 14.605469 7.996094 C 15.09375 7.996094 15.574219 7.851562 15.980469 7.582031 L 20.101562 4.847656 C 20.242188 4.753906 20.324219 4.601562 20.324219 4.433594 C 20.324219 4.265625 20.242188 4.109375 20.101562 4.019531 L 15.980469 1.285156 C 15.574219 1.011719 15.09375 0.867188 14.605469 0.867188 L 1.929688 0.867188 C 1.929688 0.867188 0.535156 1.921875 0.535156 4.433594 C 0.535156 6.945312 1.929688 7.996094 1.929688 7.996094 Z M 1.929688 7.996094 " clip-rule="nonzero"/></clipPath><clipPath id="5571f72d18"><rect x="0" width="21" y="0" height="8"/></clipPath><clipPath id="dcda160d8f"><path d="M 32.519531 27.03125 L 52.34375 27.03125 L 52.34375 34.1875 L 32.519531 34.1875 Z M 32.519531 27.03125 " clip-rule="nonzero"/></clipPath><clipPath id="55c1561cfe"><path d="M 33.9375 34.160156 L 46.613281 34.160156 C 47.101562 34.160156 47.582031 34.015625 47.988281 33.746094 L 52.109375 31.011719 C 52.25 30.917969 52.332031 30.765625 52.332031 30.597656 C 52.332031 30.429688 52.25 30.273438 52.109375 30.183594 L 47.988281 27.449219 C 47.582031 27.175781 47.101562 27.03125 46.613281 27.03125 L 33.9375 27.03125 C 33.9375 27.03125 32.542969 28.085938 32.542969 30.597656 C 32.542969 33.109375 33.9375 34.160156 33.9375 34.160156 Z M 33.9375 34.160156 " clip-rule="nonzero"/></clipPath><clipPath id="b794e8681b"><path d="M 0.519531 0.03125 L 20.34375 0.03125 L 20.34375 7.1875 L 0.519531 7.1875 Z M 0.519531 0.03125 " clip-rule="nonzero"/></clipPath><clipPath id="0917e960b4"><path d="M 1.9375 7.160156 L 14.613281 7.160156 C 15.101562 7.160156 15.582031 7.015625 15.988281 6.746094 L 20.109375 4.011719 C 20.25 3.917969 20.332031 3.765625 20.332031 3.597656 C 20.332031 3.429688 20.25 3.273438 20.109375 3.183594 L 15.988281 0.449219 C 15.582031 0.175781 15.101562 0.03125 14.613281 0.03125 L 1.9375 0.03125 C 1.9375 0.03125 0.542969 1.085938 0.542969 3.597656 C 0.542969 6.109375 1.9375 7.160156 1.9375 7.160156 Z M 1.9375 7.160156 " clip-rule="nonzero"/></clipPath><clipPath id="1d581231db"><rect x="0" width="21" y="0" height="8"/></clipPath><clipPath id="17042bf11d"><path d="M 0.359375 2 L 4 2 L 4 7 L 0.359375 7 Z M 0.359375 2 " clip-rule="nonzero"/></clipPath><clipPath id="2b1ce65aa7"><rect x="0" width="5" y="0" height="9"/></clipPath><clipPath id="57f72ed86e"><path d="M 0.160156 2 L 4 2 L 4 7 L 0.160156 7 Z M 0.160156 2 " clip-rule="nonzero"/></clipPath><clipPath id="18986ea884"><rect x="0" width="4" y="0" height="8"/></clipPath></defs><g clip-path="url(#638375f6a0)"><g clip-path="url(#9a29021c9e)"><g transform="matrix(1, 0, 0, 1, 13, 40)"><g clip-path="url(#5571f72d18)"><g clip-path="url(#c4a042b700)"><g clip-path="url(#fb38cc4b59)"><path fill="#000000" d="M 20.726562 7.996094 L 0.539062 7.996094 L 0.539062 0.867188 L 20.726562 0.867188 Z M 20.726562 7.996094 " fill-opacity="1" fill-rule="nonzero"/></g></g></g></g></g></g><g clip-path="url(#dcda160d8f)"><g clip-path="url(#55c1561cfe)"><g transform="matrix(1, 0, 0, 1, 32, 27)"><g clip-path="url(#1d581231db)"><g clip-path="url(#b794e8681b)"><g clip-path="url(#0917e960b4)"><path fill="#000000" d="M 20.734375 7.160156 L 0.546875 7.160156 L 0.546875 0.03125 L 20.734375 0.03125 Z M 20.734375 7.160156 " fill-opacity="1" fill-rule="nonzero"/></g></g></g></g></g></g><g transform="matrix(1, 0, 0, 1, 39, 26)"><g clip-path="url(#2b1ce65aa7)"><g clip-path="url(#17042bf11d)"><g fill="#ffffff" fill-opacity="1"><g transform="translate(0.456066, 6.266683)"><g><path d="M 3.21875 0 L 2.765625 0 L 2.4375 -0.984375 L 0.90625 -0.984375 L 0.578125 0 L 0.140625 0 L 1.390625 -3.5625 L 1.96875 -3.5625 Z M 1.640625 -3.140625 L 1.03125 -1.328125 L 2.3125 -1.328125 L 1.703125 -3.140625 Z M 1.640625 -3.140625 "/></g></g></g></g></g></g><path fill="#000000" d="M 49.824219 30.226562 L 50.574219 30.226562 L 50.574219 30.976562 L 49.824219 30.976562 M 51.324219 30.226562 L 52.074219 30.226562 L 52.074219 30.976562 L 51.324219 30.976562 M 52.824219 30.226562 L 53.574219 30.226562 L 53.574219 30.976562 L 52.824219 30.976562 M 54.324219 30.226562 L 55.074219 30.226562 L 55.074219 30.976562 L 54.324219 30.976562 M 55.824219 30.226562 L 56.574219 30.226562 L 56.574219 30.976562 L 55.824219 30.976562 M 57.324219 30.226562 L 58.074219 30.226562 L 58.074219 30.976562 L 57.324219 30.976562 " fill-opacity="1" fill-rule="nonzero"/><path stroke-linecap="round" transform="matrix(0.75, 0, 0, 0.75, 49.823931, 30.225001)" fill="none" stroke-linejoin="round" d="M 9.021218 -0.997918 L 11.021218 0.502082 L 9.021218 2.002082 " stroke="#000000" stroke-width="1" stroke-opacity="1" stroke-miterlimit="4"/><path fill="#000000" d="M 30.816406 44.0625 L 31.566406 44.0625 L 31.566406 44.8125 L 30.816406 44.8125 M 32.316406 44.0625 L 33.066406 44.0625 L 33.066406 44.8125 L 32.316406 44.8125 M 33.816406 44.0625 L 34.566406 44.0625 L 34.566406 44.8125 L 33.816406 44.8125 M 35.316406 44.0625 L 36.066406 44.0625 L 36.066406 44.8125 L 35.316406 44.8125 M 36.816406 44.0625 L 37.566406 44.0625 L 37.566406 44.8125 L 36.816406 44.8125 M 38.316406 44.0625 L 39.066406 44.0625 L 39.066406 44.8125 L 38.316406 44.8125 " fill-opacity="1" fill-rule="nonzero"/><path stroke-linecap="round" transform="matrix(0.75, 0, 0, 0.75, 30.816067, 44.061003)" fill="none" stroke-linejoin="round" d="M 9.021286 -0.998003 L 11.021286 0.501997 L 9.021286 2.001997 " stroke="#000000" stroke-width="1" stroke-opacity="1" stroke-miterlimit="4"/><g transform="matrix(1, 0, 0, 1, 20, 40)"><g clip-path="url(#18986ea884)"><g clip-path="url(#57f72ed86e)"><g fill="#ffffff" fill-opacity="1"><g transform="translate(0.233357, 6.102685)"><g><path d="M 0.546875 0 L 0.546875 -3.5625 L 1.890625 -3.5625 C 2.109375 -3.5625 2.296875 -3.523438 2.453125 -3.453125 C 2.609375 -3.390625 2.722656 -3.289062 2.796875 -3.15625 C 2.867188 -3.03125 2.90625 -2.878906 2.90625 -2.703125 C 2.90625 -2.546875 2.863281 -2.40625 2.78125 -2.28125 C 2.695312 -2.15625 2.578125 -2.054688 2.421875 -1.984375 L 2.421875 -1.9375 C 2.660156 -1.875 2.84375 -1.765625 2.96875 -1.609375 C 3.09375 -1.460938 3.15625 -1.269531 3.15625 -1.03125 C 3.15625 -0.695312 3.054688 -0.441406 2.859375 -0.265625 C 2.660156 -0.0859375 2.375 0 2 0 Z M 1.875 -2.078125 C 2.070312 -2.078125 2.222656 -2.125 2.328125 -2.21875 C 2.441406 -2.320312 2.5 -2.46875 2.5 -2.65625 C 2.5 -2.84375 2.445312 -2.984375 2.34375 -3.078125 C 2.238281 -3.171875 2.082031 -3.21875 1.875 -3.21875 L 0.953125 -3.21875 L 0.953125 -2.078125 Z M 1.96875 -0.34375 C 2.46875 -0.34375 2.71875 -0.570312 2.71875 -1.03125 C 2.71875 -1.488281 2.46875 -1.71875 1.96875 -1.71875 L 0.953125 -1.71875 L 0.953125 -0.34375 Z M 1.96875 -0.34375 "/></g></g></g></g></g></g></svg>