<svg xmlns="http://www.w3.org/2000/svg" xmlns:xlink="http://www.w3.org/1999/xlink" width="96" zoomAndPan="magnify" viewBox="0 0 72 72" height="96" preserveAspectRatio="xMidYMid meet" version="1.0"><defs><g/><clipPath id="1f3ab8acdd"><path d="M 45 32.40625 L 64.824219 32.40625 L 64.824219 39.5625 L 45 39.5625 Z M 45 32.40625 " clip-rule="nonzero"/></clipPath><clipPath id="5263b565b4"><path d="M 63.40625 32.4375 L 50.730469 32.4375 C 50.242188 32.4375 49.761719 32.582031 49.355469 32.851562 L 45.234375 35.585938 C 45.09375 35.675781 45.011719 35.832031 45.011719 36 C 45.011719 36.167969 45.09375 36.324219 45.234375 36.414062 L 49.355469 39.148438 C 49.761719 39.417969 50.242188 39.5625 50.730469 39.5625 L 63.40625 39.5625 C 63.40625 39.5625 64.800781 38.511719 64.800781 36 C 64.800781 33.488281 63.40625 32.4375 63.40625 32.4375 Z M 63.40625 32.4375 " clip-rule="nonzero"/></clipPath><clipPath id="a200a785b5"><path d="M 0 0.40625 L 19.800781 0.40625 L 19.800781 7.5625 L 0 7.5625 Z M 0 0.40625 " clip-rule="nonzero"/></clipPath><clipPath id="708f02fc96"><path d="M 18.40625 0.4375 L 5.730469 0.4375 C 5.242188 0.4375 4.761719 0.582031 4.355469 0.851562 L 0.234375 3.585938 C 0.09375 3.675781 0.0117188 3.832031 0.0117188 4 C 0.0117188 4.167969 0.09375 4.324219 0.234375 4.414062 L 4.355469 7.148438 C 4.761719 7.417969 5.242188 7.5625 5.730469 7.5625 L 18.40625 7.5625 C 18.40625 7.5625 19.800781 6.511719 19.800781 4 C 19.800781 1.488281 18.40625 0.4375 18.40625 0.4375 Z M 18.40625 0.4375 " clip-rule="nonzero"/></clipPath><clipPath id="4a17ae1a63"><rect x="0" width="20" y="0" height="8"/></clipPath><clipPath id="62654adc7c"><path d="M 7.175781 32.433594 L 27 32.433594 L 27 39.589844 L 7.175781 39.589844 Z M 7.175781 32.433594 " clip-rule="nonzero"/></clipPath><clipPath id="2c9535c37b"><path d="M 8.59375 39.5625 L 21.269531 39.5625 C 21.757812 39.5625 22.238281 39.417969 22.644531 39.144531 L 26.765625 36.410156 C 26.90625 36.320312 26.988281 36.164062 26.988281 35.996094 C 26.988281 35.832031 26.90625 35.675781 26.765625 35.582031 L 22.644531 32.847656 C 22.238281 32.578125 21.757812 32.433594 21.269531 32.433594 L 8.59375 32.433594 C 8.59375 32.433594 7.199219 33.484375 7.199219 35.996094 C 7.199219 38.507812 8.59375 39.5625 8.59375 39.5625 Z M 8.59375 39.5625 " clip-rule="nonzero"/></clipPath><clipPath id="3ae2d78945"><path d="M 0.175781 0.433594 L 20 0.433594 L 20 7.589844 L 0.175781 7.589844 Z M 0.175781 0.433594 " clip-rule="nonzero"/></clipPath><clipPath id="fea03c8fcf"><path d="M 1.59375 7.5625 L 14.269531 7.5625 C 14.757812 7.5625 15.238281 7.417969 15.644531 7.144531 L 19.765625 4.410156 C 19.90625 4.320312 19.988281 4.164062 19.988281 3.996094 C 19.988281 3.832031 19.90625 3.675781 19.765625 3.582031 L 15.644531 0.847656 C 15.238281 0.578125 14.757812 0.433594 14.269531 0.433594 L 1.59375 0.433594 C 1.59375 0.433594 0.199219 1.484375 0.199219 3.996094 C 0.199219 6.507812 1.59375 7.5625 1.59375 7.5625 Z M 1.59375 7.5625 " clip-rule="nonzero"/></clipPath><clipPath id="fff9499c54"><rect x="0" width="20" y="0" height="8"/></clipPath><clipPath id="d3c2244a6f"><rect x="0" width="3" y="0" height="8"/></clipPath><clipPath id="b9430e2ae3"><rect x="0" width="4" y="0" height="8"/></clipPath><clipPath id="1e4ea452bd"><path d="M 0.679688 1 L 9 1 L 9 4 L 0.679688 4 Z M 0.679688 1 " clip-rule="nonzero"/></clipPath><clipPath id="277dec106c"><rect x="0" width="10" y="0" height="5"/></clipPath></defs><g clip-path="url(#1f3ab8acdd)"><g clip-path="url(#5263b565b4)"><g transform="matrix(1, 0, 0, 1, 45, 32)"><g clip-path="url(#4a17ae1a63)"><g clip-path="url(#a200a785b5)"><g clip-path="url(#708f02fc96)"><path fill="#000000" d="M -0.390625 0.4375 L 19.796875 0.4375 L 19.796875 7.5625 L -0.390625 7.5625 Z M -0.390625 0.4375 " fill-opacity="1" fill-rule="nonzero"/></g></g></g></g></g></g><g clip-path="url(#62654adc7c)"><g clip-path="url(#2c9535c37b)"><g transform="matrix(1, 0, 0, 1, 7, 32)"><g clip-path="url(#fff9499c54)"><g clip-path="url(#3ae2d78945)"><g clip-path="url(#fea03c8fcf)"><path fill="#000000" d="M 20.390625 7.5625 L 0.203125 7.5625 L 0.203125 0.433594 L 20.390625 0.433594 Z M 20.390625 7.5625 " fill-opacity="1" fill-rule="nonzero"/></g></g></g></g></g></g><g transform="matrix(1, 0, 0, 1, 53, 32)"><g clip-path="url(#d3c2244a6f)"><g fill="#ffffff" fill-opacity="1"><g transform="translate(0.519998, 5.666676)"><g><path d="M 0.953125 0 L 0.546875 0 L 0.546875 -3.5625 L 0.953125 -3.5625 Z M 0.953125 0 "/></g></g></g></g></g><g transform="matrix(1, 0, 0, 1, 15, 32)"><g clip-path="url(#b9430e2ae3)"><g fill="#ffffff" fill-opacity="1"><g transform="translate(0.472153, 5.666676)"><g><path d="M 0.953125 0 L 0.546875 0 L 0.546875 -3.5625 L 0.953125 -3.5625 Z M 0.953125 0 "/></g></g><g transform="translate(1.973635, 5.666676)"><g><path d="M 0.953125 0 L 0.546875 0 L 0.546875 -3.5625 L 0.953125 -3.5625 Z M 0.953125 0 "/></g></g></g></g></g><g transform="matrix(1, 0, 0, 1, 31, 53)"><g clip-path="url(#277dec106c)"><g clip-path="url(#1e4ea452bd)"><g fill="#000000" fill-opacity="1"><g transform="translate(0.871014, 3.60268)"><g><path d="M 0.9375 0 L 0.609375 0 L 0.109375 -2.140625 L 0.359375 -2.140625 L 0.765625 -0.375 L 0.796875 -0.375 L 1.28125 -2.140625 L 1.515625 -2.140625 L 2 -0.375 L 2.03125 -0.375 L 2.4375 -2.140625 L 2.6875 -2.140625 L 2.1875 0 L 1.859375 0 L 1.40625 -1.625 L 1.390625 -1.625 Z M 0.9375 0 "/></g></g><g transform="translate(3.667453, 3.60268)"><g><path d="M 0.578125 0 L 0.328125 0 L 0.328125 -2.140625 L 0.578125 -2.140625 Z M 0.578125 0 "/></g></g><g transform="translate(4.568349, 3.60268)"><g><path d="M 0.5625 0 L 0.328125 0 L 0.328125 -2.140625 L 0.640625 -2.140625 L 1.671875 -0.5 L 1.71875 -0.515625 L 1.71875 -2.140625 L 1.953125 -2.140625 L 1.953125 0 L 1.6875 0 L 0.609375 -1.75 L 0.5625 -1.75 Z M 0.5625 0 "/></g></g><g transform="translate(6.852083, 3.60268)"><g><path d="M 1.015625 -2.140625 C 1.234375 -2.140625 1.421875 -2.097656 1.578125 -2.015625 C 1.734375 -1.941406 1.851562 -1.828125 1.9375 -1.671875 C 2.019531 -1.515625 2.0625 -1.316406 2.0625 -1.078125 C 2.0625 -0.828125 2.019531 -0.625 1.9375 -0.46875 C 1.851562 -0.3125 1.734375 -0.191406 1.578125 -0.109375 C 1.421875 -0.0351562 1.234375 0 1.015625 0 L 0.328125 0 L 0.328125 -2.140625 Z M 0.984375 -0.21875 C 1.171875 -0.21875 1.320312 -0.242188 1.4375 -0.296875 C 1.550781 -0.347656 1.640625 -0.4375 1.703125 -0.5625 C 1.765625 -0.695312 1.796875 -0.867188 1.796875 -1.078125 C 1.796875 -1.285156 1.765625 -1.453125 1.703125 -1.578125 C 1.640625 -1.703125 1.550781 -1.789062 1.4375 -1.84375 C 1.320312 -1.894531 1.171875 -1.921875 0.984375 -1.921875 L 0.578125 -1.921875 L 0.578125 -0.21875 Z M 0.984375 -0.21875 "/></g></g></g></g></g></g><path stroke-linecap="butt" transform="matrix(0.360363, -0.657752, 0.657752, 0.360363, 35.670207, 52.321421)" fill="none" stroke-linejoin="miter" d="M 0.00246086 0.500045 L 8.708273 0.499228 " stroke="#000000" stroke-width="1" stroke-opacity="1" stroke-miterlimit="4"/><path stroke-linecap="round" transform="matrix(0.360363, -0.657752, 0.657752, 0.360363, 35.670207, 52.321421)" fill-opacity="1" fill="#000000" fill-rule="nonzero" stroke-linejoin="round" d="M 8.957385 -0.997236 L 10.959966 0.500858 L 8.960468 2.000162 Z M 8.957385 -0.997236 " stroke="#000000" stroke-width="1" stroke-opacity="1" stroke-miterlimit="4"/><path fill="#000000" d="M 24.480469 35.625 L 25.230469 35.625 L 25.230469 36.375 L 24.480469 36.375 M 25.980469 35.625 L 26.730469 35.625 L 26.730469 36.375 L 25.980469 36.375 M 27.480469 35.625 L 28.230469 35.625 L 28.230469 36.375 L 27.480469 36.375 M 28.980469 35.625 L 29.730469 35.625 L 29.730469 36.375 L 28.980469 36.375 M 30.480469 35.625 L 31.230469 35.625 L 31.230469 36.375 L 30.480469 36.375 M 31.980469 35.625 L 32.730469 35.625 L 32.730469 36.375 L 31.980469 36.375 " fill-opacity="1" fill-rule="nonzero"/><path stroke-linecap="round" transform="matrix(0.75, 0, 0, 0.75, 24.479999, 35.625001)" fill="none" stroke-linejoin="round" d="M 9.02146 -1.000001 L 11.02146 0.499999 L 9.02146 1.999999 " stroke="#000000" stroke-width="1" stroke-opacity="1" stroke-miterlimit="4"/><path fill="#000000" d="M 47.515625 36.375 L 46.765625 36.375 L 46.765625 35.625 L 47.515625 35.625 M 46.015625 36.375 L 45.265625 36.375 L 45.265625 35.625 L 46.015625 35.625 M 44.515625 36.375 L 43.765625 36.375 L 43.765625 35.625 L 44.515625 35.625 M 43.015625 36.375 L 42.265625 36.375 L 42.265625 35.625 L 43.015625 35.625 M 41.515625 36.375 L 40.765625 36.375 L 40.765625 35.625 L 41.515625 35.625 M 40.015625 36.375 L 39.265625 36.375 L 39.265625 35.625 L 40.015625 35.625 " fill-opacity="1" fill-rule="nonzero"/><path stroke-linecap="round" transform="matrix(-0.75, 0, 0, -0.75, 47.516717, 36.375)" fill="none" stroke-linejoin="round" d="M 9.02229 -0.999999 L 11.02229 0.500001 L 9.02229 2.000001 " stroke="#000000" stroke-width="1" stroke-opacity="1" stroke-miterlimit="4"/></svg>