<svg xmlns="http://www.w3.org/2000/svg" xmlns:xlink="http://www.w3.org/1999/xlink" width="96" zoomAndPan="magnify" viewBox="0 0 72 72" height="96" preserveAspectRatio="xMidYMid meet" version="1.0"><defs><clipPath id="aeab291199"><path d="M 30.824219 13.648438 L 41.175781 13.648438 L 41.175781 24 L 30.824219 24 Z M 30.824219 13.648438 " clip-rule="nonzero"/></clipPath><clipPath id="fbf04a5675"><path d="M 36 13.648438 C 33.140625 13.648438 30.824219 15.96875 30.824219 18.824219 C 30.824219 21.683594 33.140625 24 36 24 C 38.859375 24 41.175781 21.683594 41.175781 18.824219 C 41.175781 15.96875 38.859375 13.648438 36 13.648438 Z M 36 13.648438 " clip-rule="nonzero"/></clipPath><clipPath id="c26e1b2d7c"><path d="M 0.824219 0.648438 L 11.175781 0.648438 L 11.175781 11 L 0.824219 11 Z M 0.824219 0.648438 " clip-rule="nonzero"/></clipPath><clipPath id="facf37fc05"><path d="M 6 0.648438 C 3.140625 0.648438 0.824219 2.96875 0.824219 5.824219 C 0.824219 8.683594 3.140625 11 6 11 C 8.859375 11 11.175781 8.683594 11.175781 5.824219 C 11.175781 2.96875 8.859375 0.648438 6 0.648438 Z M 6 0.648438 " clip-rule="nonzero"/></clipPath><clipPath id="51511dc63f"><rect x="0" width="12" y="0" height="11"/></clipPath><clipPath id="af9c86330b"><path d="M 30.824219 30.824219 L 41.175781 30.824219 L 41.175781 41.175781 L 30.824219 41.175781 Z M 30.824219 30.824219 " clip-rule="nonzero"/></clipPath><clipPath id="d90bcdf0e4"><path d="M 36 30.824219 C 33.140625 30.824219 30.824219 33.140625 30.824219 36 C 30.824219 38.859375 33.140625 41.175781 36 41.175781 C 38.859375 41.175781 41.175781 38.859375 41.175781 36 C 41.175781 33.140625 38.859375 30.824219 36 30.824219 Z M 36 30.824219 " clip-rule="nonzero"/></clipPath><clipPath id="f6977d1a36"><path d="M 0.824219 0.824219 L 11.175781 0.824219 L 11.175781 11.175781 L 0.824219 11.175781 Z M 0.824219 0.824219 " clip-rule="nonzero"/></clipPath><clipPath id="f709925195"><path d="M 6 0.824219 C 3.140625 0.824219 0.824219 3.140625 0.824219 6 C 0.824219 8.859375 3.140625 11.175781 6 11.175781 C 8.859375 11.175781 11.175781 8.859375 11.175781 6 C 11.175781 3.140625 8.859375 0.824219 6 0.824219 Z M 6 0.824219 " clip-rule="nonzero"/></clipPath><clipPath id="bfe8fcb525"><rect x="0" width="12" y="0" height="12"/></clipPath><clipPath id="fb84c05ab9"><path d="M 30.824219 47.925781 L 41.175781 47.925781 L 41.175781 58.273438 L 30.824219 58.273438 Z M 30.824219 47.925781 " clip-rule="nonzero"/></clipPath><clipPath id="a5c38fd43c"><path d="M 36 47.925781 C 33.140625 47.925781 30.824219 50.242188 30.824219 53.101562 C 30.824219 55.957031 33.140625 58.273438 36 58.273438 C 38.859375 58.273438 41.175781 55.957031 41.175781 53.101562 C 41.175781 50.242188 38.859375 47.925781 36 47.925781 Z M 36 47.925781 " clip-rule="nonzero"/></clipPath><clipPath id="a89253470d"><path d="M 0.824219 0.925781 L 11.175781 0.925781 L 11.175781 11.273438 L 0.824219 11.273438 Z M 0.824219 0.925781 " clip-rule="nonzero"/></clipPath><clipPath id="7bbfd255aa"><path d="M 6 0.925781 C 3.140625 0.925781 0.824219 3.242188 0.824219 6.101562 C 0.824219 8.957031 3.140625 11.273438 6 11.273438 C 8.859375 11.273438 11.175781 8.957031 11.175781 6.101562 C 11.175781 3.242188 8.859375 0.925781 6 0.925781 Z M 6 0.925781 " clip-rule="nonzero"/></clipPath><clipPath id="f6648d0022"><rect x="0" width="12" y="0" height="12"/></clipPath></defs><g clip-path="url(#aeab291199)"><g clip-path="url(#fbf04a5675)"><g transform="matrix(1, 0, 0, 1, 30, 13)"><g clip-path="url(#51511dc63f)"><g clip-path="url(#c26e1b2d7c)"><g clip-path="url(#facf37fc05)"><path fill="#ffffff" d="M 0.824219 0.648438 L 11.175781 0.648438 L 11.175781 11 L 0.824219 11 Z M 0.824219 0.648438 " fill-opacity="1" fill-rule="nonzero"/></g></g></g></g></g></g><g clip-path="url(#af9c86330b)"><g clip-path="url(#d90bcdf0e4)"><g transform="matrix(1, 0, 0, 1, 30, 30)"><g clip-path="url(#bfe8fcb525)"><g clip-path="url(#f6977d1a36)"><g clip-path="url(#f709925195)"><path fill="#cc0000" d="M 0.824219 0.824219 L 11.175781 0.824219 L 11.175781 11.175781 L 0.824219 11.175781 Z M 0.824219 0.824219 " fill-opacity="1" fill-rule="nonzero"/></g></g></g></g></g></g><g clip-path="url(#fb84c05ab9)"><g clip-path="url(#a5c38fd43c)"><g transform="matrix(1, 0, 0, 1, 30, 47)"><g clip-path="url(#f6648d0022)"><g clip-path="url(#a89253470d)"><g clip-path="url(#7bbfd255aa)"><path fill="#ffffff" d="M 0.824219 0.925781 L 11.175781 0.925781 L 11.175781 11.273438 L 0.824219 11.273438 Z M 0.824219 0.925781 " fill-opacity="1" fill-rule="nonzero"/></g></g></g></g></g></g></svg>