<svg xmlns="http://www.w3.org/2000/svg" xmlns:xlink="http://www.w3.org/1999/xlink" width="96" zoomAndPan="magnify" viewBox="0 0 72 72" height="96" preserveAspectRatio="xMidYMid meet" version="1.0"><defs><clipPath id="6000bb9c33"><path d="M 16.042969 27.5625 L 32.917969 27.5625 L 32.917969 44.4375 L 16.042969 44.4375 Z M 16.042969 27.5625 " clip-rule="nonzero"/></clipPath><clipPath id="a2feaae008"><path d="M 24.480469 27.5625 L 32.917969 36 L 24.480469 44.4375 L 16.042969 36 Z M 24.480469 27.5625 " clip-rule="nonzero"/></clipPath><clipPath id="5941cc8fd7"><path d="M 0.0429688 0.5625 L 16.917969 0.5625 L 16.917969 17.4375 L 0.0429688 17.4375 Z M 0.0429688 0.5625 " clip-rule="nonzero"/></clipPath><clipPath id="b67759c541"><path d="M 8.480469 0.5625 L 16.917969 9 L 8.480469 17.4375 L 0.0429688 9 Z M 8.480469 0.5625 " clip-rule="nonzero"/></clipPath><clipPath id="fc5c5f8b11"><rect x="0" width="17" y="0" height="18"/></clipPath><clipPath id="eb7a0a4dee"><path d="M 39.765625 8.832031 L 55.03125 8.832031 L 55.03125 24.09375 L 39.765625 24.09375 Z M 39.765625 8.832031 " clip-rule="nonzero"/></clipPath><clipPath id="992a3edfd1"><path d="M 47.398438 8.832031 C 43.183594 8.832031 39.765625 12.246094 39.765625 16.460938 C 39.765625 20.675781 43.183594 24.09375 47.398438 24.09375 C 51.613281 24.09375 55.03125 20.675781 55.03125 16.460938 C 55.03125 12.246094 51.613281 8.832031 47.398438 8.832031 Z M 47.398438 8.832031 " clip-rule="nonzero"/></clipPath><clipPath id="4cc94b5dfa"><path d="M 0.765625 0.832031 L 16.03125 0.832031 L 16.03125 16.09375 L 0.765625 16.09375 Z M 0.765625 0.832031 " clip-rule="nonzero"/></clipPath><clipPath id="a8274d2b51"><path d="M 8.398438 0.832031 C 4.183594 0.832031 0.765625 4.246094 0.765625 8.460938 C 0.765625 12.675781 4.183594 16.09375 8.398438 16.09375 C 12.613281 16.09375 16.03125 12.675781 16.03125 8.460938 C 16.03125 4.246094 12.613281 0.832031 8.398438 0.832031 Z M 8.398438 0.832031 " clip-rule="nonzero"/></clipPath><clipPath id="aa81bb8ec3"><rect x="0" width="17" y="0" height="17"/></clipPath><clipPath id="6f5e15137b"><path d="M 40.011719 48.039062 L 55.273438 48.039062 L 55.273438 63.300781 L 40.011719 63.300781 Z M 40.011719 48.039062 " clip-rule="nonzero"/></clipPath><clipPath id="e3b8fb1171"><path d="M 47.640625 48.039062 C 43.425781 48.039062 40.011719 51.453125 40.011719 55.667969 C 40.011719 59.882812 43.425781 63.300781 47.640625 63.300781 C 51.855469 63.300781 55.273438 59.882812 55.273438 55.667969 C 55.273438 51.453125 51.855469 48.039062 47.640625 48.039062 Z M 47.640625 48.039062 " clip-rule="nonzero"/></clipPath><clipPath id="4360af9a13"><path d="M 0.0117188 0.0390625 L 15.273438 0.0390625 L 15.273438 15.300781 L 0.0117188 15.300781 Z M 0.0117188 0.0390625 " clip-rule="nonzero"/></clipPath><clipPath id="5a4cdc6f7e"><path d="M 7.640625 0.0390625 C 3.425781 0.0390625 0.0117188 3.453125 0.0117188 7.667969 C 0.0117188 11.882812 3.425781 15.300781 7.640625 15.300781 C 11.855469 15.300781 15.273438 11.882812 15.273438 7.667969 C 15.273438 3.453125 11.855469 0.0390625 7.640625 0.0390625 Z M 7.640625 0.0390625 " clip-rule="nonzero"/></clipPath><clipPath id="fa0efdf9fd"><rect x="0" width="16" y="0" height="16"/></clipPath><clipPath id="f6556dddf9"><path d="M 39.457031 27.5625 L 56.332031 27.5625 L 56.332031 44.4375 L 39.457031 44.4375 Z M 39.457031 27.5625 " clip-rule="nonzero"/></clipPath><clipPath id="99bd30a70a"><path d="M 47.894531 27.5625 L 56.332031 36 L 47.894531 44.4375 L 39.457031 36 Z M 47.894531 27.5625 " clip-rule="nonzero"/></clipPath><clipPath id="a43630fa50"><path d="M 0.457031 0.5625 L 17.332031 0.5625 L 17.332031 17.4375 L 0.457031 17.4375 Z M 0.457031 0.5625 " clip-rule="nonzero"/></clipPath><clipPath id="4d8430ca71"><path d="M 8.894531 0.5625 L 17.332031 9 L 8.894531 17.4375 L 0.457031 9 Z M 8.894531 0.5625 " clip-rule="nonzero"/></clipPath><clipPath id="9095fed4f5"><rect x="0" width="18" y="0" height="18"/></clipPath></defs><path stroke-linecap="butt" transform="matrix(0, -0.75, 0.75, 0, 24.104999, 71.999999)" fill="none" stroke-linejoin="miter" d="M -0.00000133333 0.500626 L 96.000003 0.500626 " stroke="#222222" stroke-width="1" stroke-opacity="1" stroke-miterlimit="4"/><path stroke-linecap="butt" transform="matrix(0, -0.75, 0.75, 0, 47.519998, 71.999999)" fill="none" stroke-linejoin="miter" d="M -0.00000133333 0.499378 L 96.000003 0.499378 " stroke="#222222" stroke-width="1" stroke-opacity="1" stroke-miterlimit="4"/><g clip-path="url(#6000bb9c33)"><g clip-path="url(#a2feaae008)"><g transform="matrix(1, 0, 0, 1, 16, 27)"><g clip-path="url(#fc5c5f8b11)"><g clip-path="url(#5941cc8fd7)"><g clip-path="url(#b67759c541)"><path fill="#222222" d="M 0.0429688 0.5625 L 16.917969 0.5625 L 16.917969 17.4375 L 0.0429688 17.4375 Z M 0.0429688 0.5625 " fill-opacity="1" fill-rule="nonzero"/></g></g></g></g></g></g><path stroke-linecap="butt" transform="matrix(0, -0.75, 0.75, 0, 47.116872, 71.999999)" fill="none" stroke-linejoin="miter" d="M -0.00000133333 0.50042 L 96.000003 0.50042 " stroke="#222222" stroke-width="1" stroke-opacity="1" stroke-miterlimit="4"/><g clip-path="url(#eb7a0a4dee)"><g clip-path="url(#992a3edfd1)"><g transform="matrix(1, 0, 0, 1, 39, 8)"><g clip-path="url(#aa81bb8ec3)"><g clip-path="url(#4cc94b5dfa)"><g clip-path="url(#a8274d2b51)"><path fill="#222222" d="M 0.765625 0.832031 L 16.03125 0.832031 L 16.03125 16.09375 L 0.765625 16.09375 Z M 0.765625 0.832031 " fill-opacity="1" fill-rule="nonzero"/></g></g></g></g></g></g><g clip-path="url(#6f5e15137b)"><g clip-path="url(#e3b8fb1171)"><g transform="matrix(1, 0, 0, 1, 40, 48)"><g clip-path="url(#fa0efdf9fd)"><g clip-path="url(#4360af9a13)"><g clip-path="url(#5a4cdc6f7e)"><path fill="#222222" d="M 0.0117188 0.0390625 L 15.273438 0.0390625 L 15.273438 15.300781 L 0.0117188 15.300781 Z M 0.0117188 0.0390625 " fill-opacity="1" fill-rule="nonzero"/></g></g></g></g></g></g><g clip-path="url(#f6556dddf9)"><g clip-path="url(#99bd30a70a)"><g transform="matrix(1, 0, 0, 1, 39, 27)"><g clip-path="url(#9095fed4f5)"><g clip-path="url(#a43630fa50)"><g clip-path="url(#4d8430ca71)"><path fill="#222222" d="M 0.457031 0.5625 L 17.332031 0.5625 L 17.332031 17.4375 L 0.457031 17.4375 Z M 0.457031 0.5625 " fill-opacity="1" fill-rule="nonzero"/></g></g></g></g></g></g></svg>