<svg xmlns="http://www.w3.org/2000/svg" xmlns:xlink="http://www.w3.org/1999/xlink" width="96" zoomAndPan="magnify" viewBox="0 0 72 72" height="96" preserveAspectRatio="xMidYMid meet" version="1.0"><defs><clipPath id="a86874a89b"><path d="M 30.824219 12 L 41.175781 12 L 41.175781 22.351562 L 30.824219 22.351562 Z M 30.824219 12 " clip-rule="nonzero"/></clipPath><clipPath id="8320ec5989"><path d="M 36 12 C 33.140625 12 30.824219 14.316406 30.824219 17.175781 C 30.824219 20.03125 33.140625 22.351562 36 22.351562 C 38.859375 22.351562 41.175781 20.03125 41.175781 17.175781 C 41.175781 14.316406 38.859375 12 36 12 Z M 36 12 " clip-rule="nonzero"/></clipPath><clipPath id="8246a9a94c"><path d="M 0.824219 0 L 11.175781 0 L 11.175781 10.351562 L 0.824219 10.351562 Z M 0.824219 0 " clip-rule="nonzero"/></clipPath><clipPath id="637947c3c6"><path d="M 6 0 C 3.140625 0 0.824219 2.316406 0.824219 5.175781 C 0.824219 8.03125 3.140625 10.351562 6 10.351562 C 8.859375 10.351562 11.175781 8.03125 11.175781 5.175781 C 11.175781 2.316406 8.859375 0 6 0 Z M 6 0 " clip-rule="nonzero"/></clipPath><clipPath id="4829bd589d"><rect x="0" width="12" y="0" height="11"/></clipPath><clipPath id="f9c91187d8"><path d="M 10.800781 48 L 21.148438 48 L 21.148438 58.351562 L 10.800781 58.351562 Z M 10.800781 48 " clip-rule="nonzero"/></clipPath><clipPath id="15ab94c3a8"><path d="M 15.976562 48 C 13.117188 48 10.800781 50.316406 10.800781 53.175781 C 10.800781 56.03125 13.117188 58.351562 15.976562 58.351562 C 18.832031 58.351562 21.148438 56.03125 21.148438 53.175781 C 21.148438 50.316406 18.832031 48 15.976562 48 Z M 15.976562 48 " clip-rule="nonzero"/></clipPath><clipPath id="74b53dd08a"><path d="M 0.800781 0 L 11.148438 0 L 11.148438 10.351562 L 0.800781 10.351562 Z M 0.800781 0 " clip-rule="nonzero"/></clipPath><clipPath id="2640f15e57"><path d="M 5.976562 0 C 3.117188 0 0.800781 2.316406 0.800781 5.175781 C 0.800781 8.03125 3.117188 10.351562 5.976562 10.351562 C 8.832031 10.351562 11.148438 8.03125 11.148438 5.175781 C 11.148438 2.316406 8.832031 0 5.976562 0 Z M 5.976562 0 " clip-rule="nonzero"/></clipPath><clipPath id="50aa3ae3f4"><rect x="0" width="12" y="0" height="11"/></clipPath><clipPath id="23c7033c4b"><path d="M 50.851562 48 L 61.199219 48 L 61.199219 58.351562 L 50.851562 58.351562 Z M 50.851562 48 " clip-rule="nonzero"/></clipPath><clipPath id="236c3f4567"><path d="M 56.023438 48 C 53.167969 48 50.851562 50.316406 50.851562 53.175781 C 50.851562 56.03125 53.167969 58.351562 56.023438 58.351562 C 58.882812 58.351562 61.199219 56.03125 61.199219 53.175781 C 61.199219 50.316406 58.882812 48 56.023438 48 Z M 56.023438 48 " clip-rule="nonzero"/></clipPath><clipPath id="cc22f9636b"><path d="M 0.851562 0 L 11.199219 0 L 11.199219 10.351562 L 0.851562 10.351562 Z M 0.851562 0 " clip-rule="nonzero"/></clipPath><clipPath id="1af0804377"><path d="M 6.023438 0 C 3.167969 0 0.851562 2.316406 0.851562 5.175781 C 0.851562 8.03125 3.167969 10.351562 6.023438 10.351562 C 8.882812 10.351562 11.199219 8.03125 11.199219 5.175781 C 11.199219 2.316406 8.882812 0 6.023438 0 Z M 6.023438 0 " clip-rule="nonzero"/></clipPath><clipPath id="9b79516359"><rect x="0" width="12" y="0" height="11"/></clipPath></defs><g clip-path="url(#a86874a89b)"><g clip-path="url(#8320ec5989)"><g transform="matrix(1, 0, 0, 1, 30, 12)"><g clip-path="url(#4829bd589d)"><g clip-path="url(#8246a9a94c)"><g clip-path="url(#637947c3c6)"><path fill="#00bf63" d="M 0.824219 0 L 11.175781 0 L 11.175781 10.351562 L 0.824219 10.351562 Z M 0.824219 0 " fill-opacity="1" fill-rule="nonzero"/></g></g></g></g></g></g><g clip-path="url(#f9c91187d8)"><g clip-path="url(#15ab94c3a8)"><g transform="matrix(1, 0, 0, 1, 10, 48)"><g clip-path="url(#50aa3ae3f4)"><g clip-path="url(#74b53dd08a)"><g clip-path="url(#2640f15e57)"><path fill="#00bf63" d="M 0.800781 0 L 11.148438 0 L 11.148438 10.351562 L 0.800781 10.351562 Z M 0.800781 0 " fill-opacity="1" fill-rule="nonzero"/></g></g></g></g></g></g><g clip-path="url(#23c7033c4b)"><g clip-path="url(#236c3f4567)"><g transform="matrix(1, 0, 0, 1, 50, 48)"><g clip-path="url(#9b79516359)"><g clip-path="url(#cc22f9636b)"><g clip-path="url(#1af0804377)"><path fill="#00bf63" d="M 0.851562 0 L 11.199219 0 L 11.199219 10.351562 L 0.851562 10.351562 Z M 0.851562 0 " fill-opacity="1" fill-rule="nonzero"/></g></g></g></g></g></g></svg>