<svg xmlns="http://www.w3.org/2000/svg" xmlns:xlink="http://www.w3.org/1999/xlink" width="96" zoomAndPan="magnify" viewBox="0 0 72 72" height="96" preserveAspectRatio="xMidYMid meet" version="1.0"><defs><clipPath id="dc35eac054"><path d="M 30.824219 24 L 41.175781 24 L 41.175781 34.351562 L 30.824219 34.351562 Z M 30.824219 24 " clip-rule="nonzero"/></clipPath><clipPath id="e10e6a23df"><path d="M 36 24 C 33.140625 24 30.824219 26.316406 30.824219 29.175781 C 30.824219 32.03125 33.140625 34.351562 36 34.351562 C 38.859375 34.351562 41.175781 32.03125 41.175781 29.175781 C 41.175781 26.316406 38.859375 24 36 24 Z M 36 24 " clip-rule="nonzero"/></clipPath><clipPath id="3252fbcb02"><path d="M 0.824219 0 L 11.175781 0 L 11.175781 10.351562 L 0.824219 10.351562 Z M 0.824219 0 " clip-rule="nonzero"/></clipPath><clipPath id="ae6bd3c10c"><path d="M 6 0 C 3.140625 0 0.824219 2.316406 0.824219 5.175781 C 0.824219 8.03125 3.140625 10.351562 6 10.351562 C 8.859375 10.351562 11.175781 8.03125 11.175781 5.175781 C 11.175781 2.316406 8.859375 0 6 0 Z M 6 0 " clip-rule="nonzero"/></clipPath><clipPath id="05616456a8"><rect x="0" width="12" y="0" height="11"/></clipPath><clipPath id="c2de9927ef"><path d="M 30.824219 37.648438 L 41.175781 37.648438 L 41.175781 48 L 30.824219 48 Z M 30.824219 37.648438 " clip-rule="nonzero"/></clipPath><clipPath id="8dab4a940d"><path d="M 36 37.648438 C 33.140625 37.648438 30.824219 39.96875 30.824219 42.824219 C 30.824219 45.683594 33.140625 48 36 48 C 38.859375 48 41.175781 45.683594 41.175781 42.824219 C 41.175781 39.96875 38.859375 37.648438 36 37.648438 Z M 36 37.648438 " clip-rule="nonzero"/></clipPath><clipPath id="52d1eec36e"><path d="M 0.824219 0.648438 L 11.175781 0.648438 L 11.175781 11 L 0.824219 11 Z M 0.824219 0.648438 " clip-rule="nonzero"/></clipPath><clipPath id="619955b708"><path d="M 6 0.648438 C 3.140625 0.648438 0.824219 2.96875 0.824219 5.824219 C 0.824219 8.683594 3.140625 11 6 11 C 8.859375 11 11.175781 8.683594 11.175781 5.824219 C 11.175781 2.96875 8.859375 0.648438 6 0.648438 Z M 6 0.648438 " clip-rule="nonzero"/></clipPath><clipPath id="db9d94876e"><rect x="0" width="12" y="0" height="11"/></clipPath></defs><g clip-path="url(#dc35eac054)"><g clip-path="url(#e10e6a23df)"><g transform="matrix(1, 0, 0, 1, 30, 24)"><g clip-path="url(#05616456a8)"><g clip-path="url(#3252fbcb02)"><g clip-path="url(#ae6bd3c10c)"><path fill="#ffde59" d="M 0.824219 0 L 11.175781 0 L 11.175781 10.351562 L 0.824219 10.351562 Z M 0.824219 0 " fill-opacity="1" fill-rule="nonzero"/></g></g></g></g></g></g><g clip-path="url(#c2de9927ef)"><g clip-path="url(#8dab4a940d)"><g transform="matrix(1, 0, 0, 1, 30, 37)"><g clip-path="url(#db9d94876e)"><g clip-path="url(#52d1eec36e)"><g clip-path="url(#619955b708)"><path fill="#ffde59" d="M 0.824219 0.648438 L 11.175781 0.648438 L 11.175781 11 L 0.824219 11 Z M 0.824219 0.648438 " fill-opacity="1" fill-rule="nonzero"/></g></g></g></g></g></g></svg>