<svg xmlns="http://www.w3.org/2000/svg" xmlns:xlink="http://www.w3.org/1999/xlink" width="96" zoomAndPan="magnify" viewBox="0 0 72 72" height="96" preserveAspectRatio="xMidYMid meet" version="1.0"><defs><clipPath id="0ed12cce95"><path d="M 30.824219 12 L 41.175781 12 L 41.175781 22.351562 L 30.824219 22.351562 Z M 30.824219 12 " clip-rule="nonzero"/></clipPath><clipPath id="fb80a1da14"><path d="M 36 12 C 33.140625 12 30.824219 14.316406 30.824219 17.175781 C 30.824219 20.03125 33.140625 22.351562 36 22.351562 C 38.859375 22.351562 41.175781 20.03125 41.175781 17.175781 C 41.175781 14.316406 38.859375 12 36 12 Z M 36 12 " clip-rule="nonzero"/></clipPath><clipPath id="13a3e6760f"><path d="M 0.824219 0 L 11.175781 0 L 11.175781 10.351562 L 0.824219 10.351562 Z M 0.824219 0 " clip-rule="nonzero"/></clipPath><clipPath id="6d83ddea5b"><path d="M 6 0 C 3.140625 0 0.824219 2.316406 0.824219 5.175781 C 0.824219 8.03125 3.140625 10.351562 6 10.351562 C 8.859375 10.351562 11.175781 8.03125 11.175781 5.175781 C 11.175781 2.316406 8.859375 0 6 0 Z M 6 0 " clip-rule="nonzero"/></clipPath><clipPath id="f8f02cf0a5"><rect x="0" width="12" y="0" height="11"/></clipPath><clipPath id="a0c4d463d8"><path d="M 10.800781 48 L 21.148438 48 L 21.148438 58.351562 L 10.800781 58.351562 Z M 10.800781 48 " clip-rule="nonzero"/></clipPath><clipPath id="8e7bfde3f5"><path d="M 15.976562 48 C 13.117188 48 10.800781 50.316406 10.800781 53.175781 C 10.800781 56.03125 13.117188 58.351562 15.976562 58.351562 C 18.832031 58.351562 21.148438 56.03125 21.148438 53.175781 C 21.148438 50.316406 18.832031 48 15.976562 48 Z M 15.976562 48 " clip-rule="nonzero"/></clipPath><clipPath id="713c7d32a5"><path d="M 0.800781 0 L 11.148438 0 L 11.148438 10.351562 L 0.800781 10.351562 Z M 0.800781 0 " clip-rule="nonzero"/></clipPath><clipPath id="6511783a8a"><path d="M 5.976562 0 C 3.117188 0 0.800781 2.316406 0.800781 5.175781 C 0.800781 8.03125 3.117188 10.351562 5.976562 10.351562 C 8.832031 10.351562 11.148438 8.03125 11.148438 5.175781 C 11.148438 2.316406 8.832031 0 5.976562 0 Z M 5.976562 0 " clip-rule="nonzero"/></clipPath><clipPath id="682e5af020"><rect x="0" width="12" y="0" height="11"/></clipPath><clipPath id="bec4ee0cae"><path d="M 50.851562 48 L 61.199219 48 L 61.199219 58.351562 L 50.851562 58.351562 Z M 50.851562 48 " clip-rule="nonzero"/></clipPath><clipPath id="f23b3c46f4"><path d="M 56.023438 48 C 53.167969 48 50.851562 50.316406 50.851562 53.175781 C 50.851562 56.03125 53.167969 58.351562 56.023438 58.351562 C 58.882812 58.351562 61.199219 56.03125 61.199219 53.175781 C 61.199219 50.316406 58.882812 48 56.023438 48 Z M 56.023438 48 " clip-rule="nonzero"/></clipPath><clipPath id="2ca5fc9a4f"><path d="M 0.851562 0 L 11.199219 0 L 11.199219 10.351562 L 0.851562 10.351562 Z M 0.851562 0 " clip-rule="nonzero"/></clipPath><clipPath id="172cb19bbe"><path d="M 6.023438 0 C 3.167969 0 0.851562 2.316406 0.851562 5.175781 C 0.851562 8.03125 3.167969 10.351562 6.023438 10.351562 C 8.882812 10.351562 11.199219 8.03125 11.199219 5.175781 C 11.199219 2.316406 8.882812 0 6.023438 0 Z M 6.023438 0 " clip-rule="nonzero"/></clipPath><clipPath id="ea466b57a9"><rect x="0" width="12" y="0" height="11"/></clipPath><clipPath id="d771811442"><path d="M 30.824219 25.648438 L 41.175781 25.648438 L 41.175781 36 L 30.824219 36 Z M 30.824219 25.648438 " clip-rule="nonzero"/></clipPath><clipPath id="d68c1eeb99"><path d="M 36 25.648438 C 33.140625 25.648438 30.824219 27.96875 30.824219 30.824219 C 30.824219 33.683594 33.140625 36 36 36 C 38.859375 36 41.175781 33.683594 41.175781 30.824219 C 41.175781 27.96875 38.859375 25.648438 36 25.648438 Z M 36 25.648438 " clip-rule="nonzero"/></clipPath><clipPath id="090edfda18"><path d="M 0.824219 0.648438 L 11.175781 0.648438 L 11.175781 11 L 0.824219 11 Z M 0.824219 0.648438 " clip-rule="nonzero"/></clipPath><clipPath id="0f1e4a5f14"><path d="M 6 0.648438 C 3.140625 0.648438 0.824219 2.96875 0.824219 5.824219 C 0.824219 8.683594 3.140625 11 6 11 C 8.859375 11 11.175781 8.683594 11.175781 5.824219 C 11.175781 2.96875 8.859375 0.648438 6 0.648438 Z M 6 0.648438 " clip-rule="nonzero"/></clipPath><clipPath id="be4f748a71"><rect x="0" width="12" y="0" height="11"/></clipPath></defs><g clip-path="url(#0ed12cce95)"><g clip-path="url(#fb80a1da14)"><g transform="matrix(1, 0, 0, 1, 30, 12)"><g clip-path="url(#f8f02cf0a5)"><g clip-path="url(#13a3e6760f)"><g clip-path="url(#6d83ddea5b)"><path fill="#ffffff" d="M 0.824219 0 L 11.175781 0 L 11.175781 10.351562 L 0.824219 10.351562 Z M 0.824219 0 " fill-opacity="1" fill-rule="nonzero"/></g></g></g></g></g></g><g clip-path="url(#a0c4d463d8)"><g clip-path="url(#8e7bfde3f5)"><g transform="matrix(1, 0, 0, 1, 10, 48)"><g clip-path="url(#682e5af020)"><g clip-path="url(#713c7d32a5)"><g clip-path="url(#6511783a8a)"><path fill="#00bf63" d="M 0.800781 0 L 11.148438 0 L 11.148438 10.351562 L 0.800781 10.351562 Z M 0.800781 0 " fill-opacity="1" fill-rule="nonzero"/></g></g></g></g></g></g><g clip-path="url(#bec4ee0cae)"><g clip-path="url(#f23b3c46f4)"><g transform="matrix(1, 0, 0, 1, 50, 48)"><g clip-path="url(#ea466b57a9)"><g clip-path="url(#2ca5fc9a4f)"><g clip-path="url(#172cb19bbe)"><path fill="#cc0000" d="M 0.851562 0 L 11.199219 0 L 11.199219 10.351562 L 0.851562 10.351562 Z M 0.851562 0 " fill-opacity="1" fill-rule="nonzero"/></g></g></g></g></g></g><g clip-path="url(#d771811442)"><g clip-path="url(#d68c1eeb99)"><g transform="matrix(1, 0, 0, 1, 30, 25)"><g clip-path="url(#be4f748a71)"><g clip-path="url(#090edfda18)"><g clip-path="url(#0f1e4a5f14)"><path fill="#ffffff" d="M 0.824219 0.648438 L 11.175781 0.648438 L 11.175781 11 L 0.824219 11 Z M 0.824219 0.648438 " fill-opacity="1" fill-rule="nonzero"/></g></g></g></g></g></g></svg>