<svg xmlns="http://www.w3.org/2000/svg" xmlns:xlink="http://www.w3.org/1999/xlink" width="96" zoomAndPan="magnify" viewBox="0 0 72 72" height="96" preserveAspectRatio="xMidYMid meet" version="1.0"><defs><clipPath id="2873ef9985"><path d="M 10.800781 37.648438 L 21.148438 37.648438 L 21.148438 48 L 10.800781 48 Z M 10.800781 37.648438 " clip-rule="nonzero"/></clipPath><clipPath id="c547eea029"><path d="M 15.976562 37.648438 C 13.117188 37.648438 10.800781 39.96875 10.800781 42.824219 C 10.800781 45.683594 13.117188 48 15.976562 48 C 18.832031 48 21.148438 45.683594 21.148438 42.824219 C 21.148438 39.96875 18.832031 37.648438 15.976562 37.648438 Z M 15.976562 37.648438 " clip-rule="nonzero"/></clipPath><clipPath id="a0188bd37c"><path d="M 0.800781 0.648438 L 11.148438 0.648438 L 11.148438 11 L 0.800781 11 Z M 0.800781 0.648438 " clip-rule="nonzero"/></clipPath><clipPath id="1365563c57"><path d="M 5.976562 0.648438 C 3.117188 0.648438 0.800781 2.96875 0.800781 5.824219 C 0.800781 8.683594 3.117188 11 5.976562 11 C 8.832031 11 11.148438 8.683594 11.148438 5.824219 C 11.148438 2.96875 8.832031 0.648438 5.976562 0.648438 Z M 5.976562 0.648438 " clip-rule="nonzero"/></clipPath><clipPath id="e168f1e553"><rect x="0" width="12" y="0" height="11"/></clipPath><clipPath id="3b8d94e18e"><path d="M 50.851562 37.648438 L 61.199219 37.648438 L 61.199219 48 L 50.851562 48 Z M 50.851562 37.648438 " clip-rule="nonzero"/></clipPath><clipPath id="c264382d23"><path d="M 56.023438 37.648438 C 53.167969 37.648438 50.851562 39.96875 50.851562 42.824219 C 50.851562 45.683594 53.167969 48 56.023438 48 C 58.882812 48 61.199219 45.683594 61.199219 42.824219 C 61.199219 39.96875 58.882812 37.648438 56.023438 37.648438 Z M 56.023438 37.648438 " clip-rule="nonzero"/></clipPath><clipPath id="5e471bab84"><path d="M 0.851562 0.648438 L 11.199219 0.648438 L 11.199219 11 L 0.851562 11 Z M 0.851562 0.648438 " clip-rule="nonzero"/></clipPath><clipPath id="d90db130d1"><path d="M 6.023438 0.648438 C 3.167969 0.648438 0.851562 2.96875 0.851562 5.824219 C 0.851562 8.683594 3.167969 11 6.023438 11 C 8.882812 11 11.199219 8.683594 11.199219 5.824219 C 11.199219 2.96875 8.882812 0.648438 6.023438 0.648438 Z M 6.023438 0.648438 " clip-rule="nonzero"/></clipPath><clipPath id="06c4eb516b"><rect x="0" width="12" y="0" height="11"/></clipPath></defs><g clip-path="url(#2873ef9985)"><g clip-path="url(#c547eea029)"><g transform="matrix(1, 0, 0, 1, 10, 37)"><g clip-path="url(#e168f1e553)"><g clip-path="url(#a0188bd37c)"><g clip-path="url(#1365563c57)"><path fill="#00bf63" d="M 0.800781 0.648438 L 11.148438 0.648438 L 11.148438 11 L 0.800781 11 Z M 0.800781 0.648438 " fill-opacity="1" fill-rule="nonzero"/></g></g></g></g></g></g><g clip-path="url(#3b8d94e18e)"><g clip-path="url(#c264382d23)"><g transform="matrix(1, 0, 0, 1, 50, 37)"><g clip-path="url(#06c4eb516b)"><g clip-path="url(#5e471bab84)"><g clip-path="url(#d90db130d1)"><path fill="#cc0000" d="M 0.851562 0.648438 L 11.199219 0.648438 L 11.199219 11 L 0.851562 11 Z M 0.851562 0.648438 " fill-opacity="1" fill-rule="nonzero"/></g></g></g></g></g></g></svg>