<svg xmlns="http://www.w3.org/2000/svg" xmlns:xlink="http://www.w3.org/1999/xlink" width="96" zoomAndPan="magnify" viewBox="0 0 72 72" height="96" preserveAspectRatio="xMidYMid meet" version="1.0"><defs><clipPath id="023199888b"><path d="M 25.199219 26.550781 L 46.832031 26.550781 L 46.832031 45.449219 L 25.199219 45.449219 Z M 25.199219 26.550781 " clip-rule="nonzero"/></clipPath><clipPath id="26514dd41b"><path d="M 36 45.449219 L 46.800781 26.550781 L 25.199219 26.550781 Z M 36 45.449219 " clip-rule="nonzero"/></clipPath><clipPath id="65e12dc7c8"><path d="M 0.199219 0.550781 L 21.800781 0.550781 L 21.800781 19.449219 L 0.199219 19.449219 Z M 0.199219 0.550781 " clip-rule="nonzero"/></clipPath><clipPath id="66d2331e4e"><path d="M 11 19.449219 L 21.800781 0.550781 L 0.199219 0.550781 Z M 11 19.449219 " clip-rule="nonzero"/></clipPath><clipPath id="bf8b9db508"><rect x="0" width="22" y="0" height="20"/></clipPath></defs><path stroke-linecap="butt" transform="matrix(-0.000000000000000186, 0.75, -0.75, -0.000000000000000186, 36.374998, 0.000002)" fill="none" stroke-linejoin="miter" d="M -0.00000266667 0.499998 L 96.000001 0.499998 " stroke="#000000" stroke-width="1" stroke-opacity="1" stroke-miterlimit="4"/><g clip-path="url(#023199888b)"><g clip-path="url(#26514dd41b)"><g transform="matrix(1, 0, 0, 1, 25, 26)"><g clip-path="url(#bf8b9db508)"><g clip-path="url(#65e12dc7c8)"><g clip-path="url(#66d2331e4e)"><path fill="#222222" d="M 0.199219 0.550781 L 21.832031 0.550781 L 21.832031 19.449219 L 0.199219 19.449219 Z M 0.199219 0.550781 " fill-opacity="1" fill-rule="nonzero"/></g></g></g></g></g></g></svg>