<svg xmlns="http://www.w3.org/2000/svg" xmlns:xlink="http://www.w3.org/1999/xlink" width="96" zoomAndPan="magnify" viewBox="0 0 72 72" height="96" preserveAspectRatio="xMidYMid meet" version="1.0"><defs><clipPath id="2142916625"><path d="M 30.824219 12 L 41.175781 12 L 41.175781 22.351562 L 30.824219 22.351562 Z M 30.824219 12 " clip-rule="nonzero"/></clipPath><clipPath id="be2ce8f45c"><path d="M 36 12 C 33.140625 12 30.824219 14.316406 30.824219 17.175781 C 30.824219 20.03125 33.140625 22.351562 36 22.351562 C 38.859375 22.351562 41.175781 20.03125 41.175781 17.175781 C 41.175781 14.316406 38.859375 12 36 12 Z M 36 12 " clip-rule="nonzero"/></clipPath><clipPath id="e386cdc55e"><path d="M 0.824219 0 L 11.175781 0 L 11.175781 10.351562 L 0.824219 10.351562 Z M 0.824219 0 " clip-rule="nonzero"/></clipPath><clipPath id="42755c9ca2"><path d="M 6 0 C 3.140625 0 0.824219 2.316406 0.824219 5.175781 C 0.824219 8.03125 3.140625 10.351562 6 10.351562 C 8.859375 10.351562 11.175781 8.03125 11.175781 5.175781 C 11.175781 2.316406 8.859375 0 6 0 Z M 6 0 " clip-rule="nonzero"/></clipPath><clipPath id="7bec8dc621"><rect x="0" width="12" y="0" height="11"/></clipPath><clipPath id="a0596aa519"><path d="M 30.824219 24 L 41.175781 24 L 41.175781 34.351562 L 30.824219 34.351562 Z M 30.824219 24 " clip-rule="nonzero"/></clipPath><clipPath id="2928f4d257"><path d="M 36 24 C 33.140625 24 30.824219 26.316406 30.824219 29.175781 C 30.824219 32.03125 33.140625 34.351562 36 34.351562 C 38.859375 34.351562 41.175781 32.03125 41.175781 29.175781 C 41.175781 26.316406 38.859375 24 36 24 Z M 36 24 " clip-rule="nonzero"/></clipPath><clipPath id="373aec60e3"><path d="M 0.824219 0 L 11.175781 0 L 11.175781 10.351562 L 0.824219 10.351562 Z M 0.824219 0 " clip-rule="nonzero"/></clipPath><clipPath id="b7084117d6"><path d="M 6 0 C 3.140625 0 0.824219 2.316406 0.824219 5.175781 C 0.824219 8.03125 3.140625 10.351562 6 10.351562 C 8.859375 10.351562 11.175781 8.03125 11.175781 5.175781 C 11.175781 2.316406 8.859375 0 6 0 Z M 6 0 " clip-rule="nonzero"/></clipPath><clipPath id="19fea302d4"><rect x="0" width="12" y="0" height="11"/></clipPath><clipPath id="5c11d6a837"><path d="M 7.199219 49.648438 L 17.550781 49.648438 L 17.550781 60 L 7.199219 60 Z M 7.199219 49.648438 " clip-rule="nonzero"/></clipPath><clipPath id="4998621b60"><path d="M 12.375 49.648438 C 9.515625 49.648438 7.199219 51.96875 7.199219 54.824219 C 7.199219 57.683594 9.515625 60 12.375 60 C 15.234375 60 17.550781 57.683594 17.550781 54.824219 C 17.550781 51.96875 15.234375 49.648438 12.375 49.648438 Z M 12.375 49.648438 " clip-rule="nonzero"/></clipPath><clipPath id="392c9620e2"><path d="M 0.199219 0.648438 L 10.550781 0.648438 L 10.550781 11 L 0.199219 11 Z M 0.199219 0.648438 " clip-rule="nonzero"/></clipPath><clipPath id="951c907424"><path d="M 5.375 0.648438 C 2.515625 0.648438 0.199219 2.96875 0.199219 5.824219 C 0.199219 8.683594 2.515625 11 5.375 11 C 8.234375 11 10.550781 8.683594 10.550781 5.824219 C 10.550781 2.96875 8.234375 0.648438 5.375 0.648438 Z M 5.375 0.648438 " clip-rule="nonzero"/></clipPath><clipPath id="78aa1ac513"><rect x="0" width="11" y="0" height="11"/></clipPath><clipPath id="d2970d5e72"><path d="M 54.449219 49.648438 L 64.800781 49.648438 L 64.800781 60 L 54.449219 60 Z M 54.449219 49.648438 " clip-rule="nonzero"/></clipPath><clipPath id="9de25bb2b5"><path d="M 59.625 49.648438 C 56.765625 49.648438 54.449219 51.96875 54.449219 54.824219 C 54.449219 57.683594 56.765625 60 59.625 60 C 62.484375 60 64.800781 57.683594 64.800781 54.824219 C 64.800781 51.96875 62.484375 49.648438 59.625 49.648438 Z M 59.625 49.648438 " clip-rule="nonzero"/></clipPath><clipPath id="74473d8344"><path d="M 0.449219 0.648438 L 10.800781 0.648438 L 10.800781 11 L 0.449219 11 Z M 0.449219 0.648438 " clip-rule="nonzero"/></clipPath><clipPath id="c1c7937a20"><path d="M 5.625 0.648438 C 2.765625 0.648438 0.449219 2.96875 0.449219 5.824219 C 0.449219 8.683594 2.765625 11 5.625 11 C 8.484375 11 10.800781 8.683594 10.800781 5.824219 C 10.800781 2.96875 8.484375 0.648438 5.625 0.648438 Z M 5.625 0.648438 " clip-rule="nonzero"/></clipPath><clipPath id="f52861dfe4"><rect x="0" width="11" y="0" height="11"/></clipPath><clipPath id="aec88ba4a2"><path d="M 30.824219 36 L 41.175781 36 L 41.175781 46.351562 L 30.824219 46.351562 Z M 30.824219 36 " clip-rule="nonzero"/></clipPath><clipPath id="a3837e97d1"><path d="M 36 36 C 33.140625 36 30.824219 38.316406 30.824219 41.175781 C 30.824219 44.03125 33.140625 46.351562 36 46.351562 C 38.859375 46.351562 41.175781 44.03125 41.175781 41.175781 C 41.175781 38.316406 38.859375 36 36 36 Z M 36 36 " clip-rule="nonzero"/></clipPath><clipPath id="337058cb1b"><path d="M 0.824219 0 L 11.175781 0 L 11.175781 10.351562 L 0.824219 10.351562 Z M 0.824219 0 " clip-rule="nonzero"/></clipPath><clipPath id="3ecdd6a721"><path d="M 6 0 C 3.140625 0 0.824219 2.316406 0.824219 5.175781 C 0.824219 8.03125 3.140625 10.351562 6 10.351562 C 8.859375 10.351562 11.175781 8.03125 11.175781 5.175781 C 11.175781 2.316406 8.859375 0 6 0 Z M 6 0 " clip-rule="nonzero"/></clipPath><clipPath id="0fbbbcf69c"><rect x="0" width="12" y="0" height="11"/></clipPath></defs><g clip-path="url(#2142916625)"><g clip-path="url(#be2ce8f45c)"><g transform="matrix(1, 0, 0, 1, 30, 12)"><g clip-path="url(#7bec8dc621)"><g clip-path="url(#e386cdc55e)"><g clip-path="url(#42755c9ca2)"><path fill="#ffffff" d="M 0.824219 0 L 11.175781 0 L 11.175781 10.351562 L 0.824219 10.351562 Z M 0.824219 0 " fill-opacity="1" fill-rule="nonzero"/></g></g></g></g></g></g><g clip-path="url(#a0596aa519)"><g clip-path="url(#2928f4d257)"><g transform="matrix(1, 0, 0, 1, 30, 24)"><g clip-path="url(#19fea302d4)"><g clip-path="url(#373aec60e3)"><g clip-path="url(#b7084117d6)"><path fill="#ffffff" d="M 0.824219 0 L 11.175781 0 L 11.175781 10.351562 L 0.824219 10.351562 Z M 0.824219 0 " fill-opacity="1" fill-rule="nonzero"/></g></g></g></g></g></g><g clip-path="url(#5c11d6a837)"><g clip-path="url(#4998621b60)"><g transform="matrix(1, 0, 0, 1, 7, 49)"><g clip-path="url(#78aa1ac513)"><g clip-path="url(#392c9620e2)"><g clip-path="url(#951c907424)"><path fill="#00bf63" d="M 0.199219 0.648438 L 10.550781 0.648438 L 10.550781 11 L 0.199219 11 Z M 0.199219 0.648438 " fill-opacity="1" fill-rule="nonzero"/></g></g></g></g></g></g><g clip-path="url(#d2970d5e72)"><g clip-path="url(#9de25bb2b5)"><g transform="matrix(1, 0, 0, 1, 54, 49)"><g clip-path="url(#f52861dfe4)"><g clip-path="url(#74473d8344)"><g clip-path="url(#c1c7937a20)"><path fill="#cc0000" d="M 0.449219 0.648438 L 10.800781 0.648438 L 10.800781 11 L 0.449219 11 Z M 0.449219 0.648438 " fill-opacity="1" fill-rule="nonzero"/></g></g></g></g></g></g><g clip-path="url(#aec88ba4a2)"><g clip-path="url(#a3837e97d1)"><g transform="matrix(1, 0, 0, 1, 30, 36)"><g clip-path="url(#0fbbbcf69c)"><g clip-path="url(#337058cb1b)"><g clip-path="url(#3ecdd6a721)"><path fill="#ffffff" d="M 0.824219 0 L 11.175781 0 L 11.175781 10.351562 L 0.824219 10.351562 Z M 0.824219 0 " fill-opacity="1" fill-rule="nonzero"/></g></g></g></g></g></g></svg>