<svg xmlns="http://www.w3.org/2000/svg" xmlns:xlink="http://www.w3.org/1999/xlink" width="96" zoomAndPan="magnify" viewBox="0 0 72 72" height="96" preserveAspectRatio="xMidYMid meet" version="1.0"><defs><g/><clipPath id="bbac4f311c"><path d="M 10.777344 28.867188 L 30.601562 28.867188 L 30.601562 36 L 10.777344 36 Z M 10.777344 28.867188 " clip-rule="nonzero"/></clipPath><clipPath id="5f84651930"><path d="M 12.191406 35.996094 L 24.871094 35.996094 C 25.359375 35.996094 25.835938 35.851562 26.246094 35.582031 L 30.367188 32.847656 C 30.503906 32.753906 30.589844 32.601562 30.589844 32.433594 C 30.589844 32.265625 30.503906 32.109375 30.367188 32.019531 L 26.246094 29.285156 C 25.835938 29.011719 25.359375 28.867188 24.871094 28.867188 L 12.191406 28.867188 C 12.191406 28.867188 10.800781 29.921875 10.800781 32.433594 C 10.800781 34.945312 12.191406 35.996094 12.191406 35.996094 Z M 12.191406 35.996094 " clip-rule="nonzero"/></clipPath><clipPath id="7516946395"><path d="M 0.777344 0.867188 L 20.601562 0.867188 L 20.601562 8 L 0.777344 8 Z M 0.777344 0.867188 " clip-rule="nonzero"/></clipPath><clipPath id="f15dcda1ef"><path d="M 2.191406 7.996094 L 14.871094 7.996094 C 15.359375 7.996094 15.835938 7.851562 16.246094 7.582031 L 20.367188 4.847656 C 20.503906 4.753906 20.589844 4.601562 20.589844 4.433594 C 20.589844 4.265625 20.503906 4.109375 20.367188 4.019531 L 16.246094 1.285156 C 15.835938 1.011719 15.359375 0.867188 14.871094 0.867188 L 2.191406 0.867188 C 2.191406 0.867188 0.800781 1.921875 0.800781 4.433594 C 0.800781 6.945312 2.191406 7.996094 2.191406 7.996094 Z M 2.191406 7.996094 " clip-rule="nonzero"/></clipPath><clipPath id="97b625eefa"><rect x="0" width="21" y="0" height="8"/></clipPath><clipPath id="16486ce274"><path d="M 0.480469 2 L 4 2 L 4 7 L 0.480469 7 Z M 0.480469 2 " clip-rule="nonzero"/></clipPath><clipPath id="1f5b1e5447"><rect x="0" width="5" y="0" height="8"/></clipPath><clipPath id="88bf5c0791"><path d="M 36.726562 40.867188 L 56.554688 40.867188 L 56.554688 48 L 36.726562 48 Z M 36.726562 40.867188 " clip-rule="nonzero"/></clipPath><clipPath id="2d3b572afd"><path d="M 38.144531 47.996094 L 50.820312 47.996094 C 51.3125 47.996094 51.789062 47.851562 52.195312 47.582031 L 56.316406 44.847656 C 56.457031 44.753906 56.539062 44.601562 56.539062 44.433594 C 56.539062 44.265625 56.457031 44.109375 56.316406 44.019531 L 52.195312 41.285156 C 51.789062 41.011719 51.3125 40.867188 50.820312 40.867188 L 38.144531 40.867188 C 38.144531 40.867188 36.75 41.921875 36.75 44.433594 C 36.75 46.945312 38.144531 47.996094 38.144531 47.996094 Z M 38.144531 47.996094 " clip-rule="nonzero"/></clipPath><clipPath id="7c46c9a056"><path d="M 0.726562 0.867188 L 20.554688 0.867188 L 20.554688 8 L 0.726562 8 Z M 0.726562 0.867188 " clip-rule="nonzero"/></clipPath><clipPath id="d0fde1c243"><path d="M 2.144531 7.996094 L 14.820312 7.996094 C 15.3125 7.996094 15.789062 7.851562 16.195312 7.582031 L 20.316406 4.847656 C 20.457031 4.753906 20.539062 4.601562 20.539062 4.433594 C 20.539062 4.265625 20.457031 4.109375 20.316406 4.019531 L 16.195312 1.285156 C 15.789062 1.011719 15.3125 0.867188 14.820312 0.867188 L 2.144531 0.867188 C 2.144531 0.867188 0.75 1.921875 0.75 4.433594 C 0.75 6.945312 2.144531 7.996094 2.144531 7.996094 Z M 2.144531 7.996094 " clip-rule="nonzero"/></clipPath><clipPath id="05c226e310"><rect x="0" width="21" y="0" height="8"/></clipPath><clipPath id="0820bf1b96"><rect x="0" width="5" y="0" height="8"/></clipPath></defs><g clip-path="url(#bbac4f311c)"><g clip-path="url(#5f84651930)"><g transform="matrix(1, 0, 0, 1, 10, 28)"><g clip-path="url(#97b625eefa)"><g clip-path="url(#7516946395)"><g clip-path="url(#f15dcda1ef)"><path fill="#000000" d="M 20.992188 7.996094 L 0.804688 7.996094 L 0.804688 0.867188 L 20.992188 0.867188 Z M 20.992188 7.996094 " fill-opacity="1" fill-rule="nonzero"/></g></g></g></g></g></g><path fill="#000000" d="M 26.671875 32.0625 L 27.421875 32.0625 L 27.421875 32.8125 L 26.671875 32.8125 M 28.171875 32.0625 L 28.921875 32.0625 L 28.921875 32.8125 L 28.171875 32.8125 M 29.671875 32.0625 L 30.421875 32.0625 L 30.421875 32.8125 L 29.671875 32.8125 M 31.171875 32.0625 L 31.921875 32.0625 L 31.921875 32.8125 L 31.171875 32.8125 M 32.671875 32.0625 L 33.421875 32.0625 L 33.421875 32.8125 L 32.671875 32.8125 M 34.171875 32.0625 L 34.921875 32.0625 L 34.921875 32.8125 L 34.171875 32.8125 " fill-opacity="1" fill-rule="nonzero"/><path stroke-linecap="round" transform="matrix(0.75, 0, 0, 0.75, 26.671528, 32.060999)" fill="none" stroke-linejoin="round" d="M 9.021296 -0.997999 L 11.021297 0.502001 L 9.021296 2.002001 " stroke="#000000" stroke-width="1" stroke-opacity="1" stroke-miterlimit="4"/><g transform="matrix(1, 0, 0, 1, 18, 28)"><g clip-path="url(#1f5b1e5447)"><g clip-path="url(#16486ce274)"><g fill="#ffffff" fill-opacity="1"><g transform="translate(0.631824, 6.102689)"><g><path d="M 3.21875 0 L 2.765625 0 L 2.4375 -0.984375 L 0.90625 -0.984375 L 0.578125 0 L 0.140625 0 L 1.390625 -3.5625 L 1.96875 -3.5625 Z M 1.640625 -3.140625 L 1.03125 -1.328125 L 2.3125 -1.328125 L 1.703125 -3.140625 Z M 1.640625 -3.140625 "/></g></g></g></g></g></g><g clip-path="url(#88bf5c0791)"><g clip-path="url(#2d3b572afd)"><g transform="matrix(1, 0, 0, 1, 36, 40)"><g clip-path="url(#05c226e310)"><g clip-path="url(#7c46c9a056)"><g clip-path="url(#d0fde1c243)"><path fill="#000000" d="M 20.941406 7.996094 L 0.757812 7.996094 L 0.757812 0.867188 L 20.941406 0.867188 Z M 20.941406 7.996094 " fill-opacity="1" fill-rule="nonzero"/></g></g></g></g></g></g><path fill="#000000" d="M 52.625 44.0625 L 53.375 44.0625 L 53.375 44.8125 L 52.625 44.8125 M 54.125 44.0625 L 54.875 44.0625 L 54.875 44.8125 L 54.125 44.8125 M 55.625 44.0625 L 56.375 44.0625 L 56.375 44.8125 L 55.625 44.8125 M 57.125 44.0625 L 57.875 44.0625 L 57.875 44.8125 L 57.125 44.8125 M 58.625 44.0625 L 59.375 44.0625 L 59.375 44.8125 L 58.625 44.8125 M 60.125 44.0625 L 60.875 44.0625 L 60.875 44.8125 L 60.125 44.8125 " fill-opacity="1" fill-rule="nonzero"/><path stroke-linecap="round" transform="matrix(0.75, 0, 0, 0.75, 52.623055, 44.061005)" fill="none" stroke-linejoin="round" d="M 9.018218 -0.998007 L 11.018218 0.501993 L 9.018218 2.001993 " stroke="#000000" stroke-width="1" stroke-opacity="1" stroke-miterlimit="4"/><g transform="matrix(1, 0, 0, 1, 44, 40)"><g clip-path="url(#0820bf1b96)"><g fill="#ffffff" fill-opacity="1"><g transform="translate(0.544289, 6.102689)"><g><path d="M 0.546875 0 L 0.546875 -3.5625 L 1.890625 -3.5625 C 2.109375 -3.5625 2.296875 -3.523438 2.453125 -3.453125 C 2.609375 -3.390625 2.722656 -3.289062 2.796875 -3.15625 C 2.867188 -3.03125 2.90625 -2.878906 2.90625 -2.703125 C 2.90625 -2.546875 2.863281 -2.40625 2.78125 -2.28125 C 2.695312 -2.15625 2.578125 -2.054688 2.421875 -1.984375 L 2.421875 -1.9375 C 2.660156 -1.875 2.84375 -1.765625 2.96875 -1.609375 C 3.09375 -1.460938 3.15625 -1.269531 3.15625 -1.03125 C 3.15625 -0.695312 3.054688 -0.441406 2.859375 -0.265625 C 2.660156 -0.0859375 2.375 0 2 0 Z M 1.875 -2.078125 C 2.070312 -2.078125 2.222656 -2.125 2.328125 -2.21875 C 2.441406 -2.320312 2.5 -2.46875 2.5 -2.65625 C 2.5 -2.84375 2.445312 -2.984375 2.34375 -3.078125 C 2.238281 -3.171875 2.082031 -3.21875 1.875 -3.21875 L 0.953125 -3.21875 L 0.953125 -2.078125 Z M 1.96875 -0.34375 C 2.46875 -0.34375 2.71875 -0.570312 2.71875 -1.03125 C 2.71875 -1.488281 2.46875 -1.71875 1.96875 -1.71875 L 0.953125 -1.71875 L 0.953125 -0.34375 Z M 1.96875 -0.34375 "/></g></g></g></g></g></svg>