<svg xmlns="http://www.w3.org/2000/svg" xmlns:xlink="http://www.w3.org/1999/xlink" width="96" zoomAndPan="magnify" viewBox="0 0 72 72" height="96" preserveAspectRatio="xMidYMid meet" version="1.0"><defs><g/><clipPath id="5d396dc4a0"><path d="M 45 32.40625 L 64.824219 32.40625 L 64.824219 39.5625 L 45 39.5625 Z M 45 32.40625 " clip-rule="nonzero"/></clipPath><clipPath id="1db14035aa"><path d="M 63.40625 32.4375 L 50.730469 32.4375 C 50.242188 32.4375 49.761719 32.582031 49.355469 32.851562 L 45.234375 35.585938 C 45.09375 35.675781 45.011719 35.832031 45.011719 36 C 45.011719 36.167969 45.09375 36.324219 45.234375 36.414062 L 49.355469 39.148438 C 49.761719 39.417969 50.242188 39.5625 50.730469 39.5625 L 63.40625 39.5625 C 63.40625 39.5625 64.800781 38.511719 64.800781 36 C 64.800781 33.488281 63.40625 32.4375 63.40625 32.4375 Z M 63.40625 32.4375 " clip-rule="nonzero"/></clipPath><clipPath id="f140ff24ee"><path d="M 0 0.40625 L 19.800781 0.40625 L 19.800781 7.5625 L 0 7.5625 Z M 0 0.40625 " clip-rule="nonzero"/></clipPath><clipPath id="23483f58fd"><path d="M 18.40625 0.4375 L 5.730469 0.4375 C 5.242188 0.4375 4.761719 0.582031 4.355469 0.851562 L 0.234375 3.585938 C 0.09375 3.675781 0.0117188 3.832031 0.0117188 4 C 0.0117188 4.167969 0.09375 4.324219 0.234375 4.414062 L 4.355469 7.148438 C 4.761719 7.417969 5.242188 7.5625 5.730469 7.5625 L 18.40625 7.5625 C 18.40625 7.5625 19.800781 6.511719 19.800781 4 C 19.800781 1.488281 18.40625 0.4375 18.40625 0.4375 Z M 18.40625 0.4375 " clip-rule="nonzero"/></clipPath><clipPath id="02225d8ae6"><rect x="0" width="20" y="0" height="8"/></clipPath><clipPath id="2fde8c3889"><path d="M 7.175781 32.433594 L 27 32.433594 L 27 39.589844 L 7.175781 39.589844 Z M 7.175781 32.433594 " clip-rule="nonzero"/></clipPath><clipPath id="aea5048169"><path d="M 8.59375 39.5625 L 21.269531 39.5625 C 21.757812 39.5625 22.238281 39.417969 22.644531 39.144531 L 26.765625 36.410156 C 26.90625 36.320312 26.988281 36.164062 26.988281 35.996094 C 26.988281 35.832031 26.90625 35.675781 26.765625 35.582031 L 22.644531 32.847656 C 22.238281 32.578125 21.757812 32.433594 21.269531 32.433594 L 8.59375 32.433594 C 8.59375 32.433594 7.199219 33.484375 7.199219 35.996094 C 7.199219 38.507812 8.59375 39.5625 8.59375 39.5625 Z M 8.59375 39.5625 " clip-rule="nonzero"/></clipPath><clipPath id="3629b2b54e"><path d="M 0.175781 0.433594 L 20 0.433594 L 20 7.589844 L 0.175781 7.589844 Z M 0.175781 0.433594 " clip-rule="nonzero"/></clipPath><clipPath id="c9af0aa697"><path d="M 1.59375 7.5625 L 14.269531 7.5625 C 14.757812 7.5625 15.238281 7.417969 15.644531 7.144531 L 19.765625 4.410156 C 19.90625 4.320312 19.988281 4.164062 19.988281 3.996094 C 19.988281 3.832031 19.90625 3.675781 19.765625 3.582031 L 15.644531 0.847656 C 15.238281 0.578125 14.757812 0.433594 14.269531 0.433594 L 1.59375 0.433594 C 1.59375 0.433594 0.199219 1.484375 0.199219 3.996094 C 0.199219 6.507812 1.59375 7.5625 1.59375 7.5625 Z M 1.59375 7.5625 " clip-rule="nonzero"/></clipPath><clipPath id="e20d84ceea"><rect x="0" width="20" y="0" height="8"/></clipPath><clipPath id="51c77d702e"><rect x="0" width="5" y="0" height="8"/></clipPath><clipPath id="f3db28c286"><rect x="0" width="5" y="0" height="8"/></clipPath></defs><g clip-path="url(#5d396dc4a0)"><g clip-path="url(#1db14035aa)"><g transform="matrix(1, 0, 0, 1, 45, 32)"><g clip-path="url(#02225d8ae6)"><g clip-path="url(#f140ff24ee)"><g clip-path="url(#23483f58fd)"><path fill="#000000" d="M -0.390625 0.4375 L 19.796875 0.4375 L 19.796875 7.5625 L -0.390625 7.5625 Z M -0.390625 0.4375 " fill-opacity="1" fill-rule="nonzero"/></g></g></g></g></g></g><g clip-path="url(#2fde8c3889)"><g clip-path="url(#aea5048169)"><g transform="matrix(1, 0, 0, 1, 7, 32)"><g clip-path="url(#e20d84ceea)"><g clip-path="url(#3629b2b54e)"><g clip-path="url(#c9af0aa697)"><path fill="#000000" d="M 20.390625 7.5625 L 0.203125 7.5625 L 0.203125 0.433594 L 20.390625 0.433594 Z M 20.390625 7.5625 " fill-opacity="1" fill-rule="nonzero"/></g></g></g></g></g></g><g transform="matrix(1, 0, 0, 1, 13, 32)"><g clip-path="url(#51c77d702e)"><g fill="#ffffff" fill-opacity="1"><g transform="translate(1.112136, 5.666691)"><g><path d="M 3.21875 0 L 2.765625 0 L 2.4375 -0.984375 L 0.90625 -0.984375 L 0.578125 0 L 0.140625 0 L 1.390625 -3.5625 L 1.96875 -3.5625 Z M 1.640625 -3.140625 L 1.03125 -1.328125 L 2.3125 -1.328125 L 1.703125 -3.140625 Z M 1.640625 -3.140625 "/></g></g></g></g></g><path fill="#000000" d="M 24.480469 35.625 L 25.230469 35.625 L 25.230469 36.375 L 24.480469 36.375 M 25.980469 35.625 L 26.730469 35.625 L 26.730469 36.375 L 25.980469 36.375 M 27.480469 35.625 L 28.230469 35.625 L 28.230469 36.375 L 27.480469 36.375 M 28.980469 35.625 L 29.730469 35.625 L 29.730469 36.375 L 28.980469 36.375 M 30.480469 35.625 L 31.230469 35.625 L 31.230469 36.375 L 30.480469 36.375 M 31.980469 35.625 L 32.730469 35.625 L 32.730469 36.375 L 31.980469 36.375 " fill-opacity="1" fill-rule="nonzero"/><path stroke-linecap="round" transform="matrix(0.75, 0, 0, 0.75, 24.479999, 35.625001)" fill="none" stroke-linejoin="round" d="M 9.02146 -1.000001 L 11.02146 0.499999 L 9.02146 1.999999 " stroke="#000000" stroke-width="1" stroke-opacity="1" stroke-miterlimit="4"/><path fill="#000000" d="M 47.515625 36.375 L 46.765625 36.375 L 46.765625 35.625 L 47.515625 35.625 M 46.015625 36.375 L 45.265625 36.375 L 45.265625 35.625 L 46.015625 35.625 M 44.515625 36.375 L 43.765625 36.375 L 43.765625 35.625 L 44.515625 35.625 M 43.015625 36.375 L 42.265625 36.375 L 42.265625 35.625 L 43.015625 35.625 M 41.515625 36.375 L 40.765625 36.375 L 40.765625 35.625 L 41.515625 35.625 M 40.015625 36.375 L 39.265625 36.375 L 39.265625 35.625 L 40.015625 35.625 " fill-opacity="1" fill-rule="nonzero"/><path stroke-linecap="round" transform="matrix(-0.75, 0, 0, -0.75, 47.516717, 36.375)" fill="none" stroke-linejoin="round" d="M 9.02229 -0.999999 L 11.02229 0.500001 L 9.02229 2.000001 " stroke="#000000" stroke-width="1" stroke-opacity="1" stroke-miterlimit="4"/><g transform="matrix(1, 0, 0, 1, 54, 32)"><g clip-path="url(#f3db28c286)"><g fill="#ffffff" fill-opacity="1"><g transform="translate(0.665169, 5.666691)"><g><path d="M 0.546875 0 L 0.546875 -3.5625 L 1.890625 -3.5625 C 2.109375 -3.5625 2.296875 -3.523438 2.453125 -3.453125 C 2.609375 -3.390625 2.722656 -3.289062 2.796875 -3.15625 C 2.867188 -3.03125 2.90625 -2.878906 2.90625 -2.703125 C 2.90625 -2.546875 2.863281 -2.40625 2.78125 -2.28125 C 2.695312 -2.15625 2.578125 -2.054688 2.421875 -1.984375 L 2.421875 -1.9375 C 2.660156 -1.875 2.84375 -1.765625 2.96875 -1.609375 C 3.09375 -1.460938 3.15625 -1.269531 3.15625 -1.03125 C 3.15625 -0.695312 3.054688 -0.441406 2.859375 -0.265625 C 2.660156 -0.0859375 2.375 0 2 0 Z M 1.875 -2.078125 C 2.070312 -2.078125 2.222656 -2.125 2.328125 -2.21875 C 2.441406 -2.320312 2.5 -2.46875 2.5 -2.65625 C 2.5 -2.84375 2.445312 -2.984375 2.34375 -3.078125 C 2.238281 -3.171875 2.082031 -3.21875 1.875 -3.21875 L 0.953125 -3.21875 L 0.953125 -2.078125 Z M 1.96875 -0.34375 C 2.46875 -0.34375 2.71875 -0.570312 2.71875 -1.03125 C 2.71875 -1.488281 2.46875 -1.71875 1.96875 -1.71875 L 0.953125 -1.71875 L 0.953125 -0.34375 Z M 1.96875 -0.34375 "/></g></g></g></g></g></svg>