<svg xmlns="http://www.w3.org/2000/svg" xmlns:xlink="http://www.w3.org/1999/xlink" width="96" zoomAndPan="magnify" viewBox="0 0 72 72" height="96" preserveAspectRatio="xMidYMid meet" version="1.0"><defs><clipPath id="029cbab663"><path d="M 30.824219 24 L 41.175781 24 L 41.175781 34.351562 L 30.824219 34.351562 Z M 30.824219 24 " clip-rule="nonzero"/></clipPath><clipPath id="0a85039a72"><path d="M 36 24 C 33.140625 24 30.824219 26.316406 30.824219 29.175781 C 30.824219 32.03125 33.140625 34.351562 36 34.351562 C 38.859375 34.351562 41.175781 32.03125 41.175781 29.175781 C 41.175781 26.316406 38.859375 24 36 24 Z M 36 24 " clip-rule="nonzero"/></clipPath><clipPath id="7027da973d"><path d="M 0.824219 0 L 11.175781 0 L 11.175781 10.351562 L 0.824219 10.351562 Z M 0.824219 0 " clip-rule="nonzero"/></clipPath><clipPath id="186d4b651a"><path d="M 6 0 C 3.140625 0 0.824219 2.316406 0.824219 5.175781 C 0.824219 8.03125 3.140625 10.351562 6 10.351562 C 8.859375 10.351562 11.175781 8.03125 11.175781 5.175781 C 11.175781 2.316406 8.859375 0 6 0 Z M 6 0 " clip-rule="nonzero"/></clipPath><clipPath id="154b3795f6"><rect x="0" width="12" y="0" height="11"/></clipPath><clipPath id="8c6fa8c468"><path d="M 30.824219 37.648438 L 41.175781 37.648438 L 41.175781 48 L 30.824219 48 Z M 30.824219 37.648438 " clip-rule="nonzero"/></clipPath><clipPath id="b45efc5db1"><path d="M 36 37.648438 C 33.140625 37.648438 30.824219 39.96875 30.824219 42.824219 C 30.824219 45.683594 33.140625 48 36 48 C 38.859375 48 41.175781 45.683594 41.175781 42.824219 C 41.175781 39.96875 38.859375 37.648438 36 37.648438 Z M 36 37.648438 " clip-rule="nonzero"/></clipPath><clipPath id="0bc95ce6dd"><path d="M 0.824219 0.648438 L 11.175781 0.648438 L 11.175781 11 L 0.824219 11 Z M 0.824219 0.648438 " clip-rule="nonzero"/></clipPath><clipPath id="b4d7e1bb17"><path d="M 6 0.648438 C 3.140625 0.648438 0.824219 2.96875 0.824219 5.824219 C 0.824219 8.683594 3.140625 11 6 11 C 8.859375 11 11.175781 8.683594 11.175781 5.824219 C 11.175781 2.96875 8.859375 0.648438 6 0.648438 Z M 6 0.648438 " clip-rule="nonzero"/></clipPath><clipPath id="4fde56e962"><rect x="0" width="12" y="0" height="11"/></clipPath><clipPath id="770d0ca87c"><path d="M 54.585938 54.449219 L 64.933594 54.449219 L 64.933594 64.800781 L 54.585938 64.800781 Z M 54.585938 54.449219 " clip-rule="nonzero"/></clipPath><clipPath id="52f727789e"><path d="M 59.761719 54.449219 C 56.902344 54.449219 54.585938 56.765625 54.585938 59.625 C 54.585938 62.484375 56.902344 64.800781 59.761719 64.800781 C 62.617188 64.800781 64.933594 62.484375 64.933594 59.625 C 64.933594 56.765625 62.617188 54.449219 59.761719 54.449219 Z M 59.761719 54.449219 " clip-rule="nonzero"/></clipPath><clipPath id="783a8e3e11"><path d="M 0.585938 0.449219 L 10.933594 0.449219 L 10.933594 10.800781 L 0.585938 10.800781 Z M 0.585938 0.449219 " clip-rule="nonzero"/></clipPath><clipPath id="662d1d3f53"><path d="M 5.761719 0.449219 C 2.902344 0.449219 0.585938 2.765625 0.585938 5.625 C 0.585938 8.484375 2.902344 10.800781 5.761719 10.800781 C 8.617188 10.800781 10.933594 8.484375 10.933594 5.625 C 10.933594 2.765625 8.617188 0.449219 5.761719 0.449219 Z M 5.761719 0.449219 " clip-rule="nonzero"/></clipPath><clipPath id="c805c092ab"><rect x="0" width="11" y="0" height="11"/></clipPath><clipPath id="08b08830eb"><path d="M 7.066406 38.699219 L 17.414062 38.699219 L 17.414062 49.050781 L 7.066406 49.050781 Z M 7.066406 38.699219 " clip-rule="nonzero"/></clipPath><clipPath id="9b4ad50669"><path d="M 12.238281 38.699219 C 9.382812 38.699219 7.066406 41.015625 7.066406 43.875 C 7.066406 46.734375 9.382812 49.050781 12.238281 49.050781 C 15.097656 49.050781 17.414062 46.734375 17.414062 43.875 C 17.414062 41.015625 15.097656 38.699219 12.238281 38.699219 Z M 12.238281 38.699219 " clip-rule="nonzero"/></clipPath><clipPath id="6ae1e9f941"><path d="M 0.0664062 0.699219 L 10.414062 0.699219 L 10.414062 11.050781 L 0.0664062 11.050781 Z M 0.0664062 0.699219 " clip-rule="nonzero"/></clipPath><clipPath id="b137ef4377"><path d="M 5.238281 0.699219 C 2.382812 0.699219 0.0664062 3.015625 0.0664062 5.875 C 0.0664062 8.734375 2.382812 11.050781 5.238281 11.050781 C 8.097656 11.050781 10.414062 8.734375 10.414062 5.875 C 10.414062 3.015625 8.097656 0.699219 5.238281 0.699219 Z M 5.238281 0.699219 " clip-rule="nonzero"/></clipPath><clipPath id="ca83c15be3"><rect x="0" width="11" y="0" height="12"/></clipPath></defs><g clip-path="url(#029cbab663)"><g clip-path="url(#0a85039a72)"><g transform="matrix(1, 0, 0, 1, 30, 24)"><g clip-path="url(#154b3795f6)"><g clip-path="url(#7027da973d)"><g clip-path="url(#186d4b651a)"><path fill="#cc0000" d="M 0.824219 0 L 11.175781 0 L 11.175781 10.351562 L 0.824219 10.351562 Z M 0.824219 0 " fill-opacity="1" fill-rule="nonzero"/></g></g></g></g></g></g><g clip-path="url(#8c6fa8c468)"><g clip-path="url(#b45efc5db1)"><g transform="matrix(1, 0, 0, 1, 30, 37)"><g clip-path="url(#4fde56e962)"><g clip-path="url(#0bc95ce6dd)"><g clip-path="url(#b4d7e1bb17)"><path fill="#cc0000" d="M 0.824219 0.648438 L 11.175781 0.648438 L 11.175781 11 L 0.824219 11 Z M 0.824219 0.648438 " fill-opacity="1" fill-rule="nonzero"/></g></g></g></g></g></g><g clip-path="url(#770d0ca87c)"><g clip-path="url(#52f727789e)"><g transform="matrix(1, 0, 0, 1, 54, 54)"><g clip-path="url(#c805c092ab)"><g clip-path="url(#783a8e3e11)"><g clip-path="url(#662d1d3f53)"><path fill="#ffffff" d="M 0.585938 0.449219 L 10.933594 0.449219 L 10.933594 10.800781 L 0.585938 10.800781 Z M 0.585938 0.449219 " fill-opacity="1" fill-rule="nonzero"/></g></g></g></g></g></g><g clip-path="url(#08b08830eb)"><g clip-path="url(#9b4ad50669)"><g transform="matrix(1, 0, 0, 1, 7, 38)"><g clip-path="url(#ca83c15be3)"><g clip-path="url(#6ae1e9f941)"><g clip-path="url(#b137ef4377)"><path fill="#ffffff" d="M 0.0664062 0.699219 L 10.414062 0.699219 L 10.414062 11.050781 L 0.0664062 11.050781 Z M 0.0664062 0.699219 " fill-opacity="1" fill-rule="nonzero"/></g></g></g></g></g></g></svg>