<svg xmlns="http://www.w3.org/2000/svg" xmlns:xlink="http://www.w3.org/1999/xlink" width="96" zoomAndPan="magnify" viewBox="0 0 72 72" height="96" preserveAspectRatio="xMidYMid meet" version="1.0"><defs><g/><clipPath id="b42c414d74"><path d="M 42 4 L 59 4 L 59 20 L 42 20 Z M 42 4 " clip-rule="nonzero"/></clipPath><clipPath id="5fa2e4e6e1"><path d="M 39.71875 16.996094 L 54.164062 3.417969 L 59.066406 8.628906 L 44.621094 22.207031 Z M 39.71875 16.996094 " clip-rule="nonzero"/></clipPath><clipPath id="60c4acdce3"><path d="M 53.152344 4.40625 L 43.914062 13.089844 C 43.558594 13.425781 43.308594 13.855469 43.195312 14.332031 L 42.066406 19.148438 C 42.027344 19.3125 42.074219 19.480469 42.1875 19.601562 C 42.304688 19.726562 42.472656 19.78125 42.636719 19.753906 L 47.511719 18.921875 C 47.992188 18.839844 48.441406 18.617188 48.796875 18.28125 L 58.035156 9.597656 C 58.035156 9.597656 58.328125 7.878906 56.605469 6.046875 C 54.886719 4.21875 53.152344 4.40625 53.152344 4.40625 Z M 53.152344 4.40625 " clip-rule="nonzero"/></clipPath><clipPath id="2c213b20d0"><path d="M 0 0.078125 L 16.558594 0.078125 L 16.558594 15.921875 L 0 15.921875 Z M 0 0.078125 " clip-rule="nonzero"/></clipPath><clipPath id="aaec48cb84"><path d="M -2.28125 12.996094 L 12.164062 -0.582031 L 17.066406 4.628906 L 2.621094 18.207031 Z M -2.28125 12.996094 " clip-rule="nonzero"/></clipPath><clipPath id="8c3cf0bf20"><path d="M 11.152344 0.40625 L 1.914062 9.089844 C 1.558594 9.425781 1.308594 9.855469 1.195312 10.332031 L 0.0664062 15.148438 C 0.0273438 15.3125 0.0742188 15.480469 0.1875 15.601562 C 0.304688 15.726562 0.472656 15.78125 0.636719 15.753906 L 5.511719 14.921875 C 5.992188 14.839844 6.441406 14.617188 6.796875 14.28125 L 16.035156 5.597656 C 16.035156 5.597656 16.328125 3.878906 14.605469 2.046875 C 12.886719 0.21875 11.152344 0.40625 11.152344 0.40625 Z M 11.152344 0.40625 " clip-rule="nonzero"/></clipPath><clipPath id="bcad41b178"><rect x="0" width="17" y="0" height="16"/></clipPath><clipPath id="75535214d6"><path d="M 26.960938 48.261719 L 34.117188 48.261719 L 34.117188 68.085938 L 26.960938 68.085938 Z M 26.960938 48.261719 " clip-rule="nonzero"/></clipPath><clipPath id="b45a493662"><path d="M 34.089844 66.671875 L 34.089844 53.996094 C 34.089844 53.503906 33.945312 53.027344 33.675781 52.621094 L 30.941406 48.496094 C 30.847656 48.359375 30.691406 48.273438 30.527344 48.273438 C 30.359375 48.273438 30.203125 48.359375 30.109375 48.496094 L 27.375 52.621094 C 27.105469 53.027344 26.960938 53.503906 26.960938 53.996094 L 26.960938 66.671875 C 26.960938 66.671875 28.015625 68.066406 30.527344 68.066406 C 33.035156 68.066406 34.089844 66.671875 34.089844 66.671875 Z M 34.089844 66.671875 " clip-rule="nonzero"/></clipPath><clipPath id="4faccca634"><path d="M 0.960938 0.261719 L 8.117188 0.261719 L 8.117188 20.085938 L 0.960938 20.085938 Z M 0.960938 0.261719 " clip-rule="nonzero"/></clipPath><clipPath id="758c6c62c7"><path d="M 8.089844 18.671875 L 8.089844 5.996094 C 8.089844 5.503906 7.945312 5.027344 7.675781 4.621094 L 4.941406 0.496094 C 4.847656 0.359375 4.691406 0.273438 4.527344 0.273438 C 4.359375 0.273438 4.203125 0.359375 4.109375 0.496094 L 1.375 4.621094 C 1.105469 5.027344 0.960938 5.503906 0.960938 5.996094 L 0.960938 18.671875 C 0.960938 18.671875 2.015625 20.066406 4.527344 20.066406 C 7.035156 20.066406 8.089844 18.671875 8.089844 18.671875 Z M 8.089844 18.671875 " clip-rule="nonzero"/></clipPath><clipPath id="6972547f8b"><rect x="0" width="9" y="0" height="21"/></clipPath><clipPath id="cbd214a715"><path d="M 25.472656 33.925781 L 35.28125 33.925781 L 35.28125 47.875 L 25.472656 47.875 Z M 25.472656 33.925781 " clip-rule="nonzero"/></clipPath><clipPath id="888954245a"><path d="M 0.472656 0.925781 L 10.28125 0.925781 L 10.28125 14.875 L 0.472656 14.875 Z M 0.472656 0.925781 " clip-rule="nonzero"/></clipPath><clipPath id="7a4dc56a95"><rect x="0" width="11" y="0" height="15"/></clipPath><clipPath id="8ee6435c24"><path d="M 0.0390625 2 L 3.878906 2 L 3.878906 6 L 0.0390625 6 Z M 0.0390625 2 " clip-rule="nonzero"/></clipPath><clipPath id="612984591b"><rect x="0" width="4" y="0" height="8"/></clipPath><clipPath id="4fbbeaede8"><path d="M 0.0390625 2 L 4 2 L 4 6 L 0.0390625 6 Z M 0.0390625 2 " clip-rule="nonzero"/></clipPath><clipPath id="d16d1f37ab"><rect x="0" width="5" y="0" height="8"/></clipPath></defs><g clip-path="url(#b42c414d74)"><g clip-path="url(#5fa2e4e6e1)"><g clip-path="url(#60c4acdce3)"><g transform="matrix(1, 0, 0, 1, 42, 4)"><g clip-path="url(#bcad41b178)"><g clip-path="url(#2c213b20d0)"><g clip-path="url(#aaec48cb84)"><g clip-path="url(#8c3cf0bf20)"><path fill="#000000" d="M -2.546875 13.28125 L 12.164062 -0.542969 L 17.042969 4.648438 L 2.335938 18.476562 Z M -2.546875 13.28125 " fill-opacity="1" fill-rule="nonzero"/></g></g></g></g></g></g></g></g><g clip-path="url(#75535214d6)"><g clip-path="url(#b45a493662)"><g transform="matrix(1, 0, 0, 1, 26, 48)"><g clip-path="url(#6972547f8b)"><g clip-path="url(#4faccca634)"><g clip-path="url(#758c6c62c7)"><path fill="#000000" d="M 8.089844 -0.128906 L 8.089844 20.058594 L 0.960938 20.058594 L 0.960938 -0.128906 Z M 8.089844 -0.128906 " fill-opacity="1" fill-rule="nonzero"/></g></g></g></g></g></g><g clip-path="url(#cbd214a715)"><g transform="matrix(1, 0, 0, 1, 25, 33)"><g clip-path="url(#7a4dc56a95)"><g clip-path="url(#888954245a)"><path fill="#000000" d="M 0.472656 0.925781 L 10.28125 0.925781 L 10.28125 14.871094 L 0.472656 14.871094 Z M 0.472656 0.925781 " fill-opacity="1" fill-rule="nonzero"/></g></g></g></g><g transform="matrix(1, 0, 0, 1, 29, 54)"><g clip-path="url(#612984591b)"><g clip-path="url(#8ee6435c24)"><g fill="#ffffff" fill-opacity="1"><g transform="translate(0.0711267, 5.636812)"><g><path d="M 3.21875 0 L 2.765625 0 L 2.4375 -0.984375 L 0.90625 -0.984375 L 0.578125 0 L 0.140625 0 L 1.390625 -3.5625 L 1.96875 -3.5625 Z M 1.640625 -3.140625 L 1.03125 -1.328125 L 2.3125 -1.328125 L 1.703125 -3.140625 Z M 1.640625 -3.140625 "/></g></g></g></g></g></g><path fill="#000000" d="M 30.527344 38.242188 L 30.527344 37.492188 L 31.277344 37.492188 L 31.277344 38.242188 M 30.527344 36.742188 L 30.527344 35.992188 L 31.277344 35.992188 L 31.277344 36.742188 M 30.527344 35.242188 L 30.527344 34.492188 L 31.277344 34.492188 L 31.277344 35.242188 M 30.527344 33.742188 L 30.527344 32.992188 L 31.277344 32.992188 L 31.277344 33.742188 M 30.527344 32.242188 L 30.527344 31.492188 L 31.277344 31.492188 L 31.277344 32.242188 M 30.527344 30.742188 L 30.527344 29.992188 L 31.277344 29.992188 L 31.277344 30.742188 " fill-opacity="1" fill-rule="nonzero"/><path stroke-linecap="round" transform="matrix(0, -0.75, 0.75, 0, 30.525792, 38.24272)" fill="none" stroke-linejoin="round" d="M 9.021544 -0.997931 L 11.021544 0.502069 L 9.021544 2.002069 " stroke="#000000" stroke-width="1" stroke-opacity="1" stroke-miterlimit="4"/><path fill="#000000" d="M 46.261719 16.558594 L 45.714844 17.074219 L 45.199219 16.527344 L 45.746094 16.011719 M 45.171875 17.589844 L 44.625 18.105469 L 44.109375 17.558594 L 44.65625 17.042969 M 44.082031 18.617188 L 43.535156 19.132812 L 43.019531 18.589844 L 43.566406 18.074219 M 42.988281 19.648438 L 42.445312 20.164062 L 41.929688 19.621094 L 42.476562 19.105469 M 41.898438 20.679688 L 41.355469 21.195312 L 40.839844 20.648438 L 41.382812 20.132812 M 40.808594 21.710938 L 40.265625 22.226562 L 39.75 21.679688 L 40.292969 21.164062 " fill-opacity="1" fill-rule="nonzero"/><path stroke-linecap="round" transform="matrix(-0.545116, 0.51512, -0.51512, -0.545116, 46.260771, 16.558419)" fill="none" stroke-linejoin="round" d="M 9.520743 -0.999917 L 11.51961 0.501999 L 9.517171 1.999222 " stroke="#000000" stroke-width="1" stroke-opacity="1" stroke-miterlimit="4"/><g transform="matrix(1, 0, 0, 1, 47, 9)"><g clip-path="url(#d16d1f37ab)"><g clip-path="url(#4fbbeaede8)"><g fill="#ffffff" fill-opacity="1"><g transform="translate(0.241227, 5.631058)"><g><path d="M 0.546875 0 L 0.546875 -3.5625 L 1.890625 -3.5625 C 2.109375 -3.5625 2.296875 -3.523438 2.453125 -3.453125 C 2.609375 -3.390625 2.722656 -3.289062 2.796875 -3.15625 C 2.867188 -3.03125 2.90625 -2.878906 2.90625 -2.703125 C 2.90625 -2.546875 2.863281 -2.40625 2.78125 -2.28125 C 2.695312 -2.15625 2.578125 -2.054688 2.421875 -1.984375 L 2.421875 -1.9375 C 2.660156 -1.875 2.84375 -1.765625 2.96875 -1.609375 C 3.09375 -1.460938 3.15625 -1.269531 3.15625 -1.03125 C 3.15625 -0.695312 3.054688 -0.441406 2.859375 -0.265625 C 2.660156 -0.0859375 2.375 0 2 0 Z M 1.875 -2.078125 C 2.070312 -2.078125 2.222656 -2.125 2.328125 -2.21875 C 2.441406 -2.320312 2.5 -2.46875 2.5 -2.65625 C 2.5 -2.84375 2.445312 -2.984375 2.34375 -3.078125 C 2.238281 -3.171875 2.082031 -3.21875 1.875 -3.21875 L 0.953125 -3.21875 L 0.953125 -2.078125 Z M 1.96875 -0.34375 C 2.46875 -0.34375 2.71875 -0.570312 2.71875 -1.03125 C 2.71875 -1.488281 2.46875 -1.71875 1.96875 -1.71875 L 0.953125 -1.71875 L 0.953125 -0.34375 Z M 1.96875 -0.34375 "/></g></g></g></g></g></g></svg>