<svg xmlns="http://www.w3.org/2000/svg" xmlns:xlink="http://www.w3.org/1999/xlink" width="96" zoomAndPan="magnify" viewBox="0 0 72 72" height="96" preserveAspectRatio="xMidYMid meet" version="1.0"><defs><g/><clipPath id="0b708e5c99"><path d="M 12.238281 13.019531 L 22.320312 13.019531 L 22.320312 23.101562 L 12.238281 23.101562 Z M 12.238281 13.019531 " clip-rule="nonzero"/></clipPath><clipPath id="4e4f13125d"><path d="M 17.28125 13.019531 C 14.496094 13.019531 12.238281 15.277344 12.238281 18.058594 C 12.238281 20.84375 14.496094 23.101562 17.28125 23.101562 C 20.0625 23.101562 22.320312 20.84375 22.320312 18.058594 C 22.320312 15.277344 20.0625 13.019531 17.28125 13.019531 Z M 17.28125 13.019531 " clip-rule="nonzero"/></clipPath><clipPath id="ccece2cbc2"><path d="M 0.238281 0.0195312 L 10.320312 0.0195312 L 10.320312 10.101562 L 0.238281 10.101562 Z M 0.238281 0.0195312 " clip-rule="nonzero"/></clipPath><clipPath id="647b856331"><path d="M 5.28125 0.0195312 C 2.496094 0.0195312 0.238281 2.277344 0.238281 5.058594 C 0.238281 7.84375 2.496094 10.101562 5.28125 10.101562 C 8.0625 10.101562 10.320312 7.84375 10.320312 5.058594 C 10.320312 2.277344 8.0625 0.0195312 5.28125 0.0195312 Z M 5.28125 0.0195312 " clip-rule="nonzero"/></clipPath><clipPath id="af85a29008"><rect x="0" width="11" y="0" height="11"/></clipPath><clipPath id="b26435bfc9"><path d="M 12.511719 46.980469 L 22.605469 46.980469 L 22.605469 55.800781 L 12.511719 55.800781 Z M 12.511719 46.980469 " clip-rule="nonzero"/></clipPath><clipPath id="db99c00e8a"><path d="M 17.550781 55.800781 L 22.589844 46.980469 L 12.511719 46.980469 Z M 17.550781 55.800781 " clip-rule="nonzero"/></clipPath><clipPath id="6c17ed1e02"><path d="M 0.511719 0.980469 L 10.605469 0.980469 L 10.605469 9.800781 L 0.511719 9.800781 Z M 0.511719 0.980469 " clip-rule="nonzero"/></clipPath><clipPath id="636211dba2"><path d="M 5.550781 9.800781 L 10.589844 0.980469 L 0.511719 0.980469 Z M 5.550781 9.800781 " clip-rule="nonzero"/></clipPath><clipPath id="a609556a8f"><rect x="0" width="11" y="0" height="10"/></clipPath><clipPath id="d27f5f600e"><path d="M 12.75 54.898438 L 22.363281 54.898438 L 22.363281 63.300781 L 12.75 63.300781 Z M 12.75 54.898438 " clip-rule="nonzero"/></clipPath><clipPath id="61ceee5253"><path d="M 17.550781 54.898438 L 22.351562 63.300781 L 12.75 63.300781 Z M 17.550781 54.898438 " clip-rule="nonzero"/></clipPath><clipPath id="20eacc5d8f"><path d="M 0.75 0.898438 L 10.363281 0.898438 L 10.363281 9.300781 L 0.75 9.300781 Z M 0.75 0.898438 " clip-rule="nonzero"/></clipPath><clipPath id="8ee7c300e8"><path d="M 5.550781 0.898438 L 10.351562 9.300781 L 0.75 9.300781 Z M 5.550781 0.898438 " clip-rule="nonzero"/></clipPath><clipPath id="13c36e723a"><rect x="0" width="11" y="0" height="10"/></clipPath><clipPath id="d1e58b224d"><path d="M 49.199219 50.699219 L 58.8125 50.699219 L 58.8125 59.101562 L 49.199219 59.101562 Z M 49.199219 50.699219 " clip-rule="nonzero"/></clipPath><clipPath id="3ba9f1e962"><path d="M 54 50.699219 L 58.800781 59.101562 L 49.199219 59.101562 Z M 54 50.699219 " clip-rule="nonzero"/></clipPath><clipPath id="e84519965f"><path d="M 0.199219 0.699219 L 9.800781 0.699219 L 9.800781 9.101562 L 0.199219 9.101562 Z M 0.199219 0.699219 " clip-rule="nonzero"/></clipPath><clipPath id="b4ebf70862"><path d="M 5 0.699219 L 9.800781 9.101562 L 0.199219 9.101562 Z M 5 0.699219 " clip-rule="nonzero"/></clipPath><clipPath id="be1a598bbb"><rect x="0" width="10" y="0" height="10"/></clipPath><clipPath id="dd224d61ea"><path d="M 49.199219 13.019531 L 59.28125 13.019531 L 59.28125 23.101562 L 49.199219 23.101562 Z M 49.199219 13.019531 " clip-rule="nonzero"/></clipPath><clipPath id="1e509f24b9"><path d="M 54.238281 13.019531 L 59.28125 18.058594 L 54.238281 23.101562 L 49.199219 18.058594 Z M 54.238281 13.019531 " clip-rule="nonzero"/></clipPath><clipPath id="4cb444a2b5"><path d="M 0.199219 0.0195312 L 10.28125 0.0195312 L 10.28125 10.101562 L 0.199219 10.101562 Z M 0.199219 0.0195312 " clip-rule="nonzero"/></clipPath><clipPath id="1a14208f40"><path d="M 5.238281 0.0195312 L 10.28125 5.058594 L 5.238281 10.101562 L 0.199219 5.058594 Z M 5.238281 0.0195312 " clip-rule="nonzero"/></clipPath><clipPath id="d3fd90404d"><rect x="0" width="11" y="0" height="11"/></clipPath><clipPath id="ba9ffe07a6"><path d="M 0.679688 0 L 4 0 L 4 5 L 0.679688 5 Z M 0.679688 0 " clip-rule="nonzero"/></clipPath><clipPath id="3c818c5fd1"><rect x="0" width="5" y="0" height="7"/></clipPath><clipPath id="cfcf3042cb"><path d="M 0.160156 0 L 4 0 L 4 5 L 0.160156 5 Z M 0.160156 0 " clip-rule="nonzero"/></clipPath><clipPath id="02cae755d7"><rect x="0" width="5" y="0" height="7"/></clipPath><clipPath id="0e1fc75192"><path d="M 0.441406 1 L 4 1 L 4 6 L 0.441406 6 Z M 0.441406 1 " clip-rule="nonzero"/></clipPath><clipPath id="4badab2969"><rect x="0" width="5" y="0" height="8"/></clipPath><clipPath id="2d171111b6"><rect x="0" width="6" y="0" height="8"/></clipPath></defs><path stroke-linecap="butt" transform="matrix(0.75, 0, 0, 0.75, 0, 35.250001)" fill="none" stroke-linejoin="miter" d="M 0 0.999999 L 96.000004 0.999999 " stroke="#000000" stroke-width="2" stroke-opacity="1" stroke-miterlimit="4"/><path stroke-linecap="butt" transform="matrix(0.000000001309, 0.75, -0.75, 0.000000001309, 36.749998, 0.00000199869)" fill="none" stroke-linejoin="miter" d="M -0.00000266667 0.999998 L 96.000001 0.999998 " stroke="#000000" stroke-width="2" stroke-opacity="1" stroke-miterlimit="4"/><path stroke-linecap="butt" transform="matrix(0, 0.75, -0.75, 0, 17.924999, 0.000002)" fill="none" stroke-linejoin="miter" d="M -0.00000266667 0.498957 L 47.999999 0.498957 " stroke="#000000" stroke-width="1" stroke-opacity="1" stroke-miterlimit="4"/><path stroke-linecap="butt" transform="matrix(0, 0.75, -0.75, 0, 17.924999, 36.000001)" fill="none" stroke-linejoin="miter" d="M -0.000000666667 0.498957 L 48.000001 0.498957 " stroke="#000000" stroke-width="1" stroke-opacity="1" stroke-miterlimit="4"/><g clip-path="url(#0b708e5c99)"><g clip-path="url(#4e4f13125d)"><g transform="matrix(1, 0, 0, 1, 12, 13)"><g clip-path="url(#af85a29008)"><g clip-path="url(#ccece2cbc2)"><g clip-path="url(#647b856331)"><path fill="#222222" d="M 0.238281 0.0195312 L 10.320312 0.0195312 L 10.320312 10.101562 L 0.238281 10.101562 Z M 0.238281 0.0195312 " fill-opacity="1" fill-rule="nonzero"/></g></g></g></g></g></g><g clip-path="url(#b26435bfc9)"><g clip-path="url(#db99c00e8a)"><g transform="matrix(1, 0, 0, 1, 12, 46)"><g clip-path="url(#a609556a8f)"><g clip-path="url(#6c17ed1e02)"><g clip-path="url(#636211dba2)"><path fill="#222222" d="M 0.511719 0.980469 L 10.605469 0.980469 L 10.605469 9.800781 L 0.511719 9.800781 Z M 0.511719 0.980469 " fill-opacity="1" fill-rule="nonzero"/></g></g></g></g></g></g><g clip-path="url(#d27f5f600e)"><g clip-path="url(#61ceee5253)"><g transform="matrix(1, 0, 0, 1, 12, 54)"><g clip-path="url(#13c36e723a)"><g clip-path="url(#20eacc5d8f)"><g clip-path="url(#8ee7c300e8)"><path fill="#222222" d="M 0.75 0.898438 L 10.363281 0.898438 L 10.363281 9.300781 L 0.75 9.300781 Z M 0.75 0.898438 " fill-opacity="1" fill-rule="nonzero"/></g></g></g></g></g></g><path stroke-linecap="butt" transform="matrix(0, 0.75, -0.75, 0, 54.374998, 36.000001)" fill="none" stroke-linejoin="miter" d="M -0.000000666667 0.499997 L 48.000001 0.499997 " stroke="#000000" stroke-width="1" stroke-opacity="1" stroke-miterlimit="4"/><g clip-path="url(#d1e58b224d)"><g clip-path="url(#3ba9f1e962)"><g transform="matrix(1, 0, 0, 1, 49, 50)"><g clip-path="url(#be1a598bbb)"><g clip-path="url(#e84519965f)"><g clip-path="url(#b4ebf70862)"><path fill="#222222" d="M 0.199219 0.699219 L 9.8125 0.699219 L 9.8125 9.101562 L 0.199219 9.101562 Z M 0.199219 0.699219 " fill-opacity="1" fill-rule="nonzero"/></g></g></g></g></g></g><path stroke-linecap="butt" transform="matrix(0, 0.75, -0.75, 0, 54.587239, 0.000002)" fill="none" stroke-linejoin="miter" d="M -0.00000266667 0.501736 L 47.999999 0.501736 " stroke="#000000" stroke-width="1" stroke-opacity="1" stroke-miterlimit="4"/><g clip-path="url(#dd224d61ea)"><g clip-path="url(#1e509f24b9)"><g transform="matrix(1, 0, 0, 1, 49, 13)"><g clip-path="url(#d3fd90404d)"><g clip-path="url(#4cb444a2b5)"><g clip-path="url(#1a14208f40)"><path fill="#222222" d="M 0.199219 0.0195312 L 10.28125 0.0195312 L 10.28125 10.101562 L 0.199219 10.101562 Z M 0.199219 0.0195312 " fill-opacity="1" fill-rule="nonzero"/></g></g></g></g></g></g><g transform="matrix(1, 0, 0, 1, 1, -0.000000000000001479)"><g clip-path="url(#3c818c5fd1)"><g clip-path="url(#ba9ffe07a6)"><g fill="#000000" fill-opacity="1"><g transform="translate(0.718769, 4.500052)"><g><path d="M 3.21875 0 L 2.765625 0 L 2.4375 -0.984375 L 0.90625 -0.984375 L 0.578125 0 L 0.140625 0 L 1.390625 -3.5625 L 1.96875 -3.5625 Z M 1.640625 -3.140625 L 1.03125 -1.328125 L 2.3125 -1.328125 L 1.703125 -3.140625 Z M 1.640625 -3.140625 "/></g></g></g></g></g></g><g transform="matrix(1, 0, 0, 1, 38, -0.000000000000001479)"><g clip-path="url(#02cae755d7)"><g clip-path="url(#cfcf3042cb)"><g fill="#000000" fill-opacity="1"><g transform="translate(0.399705, 4.500052)"><g><path d="M 0.546875 0 L 0.546875 -3.5625 L 1.890625 -3.5625 C 2.109375 -3.5625 2.296875 -3.523438 2.453125 -3.453125 C 2.609375 -3.390625 2.722656 -3.289062 2.796875 -3.15625 C 2.867188 -3.03125 2.90625 -2.878906 2.90625 -2.703125 C 2.90625 -2.546875 2.863281 -2.40625 2.78125 -2.28125 C 2.695312 -2.15625 2.578125 -2.054688 2.421875 -1.984375 L 2.421875 -1.9375 C 2.660156 -1.875 2.84375 -1.765625 2.96875 -1.609375 C 3.09375 -1.460938 3.15625 -1.269531 3.15625 -1.03125 C 3.15625 -0.695312 3.054688 -0.441406 2.859375 -0.265625 C 2.660156 -0.0859375 2.375 0 2 0 Z M 1.875 -2.078125 C 2.070312 -2.078125 2.222656 -2.125 2.328125 -2.21875 C 2.441406 -2.320312 2.5 -2.46875 2.5 -2.65625 C 2.5 -2.84375 2.445312 -2.984375 2.34375 -3.078125 C 2.238281 -3.171875 2.082031 -3.21875 1.875 -3.21875 L 0.953125 -3.21875 L 0.953125 -2.078125 Z M 1.96875 -0.34375 C 2.46875 -0.34375 2.71875 -0.570312 2.71875 -1.03125 C 2.71875 -1.488281 2.46875 -1.71875 1.96875 -1.71875 L 0.953125 -1.71875 L 0.953125 -0.34375 Z M 1.96875 -0.34375 "/></g></g></g></g></g></g><g transform="matrix(1, 0, 0, 1, 1, 36)"><g clip-path="url(#4badab2969)"><g clip-path="url(#0e1fc75192)"><g fill="#000000" fill-opacity="1"><g transform="translate(0.640643, 5.506683)"><g><path d="M 1.96875 0.046875 C 1.65625 0.046875 1.375 -0.0195312 1.125 -0.15625 C 0.882812 -0.300781 0.695312 -0.507812 0.5625 -0.78125 C 0.425781 -1.0625 0.359375 -1.394531 0.359375 -1.78125 C 0.359375 -2.164062 0.425781 -2.492188 0.5625 -2.765625 C 0.695312 -3.046875 0.882812 -3.257812 1.125 -3.40625 C 1.375 -3.550781 1.65625 -3.625 1.96875 -3.625 C 2.300781 -3.625 2.578125 -3.5625 2.796875 -3.4375 C 3.023438 -3.3125 3.1875 -3.117188 3.28125 -2.859375 L 3.015625 -2.6875 L 2.953125 -2.6875 C 2.859375 -2.882812 2.734375 -3.023438 2.578125 -3.109375 C 2.421875 -3.203125 2.21875 -3.25 1.96875 -3.25 C 1.75 -3.25 1.550781 -3.195312 1.375 -3.09375 C 1.195312 -2.988281 1.054688 -2.828125 0.953125 -2.609375 C 0.859375 -2.398438 0.8125 -2.125 0.8125 -1.78125 C 0.8125 -1.445312 0.859375 -1.171875 0.953125 -0.953125 C 1.054688 -0.734375 1.195312 -0.570312 1.375 -0.46875 C 1.550781 -0.375 1.75 -0.328125 1.96875 -0.328125 C 2.226562 -0.328125 2.441406 -0.382812 2.609375 -0.5 C 2.773438 -0.613281 2.894531 -0.800781 2.96875 -1.0625 L 3.03125 -1.0625 L 3.3125 -0.921875 C 3.226562 -0.609375 3.070312 -0.367188 2.84375 -0.203125 C 2.613281 -0.0351562 2.320312 0.046875 1.96875 0.046875 Z M 1.96875 0.046875 "/></g></g></g></g></g></g><g transform="matrix(1, 0, 0, 1, 37, 36)"><g clip-path="url(#2d171111b6)"><g fill="#000000" fill-opacity="1"><g transform="translate(1.041628, 5.506683)"><g><path d="M 1.6875 -3.5625 C 2.050781 -3.5625 2.363281 -3.5 2.625 -3.375 C 2.882812 -3.25 3.082031 -3.050781 3.21875 -2.78125 C 3.363281 -2.519531 3.4375 -2.1875 3.4375 -1.78125 C 3.4375 -1.382812 3.363281 -1.050781 3.21875 -0.78125 C 3.082031 -0.519531 2.882812 -0.320312 2.625 -0.1875 C 2.363281 -0.0625 2.050781 0 1.6875 0 L 0.546875 0 L 0.546875 -3.5625 Z M 1.65625 -0.359375 C 1.945312 -0.359375 2.191406 -0.40625 2.390625 -0.5 C 2.585938 -0.59375 2.734375 -0.742188 2.828125 -0.953125 C 2.929688 -1.160156 2.984375 -1.4375 2.984375 -1.78125 C 2.984375 -2.132812 2.929688 -2.414062 2.828125 -2.625 C 2.734375 -2.832031 2.585938 -2.984375 2.390625 -3.078125 C 2.191406 -3.171875 1.945312 -3.21875 1.65625 -3.21875 L 0.953125 -3.21875 L 0.953125 -0.359375 Z M 1.65625 -0.359375 "/></g></g></g></g></g></svg>