<svg xmlns="http://www.w3.org/2000/svg" xmlns:xlink="http://www.w3.org/1999/xlink" width="96" zoomAndPan="magnify" viewBox="0 0 72 72" height="96" preserveAspectRatio="xMidYMid meet" version="1.0"><defs><g/><clipPath id="ab4da9b08c"><path d="M 45 15 L 64 15 L 64 28 L 45 28 Z M 45 15 " clip-rule="nonzero"/></clipPath><clipPath id="49d4aba3c2"><path d="M 44.117188 24.253906 L 61.359375 14.464844 L 64.890625 20.691406 L 47.648438 30.476562 Z M 44.117188 24.253906 " clip-rule="nonzero"/></clipPath><clipPath id="f36501e4d5"><path d="M 60.140625 15.191406 L 49.117188 21.449219 C 48.691406 21.691406 48.34375 22.050781 48.125 22.488281 L 45.890625 26.902344 C 45.816406 27.050781 45.820312 27.226562 45.902344 27.371094 C 45.984375 27.515625 46.132812 27.609375 46.300781 27.621094 L 51.234375 27.964844 C 51.722656 28 52.210938 27.890625 52.632812 27.648438 L 63.660156 21.386719 C 63.660156 21.386719 64.351562 19.785156 63.113281 17.601562 C 61.871094 15.417969 60.140625 15.191406 60.140625 15.191406 Z M 60.140625 15.191406 " clip-rule="nonzero"/></clipPath><clipPath id="addfe38711"><path d="M 0.601562 0.121094 L 19 0.121094 L 19 13 L 0.601562 13 Z M 0.601562 0.121094 " clip-rule="nonzero"/></clipPath><clipPath id="e2d0333ece"><path d="M -0.882812 9.253906 L 16.359375 -0.535156 L 19.890625 5.691406 L 2.648438 15.476562 Z M -0.882812 9.253906 " clip-rule="nonzero"/></clipPath><clipPath id="df0ae26051"><path d="M 15.140625 0.191406 L 4.117188 6.449219 C 3.691406 6.691406 3.34375 7.050781 3.125 7.488281 L 0.890625 11.902344 C 0.816406 12.050781 0.820312 12.226562 0.902344 12.371094 C 0.984375 12.515625 1.132812 12.609375 1.300781 12.621094 L 6.234375 12.964844 C 6.722656 13 7.210938 12.890625 7.632812 12.648438 L 18.660156 6.386719 C 18.660156 6.386719 19.351562 4.785156 18.113281 2.601562 C 16.871094 0.417969 15.140625 0.191406 15.140625 0.191406 Z M 15.140625 0.191406 " clip-rule="nonzero"/></clipPath><clipPath id="b5d6b5332d"><rect x="0" width="19" y="0" height="13"/></clipPath><clipPath id="871a81786d"><path d="M 15.476562 40.84375 L 35.304688 40.84375 L 35.304688 48 L 15.476562 48 Z M 15.476562 40.84375 " clip-rule="nonzero"/></clipPath><clipPath id="cdb829d1c1"><path d="M 33.886719 40.871094 L 21.210938 40.871094 C 20.71875 40.871094 20.242188 41.015625 19.835938 41.285156 L 15.714844 44.019531 C 15.574219 44.113281 15.492188 44.269531 15.492188 44.4375 C 15.492188 44.601562 15.574219 44.757812 15.714844 44.851562 L 19.835938 47.585938 C 20.242188 47.855469 20.71875 48 21.210938 48 L 33.886719 48 C 33.886719 48 35.28125 46.945312 35.28125 44.4375 C 35.28125 41.925781 33.886719 40.871094 33.886719 40.871094 Z M 33.886719 40.871094 " clip-rule="nonzero"/></clipPath><clipPath id="7a3d0c9f95"><path d="M 0.476562 0.84375 L 20.28125 0.84375 L 20.28125 8 L 0.476562 8 Z M 0.476562 0.84375 " clip-rule="nonzero"/></clipPath><clipPath id="c47ac8e78d"><path d="M 18.886719 0.871094 L 6.210938 0.871094 C 5.71875 0.871094 5.242188 1.015625 4.835938 1.285156 L 0.714844 4.019531 C 0.574219 4.113281 0.492188 4.269531 0.492188 4.4375 C 0.492188 4.601562 0.574219 4.757812 0.714844 4.851562 L 4.835938 7.585938 C 5.242188 7.855469 5.71875 8 6.210938 8 L 18.886719 8 C 18.886719 8 20.28125 6.945312 20.28125 4.4375 C 20.28125 1.925781 18.886719 0.871094 18.886719 0.871094 Z M 18.886719 0.871094 " clip-rule="nonzero"/></clipPath><clipPath id="4f79a55011"><rect x="0" width="21" y="0" height="8"/></clipPath><clipPath id="17ed97afbb"><path d="M 1 2 L 4.800781 2 L 4.800781 7 L 1 7 Z M 1 2 " clip-rule="nonzero"/></clipPath><clipPath id="a94f61f620"><rect x="0" width="5" y="0" height="8"/></clipPath><clipPath id="419dbd289b"><rect x="0" width="5" y="0" height="8"/></clipPath></defs><g clip-path="url(#ab4da9b08c)"><g clip-path="url(#49d4aba3c2)"><g clip-path="url(#f36501e4d5)"><g transform="matrix(1, 0, 0, 1, 45, 15)"><g clip-path="url(#b5d6b5332d)"><g clip-path="url(#addfe38711)"><g clip-path="url(#e2d0333ece)"><g clip-path="url(#df0ae26051)"><path fill="#000000" d="M -1.207031 9.46875 L 16.347656 -0.496094 L 19.867188 5.703125 L 2.3125 15.667969 Z M -1.207031 9.46875 " fill-opacity="1" fill-rule="nonzero"/></g></g></g></g></g></g></g></g><g clip-path="url(#871a81786d)"><g clip-path="url(#cdb829d1c1)"><g transform="matrix(1, 0, 0, 1, 15, 40)"><g clip-path="url(#4f79a55011)"><g clip-path="url(#7a3d0c9f95)"><g clip-path="url(#c47ac8e78d)"><path fill="#000000" d="M 0.0898438 0.871094 L 20.273438 0.871094 L 20.273438 8 L 0.0898438 8 Z M 0.0898438 0.871094 " fill-opacity="1" fill-rule="nonzero"/></g></g></g></g></g></g><g transform="matrix(1, 0, 0, 1, 24, 40)"><g clip-path="url(#a94f61f620)"><g clip-path="url(#17ed97afbb)"><g fill="#ffffff" fill-opacity="1"><g transform="translate(1.008452, 6.102681)"><g><path d="M 3.21875 0 L 2.765625 0 L 2.4375 -0.984375 L 0.90625 -0.984375 L 0.578125 0 L 0.140625 0 L 1.390625 -3.5625 L 1.96875 -3.5625 Z M 1.640625 -3.140625 L 1.03125 -1.328125 L 2.3125 -1.328125 L 1.703125 -3.140625 Z M 1.640625 -3.140625 "/></g></g></g></g></g></g><path fill="#000000" d="M 17.996094 44.8125 L 17.246094 44.8125 L 17.246094 44.0625 L 17.996094 44.0625 M 16.496094 44.8125 L 15.746094 44.8125 L 15.746094 44.0625 L 16.496094 44.0625 M 14.996094 44.8125 L 14.246094 44.8125 L 14.246094 44.0625 L 14.996094 44.0625 M 13.496094 44.8125 L 12.746094 44.8125 L 12.746094 44.0625 L 13.496094 44.0625 M 11.996094 44.8125 L 11.246094 44.8125 L 11.246094 44.0625 L 11.996094 44.0625 M 10.496094 44.8125 L 9.746094 44.8125 L 9.746094 44.0625 L 10.496094 44.0625 " fill-opacity="1" fill-rule="nonzero"/><path stroke-linecap="round" transform="matrix(-0.75, 0, 0, -0.75, 17.996718, 44.810991)" fill="none" stroke-linejoin="round" d="M 9.021666 -1.002013 L 11.021666 0.497987 L 9.021666 1.997987 " stroke="#000000" stroke-width="1" stroke-opacity="1" stroke-miterlimit="4"/><path fill="#000000" d="M 48.265625 26.460938 L 47.613281 26.828125 L 47.242188 26.175781 L 47.894531 25.808594 M 46.960938 27.199219 L 46.308594 27.570312 L 45.9375 26.917969 L 46.589844 26.546875 M 45.65625 27.941406 L 45.003906 28.3125 L 44.632812 27.660156 L 45.285156 27.289062 M 44.351562 28.679688 L 43.699219 29.050781 L 43.328125 28.398438 L 43.980469 28.027344 M 43.046875 29.421875 L 42.394531 29.792969 L 42.023438 29.140625 L 42.675781 28.769531 M 41.742188 30.164062 L 41.089844 30.53125 L 40.71875 29.878906 L 41.371094 29.511719 " fill-opacity="1" fill-rule="nonzero"/><path stroke-linecap="round" transform="matrix(-0.652235, 0.370256, -0.370256, -0.652235, 48.265186, 26.459605)" fill="none" stroke-linejoin="round" d="M 9.019155 -1.002892 L 11.022838 0.499876 L 9.021853 1.999141 " stroke="#000000" stroke-width="1" stroke-opacity="1" stroke-miterlimit="4"/><g transform="matrix(1, 0, 0, 1, 52, 18)"><g clip-path="url(#419dbd289b)"><g fill="#ffffff" fill-opacity="1"><g transform="translate(0.612099, 6.252692)"><g><path d="M 0.546875 0 L 0.546875 -3.5625 L 1.890625 -3.5625 C 2.109375 -3.5625 2.296875 -3.523438 2.453125 -3.453125 C 2.609375 -3.390625 2.722656 -3.289062 2.796875 -3.15625 C 2.867188 -3.03125 2.90625 -2.878906 2.90625 -2.703125 C 2.90625 -2.546875 2.863281 -2.40625 2.78125 -2.28125 C 2.695312 -2.15625 2.578125 -2.054688 2.421875 -1.984375 L 2.421875 -1.9375 C 2.660156 -1.875 2.84375 -1.765625 2.96875 -1.609375 C 3.09375 -1.460938 3.15625 -1.269531 3.15625 -1.03125 C 3.15625 -0.695312 3.054688 -0.441406 2.859375 -0.265625 C 2.660156 -0.0859375 2.375 0 2 0 Z M 1.875 -2.078125 C 2.070312 -2.078125 2.222656 -2.125 2.328125 -2.21875 C 2.441406 -2.320312 2.5 -2.46875 2.5 -2.65625 C 2.5 -2.84375 2.445312 -2.984375 2.34375 -3.078125 C 2.238281 -3.171875 2.082031 -3.21875 1.875 -3.21875 L 0.953125 -3.21875 L 0.953125 -2.078125 Z M 1.96875 -0.34375 C 2.46875 -0.34375 2.71875 -0.570312 2.71875 -1.03125 C 2.71875 -1.488281 2.46875 -1.71875 1.96875 -1.71875 L 0.953125 -1.71875 L 0.953125 -0.34375 Z M 1.96875 -0.34375 "/></g></g></g></g></g></svg>