<svg xmlns="http://www.w3.org/2000/svg" xmlns:xlink="http://www.w3.org/1999/xlink" width="96" zoomAndPan="magnify" viewBox="0 0 72 72" height="96" preserveAspectRatio="xMidYMid meet" version="1.0"><defs><g/><clipPath id="9477c0df18"><path d="M 45 32.40625 L 64.824219 32.40625 L 64.824219 39.5625 L 45 39.5625 Z M 45 32.40625 " clip-rule="nonzero"/></clipPath><clipPath id="a06bff2fde"><path d="M 63.40625 32.4375 L 50.730469 32.4375 C 50.242188 32.4375 49.761719 32.582031 49.355469 32.851562 L 45.234375 35.585938 C 45.09375 35.675781 45.011719 35.832031 45.011719 36 C 45.011719 36.167969 45.09375 36.324219 45.234375 36.414062 L 49.355469 39.148438 C 49.761719 39.417969 50.242188 39.5625 50.730469 39.5625 L 63.40625 39.5625 C 63.40625 39.5625 64.800781 38.511719 64.800781 36 C 64.800781 33.488281 63.40625 32.4375 63.40625 32.4375 Z M 63.40625 32.4375 " clip-rule="nonzero"/></clipPath><clipPath id="c1797263c1"><path d="M 0 0.40625 L 19.800781 0.40625 L 19.800781 7.5625 L 0 7.5625 Z M 0 0.40625 " clip-rule="nonzero"/></clipPath><clipPath id="321547521a"><path d="M 18.40625 0.4375 L 5.730469 0.4375 C 5.242188 0.4375 4.761719 0.582031 4.355469 0.851562 L 0.234375 3.585938 C 0.09375 3.675781 0.0117188 3.832031 0.0117188 4 C 0.0117188 4.167969 0.09375 4.324219 0.234375 4.414062 L 4.355469 7.148438 C 4.761719 7.417969 5.242188 7.5625 5.730469 7.5625 L 18.40625 7.5625 C 18.40625 7.5625 19.800781 6.511719 19.800781 4 C 19.800781 1.488281 18.40625 0.4375 18.40625 0.4375 Z M 18.40625 0.4375 " clip-rule="nonzero"/></clipPath><clipPath id="ace4a84972"><rect x="0" width="20" y="0" height="8"/></clipPath><clipPath id="9fa1f7392d"><path d="M 14.429688 32.40625 L 34.253906 32.40625 L 34.253906 39.5625 L 14.429688 39.5625 Z M 14.429688 32.40625 " clip-rule="nonzero"/></clipPath><clipPath id="90748e0af8"><path d="M 32.839844 32.4375 L 20.160156 32.4375 C 19.671875 32.4375 19.191406 32.582031 18.785156 32.851562 L 14.664062 35.585938 C 14.523438 35.675781 14.441406 35.832031 14.441406 36 C 14.441406 36.167969 14.523438 36.324219 14.664062 36.414062 L 18.785156 39.148438 C 19.191406 39.417969 19.671875 39.5625 20.160156 39.5625 L 32.839844 39.5625 C 32.839844 39.5625 34.230469 38.511719 34.230469 36 C 34.230469 33.488281 32.839844 32.4375 32.839844 32.4375 Z M 32.839844 32.4375 " clip-rule="nonzero"/></clipPath><clipPath id="4bf6362e78"><path d="M 0.429688 0.40625 L 20.253906 0.40625 L 20.253906 7.5625 L 0.429688 7.5625 Z M 0.429688 0.40625 " clip-rule="nonzero"/></clipPath><clipPath id="a9192c4fe1"><path d="M 18.839844 0.4375 L 6.160156 0.4375 C 5.671875 0.4375 5.191406 0.582031 4.785156 0.851562 L 0.664062 3.585938 C 0.523438 3.675781 0.441406 3.832031 0.441406 4 C 0.441406 4.167969 0.523438 4.324219 0.664062 4.414062 L 4.785156 7.148438 C 5.191406 7.417969 5.671875 7.5625 6.160156 7.5625 L 18.839844 7.5625 C 18.839844 7.5625 20.230469 6.511719 20.230469 4 C 20.230469 1.488281 18.839844 0.4375 18.839844 0.4375 Z M 18.839844 0.4375 " clip-rule="nonzero"/></clipPath><clipPath id="ce17156e40"><rect x="0" width="21" y="0" height="8"/></clipPath><clipPath id="513a380e94"><path d="M 1 2 L 4.839844 2 L 4.839844 6 L 1 6 Z M 1 2 " clip-rule="nonzero"/></clipPath><clipPath id="b125b78c74"><rect x="0" width="5" y="0" height="8"/></clipPath><clipPath id="5ce7c6f3af"><rect x="0" width="5" y="0" height="8"/></clipPath></defs><g clip-path="url(#9477c0df18)"><g clip-path="url(#a06bff2fde)"><g transform="matrix(1, 0, 0, 1, 45, 32)"><g clip-path="url(#ace4a84972)"><g clip-path="url(#c1797263c1)"><g clip-path="url(#321547521a)"><path fill="#000000" d="M -0.390625 0.4375 L 19.796875 0.4375 L 19.796875 7.5625 L -0.390625 7.5625 Z M -0.390625 0.4375 " fill-opacity="1" fill-rule="nonzero"/></g></g></g></g></g></g><g clip-path="url(#9fa1f7392d)"><g clip-path="url(#90748e0af8)"><g transform="matrix(1, 0, 0, 1, 14, 32)"><g clip-path="url(#ce17156e40)"><g clip-path="url(#4bf6362e78)"><g clip-path="url(#a9192c4fe1)"><path fill="#000000" d="M 0.0390625 0.4375 L 20.226562 0.4375 L 20.226562 7.5625 L 0.0390625 7.5625 Z M 0.0390625 0.4375 " fill-opacity="1" fill-rule="nonzero"/></g></g></g></g></g></g><g transform="matrix(1, 0, 0, 1, 23, 32)"><g clip-path="url(#b125b78c74)"><g clip-path="url(#513a380e94)"><g fill="#ffffff" fill-opacity="1"><g transform="translate(0.958451, 5.666691)"><g><path d="M 3.21875 0 L 2.765625 0 L 2.4375 -0.984375 L 0.90625 -0.984375 L 0.578125 0 L 0.140625 0 L 1.390625 -3.5625 L 1.96875 -3.5625 Z M 1.640625 -3.140625 L 1.03125 -1.328125 L 2.3125 -1.328125 L 1.703125 -3.140625 Z M 1.640625 -3.140625 "/></g></g></g></g></g></g><path fill="#000000" d="M 16.945312 36.375 L 16.195312 36.375 L 16.195312 35.625 L 16.945312 35.625 M 15.445312 36.375 L 14.695312 36.375 L 14.695312 35.625 L 15.445312 35.625 M 13.945312 36.375 L 13.195312 36.375 L 13.195312 35.625 L 13.945312 35.625 M 12.445312 36.375 L 11.695312 36.375 L 11.695312 35.625 L 12.445312 35.625 M 10.945312 36.375 L 10.195312 36.375 L 10.195312 35.625 L 10.945312 35.625 M 9.445312 36.375 L 8.695312 36.375 L 8.695312 35.625 L 9.445312 35.625 " fill-opacity="1" fill-rule="nonzero"/><path stroke-linecap="round" transform="matrix(-0.75, 0, 0, -0.75, 16.946718, 36.375)" fill="none" stroke-linejoin="round" d="M 9.017499 -0.999999 L 11.017499 0.500001 L 9.017499 2.000001 " stroke="#000000" stroke-width="1" stroke-opacity="1" stroke-miterlimit="4"/><path fill="#000000" d="M 47.515625 36.375 L 46.765625 36.375 L 46.765625 35.625 L 47.515625 35.625 M 46.015625 36.375 L 45.265625 36.375 L 45.265625 35.625 L 46.015625 35.625 M 44.515625 36.375 L 43.765625 36.375 L 43.765625 35.625 L 44.515625 35.625 M 43.015625 36.375 L 42.265625 36.375 L 42.265625 35.625 L 43.015625 35.625 M 41.515625 36.375 L 40.765625 36.375 L 40.765625 35.625 L 41.515625 35.625 M 40.015625 36.375 L 39.265625 36.375 L 39.265625 35.625 L 40.015625 35.625 " fill-opacity="1" fill-rule="nonzero"/><path stroke-linecap="round" transform="matrix(-0.75, 0, 0, -0.75, 47.516717, 36.375)" fill="none" stroke-linejoin="round" d="M 9.02229 -0.999999 L 11.02229 0.500001 L 9.02229 2.000001 " stroke="#000000" stroke-width="1" stroke-opacity="1" stroke-miterlimit="4"/><g transform="matrix(1, 0, 0, 1, 54, 32)"><g clip-path="url(#5ce7c6f3af)"><g fill="#ffffff" fill-opacity="1"><g transform="translate(0.665169, 5.666691)"><g><path d="M 0.546875 0 L 0.546875 -3.5625 L 1.890625 -3.5625 C 2.109375 -3.5625 2.296875 -3.523438 2.453125 -3.453125 C 2.609375 -3.390625 2.722656 -3.289062 2.796875 -3.15625 C 2.867188 -3.03125 2.90625 -2.878906 2.90625 -2.703125 C 2.90625 -2.546875 2.863281 -2.40625 2.78125 -2.28125 C 2.695312 -2.15625 2.578125 -2.054688 2.421875 -1.984375 L 2.421875 -1.9375 C 2.660156 -1.875 2.84375 -1.765625 2.96875 -1.609375 C 3.09375 -1.460938 3.15625 -1.269531 3.15625 -1.03125 C 3.15625 -0.695312 3.054688 -0.441406 2.859375 -0.265625 C 2.660156 -0.0859375 2.375 0 2 0 Z M 1.875 -2.078125 C 2.070312 -2.078125 2.222656 -2.125 2.328125 -2.21875 C 2.441406 -2.320312 2.5 -2.46875 2.5 -2.65625 C 2.5 -2.84375 2.445312 -2.984375 2.34375 -3.078125 C 2.238281 -3.171875 2.082031 -3.21875 1.875 -3.21875 L 0.953125 -3.21875 L 0.953125 -2.078125 Z M 1.96875 -0.34375 C 2.46875 -0.34375 2.71875 -0.570312 2.71875 -1.03125 C 2.71875 -1.488281 2.46875 -1.71875 1.96875 -1.71875 L 0.953125 -1.71875 L 0.953125 -0.34375 Z M 1.96875 -0.34375 "/></g></g></g></g></g></svg>