<svg xmlns="http://www.w3.org/2000/svg" xmlns:xlink="http://www.w3.org/1999/xlink" width="96" zoomAndPan="magnify" viewBox="0 0 72 72" height="96" preserveAspectRatio="xMidYMid meet" version="1.0"><defs><clipPath id="d174a4ff82"><path d="M 54.585938 24 L 64.933594 24 L 64.933594 34.351562 L 54.585938 34.351562 Z M 54.585938 24 " clip-rule="nonzero"/></clipPath><clipPath id="c4a5dcea25"><path d="M 59.761719 24 C 56.902344 24 54.585938 26.316406 54.585938 29.175781 C 54.585938 32.03125 56.902344 34.351562 59.761719 34.351562 C 62.617188 34.351562 64.933594 32.03125 64.933594 29.175781 C 64.933594 26.316406 62.617188 24 59.761719 24 Z M 59.761719 24 " clip-rule="nonzero"/></clipPath><clipPath id="5551ac1017"><path d="M 0.585938 0 L 10.933594 0 L 10.933594 10.351562 L 0.585938 10.351562 Z M 0.585938 0 " clip-rule="nonzero"/></clipPath><clipPath id="82d5c41c49"><path d="M 5.761719 0 C 2.902344 0 0.585938 2.316406 0.585938 5.175781 C 0.585938 8.03125 2.902344 10.351562 5.761719 10.351562 C 8.617188 10.351562 10.933594 8.03125 10.933594 5.175781 C 10.933594 2.316406 8.617188 0 5.761719 0 Z M 5.761719 0 " clip-rule="nonzero"/></clipPath><clipPath id="b320eb8781"><rect x="0" width="11" y="0" height="11"/></clipPath><clipPath id="006f8cefe3"><path d="M 7.199219 42.824219 L 17.550781 42.824219 L 17.550781 53.175781 L 7.199219 53.175781 Z M 7.199219 42.824219 " clip-rule="nonzero"/></clipPath><clipPath id="9d7422406a"><path d="M 12.375 42.824219 C 9.515625 42.824219 7.199219 45.140625 7.199219 48 C 7.199219 50.859375 9.515625 53.175781 12.375 53.175781 C 15.234375 53.175781 17.550781 50.859375 17.550781 48 C 17.550781 45.140625 15.234375 42.824219 12.375 42.824219 Z M 12.375 42.824219 " clip-rule="nonzero"/></clipPath><clipPath id="adab52d16c"><path d="M 0.199219 0.824219 L 10.550781 0.824219 L 10.550781 11.175781 L 0.199219 11.175781 Z M 0.199219 0.824219 " clip-rule="nonzero"/></clipPath><clipPath id="b689cd07be"><path d="M 5.375 0.824219 C 2.515625 0.824219 0.199219 3.140625 0.199219 6 C 0.199219 8.859375 2.515625 11.175781 5.375 11.175781 C 8.234375 11.175781 10.550781 8.859375 10.550781 6 C 10.550781 3.140625 8.234375 0.824219 5.375 0.824219 Z M 5.375 0.824219 " clip-rule="nonzero"/></clipPath><clipPath id="15f9602235"><rect x="0" width="11" y="0" height="12"/></clipPath></defs><g clip-path="url(#d174a4ff82)"><g clip-path="url(#c4a5dcea25)"><g transform="matrix(1, 0, 0, 1, 54, 24)"><g clip-path="url(#b320eb8781)"><g clip-path="url(#5551ac1017)"><g clip-path="url(#82d5c41c49)"><path fill="#ffffff" d="M 0.585938 0 L 10.933594 0 L 10.933594 10.351562 L 0.585938 10.351562 Z M 0.585938 0 " fill-opacity="1" fill-rule="nonzero"/></g></g></g></g></g></g><g clip-path="url(#006f8cefe3)"><g clip-path="url(#9d7422406a)"><g transform="matrix(1, 0, 0, 1, 7, 42)"><g clip-path="url(#15f9602235)"><g clip-path="url(#adab52d16c)"><g clip-path="url(#b689cd07be)"><path fill="#cc0000" d="M 0.199219 0.824219 L 10.550781 0.824219 L 10.550781 11.175781 L 0.199219 11.175781 Z M 0.199219 0.824219 " fill-opacity="1" fill-rule="nonzero"/></g></g></g></g></g></g></svg>