<svg xmlns="http://www.w3.org/2000/svg" xmlns:xlink="http://www.w3.org/1999/xlink" width="96" zoomAndPan="magnify" viewBox="0 0 72 72" height="96" preserveAspectRatio="xMidYMid meet" version="1.0"><defs><clipPath id="7c68cccd67"><path d="M 42 32 L 63 32 L 63 40 L 42 40 Z M 42 32 " clip-rule="nonzero"/></clipPath><clipPath id="b802565722"><path d="M 62.820312 39.296875 L 42.996094 39.503906 L 42.921875 32.347656 L 62.746094 32.140625 Z M 62.820312 39.296875 " clip-rule="nonzero"/></clipPath><clipPath id="9f717dc047"><path d="M 44.410156 39.460938 L 57.085938 39.328125 C 57.574219 39.324219 58.054688 39.175781 58.457031 38.898438 L 62.550781 36.125 C 62.6875 36.03125 62.769531 35.875 62.769531 35.707031 C 62.765625 35.539062 62.683594 35.386719 62.542969 35.292969 L 58.390625 32.601562 C 57.980469 32.335938 57.503906 32.195312 57.011719 32.203125 L 44.335938 32.332031 C 44.335938 32.332031 42.953125 33.398438 42.980469 35.910156 C 43.007812 38.421875 44.410156 39.460938 44.410156 39.460938 Z M 44.410156 39.460938 " clip-rule="nonzero"/></clipPath><clipPath id="1ad6ec34a7"><path d="M 0.71875 0.160156 L 20.878906 0.160156 L 20.878906 7.601562 L 0.71875 7.601562 Z M 0.71875 0.160156 " clip-rule="nonzero"/></clipPath><clipPath id="11e01e9885"><path d="M 20.820312 7.296875 L 0.996094 7.503906 L 0.921875 0.347656 L 20.746094 0.140625 Z M 20.820312 7.296875 " clip-rule="nonzero"/></clipPath><clipPath id="c361213a76"><path d="M 2.410156 7.460938 L 15.085938 7.328125 C 15.574219 7.324219 16.054688 7.175781 16.457031 6.898438 L 20.550781 4.125 C 20.6875 4.03125 20.769531 3.875 20.769531 3.707031 C 20.765625 3.539062 20.683594 3.386719 20.542969 3.292969 L 16.390625 0.601562 C 15.980469 0.335938 15.503906 0.195312 15.011719 0.203125 L 2.335938 0.332031 C 2.335938 0.332031 0.953125 1.398438 0.980469 3.910156 C 1.007812 6.421875 2.410156 7.460938 2.410156 7.460938 Z M 2.410156 7.460938 " clip-rule="nonzero"/></clipPath><clipPath id="a26400d92e"><rect x="0" width="21" y="0" height="8"/></clipPath><clipPath id="b9f233c252"><path d="M 30.523438 32.144531 L 40.582031 32.144531 L 40.582031 39.480469 L 30.523438 39.480469 Z M 30.523438 32.144531 " clip-rule="nonzero"/></clipPath><clipPath id="df105b4200"><path d="M 0.523438 0.144531 L 10.582031 0.144531 L 10.582031 7.480469 L 0.523438 7.480469 Z M 0.523438 0.144531 " clip-rule="nonzero"/></clipPath><clipPath id="d72505d9a6"><rect x="0" width="11" y="0" height="8"/></clipPath><clipPath id="96e06f6872"><path d="M 18.691406 32.144531 L 28.75 32.144531 L 28.75 39.480469 L 18.691406 39.480469 Z M 18.691406 32.144531 " clip-rule="nonzero"/></clipPath><clipPath id="6e02830770"><path d="M 0.691406 0.144531 L 10.75 0.144531 L 10.75 7.480469 L 0.691406 7.480469 Z M 0.691406 0.144531 " clip-rule="nonzero"/></clipPath><clipPath id="5f4b16e695"><rect x="0" width="11" y="0" height="8"/></clipPath><clipPath id="5f0fbf2548"><path d="M 6.519531 32.527344 L 16.578125 32.527344 L 16.578125 39.863281 L 6.519531 39.863281 Z M 6.519531 32.527344 " clip-rule="nonzero"/></clipPath><clipPath id="317d2efc4e"><path d="M 0.519531 0.527344 L 10.578125 0.527344 L 10.578125 7.863281 L 0.519531 7.863281 Z M 0.519531 0.527344 " clip-rule="nonzero"/></clipPath><clipPath id="6d9400bc41"><rect x="0" width="11" y="0" height="8"/></clipPath></defs><g clip-path="url(#7c68cccd67)"><g clip-path="url(#b802565722)"><g clip-path="url(#9f717dc047)"><g transform="matrix(1, 0, 0, 1, 42, 32)"><g clip-path="url(#a26400d92e)"><g clip-path="url(#1ad6ec34a7)"><g clip-path="url(#11e01e9885)"><g clip-path="url(#c361213a76)"><path fill="#000000" d="M 21.207031 7.265625 L 1.023438 7.472656 L 0.949219 0.347656 L 21.132812 0.136719 Z M 21.207031 7.265625 " fill-opacity="1" fill-rule="nonzero"/></g></g></g></g></g></g></g></g><path fill="#000000" d="M 57.246094 35.53125 L 57.996094 35.515625 L 58.011719 36.265625 L 57.261719 36.28125 M 58.746094 35.503906 L 59.496094 35.488281 L 59.511719 36.238281 L 58.761719 36.253906 M 60.246094 35.472656 L 60.996094 35.460938 L 61.011719 36.210938 L 60.261719 36.222656 M 61.746094 35.445312 L 62.496094 35.429688 L 62.511719 36.179688 L 61.761719 36.195312 M 63.246094 35.417969 L 63.996094 35.402344 L 64.011719 36.152344 L 63.261719 36.167969 M 64.746094 35.390625 L 65.496094 35.375 L 65.511719 36.125 L 64.761719 36.140625 M 66.246094 35.359375 L 66.996094 35.347656 L 67.007812 36.097656 L 66.257812 36.109375 " fill-opacity="1" fill-rule="nonzero"/><path stroke-linecap="round" transform="matrix(0.749866, -0.0141794, 0.0141794, 0.749866, 57.247128, 35.530811)" fill="none" stroke-linejoin="round" d="M 11.102808 -0.998018 L 13.100916 0.498358 L 11.103372 2.002529 " stroke="#000000" stroke-width="1" stroke-opacity="1" stroke-miterlimit="4"/><g clip-path="url(#b9f233c252)"><g transform="matrix(1, 0, 0, 1, 30, 32)"><g clip-path="url(#d72505d9a6)"><g clip-path="url(#df105b4200)"><path fill="#000000" d="M 10.582031 0.144531 L 10.582031 7.480469 L 0.523438 7.480469 L 0.523438 0.144531 Z M 10.582031 0.144531 " fill-opacity="1" fill-rule="nonzero"/></g></g></g></g><path stroke-linecap="butt" transform="matrix(0.74929, 0.0326366, -0.0326366, 0.74929, 40.60717, 35.434747)" fill="none" stroke-linejoin="miter" d="M -0.00138932 0.498996 L 3.189211 0.500782 " stroke="#000000" stroke-width="1" stroke-opacity="1" stroke-miterlimit="4"/><g clip-path="url(#96e06f6872)"><g transform="matrix(1, 0, 0, 1, 18, 32)"><g clip-path="url(#5f4b16e695)"><g clip-path="url(#6e02830770)"><path fill="#000000" d="M 10.75 0.144531 L 10.75 7.480469 L 0.695312 7.480469 L 0.695312 0.144531 Z M 10.75 0.144531 " fill-opacity="1" fill-rule="nonzero"/></g></g></g></g><path stroke-linecap="butt" transform="matrix(0.74929, 0.0326366, -0.0326366, 0.74929, 28.776616, 35.434747)" fill="none" stroke-linejoin="miter" d="M 0.00184626 0.498855 L 3.187243 0.500868 " stroke="#000000" stroke-width="1" stroke-opacity="1" stroke-miterlimit="4"/><g clip-path="url(#5f0fbf2548)"><g transform="matrix(1, 0, 0, 1, 6, 32)"><g clip-path="url(#6d9400bc41)"><g clip-path="url(#317d2efc4e)"><path fill="#000000" d="M 10.578125 0.527344 L 10.578125 7.863281 L 0.519531 7.863281 L 0.519531 0.527344 Z M 10.578125 0.527344 " fill-opacity="1" fill-rule="nonzero"/></g></g></g></g><path stroke-linecap="butt" transform="matrix(0.74929, 0.0326366, -0.0326366, 0.74929, 16.604022, 35.816016)" fill="none" stroke-linejoin="miter" d="M -0.00230883 0.501095 L 3.188065 0.497678 " stroke="#000000" stroke-width="1" stroke-opacity="1" stroke-miterlimit="4"/></svg>