<svg xmlns="http://www.w3.org/2000/svg" xmlns:xlink="http://www.w3.org/1999/xlink" width="96" zoomAndPan="magnify" viewBox="0 0 72 72" height="96" preserveAspectRatio="xMidYMid meet" version="1.0"><defs><clipPath id="df752a0ed3"><path d="M 30.824219 13.648438 L 41.175781 13.648438 L 41.175781 24 L 30.824219 24 Z M 30.824219 13.648438 " clip-rule="nonzero"/></clipPath><clipPath id="2762f3a45e"><path d="M 36 13.648438 C 33.140625 13.648438 30.824219 15.96875 30.824219 18.824219 C 30.824219 21.683594 33.140625 24 36 24 C 38.859375 24 41.175781 21.683594 41.175781 18.824219 C 41.175781 15.96875 38.859375 13.648438 36 13.648438 Z M 36 13.648438 " clip-rule="nonzero"/></clipPath><clipPath id="e2acc6aa3d"><path d="M 0.824219 0.648438 L 11.175781 0.648438 L 11.175781 11 L 0.824219 11 Z M 0.824219 0.648438 " clip-rule="nonzero"/></clipPath><clipPath id="b93b9e5fbc"><path d="M 6 0.648438 C 3.140625 0.648438 0.824219 2.96875 0.824219 5.824219 C 0.824219 8.683594 3.140625 11 6 11 C 8.859375 11 11.175781 8.683594 11.175781 5.824219 C 11.175781 2.96875 8.859375 0.648438 6 0.648438 Z M 6 0.648438 " clip-rule="nonzero"/></clipPath><clipPath id="2ff78c2469"><rect x="0" width="12" y="0" height="11"/></clipPath><clipPath id="a25c30e17b"><path d="M 48.960938 49.648438 L 59.308594 49.648438 L 59.308594 60 L 48.960938 60 Z M 48.960938 49.648438 " clip-rule="nonzero"/></clipPath><clipPath id="5ca590842a"><path d="M 54.136719 49.648438 C 51.277344 49.648438 48.960938 51.96875 48.960938 54.824219 C 48.960938 57.683594 51.277344 60 54.136719 60 C 56.992188 60 59.308594 57.683594 59.308594 54.824219 C 59.308594 51.96875 56.992188 49.648438 54.136719 49.648438 Z M 54.136719 49.648438 " clip-rule="nonzero"/></clipPath><clipPath id="f7e903f4b6"><path d="M 0.960938 0.648438 L 11.308594 0.648438 L 11.308594 11 L 0.960938 11 Z M 0.960938 0.648438 " clip-rule="nonzero"/></clipPath><clipPath id="e35951dbd8"><path d="M 6.136719 0.648438 C 3.277344 0.648438 0.960938 2.96875 0.960938 5.824219 C 0.960938 8.683594 3.277344 11 6.136719 11 C 8.992188 11 11.308594 8.683594 11.308594 5.824219 C 11.308594 2.96875 8.992188 0.648438 6.136719 0.648438 Z M 6.136719 0.648438 " clip-rule="nonzero"/></clipPath><clipPath id="22f170243c"><rect x="0" width="12" y="0" height="11"/></clipPath><clipPath id="1261a649d0"><path d="M 12.691406 37.648438 L 23.039062 37.648438 L 23.039062 48 L 12.691406 48 Z M 12.691406 37.648438 " clip-rule="nonzero"/></clipPath><clipPath id="89929ddbb8"><path d="M 17.863281 37.648438 C 15.007812 37.648438 12.691406 39.96875 12.691406 42.824219 C 12.691406 45.683594 15.007812 48 17.863281 48 C 20.722656 48 23.039062 45.683594 23.039062 42.824219 C 23.039062 39.96875 20.722656 37.648438 17.863281 37.648438 Z M 17.863281 37.648438 " clip-rule="nonzero"/></clipPath><clipPath id="7144120625"><path d="M 0.691406 0.648438 L 11.039062 0.648438 L 11.039062 11 L 0.691406 11 Z M 0.691406 0.648438 " clip-rule="nonzero"/></clipPath><clipPath id="e0e198fac8"><path d="M 5.863281 0.648438 C 3.007812 0.648438 0.691406 2.96875 0.691406 5.824219 C 0.691406 8.683594 3.007812 11 5.863281 11 C 8.722656 11 11.039062 8.683594 11.039062 5.824219 C 11.039062 2.96875 8.722656 0.648438 5.863281 0.648438 Z M 5.863281 0.648438 " clip-rule="nonzero"/></clipPath><clipPath id="788796e2d1"><rect x="0" width="12" y="0" height="11"/></clipPath></defs><g clip-path="url(#df752a0ed3)"><g clip-path="url(#2762f3a45e)"><g transform="matrix(1, 0, 0, 1, 30, 13)"><g clip-path="url(#2ff78c2469)"><g clip-path="url(#e2acc6aa3d)"><g clip-path="url(#b93b9e5fbc)"><path fill="#ffffff" d="M 0.824219 0.648438 L 11.175781 0.648438 L 11.175781 11 L 0.824219 11 Z M 0.824219 0.648438 " fill-opacity="1" fill-rule="nonzero"/></g></g></g></g></g></g><g clip-path="url(#a25c30e17b)"><g clip-path="url(#5ca590842a)"><g transform="matrix(1, 0, 0, 1, 48, 49)"><g clip-path="url(#22f170243c)"><g clip-path="url(#f7e903f4b6)"><g clip-path="url(#e35951dbd8)"><path fill="#cc0000" d="M 0.960938 0.648438 L 11.308594 0.648438 L 11.308594 11 L 0.960938 11 Z M 0.960938 0.648438 " fill-opacity="1" fill-rule="nonzero"/></g></g></g></g></g></g><g clip-path="url(#1261a649d0)"><g clip-path="url(#89929ddbb8)"><g transform="matrix(1, 0, 0, 1, 12, 37)"><g clip-path="url(#788796e2d1)"><g clip-path="url(#7144120625)"><g clip-path="url(#e0e198fac8)"><path fill="#ffffff" d="M 0.691406 0.648438 L 11.039062 0.648438 L 11.039062 11 L 0.691406 11 Z M 0.691406 0.648438 " fill-opacity="1" fill-rule="nonzero"/></g></g></g></g></g></g></svg>