<svg xmlns="http://www.w3.org/2000/svg" xmlns:xlink="http://www.w3.org/1999/xlink" width="96" zoomAndPan="magnify" viewBox="0 0 72 72" height="96" preserveAspectRatio="xMidYMid meet" version="1.0"><defs><clipPath id="b6d6090ad6"><path d="M 42.34375 12 L 52.695312 12 L 52.695312 22.351562 L 42.34375 22.351562 Z M 42.34375 12 " clip-rule="nonzero"/></clipPath><clipPath id="c0f5d983f4"><path d="M 47.519531 12 C 44.660156 12 42.34375 14.316406 42.34375 17.175781 C 42.34375 20.03125 44.660156 22.351562 47.519531 22.351562 C 50.378906 22.351562 52.695312 20.03125 52.695312 17.175781 C 52.695312 14.316406 50.378906 12 47.519531 12 Z M 47.519531 12 " clip-rule="nonzero"/></clipPath><clipPath id="8aa800efe8"><path d="M 0.34375 0 L 10.695312 0 L 10.695312 10.351562 L 0.34375 10.351562 Z M 0.34375 0 " clip-rule="nonzero"/></clipPath><clipPath id="a2542208c0"><path d="M 5.519531 0 C 2.660156 0 0.34375 2.316406 0.34375 5.175781 C 0.34375 8.03125 2.660156 10.351562 5.519531 10.351562 C 8.378906 10.351562 10.695312 8.03125 10.695312 5.175781 C 10.695312 2.316406 8.378906 0 5.519531 0 Z M 5.519531 0 " clip-rule="nonzero"/></clipPath><clipPath id="e6de0ddb89"><rect x="0" width="11" y="0" height="11"/></clipPath><clipPath id="0c92a81fc1"><path d="M 42.34375 25.648438 L 52.695312 25.648438 L 52.695312 36 L 42.34375 36 Z M 42.34375 25.648438 " clip-rule="nonzero"/></clipPath><clipPath id="5d38ade951"><path d="M 47.519531 25.648438 C 44.660156 25.648438 42.34375 27.96875 42.34375 30.824219 C 42.34375 33.683594 44.660156 36 47.519531 36 C 50.378906 36 52.695312 33.683594 52.695312 30.824219 C 52.695312 27.96875 50.378906 25.648438 47.519531 25.648438 Z M 47.519531 25.648438 " clip-rule="nonzero"/></clipPath><clipPath id="f76a302422"><path d="M 0.34375 0.648438 L 10.695312 0.648438 L 10.695312 11 L 0.34375 11 Z M 0.34375 0.648438 " clip-rule="nonzero"/></clipPath><clipPath id="09f015fbea"><path d="M 5.519531 0.648438 C 2.660156 0.648438 0.34375 2.96875 0.34375 5.824219 C 0.34375 8.683594 2.660156 11 5.519531 11 C 8.378906 11 10.695312 8.683594 10.695312 5.824219 C 10.695312 2.96875 8.378906 0.648438 5.519531 0.648438 Z M 5.519531 0.648438 " clip-rule="nonzero"/></clipPath><clipPath id="25745fd7c6"><rect x="0" width="11" y="0" height="11"/></clipPath><clipPath id="ab6e5022eb"><path d="M 19.304688 42.824219 L 29.65625 42.824219 L 29.65625 53.175781 L 19.304688 53.175781 Z M 19.304688 42.824219 " clip-rule="nonzero"/></clipPath><clipPath id="569c5206bc"><path d="M 24.480469 42.824219 C 21.621094 42.824219 19.304688 45.140625 19.304688 48 C 19.304688 50.859375 21.621094 53.175781 24.480469 53.175781 C 27.339844 53.175781 29.65625 50.859375 29.65625 48 C 29.65625 45.140625 27.339844 42.824219 24.480469 42.824219 Z M 24.480469 42.824219 " clip-rule="nonzero"/></clipPath><clipPath id="ff0944f3d7"><path d="M 0.304688 0.824219 L 10.65625 0.824219 L 10.65625 11.175781 L 0.304688 11.175781 Z M 0.304688 0.824219 " clip-rule="nonzero"/></clipPath><clipPath id="4dfbe96a9e"><path d="M 5.480469 0.824219 C 2.621094 0.824219 0.304688 3.140625 0.304688 6 C 0.304688 8.859375 2.621094 11.175781 5.480469 11.175781 C 8.339844 11.175781 10.65625 8.859375 10.65625 6 C 10.65625 3.140625 8.339844 0.824219 5.480469 0.824219 Z M 5.480469 0.824219 " clip-rule="nonzero"/></clipPath><clipPath id="7d6c768404"><rect x="0" width="11" y="0" height="12"/></clipPath></defs><g clip-path="url(#b6d6090ad6)"><g clip-path="url(#c0f5d983f4)"><g transform="matrix(1, 0, 0, 1, 42, 12)"><g clip-path="url(#e6de0ddb89)"><g clip-path="url(#8aa800efe8)"><g clip-path="url(#a2542208c0)"><path fill="#00bf63" d="M 0.34375 0 L 10.695312 0 L 10.695312 10.351562 L 0.34375 10.351562 Z M 0.34375 0 " fill-opacity="1" fill-rule="nonzero"/></g></g></g></g></g></g><g clip-path="url(#0c92a81fc1)"><g clip-path="url(#5d38ade951)"><g transform="matrix(1, 0, 0, 1, 42, 25)"><g clip-path="url(#25745fd7c6)"><g clip-path="url(#f76a302422)"><g clip-path="url(#09f015fbea)"><path fill="#ffffff" d="M 0.34375 0.648438 L 10.695312 0.648438 L 10.695312 11 L 0.34375 11 Z M 0.34375 0.648438 " fill-opacity="1" fill-rule="nonzero"/></g></g></g></g></g></g><g clip-path="url(#ab6e5022eb)"><g clip-path="url(#569c5206bc)"><g transform="matrix(1, 0, 0, 1, 19, 42)"><g clip-path="url(#7d6c768404)"><g clip-path="url(#ff0944f3d7)"><g clip-path="url(#4dfbe96a9e)"><path fill="#cc0000" d="M 0.304688 0.824219 L 10.65625 0.824219 L 10.65625 11.175781 L 0.304688 11.175781 Z M 0.304688 0.824219 " fill-opacity="1" fill-rule="nonzero"/></g></g></g></g></g></g></svg>