<svg xmlns="http://www.w3.org/2000/svg" xmlns:xlink="http://www.w3.org/1999/xlink" width="96" zoomAndPan="magnify" viewBox="0 0 72 72" height="96" preserveAspectRatio="xMidYMid meet" version="1.0"><defs><clipPath id="e4f7715971"><path d="M 10.011719 16.460938 L 25.085938 16.460938 L 25.085938 31.539062 L 10.011719 31.539062 Z M 10.011719 16.460938 " clip-rule="nonzero"/></clipPath><clipPath id="e742bb4e59"><path d="M 17.550781 16.460938 L 25.085938 24 L 17.550781 31.539062 L 10.011719 24 Z M 17.550781 16.460938 " clip-rule="nonzero"/></clipPath><clipPath id="2ed8cb7331"><path d="M 0.0117188 0.460938 L 15.085938 0.460938 L 15.085938 15.539062 L 0.0117188 15.539062 Z M 0.0117188 0.460938 " clip-rule="nonzero"/></clipPath><clipPath id="9e7671d9ea"><path d="M 7.550781 0.460938 L 15.085938 8 L 7.550781 15.539062 L 0.0117188 8 Z M 7.550781 0.460938 " clip-rule="nonzero"/></clipPath><clipPath id="b8c3425403"><rect x="0" width="16" y="0" height="16"/></clipPath><clipPath id="ab3f730cd4"><path d="M 10.011719 40.460938 L 25.085938 40.460938 L 25.085938 55.539062 L 10.011719 55.539062 Z M 10.011719 40.460938 " clip-rule="nonzero"/></clipPath><clipPath id="833ec1fbcf"><path d="M 17.550781 40.460938 L 25.085938 48 L 17.550781 55.539062 L 10.011719 48 Z M 17.550781 40.460938 " clip-rule="nonzero"/></clipPath><clipPath id="e7d4b9f7c1"><path d="M 0.0117188 0.460938 L 15.085938 0.460938 L 15.085938 15.539062 L 0.0117188 15.539062 Z M 0.0117188 0.460938 " clip-rule="nonzero"/></clipPath><clipPath id="8677526638"><path d="M 7.550781 0.460938 L 15.085938 8 L 7.550781 15.539062 L 0.0117188 8 Z M 7.550781 0.460938 " clip-rule="nonzero"/></clipPath><clipPath id="4a5f18ec9b"><rect x="0" width="16" y="0" height="16"/></clipPath><clipPath id="78eac1861d"><path d="M 28.273438 8.832031 L 43.539062 8.832031 L 43.539062 24.09375 L 28.273438 24.09375 Z M 28.273438 8.832031 " clip-rule="nonzero"/></clipPath><clipPath id="32291560c1"><path d="M 35.90625 8.832031 C 31.691406 8.832031 28.273438 12.246094 28.273438 16.460938 C 28.273438 20.675781 31.691406 24.09375 35.90625 24.09375 C 40.121094 24.09375 43.539062 20.675781 43.539062 16.460938 C 43.539062 12.246094 40.121094 8.832031 35.90625 8.832031 Z M 35.90625 8.832031 " clip-rule="nonzero"/></clipPath><clipPath id="3d598acd96"><path d="M 0.273438 0.832031 L 15.539062 0.832031 L 15.539062 16.09375 L 0.273438 16.09375 Z M 0.273438 0.832031 " clip-rule="nonzero"/></clipPath><clipPath id="a56d08aa54"><path d="M 7.90625 0.832031 C 3.691406 0.832031 0.273438 4.246094 0.273438 8.460938 C 0.273438 12.675781 3.691406 16.09375 7.90625 16.09375 C 12.121094 16.09375 15.539062 12.675781 15.539062 8.460938 C 15.539062 4.246094 12.121094 0.832031 7.90625 0.832031 Z M 7.90625 0.832031 " clip-rule="nonzero"/></clipPath><clipPath id="2e677347eb"><rect x="0" width="16" y="0" height="17"/></clipPath><clipPath id="0f514ab764"><path d="M 28.460938 28.460938 L 43.539062 28.460938 L 43.539062 43.539062 L 28.460938 43.539062 Z M 28.460938 28.460938 " clip-rule="nonzero"/></clipPath><clipPath id="117d4ee1f0"><path d="M 36 28.460938 L 43.539062 36 L 36 43.539062 L 28.460938 36 Z M 36 28.460938 " clip-rule="nonzero"/></clipPath><clipPath id="5d1a76935f"><path d="M 0.460938 0.460938 L 15.539062 0.460938 L 15.539062 15.539062 L 0.460938 15.539062 Z M 0.460938 0.460938 " clip-rule="nonzero"/></clipPath><clipPath id="11af3538be"><path d="M 8 0.460938 L 15.539062 8 L 8 15.539062 L 0.460938 8 Z M 8 0.460938 " clip-rule="nonzero"/></clipPath><clipPath id="7d0b0859f1"><rect x="0" width="16" y="0" height="16"/></clipPath><clipPath id="e8689b877f"><path d="M 28.519531 48.039062 L 43.78125 48.039062 L 43.78125 63.300781 L 28.519531 63.300781 Z M 28.519531 48.039062 " clip-rule="nonzero"/></clipPath><clipPath id="a760032ce0"><path d="M 36.148438 48.039062 C 31.933594 48.039062 28.519531 51.453125 28.519531 55.667969 C 28.519531 59.882812 31.933594 63.300781 36.148438 63.300781 C 40.363281 63.300781 43.78125 59.882812 43.78125 55.667969 C 43.78125 51.453125 40.363281 48.039062 36.148438 48.039062 Z M 36.148438 48.039062 " clip-rule="nonzero"/></clipPath><clipPath id="6c9960d796"><path d="M 0.519531 0.0390625 L 15.78125 0.0390625 L 15.78125 15.300781 L 0.519531 15.300781 Z M 0.519531 0.0390625 " clip-rule="nonzero"/></clipPath><clipPath id="bf7b641798"><path d="M 8.148438 0.0390625 C 3.933594 0.0390625 0.519531 3.453125 0.519531 7.667969 C 0.519531 11.882812 3.933594 15.300781 8.148438 15.300781 C 12.363281 15.300781 15.78125 11.882812 15.78125 7.667969 C 15.78125 3.453125 12.363281 0.0390625 8.148438 0.0390625 Z M 8.148438 0.0390625 " clip-rule="nonzero"/></clipPath><clipPath id="9c9e05d8ef"><rect x="0" width="16" y="0" height="16"/></clipPath><clipPath id="772c7e6005"><path d="M 47.519531 16.460938 L 62.78125 16.460938 L 62.78125 31.726562 L 47.519531 31.726562 Z M 47.519531 16.460938 " clip-rule="nonzero"/></clipPath><clipPath id="a2813c3c8f"><path d="M 55.152344 16.460938 C 50.9375 16.460938 47.519531 19.878906 47.519531 24.09375 C 47.519531 28.308594 50.9375 31.726562 55.152344 31.726562 C 59.367188 31.726562 62.78125 28.308594 62.78125 24.09375 C 62.78125 19.878906 59.367188 16.460938 55.152344 16.460938 Z M 55.152344 16.460938 " clip-rule="nonzero"/></clipPath><clipPath id="edb079325d"><path d="M 0.519531 0.460938 L 15.78125 0.460938 L 15.78125 15.726562 L 0.519531 15.726562 Z M 0.519531 0.460938 " clip-rule="nonzero"/></clipPath><clipPath id="912e8a85bf"><path d="M 8.152344 0.460938 C 3.9375 0.460938 0.519531 3.878906 0.519531 8.09375 C 0.519531 12.308594 3.9375 15.726562 8.152344 15.726562 C 12.367188 15.726562 15.78125 12.308594 15.78125 8.09375 C 15.78125 3.878906 12.367188 0.460938 8.152344 0.460938 Z M 8.152344 0.460938 " clip-rule="nonzero"/></clipPath><clipPath id="a488b0fd89"><rect x="0" width="16" y="0" height="16"/></clipPath><clipPath id="f3a017623d"><path d="M 47.53125 40.460938 L 62.792969 40.460938 L 62.792969 55.726562 L 47.53125 55.726562 Z M 47.53125 40.460938 " clip-rule="nonzero"/></clipPath><clipPath id="42106a291d"><path d="M 55.164062 40.460938 C 50.949219 40.460938 47.53125 43.878906 47.53125 48.09375 C 47.53125 52.308594 50.949219 55.726562 55.164062 55.726562 C 59.378906 55.726562 62.792969 52.308594 62.792969 48.09375 C 62.792969 43.878906 59.378906 40.460938 55.164062 40.460938 Z M 55.164062 40.460938 " clip-rule="nonzero"/></clipPath><clipPath id="d3f733bb9b"><path d="M 0.53125 0.460938 L 15.792969 0.460938 L 15.792969 15.726562 L 0.53125 15.726562 Z M 0.53125 0.460938 " clip-rule="nonzero"/></clipPath><clipPath id="0b98f00ceb"><path d="M 8.164062 0.460938 C 3.949219 0.460938 0.53125 3.878906 0.53125 8.09375 C 0.53125 12.308594 3.949219 15.726562 8.164062 15.726562 C 12.378906 15.726562 15.792969 12.308594 15.792969 8.09375 C 15.792969 3.878906 12.378906 0.460938 8.164062 0.460938 Z M 8.164062 0.460938 " clip-rule="nonzero"/></clipPath><clipPath id="961a13f1ba"><rect x="0" width="16" y="0" height="16"/></clipPath></defs><path stroke-linecap="butt" transform="matrix(0, -0.75, 0.75, 0, 35.624999, 71.999999)" fill="none" stroke-linejoin="miter" d="M -0.00000133333 0.500002 L 96.000003 0.500002 " stroke="#222222" stroke-width="1" stroke-opacity="1" stroke-miterlimit="4"/><path stroke-linecap="butt" transform="matrix(0, -0.75, 0.75, 0, 17.174999, 71.999999)" fill="none" stroke-linejoin="miter" d="M -0.00000133333 0.501043 L 96.000003 0.501043 " stroke="#222222" stroke-width="1" stroke-opacity="1" stroke-miterlimit="4"/><path stroke-linecap="butt" transform="matrix(0, -0.75, 0.75, 0, 54.374998, 71.999999)" fill="none" stroke-linejoin="miter" d="M -0.00000133333 0.500003 L 96.000003 0.500003 " stroke="#222222" stroke-width="1" stroke-opacity="1" stroke-miterlimit="4"/><g clip-path="url(#e4f7715971)"><g clip-path="url(#e742bb4e59)"><g transform="matrix(1, 0, 0, 1, 10, 16)"><g clip-path="url(#b8c3425403)"><g clip-path="url(#2ed8cb7331)"><g clip-path="url(#9e7671d9ea)"><path fill="#222222" d="M 0.0117188 0.460938 L 15.085938 0.460938 L 15.085938 15.539062 L 0.0117188 15.539062 Z M 0.0117188 0.460938 " fill-opacity="1" fill-rule="nonzero"/></g></g></g></g></g></g><g clip-path="url(#ab3f730cd4)"><g clip-path="url(#833ec1fbcf)"><g transform="matrix(1, 0, 0, 1, 10, 40)"><g clip-path="url(#4a5f18ec9b)"><g clip-path="url(#e7d4b9f7c1)"><g clip-path="url(#8677526638)"><path fill="#222222" d="M 0.0117188 0.460938 L 15.085938 0.460938 L 15.085938 15.539062 L 0.0117188 15.539062 Z M 0.0117188 0.460938 " fill-opacity="1" fill-rule="nonzero"/></g></g></g></g></g></g><g clip-path="url(#78eac1861d)"><g clip-path="url(#32291560c1)"><g transform="matrix(1, 0, 0, 1, 28, 8)"><g clip-path="url(#2e677347eb)"><g clip-path="url(#3d598acd96)"><g clip-path="url(#a56d08aa54)"><path fill="#222222" d="M 0.273438 0.832031 L 15.539062 0.832031 L 15.539062 16.09375 L 0.273438 16.09375 Z M 0.273438 0.832031 " fill-opacity="1" fill-rule="nonzero"/></g></g></g></g></g></g><g clip-path="url(#0f514ab764)"><g clip-path="url(#117d4ee1f0)"><g transform="matrix(1, 0, 0, 1, 28, 28)"><g clip-path="url(#7d0b0859f1)"><g clip-path="url(#5d1a76935f)"><g clip-path="url(#11af3538be)"><path fill="#222222" d="M 0.460938 0.460938 L 15.539062 0.460938 L 15.539062 15.539062 L 0.460938 15.539062 Z M 0.460938 0.460938 " fill-opacity="1" fill-rule="nonzero"/></g></g></g></g></g></g><g clip-path="url(#e8689b877f)"><g clip-path="url(#a760032ce0)"><g transform="matrix(1, 0, 0, 1, 28, 48)"><g clip-path="url(#9c9e05d8ef)"><g clip-path="url(#6c9960d796)"><g clip-path="url(#bf7b641798)"><path fill="#222222" d="M 0.519531 0.0390625 L 15.78125 0.0390625 L 15.78125 15.300781 L 0.519531 15.300781 Z M 0.519531 0.0390625 " fill-opacity="1" fill-rule="nonzero"/></g></g></g></g></g></g><g clip-path="url(#772c7e6005)"><g clip-path="url(#a2813c3c8f)"><g transform="matrix(1, 0, 0, 1, 47, 16)"><g clip-path="url(#a488b0fd89)"><g clip-path="url(#edb079325d)"><g clip-path="url(#912e8a85bf)"><path fill="#222222" d="M 0.519531 0.460938 L 15.78125 0.460938 L 15.78125 15.726562 L 0.519531 15.726562 Z M 0.519531 0.460938 " fill-opacity="1" fill-rule="nonzero"/></g></g></g></g></g></g><g clip-path="url(#f3a017623d)"><g clip-path="url(#42106a291d)"><g transform="matrix(1, 0, 0, 1, 47, 40)"><g clip-path="url(#961a13f1ba)"><g clip-path="url(#d3f733bb9b)"><g clip-path="url(#0b98f00ceb)"><path fill="#222222" d="M 0.53125 0.460938 L 15.792969 0.460938 L 15.792969 15.726562 L 0.53125 15.726562 Z M 0.53125 0.460938 " fill-opacity="1" fill-rule="nonzero"/></g></g></g></g></g></g></svg>