<svg xmlns="http://www.w3.org/2000/svg" xmlns:xlink="http://www.w3.org/1999/xlink" width="96" zoomAndPan="magnify" viewBox="0 0 72 72" height="96" preserveAspectRatio="xMidYMid meet" version="1.0"><defs><g/><clipPath id="cd5e3b0226"><path d="M 45 14.445312 L 64.824219 14.445312 L 64.824219 21.601562 L 45 21.601562 Z M 45 14.445312 " clip-rule="nonzero"/></clipPath><clipPath id="4f024f5b82"><path d="M 63.40625 14.472656 L 50.730469 14.472656 C 50.242188 14.472656 49.761719 14.617188 49.355469 14.886719 L 45.234375 17.621094 C 45.09375 17.714844 45.011719 17.871094 45.011719 18.035156 C 45.011719 18.203125 45.09375 18.359375 45.234375 18.449219 L 49.355469 21.183594 C 49.761719 21.457031 50.242188 21.601562 50.730469 21.601562 L 63.40625 21.601562 C 63.40625 21.601562 64.800781 20.546875 64.800781 18.035156 C 64.800781 15.523438 63.40625 14.472656 63.40625 14.472656 Z M 63.40625 14.472656 " clip-rule="nonzero"/></clipPath><clipPath id="39dc98e603"><path d="M 0 0.445312 L 19.800781 0.445312 L 19.800781 7.601562 L 0 7.601562 Z M 0 0.445312 " clip-rule="nonzero"/></clipPath><clipPath id="3d09d29b0f"><path d="M 18.40625 0.472656 L 5.730469 0.472656 C 5.242188 0.472656 4.761719 0.617188 4.355469 0.886719 L 0.234375 3.621094 C 0.09375 3.714844 0.0117188 3.871094 0.0117188 4.035156 C 0.0117188 4.203125 0.09375 4.359375 0.234375 4.449219 L 4.355469 7.183594 C 4.761719 7.457031 5.242188 7.601562 5.730469 7.601562 L 18.40625 7.601562 C 18.40625 7.601562 19.800781 6.546875 19.800781 4.035156 C 19.800781 1.523438 18.40625 0.472656 18.40625 0.472656 Z M 18.40625 0.472656 " clip-rule="nonzero"/></clipPath><clipPath id="330c013529"><rect x="0" width="20" y="0" height="8"/></clipPath><clipPath id="d4787615dc"><path d="M 13.730469 44.328125 L 20.886719 44.328125 L 20.886719 64.152344 L 13.730469 64.152344 Z M 13.730469 44.328125 " clip-rule="nonzero"/></clipPath><clipPath id="cd7cd8ef73"><path d="M 20.859375 62.738281 L 20.859375 50.058594 C 20.859375 49.570312 20.714844 49.09375 20.445312 48.683594 L 17.707031 44.5625 C 17.617188 44.425781 17.460938 44.339844 17.292969 44.339844 C 17.128906 44.339844 16.972656 44.425781 16.878906 44.5625 L 14.144531 48.683594 C 13.875 49.09375 13.730469 49.570312 13.730469 50.058594 L 13.730469 62.738281 C 13.730469 62.738281 14.78125 64.128906 17.292969 64.128906 C 19.804688 64.128906 20.859375 62.738281 20.859375 62.738281 Z M 20.859375 62.738281 " clip-rule="nonzero"/></clipPath><clipPath id="85facedb40"><path d="M 0.730469 0.328125 L 7.878906 0.328125 L 7.878906 20.152344 L 0.730469 20.152344 Z M 0.730469 0.328125 " clip-rule="nonzero"/></clipPath><clipPath id="2c4aadf84d"><path d="M 7.859375 18.738281 L 7.859375 6.058594 C 7.859375 5.570312 7.714844 5.09375 7.445312 4.683594 L 4.707031 0.5625 C 4.617188 0.425781 4.460938 0.339844 4.292969 0.339844 C 4.128906 0.339844 3.972656 0.425781 3.878906 0.5625 L 1.144531 4.683594 C 0.875 5.09375 0.730469 5.570312 0.730469 6.058594 L 0.730469 18.738281 C 0.730469 18.738281 1.78125 20.128906 4.292969 20.128906 C 6.804688 20.128906 7.859375 18.738281 7.859375 18.738281 Z M 7.859375 18.738281 " clip-rule="nonzero"/></clipPath><clipPath id="dcd92541a0"><rect x="0" width="8" y="0" height="21"/></clipPath><clipPath id="ddfd6cedb3"><rect x="0" width="3" y="0" height="8"/></clipPath><clipPath id="738d8ee5b1"><rect x="0" width="5" y="0" height="8"/></clipPath></defs><g clip-path="url(#cd5e3b0226)"><g clip-path="url(#4f024f5b82)"><g transform="matrix(1, 0, 0, 1, 45, 14)"><g clip-path="url(#330c013529)"><g clip-path="url(#39dc98e603)"><g clip-path="url(#3d09d29b0f)"><path fill="#000000" d="M -0.390625 0.472656 L 19.796875 0.472656 L 19.796875 7.601562 L -0.390625 7.601562 Z M -0.390625 0.472656 " fill-opacity="1" fill-rule="nonzero"/></g></g></g></g></g></g><g clip-path="url(#d4787615dc)"><g clip-path="url(#cd7cd8ef73)"><g transform="matrix(1, 0, 0, 1, 13, 44)"><g clip-path="url(#dcd92541a0)"><g clip-path="url(#85facedb40)"><g clip-path="url(#2c4aadf84d)"><path fill="#000000" d="M 7.859375 -0.0625 L 7.859375 20.125 L 0.730469 20.125 L 0.730469 -0.0625 Z M 7.859375 -0.0625 " fill-opacity="1" fill-rule="nonzero"/></g></g></g></g></g></g><g transform="matrix(1, 0, 0, 1, 54, 14)"><g clip-path="url(#ddfd6cedb3)"><g fill="#ffffff" fill-opacity="1"><g transform="translate(0.704232, 5.702686)"><g><path d="M 0.953125 0 L 0.546875 0 L 0.546875 -3.5625 L 0.953125 -3.5625 Z M 0.953125 0 "/></g></g></g></g></g><g transform="matrix(1, 0, 0, 1, 15, 50)"><g clip-path="url(#738d8ee5b1)"><g fill="#ffffff" fill-opacity="1"><g transform="translate(0.791843, 5.702685)"><g><path d="M 0.953125 0 L 0.546875 0 L 0.546875 -3.5625 L 0.953125 -3.5625 Z M 0.953125 0 "/></g></g><g transform="translate(2.293324, 5.702685)"><g><path d="M 0.953125 0 L 0.546875 0 L 0.546875 -3.5625 L 0.953125 -3.5625 Z M 0.953125 0 "/></g></g></g></g></g><path fill="#000000" d="M 48.957031 18.410156 L 48.207031 18.410156 L 48.207031 17.660156 L 48.957031 17.660156 M 47.457031 18.410156 L 46.707031 18.410156 L 46.707031 17.660156 L 47.457031 17.660156 M 45.957031 18.410156 L 45.207031 18.410156 L 45.207031 17.660156 L 45.957031 17.660156 M 44.457031 18.410156 L 43.707031 18.410156 L 43.707031 17.660156 L 44.457031 17.660156 M 42.957031 18.410156 L 42.207031 18.410156 L 42.207031 17.660156 L 42.957031 17.660156 M 41.457031 18.410156 L 40.707031 18.410156 L 40.707031 17.660156 L 41.457031 17.660156 " fill-opacity="1" fill-rule="nonzero"/><path stroke-linecap="round" transform="matrix(-0.75, 0, 0, -0.75, 48.956712, 18.411002)" fill="none" stroke-linejoin="round" d="M 9.020409 -0.998873 L 11.020409 0.501127 L 9.020409 2.001127 " stroke="#000000" stroke-width="1" stroke-opacity="1" stroke-miterlimit="4"/><path fill="#000000" d="M 16.917969 48.257812 L 16.917969 47.507812 L 17.667969 47.507812 L 17.667969 48.257812 M 16.917969 46.757812 L 16.917969 46.007812 L 17.667969 46.007812 L 17.667969 46.757812 M 16.917969 45.257812 L 16.917969 44.507812 L 17.667969 44.507812 L 17.667969 45.257812 M 16.917969 43.757812 L 16.917969 43.007812 L 17.667969 43.007812 L 17.667969 43.757812 M 16.917969 42.257812 L 16.917969 41.507812 L 17.667969 41.507812 L 17.667969 42.257812 M 16.917969 40.757812 L 16.917969 40.007812 L 17.667969 40.007812 L 17.667969 40.757812 " fill-opacity="1" fill-rule="nonzero"/><path stroke-linecap="round" transform="matrix(0, -0.75, 0.75, 0, 16.919124, 48.258588)" fill="none" stroke-linejoin="round" d="M 9.021868 -1.00154 L 11.021868 0.49846 L 9.021868 1.99846 " stroke="#000000" stroke-width="1" stroke-opacity="1" stroke-miterlimit="4"/></svg>