<svg xmlns="http://www.w3.org/2000/svg" xmlns:xlink="http://www.w3.org/1999/xlink" width="96" zoomAndPan="magnify" viewBox="0 0 72 72" height="96" preserveAspectRatio="xMidYMid meet" version="1.0"><defs><g/><clipPath id="fe153ed4d2"><path d="M 7.0625 16.867188 L 26.886719 16.867188 L 26.886719 24 L 7.0625 24 Z M 7.0625 16.867188 " clip-rule="nonzero"/></clipPath><clipPath id="85f64de1a2"><path d="M 8.476562 23.996094 L 21.15625 23.996094 C 21.644531 23.996094 22.121094 23.851562 22.53125 23.582031 L 26.652344 20.847656 C 26.789062 20.753906 26.875 20.601562 26.875 20.433594 C 26.875 20.265625 26.789062 20.109375 26.652344 20.019531 L 22.53125 17.285156 C 22.121094 17.011719 21.644531 16.867188 21.15625 16.867188 L 8.476562 16.867188 C 8.476562 16.867188 7.085938 17.921875 7.085938 20.433594 C 7.085938 22.945312 8.476562 23.996094 8.476562 23.996094 Z M 8.476562 23.996094 " clip-rule="nonzero"/></clipPath><clipPath id="6d7f3f5507"><path d="M 0.0625 0.867188 L 19.878906 0.867188 L 19.878906 8 L 0.0625 8 Z M 0.0625 0.867188 " clip-rule="nonzero"/></clipPath><clipPath id="1228733cdc"><path d="M 1.476562 7.996094 L 14.15625 7.996094 C 14.644531 7.996094 15.121094 7.851562 15.53125 7.582031 L 19.652344 4.847656 C 19.789062 4.753906 19.875 4.601562 19.875 4.433594 C 19.875 4.265625 19.789062 4.109375 19.652344 4.019531 L 15.53125 1.285156 C 15.121094 1.011719 14.644531 0.867188 14.15625 0.867188 L 1.476562 0.867188 C 1.476562 0.867188 0.0859375 1.921875 0.0859375 4.433594 C 0.0859375 6.945312 1.476562 7.996094 1.476562 7.996094 Z M 1.476562 7.996094 " clip-rule="nonzero"/></clipPath><clipPath id="7d8094421b"><rect x="0" width="20" y="0" height="8"/></clipPath><clipPath id="fb79941284"><path d="M 39 29 L 53 29 L 53 47 L 39 47 Z M 39 29 " clip-rule="nonzero"/></clipPath><clipPath id="06cffa57cd"><path d="M 43 27.40625 L 53.46875 44.238281 L 47.394531 48.019531 L 36.925781 31.183594 Z M 43 27.40625 " clip-rule="nonzero"/></clipPath><clipPath id="cc5577de8d"><path d="M 52.699219 43.054688 L 46.003906 32.285156 C 45.746094 31.871094 45.371094 31.542969 44.925781 31.339844 L 40.425781 29.28125 C 40.277344 29.214844 40.097656 29.222656 39.957031 29.3125 C 39.816406 29.402344 39.726562 29.554688 39.722656 29.71875 L 39.578125 34.664062 C 39.5625 35.152344 39.691406 35.636719 39.953125 36.050781 L 46.644531 46.816406 C 46.644531 46.816406 48.277344 47.441406 50.40625 46.117188 C 52.539062 44.792969 52.699219 43.054688 52.699219 43.054688 Z M 52.699219 43.054688 " clip-rule="nonzero"/></clipPath><clipPath id="ef2bc82b08"><path d="M 0.359375 0.0390625 L 13.800781 0.0390625 L 13.800781 18 L 0.359375 18 Z M 0.359375 0.0390625 " clip-rule="nonzero"/></clipPath><clipPath id="bce5be49c8"><path d="M 4 -1.59375 L 14.46875 15.238281 L 8.394531 19.019531 L -2.074219 2.183594 Z M 4 -1.59375 " clip-rule="nonzero"/></clipPath><clipPath id="a0c36d2ea6"><path d="M 13.699219 14.054688 L 7.003906 3.285156 C 6.746094 2.871094 6.371094 2.542969 5.925781 2.339844 L 1.425781 0.28125 C 1.277344 0.214844 1.097656 0.222656 0.957031 0.3125 C 0.816406 0.402344 0.726562 0.554688 0.722656 0.71875 L 0.578125 5.664062 C 0.5625 6.152344 0.691406 6.636719 0.953125 7.050781 L 7.644531 17.816406 C 7.644531 17.816406 9.277344 18.441406 11.40625 17.117188 C 13.539062 15.792969 13.699219 14.054688 13.699219 14.054688 Z M 13.699219 14.054688 " clip-rule="nonzero"/></clipPath><clipPath id="441a75ec5c"><rect x="0" width="14" y="0" height="18"/></clipPath><clipPath id="6c536c3639"><path d="M 48 49 L 65 49 L 65 67 L 48 67 Z M 48 49 " clip-rule="nonzero"/></clipPath><clipPath id="18190410a6"><path d="M 48.960938 54.050781 L 57.457031 49.148438 L 64.425781 61.234375 L 55.929688 66.136719 Z M 48.960938 54.050781 " clip-rule="nonzero"/></clipPath><clipPath id="6680de0720"><path d="M 0.960938 0 L 16.558594 0 L 16.558594 17.238281 L 0.960938 17.238281 Z M 0.960938 0 " clip-rule="nonzero"/></clipPath><clipPath id="02a9cfe78e"><path d="M 0.960938 5.050781 L 9.457031 0.148438 L 16.425781 12.234375 L 7.929688 17.136719 Z M 0.960938 5.050781 " clip-rule="nonzero"/></clipPath><clipPath id="98affa209f"><rect x="0" width="17" y="0" height="18"/></clipPath><clipPath id="1d51a9593f"><path d="M 0.199219 2 L 4 2 L 4 7 L 0.199219 7 Z M 0.199219 2 " clip-rule="nonzero"/></clipPath><clipPath id="107d41f379"><rect x="0" width="5" y="0" height="9"/></clipPath><clipPath id="acddb1f283"><rect x="0" width="5" y="0" height="8"/></clipPath></defs><g clip-path="url(#fe153ed4d2)"><g clip-path="url(#85f64de1a2)"><g transform="matrix(1, 0, 0, 1, 7, 16)"><g clip-path="url(#7d8094421b)"><g clip-path="url(#6d7f3f5507)"><g clip-path="url(#1228733cdc)"><path fill="#000000" d="M 20.277344 7.996094 L 0.0898438 7.996094 L 0.0898438 0.867188 L 20.277344 0.867188 Z M 20.277344 7.996094 " fill-opacity="1" fill-rule="nonzero"/></g></g></g></g></g></g><g clip-path="url(#fb79941284)"><g clip-path="url(#06cffa57cd)"><g clip-path="url(#cc5577de8d)"><g transform="matrix(1, 0, 0, 1, 39, 29)"><g clip-path="url(#441a75ec5c)"><g clip-path="url(#ef2bc82b08)"><g clip-path="url(#bce5be49c8)"><g clip-path="url(#a0c36d2ea6)"><path fill="#000000" d="M 3.773438 -1.910156 L 14.433594 15.230469 L 8.378906 18.996094 L -2.28125 1.851562 Z M 3.773438 -1.910156 " fill-opacity="1" fill-rule="nonzero"/></g></g></g></g></g></g></g></g><path fill="#000000" d="M 42.761719 34.707031 L 42.359375 34.074219 L 42.992188 33.671875 L 43.394531 34.308594 M 41.957031 33.441406 L 41.554688 32.808594 L 42.1875 32.40625 L 42.589844 33.039062 M 41.152344 32.175781 L 40.753906 31.542969 L 41.386719 31.140625 L 41.789062 31.773438 M 40.351562 30.90625 L 39.949219 30.273438 L 40.582031 29.871094 L 40.984375 30.507812 M 39.546875 29.640625 L 39.144531 29.007812 L 39.78125 28.605469 L 40.179688 29.238281 M 38.746094 28.375 L 38.34375 27.742188 L 38.976562 27.339844 L 39.378906 27.972656 M 37.941406 27.105469 L 37.539062 26.472656 L 38.171875 26.070312 L 38.574219 26.707031 " fill-opacity="1" fill-rule="nonzero"/><path stroke-linecap="round" transform="matrix(-0.401514, -0.633471, 0.633471, -0.401514, 42.760006, 34.708712)" fill="none" stroke-linejoin="round" d="M 11.101893 -1.001572 L 13.10311 0.501188 L 11.103317 2.002377 " stroke="#000000" stroke-width="1" stroke-opacity="1" stroke-miterlimit="4"/><path fill="#000000" d="M 22.957031 20.0625 L 23.707031 20.0625 L 23.707031 20.8125 L 22.957031 20.8125 M 24.457031 20.0625 L 25.207031 20.0625 L 25.207031 20.8125 L 24.457031 20.8125 M 25.957031 20.0625 L 26.707031 20.0625 L 26.707031 20.8125 L 25.957031 20.8125 M 27.457031 20.0625 L 28.207031 20.0625 L 28.207031 20.8125 L 27.457031 20.8125 M 28.957031 20.0625 L 29.707031 20.0625 L 29.707031 20.8125 L 28.957031 20.8125 M 30.457031 20.0625 L 31.207031 20.0625 L 31.207031 20.8125 L 30.457031 20.8125 " fill-opacity="1" fill-rule="nonzero"/><path stroke-linecap="round" transform="matrix(0.75, 0, 0, 0.75, 22.956137, 20.060978)" fill="none" stroke-linejoin="round" d="M 9.022026 -0.99797 L 11.022026 0.50203 L 9.022026 2.00203 " stroke="#000000" stroke-width="1" stroke-opacity="1" stroke-miterlimit="4"/><g clip-path="url(#6c536c3639)"><g clip-path="url(#18190410a6)"><g transform="matrix(1, 0, 0, 1, 48, 49)"><g clip-path="url(#98affa209f)"><g clip-path="url(#6680de0720)"><g clip-path="url(#02a9cfe78e)"><path fill="#000000" d="M 0.960938 5.050781 L 9.457031 0.148438 L 16.425781 12.230469 L 7.929688 17.132812 Z M 0.960938 5.050781 " fill-opacity="1" fill-rule="nonzero"/></g></g></g></g></g></g><g transform="matrix(1, 0, 0, 1, 43, 33)"><g clip-path="url(#107d41f379)"><g clip-path="url(#1d51a9593f)"><g fill="#ffffff" fill-opacity="1"><g transform="translate(0.398137, 6.21131)"><g><path d="M 3.21875 0 L 2.765625 0 L 2.4375 -0.984375 L 0.90625 -0.984375 L 0.578125 0 L 0.140625 0 L 1.390625 -3.5625 L 1.96875 -3.5625 Z M 1.640625 -3.140625 L 1.03125 -1.328125 L 2.3125 -1.328125 L 1.703125 -3.140625 Z M 1.640625 -3.140625 "/></g></g></g></g></g></g><g transform="matrix(1, 0, 0, 1, 15, 16)"><g clip-path="url(#acddb1f283)"><g fill="#ffffff" fill-opacity="1"><g transform="translate(0.461603, 6.102697)"><g><path d="M 0.546875 0 L 0.546875 -3.5625 L 1.890625 -3.5625 C 2.109375 -3.5625 2.296875 -3.523438 2.453125 -3.453125 C 2.609375 -3.390625 2.722656 -3.289062 2.796875 -3.15625 C 2.867188 -3.03125 2.90625 -2.878906 2.90625 -2.703125 C 2.90625 -2.546875 2.863281 -2.40625 2.78125 -2.28125 C 2.695312 -2.15625 2.578125 -2.054688 2.421875 -1.984375 L 2.421875 -1.9375 C 2.660156 -1.875 2.84375 -1.765625 2.96875 -1.609375 C 3.09375 -1.460938 3.15625 -1.269531 3.15625 -1.03125 C 3.15625 -0.695312 3.054688 -0.441406 2.859375 -0.265625 C 2.660156 -0.0859375 2.375 0 2 0 Z M 1.875 -2.078125 C 2.070312 -2.078125 2.222656 -2.125 2.328125 -2.21875 C 2.441406 -2.320312 2.5 -2.46875 2.5 -2.65625 C 2.5 -2.84375 2.445312 -2.984375 2.34375 -3.078125 C 2.238281 -3.171875 2.082031 -3.21875 1.875 -3.21875 L 0.953125 -3.21875 L 0.953125 -2.078125 Z M 1.96875 -0.34375 C 2.46875 -0.34375 2.71875 -0.570312 2.71875 -1.03125 C 2.71875 -1.488281 2.46875 -1.71875 1.96875 -1.71875 L 0.953125 -1.71875 L 0.953125 -0.34375 Z M 1.96875 -0.34375 "/></g></g></g></g></g><path stroke-linecap="butt" transform="matrix(-0.340853, -0.668071, 0.668071, -0.340853, 52.86942, 51.771504)" fill="none" stroke-linejoin="miter" d="M -0.000375464 0.499313 L 8.212756 0.503194 " stroke="#000000" stroke-width="1" stroke-opacity="1" stroke-miterlimit="4"/></svg>