<svg xmlns="http://www.w3.org/2000/svg" xmlns:xlink="http://www.w3.org/1999/xlink" width="96" zoomAndPan="magnify" viewBox="0 0 72 72" height="96" preserveAspectRatio="xMidYMid meet" version="1.0"><defs><clipPath id="b97ed3e367"><path d="M 48.960938 12 L 59.308594 12 L 59.308594 22.351562 L 48.960938 22.351562 Z M 48.960938 12 " clip-rule="nonzero"/></clipPath><clipPath id="8e721d9876"><path d="M 54.136719 12 C 51.277344 12 48.960938 14.316406 48.960938 17.175781 C 48.960938 20.03125 51.277344 22.351562 54.136719 22.351562 C 56.992188 22.351562 59.308594 20.03125 59.308594 17.175781 C 59.308594 14.316406 56.992188 12 54.136719 12 Z M 54.136719 12 " clip-rule="nonzero"/></clipPath><clipPath id="f040953593"><path d="M 0.960938 0 L 11.308594 0 L 11.308594 10.351562 L 0.960938 10.351562 Z M 0.960938 0 " clip-rule="nonzero"/></clipPath><clipPath id="a21aa346b2"><path d="M 6.136719 0 C 3.277344 0 0.960938 2.316406 0.960938 5.175781 C 0.960938 8.03125 3.277344 10.351562 6.136719 10.351562 C 8.992188 10.351562 11.308594 8.03125 11.308594 5.175781 C 11.308594 2.316406 8.992188 0 6.136719 0 Z M 6.136719 0 " clip-rule="nonzero"/></clipPath><clipPath id="eec23d95ae"><rect x="0" width="12" y="0" height="11"/></clipPath><clipPath id="9ecb03f3de"><path d="M 48.960938 24.824219 L 59.308594 24.824219 L 59.308594 35.175781 L 48.960938 35.175781 Z M 48.960938 24.824219 " clip-rule="nonzero"/></clipPath><clipPath id="195d11c136"><path d="M 54.136719 24.824219 C 51.277344 24.824219 48.960938 27.140625 48.960938 30 C 48.960938 32.859375 51.277344 35.175781 54.136719 35.175781 C 56.992188 35.175781 59.308594 32.859375 59.308594 30 C 59.308594 27.140625 56.992188 24.824219 54.136719 24.824219 Z M 54.136719 24.824219 " clip-rule="nonzero"/></clipPath><clipPath id="7a334dd21b"><path d="M 0.960938 0.824219 L 11.308594 0.824219 L 11.308594 11.175781 L 0.960938 11.175781 Z M 0.960938 0.824219 " clip-rule="nonzero"/></clipPath><clipPath id="554b9a7c0d"><path d="M 6.136719 0.824219 C 3.277344 0.824219 0.960938 3.140625 0.960938 6 C 0.960938 8.859375 3.277344 11.175781 6.136719 11.175781 C 8.992188 11.175781 11.308594 8.859375 11.308594 6 C 11.308594 3.140625 8.992188 0.824219 6.136719 0.824219 Z M 6.136719 0.824219 " clip-rule="nonzero"/></clipPath><clipPath id="ee5eee1e1c"><rect x="0" width="12" y="0" height="12"/></clipPath><clipPath id="20285ec017"><path d="M 48.960938 37.648438 L 59.308594 37.648438 L 59.308594 48 L 48.960938 48 Z M 48.960938 37.648438 " clip-rule="nonzero"/></clipPath><clipPath id="6214c29cc3"><path d="M 54.136719 37.648438 C 51.277344 37.648438 48.960938 39.96875 48.960938 42.824219 C 48.960938 45.683594 51.277344 48 54.136719 48 C 56.992188 48 59.308594 45.683594 59.308594 42.824219 C 59.308594 39.96875 56.992188 37.648438 54.136719 37.648438 Z M 54.136719 37.648438 " clip-rule="nonzero"/></clipPath><clipPath id="4b32b46a66"><path d="M 0.960938 0.648438 L 11.308594 0.648438 L 11.308594 11 L 0.960938 11 Z M 0.960938 0.648438 " clip-rule="nonzero"/></clipPath><clipPath id="0965e97e90"><path d="M 6.136719 0.648438 C 3.277344 0.648438 0.960938 2.96875 0.960938 5.824219 C 0.960938 8.683594 3.277344 11 6.136719 11 C 8.992188 11 11.308594 8.683594 11.308594 5.824219 C 11.308594 2.96875 8.992188 0.648438 6.136719 0.648438 Z M 6.136719 0.648438 " clip-rule="nonzero"/></clipPath><clipPath id="8a6a846e99"><rect x="0" width="12" y="0" height="11"/></clipPath><clipPath id="51d36dfcb2"><path d="M 14.128906 49.648438 L 24.480469 49.648438 L 24.480469 60 L 14.128906 60 Z M 14.128906 49.648438 " clip-rule="nonzero"/></clipPath><clipPath id="6948ccf949"><path d="M 19.304688 49.648438 C 16.445312 49.648438 14.128906 51.96875 14.128906 54.824219 C 14.128906 57.683594 16.445312 60 19.304688 60 C 22.164062 60 24.480469 57.683594 24.480469 54.824219 C 24.480469 51.96875 22.164062 49.648438 19.304688 49.648438 Z M 19.304688 49.648438 " clip-rule="nonzero"/></clipPath><clipPath id="652e6018be"><path d="M 0.128906 0.648438 L 10.480469 0.648438 L 10.480469 11 L 0.128906 11 Z M 0.128906 0.648438 " clip-rule="nonzero"/></clipPath><clipPath id="2f00c1e422"><path d="M 5.304688 0.648438 C 2.445312 0.648438 0.128906 2.96875 0.128906 5.824219 C 0.128906 8.683594 2.445312 11 5.304688 11 C 8.164062 11 10.480469 8.683594 10.480469 5.824219 C 10.480469 2.96875 8.164062 0.648438 5.304688 0.648438 Z M 5.304688 0.648438 " clip-rule="nonzero"/></clipPath><clipPath id="2867927735"><rect x="0" width="11" y="0" height="11"/></clipPath></defs><g clip-path="url(#b97ed3e367)"><g clip-path="url(#8e721d9876)"><g transform="matrix(1, 0, 0, 1, 48, 12)"><g clip-path="url(#eec23d95ae)"><g clip-path="url(#f040953593)"><g clip-path="url(#a21aa346b2)"><path fill="#ffffff" d="M 0.960938 0 L 11.308594 0 L 11.308594 10.351562 L 0.960938 10.351562 Z M 0.960938 0 " fill-opacity="1" fill-rule="nonzero"/></g></g></g></g></g></g><g clip-path="url(#9ecb03f3de)"><g clip-path="url(#195d11c136)"><g transform="matrix(1, 0, 0, 1, 48, 24)"><g clip-path="url(#ee5eee1e1c)"><g clip-path="url(#7a334dd21b)"><g clip-path="url(#554b9a7c0d)"><path fill="#ffffff" d="M 0.960938 0.824219 L 11.308594 0.824219 L 11.308594 11.175781 L 0.960938 11.175781 Z M 0.960938 0.824219 " fill-opacity="1" fill-rule="nonzero"/></g></g></g></g></g></g><g clip-path="url(#20285ec017)"><g clip-path="url(#6214c29cc3)"><g transform="matrix(1, 0, 0, 1, 48, 37)"><g clip-path="url(#8a6a846e99)"><g clip-path="url(#4b32b46a66)"><g clip-path="url(#0965e97e90)"><path fill="#ffffff" d="M 0.960938 0.648438 L 11.308594 0.648438 L 11.308594 11 L 0.960938 11 Z M 0.960938 0.648438 " fill-opacity="1" fill-rule="nonzero"/></g></g></g></g></g></g><g clip-path="url(#51d36dfcb2)"><g clip-path="url(#6948ccf949)"><g transform="matrix(1, 0, 0, 1, 14, 49)"><g clip-path="url(#2867927735)"><g clip-path="url(#652e6018be)"><g clip-path="url(#2f00c1e422)"><path fill="#00bf63" d="M 0.128906 0.648438 L 10.480469 0.648438 L 10.480469 11 L 0.128906 11 Z M 0.128906 0.648438 " fill-opacity="1" fill-rule="nonzero"/></g></g></g></g></g></g></svg>