<svg xmlns="http://www.w3.org/2000/svg" xmlns:xlink="http://www.w3.org/1999/xlink" width="96" zoomAndPan="magnify" viewBox="0 0 72 72" height="96" preserveAspectRatio="xMidYMid meet" version="1.0"><defs><g/><clipPath id="c962b17df6"><path d="M 37.761719 32.433594 L 57.585938 32.433594 L 57.585938 39.589844 L 37.761719 39.589844 Z M 37.761719 32.433594 " clip-rule="nonzero"/></clipPath><clipPath id="6d1de1981d"><path d="M 39.175781 39.5625 L 51.855469 39.5625 C 52.34375 39.5625 52.820312 39.417969 53.230469 39.144531 L 57.351562 36.410156 C 57.488281 36.320312 57.574219 36.164062 57.574219 35.996094 C 57.574219 35.832031 57.488281 35.675781 57.351562 35.582031 L 53.230469 32.847656 C 52.820312 32.578125 52.34375 32.433594 51.855469 32.433594 L 39.175781 32.433594 C 39.175781 32.433594 37.785156 33.484375 37.785156 35.996094 C 37.785156 38.507812 39.175781 39.5625 39.175781 39.5625 Z M 39.175781 39.5625 " clip-rule="nonzero"/></clipPath><clipPath id="24fd126d12"><path d="M 0.761719 0.433594 L 20.585938 0.433594 L 20.585938 7.589844 L 0.761719 7.589844 Z M 0.761719 0.433594 " clip-rule="nonzero"/></clipPath><clipPath id="667da2f287"><path d="M 2.175781 7.5625 L 14.855469 7.5625 C 15.34375 7.5625 15.820312 7.417969 16.230469 7.144531 L 20.351562 4.410156 C 20.488281 4.320312 20.574219 4.164062 20.574219 3.996094 C 20.574219 3.832031 20.488281 3.675781 20.351562 3.582031 L 16.230469 0.847656 C 15.820312 0.578125 15.34375 0.433594 14.855469 0.433594 L 2.175781 0.433594 C 2.175781 0.433594 0.785156 1.484375 0.785156 3.996094 C 0.785156 6.507812 2.175781 7.5625 2.175781 7.5625 Z M 2.175781 7.5625 " clip-rule="nonzero"/></clipPath><clipPath id="d8c87f3fd9"><rect x="0" width="21" y="0" height="8"/></clipPath><clipPath id="9214f5402a"><path d="M 9.679688 32.433594 L 29.503906 32.433594 L 29.503906 39.589844 L 9.679688 39.589844 Z M 9.679688 32.433594 " clip-rule="nonzero"/></clipPath><clipPath id="bde5925795"><path d="M 11.097656 39.5625 L 23.773438 39.5625 C 24.261719 39.5625 24.742188 39.417969 25.148438 39.144531 L 29.269531 36.410156 C 29.410156 36.320312 29.492188 36.164062 29.492188 35.996094 C 29.492188 35.832031 29.410156 35.675781 29.269531 35.582031 L 25.148438 32.847656 C 24.742188 32.578125 24.261719 32.433594 23.773438 32.433594 L 11.097656 32.433594 C 11.097656 32.433594 9.703125 33.484375 9.703125 35.996094 C 9.703125 38.507812 11.097656 39.5625 11.097656 39.5625 Z M 11.097656 39.5625 " clip-rule="nonzero"/></clipPath><clipPath id="1677fbba00"><path d="M 0.679688 0.433594 L 20.503906 0.433594 L 20.503906 7.589844 L 0.679688 7.589844 Z M 0.679688 0.433594 " clip-rule="nonzero"/></clipPath><clipPath id="4e6dfb4464"><path d="M 2.097656 7.5625 L 14.773438 7.5625 C 15.261719 7.5625 15.742188 7.417969 16.148438 7.144531 L 20.269531 4.410156 C 20.410156 4.320312 20.492188 4.164062 20.492188 3.996094 C 20.492188 3.832031 20.410156 3.675781 20.269531 3.582031 L 16.148438 0.847656 C 15.742188 0.578125 15.261719 0.433594 14.773438 0.433594 L 2.097656 0.433594 C 2.097656 0.433594 0.703125 1.484375 0.703125 3.996094 C 0.703125 6.507812 2.097656 7.5625 2.097656 7.5625 Z M 2.097656 7.5625 " clip-rule="nonzero"/></clipPath><clipPath id="be08d1e29f"><rect x="0" width="21" y="0" height="8"/></clipPath><clipPath id="6f936f34b9"><path d="M 0.519531 2 L 4 2 L 4 6 L 0.519531 6 Z M 0.519531 2 " clip-rule="nonzero"/></clipPath><clipPath id="8123b0c7f0"><rect x="0" width="5" y="0" height="8"/></clipPath><clipPath id="52dad3fdd5"><path d="M 0.359375 2 L 4 2 L 4 6 L 0.359375 6 Z M 0.359375 2 " clip-rule="nonzero"/></clipPath><clipPath id="9ed2fde401"><rect x="0" width="5" y="0" height="8"/></clipPath></defs><g clip-path="url(#c962b17df6)"><g clip-path="url(#6d1de1981d)"><g transform="matrix(1, 0, 0, 1, 37, 32)"><g clip-path="url(#d8c87f3fd9)"><g clip-path="url(#24fd126d12)"><g clip-path="url(#667da2f287)"><path fill="#000000" d="M 20.976562 7.5625 L 0.789062 7.5625 L 0.789062 0.433594 L 20.976562 0.433594 Z M 20.976562 7.5625 " fill-opacity="1" fill-rule="nonzero"/></g></g></g></g></g></g><g clip-path="url(#9214f5402a)"><g clip-path="url(#bde5925795)"><g transform="matrix(1, 0, 0, 1, 9, 32)"><g clip-path="url(#be08d1e29f)"><g clip-path="url(#1677fbba00)"><g clip-path="url(#4e6dfb4464)"><path fill="#000000" d="M 20.894531 7.5625 L 0.707031 7.5625 L 0.707031 0.433594 L 20.894531 0.433594 Z M 20.894531 7.5625 " fill-opacity="1" fill-rule="nonzero"/></g></g></g></g></g></g><path fill="#000000" d="M 25.574219 35.625 L 26.324219 35.625 L 26.324219 36.375 L 25.574219 36.375 M 27.074219 35.625 L 27.824219 35.625 L 27.824219 36.375 L 27.074219 36.375 M 28.574219 35.625 L 29.324219 35.625 L 29.324219 36.375 L 28.574219 36.375 M 30.074219 35.625 L 30.824219 35.625 L 30.824219 36.375 L 30.074219 36.375 M 31.574219 35.625 L 32.324219 35.625 L 32.324219 36.375 L 31.574219 36.375 M 33.074219 35.625 L 33.824219 35.625 L 33.824219 36.375 L 33.074219 36.375 " fill-opacity="1" fill-rule="nonzero"/><path stroke-linecap="round" transform="matrix(0.75, 0, 0, 0.75, 25.575764, 35.625001)" fill="none" stroke-linejoin="round" d="M 9.018773 -1.000001 L 11.018773 0.499999 L 9.018773 1.999999 " stroke="#000000" stroke-width="1" stroke-opacity="1" stroke-miterlimit="4"/><g transform="matrix(1, 0, 0, 1, 17, 32)"><g clip-path="url(#8123b0c7f0)"><g clip-path="url(#6f936f34b9)"><g fill="#ffffff" fill-opacity="1"><g transform="translate(0.536058, 5.666691)"><g><path d="M 3.21875 0 L 2.765625 0 L 2.4375 -0.984375 L 0.90625 -0.984375 L 0.578125 0 L 0.140625 0 L 1.390625 -3.5625 L 1.96875 -3.5625 Z M 1.640625 -3.140625 L 1.03125 -1.328125 L 2.3125 -1.328125 L 1.703125 -3.140625 Z M 1.640625 -3.140625 "/></g></g></g></g></g></g><g transform="matrix(1, 0, 0, 1, 45, 32)"><g clip-path="url(#9ed2fde401)"><g clip-path="url(#52dad3fdd5)"><g fill="#ffffff" fill-opacity="1"><g transform="translate(0.456996, 5.666691)"><g><path d="M 0.546875 0 L 0.546875 -3.5625 L 1.890625 -3.5625 C 2.109375 -3.5625 2.296875 -3.523438 2.453125 -3.453125 C 2.609375 -3.390625 2.722656 -3.289062 2.796875 -3.15625 C 2.867188 -3.03125 2.90625 -2.878906 2.90625 -2.703125 C 2.90625 -2.546875 2.863281 -2.40625 2.78125 -2.28125 C 2.695312 -2.15625 2.578125 -2.054688 2.421875 -1.984375 L 2.421875 -1.9375 C 2.660156 -1.875 2.84375 -1.765625 2.96875 -1.609375 C 3.09375 -1.460938 3.15625 -1.269531 3.15625 -1.03125 C 3.15625 -0.695312 3.054688 -0.441406 2.859375 -0.265625 C 2.660156 -0.0859375 2.375 0 2 0 Z M 1.875 -2.078125 C 2.070312 -2.078125 2.222656 -2.125 2.328125 -2.21875 C 2.441406 -2.320312 2.5 -2.46875 2.5 -2.65625 C 2.5 -2.84375 2.445312 -2.984375 2.34375 -3.078125 C 2.238281 -3.171875 2.082031 -3.21875 1.875 -3.21875 L 0.953125 -3.21875 L 0.953125 -2.078125 Z M 1.96875 -0.34375 C 2.46875 -0.34375 2.71875 -0.570312 2.71875 -1.03125 C 2.71875 -1.488281 2.46875 -1.71875 1.96875 -1.71875 L 0.953125 -1.71875 L 0.953125 -0.34375 Z M 1.96875 -0.34375 "/></g></g></g></g></g></g><path fill="#000000" d="M 53.65625 35.625 L 54.40625 35.625 L 54.40625 36.375 L 53.65625 36.375 M 55.15625 35.625 L 55.90625 35.625 L 55.90625 36.375 L 55.15625 36.375 M 56.65625 35.625 L 57.40625 35.625 L 57.40625 36.375 L 56.65625 36.375 M 58.15625 35.625 L 58.90625 35.625 L 58.90625 36.375 L 58.15625 36.375 M 59.65625 35.625 L 60.40625 35.625 L 60.40625 36.375 L 59.65625 36.375 M 61.15625 35.625 L 61.90625 35.625 L 61.90625 36.375 L 61.15625 36.375 " fill-opacity="1" fill-rule="nonzero"/><path stroke-linecap="round" transform="matrix(0.75, 0, 0, 0.75, 53.655766, 35.625001)" fill="none" stroke-linejoin="round" d="M 9.021479 -1.000001 L 11.021479 0.499999 L 9.021479 1.999999 " stroke="#000000" stroke-width="1" stroke-opacity="1" stroke-miterlimit="4"/></svg>