<svg xmlns="http://www.w3.org/2000/svg" xmlns:xlink="http://www.w3.org/1999/xlink" width="96" zoomAndPan="magnify" viewBox="0 0 72 72" height="96" preserveAspectRatio="xMidYMid meet" version="1.0"><defs><clipPath id="bcbbd6eb80"><path d="M 42.34375 12 L 52.695312 12 L 52.695312 22.351562 L 42.34375 22.351562 Z M 42.34375 12 " clip-rule="nonzero"/></clipPath><clipPath id="18a83992a2"><path d="M 47.519531 12 C 44.660156 12 42.34375 14.316406 42.34375 17.175781 C 42.34375 20.03125 44.660156 22.351562 47.519531 22.351562 C 50.378906 22.351562 52.695312 20.03125 52.695312 17.175781 C 52.695312 14.316406 50.378906 12 47.519531 12 Z M 47.519531 12 " clip-rule="nonzero"/></clipPath><clipPath id="f689d45aad"><path d="M 0.34375 0 L 10.695312 0 L 10.695312 10.351562 L 0.34375 10.351562 Z M 0.34375 0 " clip-rule="nonzero"/></clipPath><clipPath id="ee8fc1b93a"><path d="M 5.519531 0 C 2.660156 0 0.34375 2.316406 0.34375 5.175781 C 0.34375 8.03125 2.660156 10.351562 5.519531 10.351562 C 8.378906 10.351562 10.695312 8.03125 10.695312 5.175781 C 10.695312 2.316406 8.378906 0 5.519531 0 Z M 5.519531 0 " clip-rule="nonzero"/></clipPath><clipPath id="d80660b33b"><rect x="0" width="11" y="0" height="11"/></clipPath><clipPath id="d09e7380dc"><path d="M 42.34375 25.648438 L 52.695312 25.648438 L 52.695312 36 L 42.34375 36 Z M 42.34375 25.648438 " clip-rule="nonzero"/></clipPath><clipPath id="576eadbc59"><path d="M 47.519531 25.648438 C 44.660156 25.648438 42.34375 27.96875 42.34375 30.824219 C 42.34375 33.683594 44.660156 36 47.519531 36 C 50.378906 36 52.695312 33.683594 52.695312 30.824219 C 52.695312 27.96875 50.378906 25.648438 47.519531 25.648438 Z M 47.519531 25.648438 " clip-rule="nonzero"/></clipPath><clipPath id="8d8d92562e"><path d="M 0.34375 0.648438 L 10.695312 0.648438 L 10.695312 11 L 0.34375 11 Z M 0.34375 0.648438 " clip-rule="nonzero"/></clipPath><clipPath id="fa1d2f6bbb"><path d="M 5.519531 0.648438 C 2.660156 0.648438 0.34375 2.96875 0.34375 5.824219 C 0.34375 8.683594 2.660156 11 5.519531 11 C 8.378906 11 10.695312 8.683594 10.695312 5.824219 C 10.695312 2.96875 8.378906 0.648438 5.519531 0.648438 Z M 5.519531 0.648438 " clip-rule="nonzero"/></clipPath><clipPath id="ab4c503054"><rect x="0" width="11" y="0" height="11"/></clipPath><clipPath id="dcdf2c338c"><path d="M 19.304688 48 L 29.65625 48 L 29.65625 58.351562 L 19.304688 58.351562 Z M 19.304688 48 " clip-rule="nonzero"/></clipPath><clipPath id="a47921426b"><path d="M 24.480469 48 C 21.621094 48 19.304688 50.316406 19.304688 53.175781 C 19.304688 56.03125 21.621094 58.351562 24.480469 58.351562 C 27.339844 58.351562 29.65625 56.03125 29.65625 53.175781 C 29.65625 50.316406 27.339844 48 24.480469 48 Z M 24.480469 48 " clip-rule="nonzero"/></clipPath><clipPath id="e52e88d4af"><path d="M 0.304688 0 L 10.65625 0 L 10.65625 10.351562 L 0.304688 10.351562 Z M 0.304688 0 " clip-rule="nonzero"/></clipPath><clipPath id="50cdb2822e"><path d="M 5.480469 0 C 2.621094 0 0.304688 2.316406 0.304688 5.175781 C 0.304688 8.03125 2.621094 10.351562 5.480469 10.351562 C 8.339844 10.351562 10.65625 8.03125 10.65625 5.175781 C 10.65625 2.316406 8.339844 0 5.480469 0 Z M 5.480469 0 " clip-rule="nonzero"/></clipPath><clipPath id="51c4d2a1d9"><rect x="0" width="11" y="0" height="11"/></clipPath></defs><g clip-path="url(#bcbbd6eb80)"><g clip-path="url(#18a83992a2)"><g transform="matrix(1, 0, 0, 1, 42, 12)"><g clip-path="url(#d80660b33b)"><g clip-path="url(#f689d45aad)"><g clip-path="url(#ee8fc1b93a)"><path fill="#cc0000" d="M 0.34375 0 L 10.695312 0 L 10.695312 10.351562 L 0.34375 10.351562 Z M 0.34375 0 " fill-opacity="1" fill-rule="nonzero"/></g></g></g></g></g></g><g clip-path="url(#d09e7380dc)"><g clip-path="url(#576eadbc59)"><g transform="matrix(1, 0, 0, 1, 42, 25)"><g clip-path="url(#ab4c503054)"><g clip-path="url(#8d8d92562e)"><g clip-path="url(#fa1d2f6bbb)"><path fill="#ffffff" d="M 0.34375 0.648438 L 10.695312 0.648438 L 10.695312 11 L 0.34375 11 Z M 0.34375 0.648438 " fill-opacity="1" fill-rule="nonzero"/></g></g></g></g></g></g><g clip-path="url(#dcdf2c338c)"><g clip-path="url(#a47921426b)"><g transform="matrix(1, 0, 0, 1, 19, 48)"><g clip-path="url(#51c4d2a1d9)"><g clip-path="url(#e52e88d4af)"><g clip-path="url(#50cdb2822e)"><path fill="#cc0000" d="M 0.304688 0 L 10.65625 0 L 10.65625 10.351562 L 0.304688 10.351562 Z M 0.304688 0 " fill-opacity="1" fill-rule="nonzero"/></g></g></g></g></g></g></svg>