<svg xmlns="http://www.w3.org/2000/svg" xmlns:xlink="http://www.w3.org/1999/xlink" width="96" zoomAndPan="magnify" viewBox="0 0 72 72" height="96" preserveAspectRatio="xMidYMid meet" version="1.0"><defs><clipPath id="afb1bce8df"><path d="M 25.199219 35.101562 L 46.832031 35.101562 L 46.832031 54 L 25.199219 54 Z M 25.199219 35.101562 " clip-rule="nonzero"/></clipPath><clipPath id="539d58a225"><path d="M 36 35.101562 L 46.800781 54 L 25.199219 54 Z M 36 35.101562 " clip-rule="nonzero"/></clipPath><clipPath id="f559cc3ff6"><path d="M 0.199219 0.101562 L 21.800781 0.101562 L 21.800781 19 L 0.199219 19 Z M 0.199219 0.101562 " clip-rule="nonzero"/></clipPath><clipPath id="05ed3828bc"><path d="M 11 0.101562 L 21.800781 19 L 0.199219 19 Z M 11 0.101562 " clip-rule="nonzero"/></clipPath><clipPath id="8b254f1f4d"><rect x="0" width="22" y="0" height="19"/></clipPath><clipPath id="f766f6671c"><path d="M 25.199219 17.101562 L 46.832031 17.101562 L 46.832031 36 L 25.199219 36 Z M 25.199219 17.101562 " clip-rule="nonzero"/></clipPath><clipPath id="0f4fdcd7c2"><path d="M 36 36 L 46.800781 17.101562 L 25.199219 17.101562 Z M 36 36 " clip-rule="nonzero"/></clipPath><clipPath id="6dd2744e68"><path d="M 0.199219 0.101562 L 21.800781 0.101562 L 21.800781 19 L 0.199219 19 Z M 0.199219 0.101562 " clip-rule="nonzero"/></clipPath><clipPath id="ed0e15bca7"><path d="M 11 19 L 21.800781 0.101562 L 0.199219 0.101562 Z M 11 19 " clip-rule="nonzero"/></clipPath><clipPath id="5841b93a9d"><rect x="0" width="22" y="0" height="19"/></clipPath></defs><path stroke-linecap="butt" transform="matrix(-0.000000000000000186, 0.75, -0.75, -0.000000000000000186, 36.374998, 0.000002)" fill="none" stroke-linejoin="miter" d="M -0.00000266667 0.499998 L 96.000001 0.499998 " stroke="#000000" stroke-width="1" stroke-opacity="1" stroke-miterlimit="4"/><g clip-path="url(#afb1bce8df)"><g clip-path="url(#539d58a225)"><g transform="matrix(1, 0, 0, 1, 25, 35)"><g clip-path="url(#8b254f1f4d)"><g clip-path="url(#f559cc3ff6)"><g clip-path="url(#05ed3828bc)"><path fill="#222222" d="M 0.199219 0.101562 L 21.832031 0.101562 L 21.832031 19 L 0.199219 19 Z M 0.199219 0.101562 " fill-opacity="1" fill-rule="nonzero"/></g></g></g></g></g></g><g clip-path="url(#f766f6671c)"><g clip-path="url(#0f4fdcd7c2)"><g transform="matrix(1, 0, 0, 1, 25, 17)"><g clip-path="url(#5841b93a9d)"><g clip-path="url(#6dd2744e68)"><g clip-path="url(#ed0e15bca7)"><path fill="#222222" d="M 0.199219 0.101562 L 21.832031 0.101562 L 21.832031 19 L 0.199219 19 Z M 0.199219 0.101562 " fill-opacity="1" fill-rule="nonzero"/></g></g></g></g></g></g></svg>