<svg xmlns="http://www.w3.org/2000/svg" xmlns:xlink="http://www.w3.org/1999/xlink" width="96" zoomAndPan="magnify" viewBox="0 0 72 72" height="96" preserveAspectRatio="xMidYMid meet" version="1.0"><defs><clipPath id="c57d6f8813"><path d="M 47.519531 13.648438 L 57.871094 13.648438 L 57.871094 24 L 47.519531 24 Z M 47.519531 13.648438 " clip-rule="nonzero"/></clipPath><clipPath id="34e7e99475"><path d="M 52.695312 13.648438 C 49.835938 13.648438 47.519531 15.96875 47.519531 18.824219 C 47.519531 21.683594 49.835938 24 52.695312 24 C 55.554688 24 57.871094 21.683594 57.871094 18.824219 C 57.871094 15.96875 55.554688 13.648438 52.695312 13.648438 Z M 52.695312 13.648438 " clip-rule="nonzero"/></clipPath><clipPath id="d8280a23df"><path d="M 0.519531 0.648438 L 10.871094 0.648438 L 10.871094 11 L 0.519531 11 Z M 0.519531 0.648438 " clip-rule="nonzero"/></clipPath><clipPath id="8dd3d9f72d"><path d="M 5.695312 0.648438 C 2.835938 0.648438 0.519531 2.96875 0.519531 5.824219 C 0.519531 8.683594 2.835938 11 5.695312 11 C 8.554688 11 10.871094 8.683594 10.871094 5.824219 C 10.871094 2.96875 8.554688 0.648438 5.695312 0.648438 Z M 5.695312 0.648438 " clip-rule="nonzero"/></clipPath><clipPath id="affbb5fbb4"><rect x="0" width="11" y="0" height="11"/></clipPath><clipPath id="0ed5790da1"><path d="M 47.519531 30.824219 L 57.871094 30.824219 L 57.871094 41.175781 L 47.519531 41.175781 Z M 47.519531 30.824219 " clip-rule="nonzero"/></clipPath><clipPath id="b1fe7b6e5c"><path d="M 52.695312 30.824219 C 49.835938 30.824219 47.519531 33.140625 47.519531 36 C 47.519531 38.859375 49.835938 41.175781 52.695312 41.175781 C 55.554688 41.175781 57.871094 38.859375 57.871094 36 C 57.871094 33.140625 55.554688 30.824219 52.695312 30.824219 Z M 52.695312 30.824219 " clip-rule="nonzero"/></clipPath><clipPath id="dc81709679"><path d="M 0.519531 0.824219 L 10.871094 0.824219 L 10.871094 11.175781 L 0.519531 11.175781 Z M 0.519531 0.824219 " clip-rule="nonzero"/></clipPath><clipPath id="28d23e26dd"><path d="M 5.695312 0.824219 C 2.835938 0.824219 0.519531 3.140625 0.519531 6 C 0.519531 8.859375 2.835938 11.175781 5.695312 11.175781 C 8.554688 11.175781 10.871094 8.859375 10.871094 6 C 10.871094 3.140625 8.554688 0.824219 5.695312 0.824219 Z M 5.695312 0.824219 " clip-rule="nonzero"/></clipPath><clipPath id="295990cfaf"><rect x="0" width="11" y="0" height="12"/></clipPath><clipPath id="e19ecd3073"><path d="M 24.480469 42.824219 L 34.828125 42.824219 L 34.828125 53.175781 L 24.480469 53.175781 Z M 24.480469 42.824219 " clip-rule="nonzero"/></clipPath><clipPath id="3862c072b7"><path d="M 29.65625 42.824219 C 26.796875 42.824219 24.480469 45.140625 24.480469 48 C 24.480469 50.859375 26.796875 53.175781 29.65625 53.175781 C 32.511719 53.175781 34.828125 50.859375 34.828125 48 C 34.828125 45.140625 32.511719 42.824219 29.65625 42.824219 Z M 29.65625 42.824219 " clip-rule="nonzero"/></clipPath><clipPath id="baa1923eb9"><path d="M 0.480469 0.824219 L 10.828125 0.824219 L 10.828125 11.175781 L 0.480469 11.175781 Z M 0.480469 0.824219 " clip-rule="nonzero"/></clipPath><clipPath id="2a3a1f82ea"><path d="M 5.65625 0.824219 C 2.796875 0.824219 0.480469 3.140625 0.480469 6 C 0.480469 8.859375 2.796875 11.175781 5.65625 11.175781 C 8.511719 11.175781 10.828125 8.859375 10.828125 6 C 10.828125 3.140625 8.511719 0.824219 5.65625 0.824219 Z M 5.65625 0.824219 " clip-rule="nonzero"/></clipPath><clipPath id="5d7169a145"><rect x="0" width="11" y="0" height="12"/></clipPath><clipPath id="0eead591be"><path d="M 7.066406 54.449219 L 17.414062 54.449219 L 17.414062 64.800781 L 7.066406 64.800781 Z M 7.066406 54.449219 " clip-rule="nonzero"/></clipPath><clipPath id="af54471667"><path d="M 12.238281 54.449219 C 9.382812 54.449219 7.066406 56.765625 7.066406 59.625 C 7.066406 62.484375 9.382812 64.800781 12.238281 64.800781 C 15.097656 64.800781 17.414062 62.484375 17.414062 59.625 C 17.414062 56.765625 15.097656 54.449219 12.238281 54.449219 Z M 12.238281 54.449219 " clip-rule="nonzero"/></clipPath><clipPath id="ddec6282c4"><path d="M 0.0664062 0.449219 L 10.414062 0.449219 L 10.414062 10.800781 L 0.0664062 10.800781 Z M 0.0664062 0.449219 " clip-rule="nonzero"/></clipPath><clipPath id="36cdb4f397"><path d="M 5.238281 0.449219 C 2.382812 0.449219 0.0664062 2.765625 0.0664062 5.625 C 0.0664062 8.484375 2.382812 10.800781 5.238281 10.800781 C 8.097656 10.800781 10.414062 8.484375 10.414062 5.625 C 10.414062 2.765625 8.097656 0.449219 5.238281 0.449219 Z M 5.238281 0.449219 " clip-rule="nonzero"/></clipPath><clipPath id="80db0925c2"><rect x="0" width="11" y="0" height="11"/></clipPath></defs><g clip-path="url(#c57d6f8813)"><g clip-path="url(#34e7e99475)"><g transform="matrix(1, 0, 0, 1, 47, 13)"><g clip-path="url(#affbb5fbb4)"><g clip-path="url(#d8280a23df)"><g clip-path="url(#8dd3d9f72d)"><path fill="#ffffff" d="M 0.519531 0.648438 L 10.871094 0.648438 L 10.871094 11 L 0.519531 11 Z M 0.519531 0.648438 " fill-opacity="1" fill-rule="nonzero"/></g></g></g></g></g></g><g clip-path="url(#0ed5790da1)"><g clip-path="url(#b1fe7b6e5c)"><g transform="matrix(1, 0, 0, 1, 47, 30)"><g clip-path="url(#295990cfaf)"><g clip-path="url(#dc81709679)"><g clip-path="url(#28d23e26dd)"><path fill="#ffffff" d="M 0.519531 0.824219 L 10.871094 0.824219 L 10.871094 11.175781 L 0.519531 11.175781 Z M 0.519531 0.824219 " fill-opacity="1" fill-rule="nonzero"/></g></g></g></g></g></g><g clip-path="url(#e19ecd3073)"><g clip-path="url(#3862c072b7)"><g transform="matrix(1, 0, 0, 1, 24, 42)"><g clip-path="url(#5d7169a145)"><g clip-path="url(#baa1923eb9)"><g clip-path="url(#2a3a1f82ea)"><path fill="#cc0000" d="M 0.480469 0.824219 L 10.828125 0.824219 L 10.828125 11.175781 L 0.480469 11.175781 Z M 0.480469 0.824219 " fill-opacity="1" fill-rule="nonzero"/></g></g></g></g></g></g><g clip-path="url(#0eead591be)"><g clip-path="url(#af54471667)"><g transform="matrix(1, 0, 0, 1, 7, 54)"><g clip-path="url(#80db0925c2)"><g clip-path="url(#ddec6282c4)"><g clip-path="url(#36cdb4f397)"><path fill="#cc0000" d="M 0.0664062 0.449219 L 10.414062 0.449219 L 10.414062 10.800781 L 0.0664062 10.800781 Z M 0.0664062 0.449219 " fill-opacity="1" fill-rule="nonzero"/></g></g></g></g></g></g></svg>