<svg xmlns="http://www.w3.org/2000/svg" xmlns:xlink="http://www.w3.org/1999/xlink" width="96" zoomAndPan="magnify" viewBox="0 0 72 72" height="96" preserveAspectRatio="xMidYMid meet" version="1.0"><defs><clipPath id="5d1d8c7fef"><path d="M 27.769531 4.945312 L 43.96875 4.945312 L 43.96875 21.144531 L 27.769531 21.144531 Z M 27.769531 4.945312 " clip-rule="nonzero"/></clipPath><clipPath id="7846f37481"><path d="M 35.871094 4.945312 C 31.394531 4.945312 27.769531 8.570312 27.769531 13.046875 C 27.769531 17.519531 31.394531 21.144531 35.871094 21.144531 C 40.34375 21.144531 43.96875 17.519531 43.96875 13.046875 C 43.96875 8.570312 40.34375 4.945312 35.871094 4.945312 Z M 35.871094 4.945312 " clip-rule="nonzero"/></clipPath><clipPath id="394195dd1f"><path d="M 0.769531 0.945312 L 16.96875 0.945312 L 16.96875 17.144531 L 0.769531 17.144531 Z M 0.769531 0.945312 " clip-rule="nonzero"/></clipPath><clipPath id="41f6291cf1"><path d="M 8.871094 0.945312 C 4.394531 0.945312 0.769531 4.570312 0.769531 9.046875 C 0.769531 13.519531 4.394531 17.144531 8.871094 17.144531 C 13.34375 17.144531 16.96875 13.519531 16.96875 9.046875 C 16.96875 4.570312 13.34375 0.945312 8.871094 0.945312 Z M 8.871094 0.945312 " clip-rule="nonzero"/></clipPath><clipPath id="c45a335157"><rect x="0" width="17" y="0" height="18"/></clipPath><clipPath id="3b447f9608"><path d="M 28.03125 27.144531 L 43.96875 27.144531 L 43.96875 44.890625 L 28.03125 44.890625 Z M 28.03125 27.144531 " clip-rule="nonzero"/></clipPath><clipPath id="46629c3f3f"><path d="M 36 27.144531 L 43.96875 36 L 36 44.855469 L 28.03125 36 Z M 36 27.144531 " clip-rule="nonzero"/></clipPath><clipPath id="cf2852e602"><path d="M 0.03125 0.144531 L 15.96875 0.144531 L 15.96875 17.878906 L 0.03125 17.878906 Z M 0.03125 0.144531 " clip-rule="nonzero"/></clipPath><clipPath id="ec712ff63e"><path d="M 8 0.144531 L 15.96875 9 L 8 17.855469 L 0.03125 9 Z M 8 0.144531 " clip-rule="nonzero"/></clipPath><clipPath id="5d960c6792"><rect x="0" width="16" y="0" height="18"/></clipPath><clipPath id="f30f8c9990"><path d="M 27.898438 50.855469 L 44.101562 50.855469 L 44.101562 67.054688 L 27.898438 67.054688 Z M 27.898438 50.855469 " clip-rule="nonzero"/></clipPath><clipPath id="2d5c9b5d2c"><path d="M 36 50.855469 C 31.527344 50.855469 27.898438 54.480469 27.898438 58.953125 C 27.898438 63.429688 31.527344 67.054688 36 67.054688 C 40.472656 67.054688 44.101562 63.429688 44.101562 58.953125 C 44.101562 54.480469 40.472656 50.855469 36 50.855469 Z M 36 50.855469 " clip-rule="nonzero"/></clipPath><clipPath id="3bfaf20fef"><path d="M 0.898438 0.855469 L 17.101562 0.855469 L 17.101562 17.054688 L 0.898438 17.054688 Z M 0.898438 0.855469 " clip-rule="nonzero"/></clipPath><clipPath id="9d00e5fc6f"><path d="M 9 0.855469 C 4.527344 0.855469 0.898438 4.480469 0.898438 8.953125 C 0.898438 13.429688 4.527344 17.054688 9 17.054688 C 13.472656 17.054688 17.101562 13.429688 17.101562 8.953125 C 17.101562 4.480469 13.472656 0.855469 9 0.855469 Z M 9 0.855469 " clip-rule="nonzero"/></clipPath><clipPath id="d7722d9795"><rect x="0" width="18" y="0" height="18"/></clipPath></defs><path stroke-linecap="butt" transform="matrix(0, 0.75, -0.75, 0, 36.374998, 0.000002)" fill="none" stroke-linejoin="miter" d="M -0.00000266667 0.499998 L 96.000001 0.499998 " stroke="#000000" stroke-width="1" stroke-opacity="1" stroke-miterlimit="4"/><g clip-path="url(#5d1d8c7fef)"><g clip-path="url(#7846f37481)"><g transform="matrix(1, 0, 0, 1, 27, 4)"><g clip-path="url(#c45a335157)"><g clip-path="url(#394195dd1f)"><g clip-path="url(#41f6291cf1)"><path fill="#000000" d="M 0.769531 0.945312 L 16.96875 0.945312 L 16.96875 17.144531 L 0.769531 17.144531 Z M 0.769531 0.945312 " fill-opacity="1" fill-rule="nonzero"/></g></g></g></g></g></g><g clip-path="url(#3b447f9608)"><g clip-path="url(#46629c3f3f)"><g transform="matrix(1, 0, 0, 1, 28, 27)"><g clip-path="url(#5d960c6792)"><g clip-path="url(#cf2852e602)"><g clip-path="url(#ec712ff63e)"><path fill="#000000" d="M 0.03125 0.144531 L 15.96875 0.144531 L 15.96875 17.828125 L 0.03125 17.828125 Z M 0.03125 0.144531 " fill-opacity="1" fill-rule="nonzero"/></g></g></g></g></g></g><g clip-path="url(#f30f8c9990)"><g clip-path="url(#2d5c9b5d2c)"><g transform="matrix(1, 0, 0, 1, 27, 50)"><g clip-path="url(#d7722d9795)"><g clip-path="url(#3bfaf20fef)"><g clip-path="url(#9d00e5fc6f)"><path fill="#000000" d="M 0.898438 0.855469 L 17.101562 0.855469 L 17.101562 17.054688 L 0.898438 17.054688 Z M 0.898438 0.855469 " fill-opacity="1" fill-rule="nonzero"/></g></g></g></g></g></g></svg>