<svg xmlns="http://www.w3.org/2000/svg" xmlns:xlink="http://www.w3.org/1999/xlink" width="96" zoomAndPan="magnify" viewBox="0 0 72 72" height="96" preserveAspectRatio="xMidYMid meet" version="1.0"><defs><clipPath id="14675616c7"><path d="M 42.34375 18.824219 L 52.695312 18.824219 L 52.695312 29.175781 L 42.34375 29.175781 Z M 42.34375 18.824219 " clip-rule="nonzero"/></clipPath><clipPath id="9215c309c2"><path d="M 47.519531 18.824219 C 44.660156 18.824219 42.34375 21.140625 42.34375 24 C 42.34375 26.859375 44.660156 29.175781 47.519531 29.175781 C 50.378906 29.175781 52.695312 26.859375 52.695312 24 C 52.695312 21.140625 50.378906 18.824219 47.519531 18.824219 Z M 47.519531 18.824219 " clip-rule="nonzero"/></clipPath><clipPath id="e3caffe979"><path d="M 0.34375 0.824219 L 10.695312 0.824219 L 10.695312 11.175781 L 0.34375 11.175781 Z M 0.34375 0.824219 " clip-rule="nonzero"/></clipPath><clipPath id="ef77299c5b"><path d="M 5.519531 0.824219 C 2.660156 0.824219 0.34375 3.140625 0.34375 6 C 0.34375 8.859375 2.660156 11.175781 5.519531 11.175781 C 8.378906 11.175781 10.695312 8.859375 10.695312 6 C 10.695312 3.140625 8.378906 0.824219 5.519531 0.824219 Z M 5.519531 0.824219 " clip-rule="nonzero"/></clipPath><clipPath id="0019426a23"><rect x="0" width="11" y="0" height="12"/></clipPath><clipPath id="d9fb623113"><path d="M 42.34375 32.101562 L 52.695312 32.101562 L 52.695312 42.449219 L 42.34375 42.449219 Z M 42.34375 32.101562 " clip-rule="nonzero"/></clipPath><clipPath id="6c887d4447"><path d="M 47.519531 32.101562 C 44.660156 32.101562 42.34375 34.417969 42.34375 37.273438 C 42.34375 40.132812 44.660156 42.449219 47.519531 42.449219 C 50.378906 42.449219 52.695312 40.132812 52.695312 37.273438 C 52.695312 34.417969 50.378906 32.101562 47.519531 32.101562 Z M 47.519531 32.101562 " clip-rule="nonzero"/></clipPath><clipPath id="99cb49c5cf"><path d="M 0.34375 0.101562 L 10.695312 0.101562 L 10.695312 10.449219 L 0.34375 10.449219 Z M 0.34375 0.101562 " clip-rule="nonzero"/></clipPath><clipPath id="2d48d98572"><path d="M 5.519531 0.101562 C 2.660156 0.101562 0.34375 2.417969 0.34375 5.273438 C 0.34375 8.132812 2.660156 10.449219 5.519531 10.449219 C 8.378906 10.449219 10.695312 8.132812 10.695312 5.273438 C 10.695312 2.417969 8.378906 0.101562 5.519531 0.101562 Z M 5.519531 0.101562 " clip-rule="nonzero"/></clipPath><clipPath id="81a8c12404"><rect x="0" width="11" y="0" height="11"/></clipPath><clipPath id="0e0ff2c70b"><path d="M 19.304688 48 L 29.65625 48 L 29.65625 58.351562 L 19.304688 58.351562 Z M 19.304688 48 " clip-rule="nonzero"/></clipPath><clipPath id="5d93cf04df"><path d="M 24.480469 48 C 21.621094 48 19.304688 50.316406 19.304688 53.175781 C 19.304688 56.03125 21.621094 58.351562 24.480469 58.351562 C 27.339844 58.351562 29.65625 56.03125 29.65625 53.175781 C 29.65625 50.316406 27.339844 48 24.480469 48 Z M 24.480469 48 " clip-rule="nonzero"/></clipPath><clipPath id="4aa0c33a6d"><path d="M 0.304688 0 L 10.65625 0 L 10.65625 10.351562 L 0.304688 10.351562 Z M 0.304688 0 " clip-rule="nonzero"/></clipPath><clipPath id="b541a1bd47"><path d="M 5.480469 0 C 2.621094 0 0.304688 2.316406 0.304688 5.175781 C 0.304688 8.03125 2.621094 10.351562 5.480469 10.351562 C 8.339844 10.351562 10.65625 8.03125 10.65625 5.175781 C 10.65625 2.316406 8.339844 0 5.480469 0 Z M 5.480469 0 " clip-rule="nonzero"/></clipPath><clipPath id="3c67de5a99"><rect x="0" width="11" y="0" height="11"/></clipPath></defs><g clip-path="url(#14675616c7)"><g clip-path="url(#9215c309c2)"><g transform="matrix(1, 0, 0, 1, 42, 18)"><g clip-path="url(#0019426a23)"><g clip-path="url(#e3caffe979)"><g clip-path="url(#ef77299c5b)"><path fill="#cc0000" d="M 0.34375 0.824219 L 10.695312 0.824219 L 10.695312 11.175781 L 0.34375 11.175781 Z M 0.34375 0.824219 " fill-opacity="1" fill-rule="nonzero"/></g></g></g></g></g></g><g clip-path="url(#d9fb623113)"><g clip-path="url(#6c887d4447)"><g transform="matrix(1, 0, 0, 1, 42, 32)"><g clip-path="url(#81a8c12404)"><g clip-path="url(#99cb49c5cf)"><g clip-path="url(#2d48d98572)"><path fill="#cc0000" d="M 0.34375 0.101562 L 10.695312 0.101562 L 10.695312 10.449219 L 0.34375 10.449219 Z M 0.34375 0.101562 " fill-opacity="1" fill-rule="nonzero"/></g></g></g></g></g></g><g clip-path="url(#0e0ff2c70b)"><g clip-path="url(#5d93cf04df)"><g transform="matrix(1, 0, 0, 1, 19, 48)"><g clip-path="url(#3c67de5a99)"><g clip-path="url(#4aa0c33a6d)"><g clip-path="url(#b541a1bd47)"><path fill="#00bf63" d="M 0.304688 0 L 10.65625 0 L 10.65625 10.351562 L 0.304688 10.351562 Z M 0.304688 0 " fill-opacity="1" fill-rule="nonzero"/></g></g></g></g></g></g></svg>