<svg xmlns="http://www.w3.org/2000/svg" xmlns:xlink="http://www.w3.org/1999/xlink" width="96" zoomAndPan="magnify" viewBox="0 0 72 72" height="96" preserveAspectRatio="xMidYMid meet" version="1.0"><defs><clipPath id="2aa6bbba9f"><path d="M 47.519531 7.199219 L 57.871094 7.199219 L 57.871094 17.550781 L 47.519531 17.550781 Z M 47.519531 7.199219 " clip-rule="nonzero"/></clipPath><clipPath id="a87273bd2f"><path d="M 52.695312 7.199219 C 49.835938 7.199219 47.519531 9.515625 47.519531 12.375 C 47.519531 15.234375 49.835938 17.550781 52.695312 17.550781 C 55.554688 17.550781 57.871094 15.234375 57.871094 12.375 C 57.871094 9.515625 55.554688 7.199219 52.695312 7.199219 Z M 52.695312 7.199219 " clip-rule="nonzero"/></clipPath><clipPath id="8248f718a1"><path d="M 0.519531 0.199219 L 10.871094 0.199219 L 10.871094 10.550781 L 0.519531 10.550781 Z M 0.519531 0.199219 " clip-rule="nonzero"/></clipPath><clipPath id="c84489a725"><path d="M 5.695312 0.199219 C 2.835938 0.199219 0.519531 2.515625 0.519531 5.375 C 0.519531 8.234375 2.835938 10.550781 5.695312 10.550781 C 8.554688 10.550781 10.871094 8.234375 10.871094 5.375 C 10.871094 2.515625 8.554688 0.199219 5.695312 0.199219 Z M 5.695312 0.199219 " clip-rule="nonzero"/></clipPath><clipPath id="c459e8c597"><rect x="0" width="11" y="0" height="11"/></clipPath><clipPath id="f77a084b67"><path d="M 47.519531 20.398438 L 57.871094 20.398438 L 57.871094 30.75 L 47.519531 30.75 Z M 47.519531 20.398438 " clip-rule="nonzero"/></clipPath><clipPath id="da262390f0"><path d="M 52.695312 20.398438 C 49.835938 20.398438 47.519531 22.71875 47.519531 25.574219 C 47.519531 28.433594 49.835938 30.75 52.695312 30.75 C 55.554688 30.75 57.871094 28.433594 57.871094 25.574219 C 57.871094 22.71875 55.554688 20.398438 52.695312 20.398438 Z M 52.695312 20.398438 " clip-rule="nonzero"/></clipPath><clipPath id="448f435437"><path d="M 0.519531 0.398438 L 10.871094 0.398438 L 10.871094 10.75 L 0.519531 10.75 Z M 0.519531 0.398438 " clip-rule="nonzero"/></clipPath><clipPath id="b7e9ad1c7a"><path d="M 5.695312 0.398438 C 2.835938 0.398438 0.519531 2.71875 0.519531 5.574219 C 0.519531 8.433594 2.835938 10.75 5.695312 10.75 C 8.554688 10.75 10.871094 8.433594 10.871094 5.574219 C 10.871094 2.71875 8.554688 0.398438 5.695312 0.398438 Z M 5.695312 0.398438 " clip-rule="nonzero"/></clipPath><clipPath id="b876543fad"><rect x="0" width="11" y="0" height="11"/></clipPath><clipPath id="4639daf762"><path d="M 2.023438 49.648438 L 12.375 49.648438 L 12.375 60 L 2.023438 60 Z M 2.023438 49.648438 " clip-rule="nonzero"/></clipPath><clipPath id="793853d452"><path d="M 7.199219 49.648438 C 4.34375 49.648438 2.023438 51.96875 2.023438 54.824219 C 2.023438 57.683594 4.34375 60 7.199219 60 C 10.058594 60 12.375 57.683594 12.375 54.824219 C 12.375 51.96875 10.058594 49.648438 7.199219 49.648438 Z M 7.199219 49.648438 " clip-rule="nonzero"/></clipPath><clipPath id="1506dd31f9"><path d="M 0.0234375 0.648438 L 10.375 0.648438 L 10.375 11 L 0.0234375 11 Z M 0.0234375 0.648438 " clip-rule="nonzero"/></clipPath><clipPath id="61e8952e6d"><path d="M 5.199219 0.648438 C 2.34375 0.648438 0.0234375 2.96875 0.0234375 5.824219 C 0.0234375 8.683594 2.34375 11 5.199219 11 C 8.058594 11 10.375 8.683594 10.375 5.824219 C 10.375 2.96875 8.058594 0.648438 5.199219 0.648438 Z M 5.199219 0.648438 " clip-rule="nonzero"/></clipPath><clipPath id="14b8c577b9"><rect x="0" width="11" y="0" height="11"/></clipPath><clipPath id="deedd9de42"><path d="M 59.625 36 L 69.976562 36 L 69.976562 46.351562 L 59.625 46.351562 Z M 59.625 36 " clip-rule="nonzero"/></clipPath><clipPath id="998ec91b28"><path d="M 64.800781 36 C 61.941406 36 59.625 38.316406 59.625 41.175781 C 59.625 44.03125 61.941406 46.351562 64.800781 46.351562 C 67.65625 46.351562 69.976562 44.03125 69.976562 41.175781 C 69.976562 38.316406 67.65625 36 64.800781 36 Z M 64.800781 36 " clip-rule="nonzero"/></clipPath><clipPath id="5c66ef4289"><path d="M 0.625 0 L 10.976562 0 L 10.976562 10.351562 L 0.625 10.351562 Z M 0.625 0 " clip-rule="nonzero"/></clipPath><clipPath id="28cb33e63b"><path d="M 5.800781 0 C 2.941406 0 0.625 2.316406 0.625 5.175781 C 0.625 8.03125 2.941406 10.351562 5.800781 10.351562 C 8.65625 10.351562 10.976562 8.03125 10.976562 5.175781 C 10.976562 2.316406 8.65625 0 5.800781 0 Z M 5.800781 0 " clip-rule="nonzero"/></clipPath><clipPath id="5a29d281a0"><rect x="0" width="11" y="0" height="11"/></clipPath><clipPath id="ed959a5d5c"><path d="M 35.28125 36 L 45.628906 36 L 45.628906 46.351562 L 35.28125 46.351562 Z M 35.28125 36 " clip-rule="nonzero"/></clipPath><clipPath id="6377c804f9"><path d="M 40.453125 36 C 37.597656 36 35.28125 38.316406 35.28125 41.175781 C 35.28125 44.03125 37.597656 46.351562 40.453125 46.351562 C 43.3125 46.351562 45.628906 44.03125 45.628906 41.175781 C 45.628906 38.316406 43.3125 36 40.453125 36 Z M 40.453125 36 " clip-rule="nonzero"/></clipPath><clipPath id="62b246277f"><path d="M 0.28125 0 L 10.628906 0 L 10.628906 10.351562 L 0.28125 10.351562 Z M 0.28125 0 " clip-rule="nonzero"/></clipPath><clipPath id="5d615b5b3d"><path d="M 5.453125 0 C 2.597656 0 0.28125 2.316406 0.28125 5.175781 C 0.28125 8.03125 2.597656 10.351562 5.453125 10.351562 C 8.3125 10.351562 10.628906 8.03125 10.628906 5.175781 C 10.628906 2.316406 8.3125 0 5.453125 0 Z M 5.453125 0 " clip-rule="nonzero"/></clipPath><clipPath id="b82082ea97"><rect x="0" width="11" y="0" height="11"/></clipPath><clipPath id="7f73fd9b6a"><path d="M 23.039062 49.648438 L 33.390625 49.648438 L 33.390625 60 L 23.039062 60 Z M 23.039062 49.648438 " clip-rule="nonzero"/></clipPath><clipPath id="d2189308b6"><path d="M 28.214844 49.648438 C 25.355469 49.648438 23.039062 51.96875 23.039062 54.824219 C 23.039062 57.683594 25.355469 60 28.214844 60 C 31.074219 60 33.390625 57.683594 33.390625 54.824219 C 33.390625 51.96875 31.074219 49.648438 28.214844 49.648438 Z M 28.214844 49.648438 " clip-rule="nonzero"/></clipPath><clipPath id="64ccbb9341"><path d="M 0.0390625 0.648438 L 10.390625 0.648438 L 10.390625 11 L 0.0390625 11 Z M 0.0390625 0.648438 " clip-rule="nonzero"/></clipPath><clipPath id="8cd62c2e15"><path d="M 5.214844 0.648438 C 2.355469 0.648438 0.0390625 2.96875 0.0390625 5.824219 C 0.0390625 8.683594 2.355469 11 5.214844 11 C 8.074219 11 10.390625 8.683594 10.390625 5.824219 C 10.390625 2.96875 8.074219 0.648438 5.214844 0.648438 Z M 5.214844 0.648438 " clip-rule="nonzero"/></clipPath><clipPath id="e6a0a31a4f"><rect x="0" width="11" y="0" height="11"/></clipPath></defs><g clip-path="url(#2aa6bbba9f)"><g clip-path="url(#a87273bd2f)"><g transform="matrix(1, 0, 0, 1, 47, 7)"><g clip-path="url(#c459e8c597)"><g clip-path="url(#8248f718a1)"><g clip-path="url(#c84489a725)"><path fill="#ffffff" d="M 0.519531 0.199219 L 10.871094 0.199219 L 10.871094 10.550781 L 0.519531 10.550781 Z M 0.519531 0.199219 " fill-opacity="1" fill-rule="nonzero"/></g></g></g></g></g></g><g clip-path="url(#f77a084b67)"><g clip-path="url(#da262390f0)"><g transform="matrix(1, 0, 0, 1, 47, 20)"><g clip-path="url(#b876543fad)"><g clip-path="url(#448f435437)"><g clip-path="url(#b7e9ad1c7a)"><path fill="#ffffff" d="M 0.519531 0.398438 L 10.871094 0.398438 L 10.871094 10.75 L 0.519531 10.75 Z M 0.519531 0.398438 " fill-opacity="1" fill-rule="nonzero"/></g></g></g></g></g></g><g clip-path="url(#4639daf762)"><g clip-path="url(#793853d452)"><g transform="matrix(1, 0, 0, 1, 2, 49)"><g clip-path="url(#14b8c577b9)"><g clip-path="url(#1506dd31f9)"><g clip-path="url(#61e8952e6d)"><path fill="#00bf63" d="M 0.0234375 0.648438 L 10.375 0.648438 L 10.375 11 L 0.0234375 11 Z M 0.0234375 0.648438 " fill-opacity="1" fill-rule="nonzero"/></g></g></g></g></g></g><g clip-path="url(#deedd9de42)"><g clip-path="url(#998ec91b28)"><g transform="matrix(1, 0, 0, 1, 59, 36)"><g clip-path="url(#5a29d281a0)"><g clip-path="url(#5c66ef4289)"><g clip-path="url(#28cb33e63b)"><path fill="#cc0000" d="M 0.625 0 L 10.976562 0 L 10.976562 10.351562 L 0.625 10.351562 Z M 0.625 0 " fill-opacity="1" fill-rule="nonzero"/></g></g></g></g></g></g><g clip-path="url(#ed959a5d5c)"><g clip-path="url(#6377c804f9)"><g transform="matrix(1, 0, 0, 1, 35, 36)"><g clip-path="url(#b82082ea97)"><g clip-path="url(#62b246277f)"><g clip-path="url(#5d615b5b3d)"><path fill="#00bf63" d="M 0.28125 0 L 10.628906 0 L 10.628906 10.351562 L 0.28125 10.351562 Z M 0.28125 0 " fill-opacity="1" fill-rule="nonzero"/></g></g></g></g></g></g><g clip-path="url(#7f73fd9b6a)"><g clip-path="url(#d2189308b6)"><g transform="matrix(1, 0, 0, 1, 23, 49)"><g clip-path="url(#e6a0a31a4f)"><g clip-path="url(#64ccbb9341)"><g clip-path="url(#8cd62c2e15)"><path fill="#cc0000" d="M 0.0390625 0.648438 L 10.390625 0.648438 L 10.390625 11 L 0.0390625 11 Z M 0.0390625 0.648438 " fill-opacity="1" fill-rule="nonzero"/></g></g></g></g></g></g></svg>