<svg xmlns="http://www.w3.org/2000/svg" xmlns:xlink="http://www.w3.org/1999/xlink" width="96" zoomAndPan="magnify" viewBox="0 0 72 72" height="96" preserveAspectRatio="xMidYMid meet" version="1.0"><defs><g/><clipPath id="4b7220f768"><path d="M 1.210938 32.433594 L 21.035156 32.433594 L 21.035156 39.589844 L 1.210938 39.589844 Z M 1.210938 32.433594 " clip-rule="nonzero"/></clipPath><clipPath id="3062d48c3d"><path d="M 2.625 39.5625 L 15.304688 39.5625 C 15.792969 39.5625 16.273438 39.417969 16.679688 39.144531 L 20.800781 36.410156 C 20.941406 36.320312 21.023438 36.164062 21.023438 35.996094 C 21.023438 35.832031 20.941406 35.675781 20.800781 35.582031 L 16.679688 32.847656 C 16.273438 32.578125 15.792969 32.433594 15.304688 32.433594 L 2.625 32.433594 C 2.625 32.433594 1.234375 33.484375 1.234375 35.996094 C 1.234375 38.507812 2.625 39.5625 2.625 39.5625 Z M 2.625 39.5625 " clip-rule="nonzero"/></clipPath><clipPath id="f8a9870bfd"><path d="M 0.210938 0.433594 L 20.035156 0.433594 L 20.035156 7.589844 L 0.210938 7.589844 Z M 0.210938 0.433594 " clip-rule="nonzero"/></clipPath><clipPath id="55ffcba786"><path d="M 1.625 7.5625 L 14.304688 7.5625 C 14.792969 7.5625 15.273438 7.417969 15.679688 7.144531 L 19.800781 4.410156 C 19.941406 4.320312 20.023438 4.164062 20.023438 3.996094 C 20.023438 3.832031 19.941406 3.675781 19.800781 3.582031 L 15.679688 0.847656 C 15.273438 0.578125 14.792969 0.433594 14.304688 0.433594 L 1.625 0.433594 C 1.625 0.433594 0.234375 1.484375 0.234375 3.996094 C 0.234375 6.507812 1.625 7.5625 1.625 7.5625 Z M 1.625 7.5625 " clip-rule="nonzero"/></clipPath><clipPath id="b77f092c1a"><rect x="0" width="21" y="0" height="8"/></clipPath><clipPath id="e0e6dbffef"><path d="M 48.042969 32.433594 L 67.871094 32.433594 L 67.871094 39.589844 L 48.042969 39.589844 Z M 48.042969 32.433594 " clip-rule="nonzero"/></clipPath><clipPath id="bbeb8b36ae"><path d="M 49.460938 39.5625 L 62.136719 39.5625 C 62.628906 39.5625 63.105469 39.417969 63.511719 39.144531 L 67.632812 36.410156 C 67.773438 36.320312 67.855469 36.164062 67.855469 35.996094 C 67.855469 35.832031 67.773438 35.675781 67.632812 35.582031 L 63.511719 32.847656 C 63.105469 32.578125 62.628906 32.433594 62.136719 32.433594 L 49.460938 32.433594 C 49.460938 32.433594 48.066406 33.484375 48.066406 35.996094 C 48.066406 38.507812 49.460938 39.5625 49.460938 39.5625 Z M 49.460938 39.5625 " clip-rule="nonzero"/></clipPath><clipPath id="f4a3b4a4c8"><path d="M 0.0429688 0.433594 L 19.871094 0.433594 L 19.871094 7.589844 L 0.0429688 7.589844 Z M 0.0429688 0.433594 " clip-rule="nonzero"/></clipPath><clipPath id="90e5b9ca69"><path d="M 1.460938 7.5625 L 14.136719 7.5625 C 14.628906 7.5625 15.105469 7.417969 15.511719 7.144531 L 19.632812 4.410156 C 19.773438 4.320312 19.855469 4.164062 19.855469 3.996094 C 19.855469 3.832031 19.773438 3.675781 19.632812 3.582031 L 15.511719 0.847656 C 15.105469 0.578125 14.628906 0.433594 14.136719 0.433594 L 1.460938 0.433594 C 1.460938 0.433594 0.0664062 1.484375 0.0664062 3.996094 C 0.0664062 6.507812 1.460938 7.5625 1.460938 7.5625 Z M 1.460938 7.5625 " clip-rule="nonzero"/></clipPath><clipPath id="9e2a7b60a0"><rect x="0" width="20" y="0" height="8"/></clipPath><clipPath id="263ff0b60e"><path d="M 33.5625 31.097656 L 47.511719 31.097656 L 47.511719 40.90625 L 33.5625 40.90625 Z M 33.5625 31.097656 " clip-rule="nonzero"/></clipPath><clipPath id="ef431ae169"><path d="M 0.5625 0.0976562 L 14.511719 0.0976562 L 14.511719 9.90625 L 0.5625 9.90625 Z M 0.5625 0.0976562 " clip-rule="nonzero"/></clipPath><clipPath id="e3fe1f88a7"><rect x="0" width="15" y="0" height="10"/></clipPath><clipPath id="54ffc8b6a3"><path d="M 0.398438 2 L 4 2 L 4 6 L 0.398438 6 Z M 0.398438 2 " clip-rule="nonzero"/></clipPath><clipPath id="f97192c711"><rect x="0" width="5" y="0" height="8"/></clipPath><clipPath id="29c5f760b0"><rect x="0" width="5" y="0" height="8"/></clipPath></defs><g clip-path="url(#4b7220f768)"><g clip-path="url(#3062d48c3d)"><g transform="matrix(1, 0, 0, 1, 1, 32)"><g clip-path="url(#b77f092c1a)"><g clip-path="url(#f8a9870bfd)"><g clip-path="url(#55ffcba786)"><path fill="#000000" d="M 20.425781 7.5625 L 0.238281 7.5625 L 0.238281 0.433594 L 20.425781 0.433594 Z M 20.425781 7.5625 " fill-opacity="1" fill-rule="nonzero"/></g></g></g></g></g></g><g clip-path="url(#e0e6dbffef)"><g clip-path="url(#bbeb8b36ae)"><g transform="matrix(1, 0, 0, 1, 48, 32)"><g clip-path="url(#9e2a7b60a0)"><g clip-path="url(#f4a3b4a4c8)"><g clip-path="url(#90e5b9ca69)"><path fill="#000000" d="M 20.257812 7.5625 L 0.0742188 7.5625 L 0.0742188 0.433594 L 20.257812 0.433594 Z M 20.257812 7.5625 " fill-opacity="1" fill-rule="nonzero"/></g></g></g></g></g></g><path fill="#000000" d="M 61.78125 35.464844 L 62.53125 35.445312 L 62.550781 36.195312 L 61.800781 36.214844 M 63.28125 35.425781 L 64.03125 35.40625 L 64.050781 36.15625 L 63.300781 36.175781 M 64.78125 35.386719 L 65.53125 35.363281 L 65.550781 36.113281 L 64.800781 36.132812 M 66.28125 35.34375 L 67.03125 35.324219 L 67.050781 36.074219 L 66.300781 36.09375 M 67.78125 35.304688 L 68.53125 35.285156 L 68.550781 36.035156 L 67.800781 36.054688 M 69.28125 35.265625 L 70.027344 35.242188 L 70.050781 35.992188 L 69.300781 36.015625 M 70.777344 35.222656 L 71.527344 35.203125 L 71.546875 35.953125 L 70.800781 35.972656 " fill-opacity="1" fill-rule="nonzero"/><path stroke-linecap="round" transform="matrix(0.749729, -0.0201573, 0.0201573, 0.749729, 61.782141, 35.465538)" fill="none" stroke-linejoin="round" d="M 11.102609 -0.999763 L 13.099417 0.502363 L 11.100077 2.001253 " stroke="#000000" stroke-width="1" stroke-opacity="1" stroke-miterlimit="4"/><path fill="#000000" d="M 17.105469 35.625 L 17.855469 35.625 L 17.855469 36.375 L 17.105469 36.375 M 18.605469 35.625 L 19.355469 35.625 L 19.355469 36.375 L 18.605469 36.375 M 20.105469 35.625 L 20.855469 35.625 L 20.855469 36.375 L 20.105469 36.375 M 21.605469 35.625 L 22.355469 35.625 L 22.355469 36.375 L 21.605469 36.375 M 23.105469 35.625 L 23.855469 35.625 L 23.855469 36.375 L 23.105469 36.375 M 24.605469 35.625 L 25.355469 35.625 L 25.355469 36.375 L 24.605469 36.375 " fill-opacity="1" fill-rule="nonzero"/><path stroke-linecap="round" transform="matrix(0.75, 0, 0, 0.75, 17.106135, 35.625001)" fill="none" stroke-linejoin="round" d="M 9.019945 -1.000001 L 11.019945 0.499999 L 9.019945 1.999999 " stroke="#000000" stroke-width="1" stroke-opacity="1" stroke-miterlimit="4"/><g clip-path="url(#263ff0b60e)"><g transform="matrix(1, 0, 0, 1, 33, 31)"><g clip-path="url(#e3fe1f88a7)"><g clip-path="url(#ef431ae169)"><path fill="#000000" d="M 14.511719 0.0976562 L 14.511719 9.90625 L 0.566406 9.90625 L 0.566406 0.0976562 Z M 14.511719 0.0976562 " fill-opacity="1" fill-rule="nonzero"/></g></g></g></g><g transform="matrix(1, 0, 0, 1, 56, 32)"><g clip-path="url(#f97192c711)"><g clip-path="url(#54ffc8b6a3)"><g fill="#ffffff" fill-opacity="1"><g transform="translate(0.483984, 5.666676)"><g><path d="M 3.21875 0 L 2.765625 0 L 2.4375 -0.984375 L 0.90625 -0.984375 L 0.578125 0 L 0.140625 0 L 1.390625 -3.5625 L 1.96875 -3.5625 Z M 1.640625 -3.140625 L 1.03125 -1.328125 L 2.3125 -1.328125 L 1.703125 -3.140625 Z M 1.640625 -3.140625 "/></g></g></g></g></g></g><g transform="matrix(1, 0, 0, 1, 9, 32)"><g clip-path="url(#29c5f760b0)"><g fill="#ffffff" fill-opacity="1"><g transform="translate(0.611603, 5.666676)"><g><path d="M 0.546875 0 L 0.546875 -3.5625 L 1.890625 -3.5625 C 2.109375 -3.5625 2.296875 -3.523438 2.453125 -3.453125 C 2.609375 -3.390625 2.722656 -3.289062 2.796875 -3.15625 C 2.867188 -3.03125 2.90625 -2.878906 2.90625 -2.703125 C 2.90625 -2.546875 2.863281 -2.40625 2.78125 -2.28125 C 2.695312 -2.15625 2.578125 -2.054688 2.421875 -1.984375 L 2.421875 -1.9375 C 2.660156 -1.875 2.84375 -1.765625 2.96875 -1.609375 C 3.09375 -1.460938 3.15625 -1.269531 3.15625 -1.03125 C 3.15625 -0.695312 3.054688 -0.441406 2.859375 -0.265625 C 2.660156 -0.0859375 2.375 0 2 0 Z M 1.875 -2.078125 C 2.070312 -2.078125 2.222656 -2.125 2.328125 -2.21875 C 2.441406 -2.320312 2.5 -2.46875 2.5 -2.65625 C 2.5 -2.84375 2.445312 -2.984375 2.34375 -3.078125 C 2.238281 -3.171875 2.082031 -3.21875 1.875 -3.21875 L 0.953125 -3.21875 L 0.953125 -2.078125 Z M 1.96875 -0.34375 C 2.46875 -0.34375 2.71875 -0.570312 2.71875 -1.03125 C 2.71875 -1.488281 2.46875 -1.71875 1.96875 -1.71875 L 0.953125 -1.71875 L 0.953125 -0.34375 Z M 1.96875 -0.34375 "/></g></g></g></g></g><path stroke-linecap="butt" transform="matrix(0.75, -0.000000000000014603, 0.000000000000014603, 0.75, 47.519998, 35.625001)" fill="none" stroke-linejoin="miter" d="M -0.00062236 0.499999 L 0.728544 0.499999 " stroke="#000000" stroke-width="1" stroke-opacity="1" stroke-miterlimit="4"/></svg>