<svg xmlns="http://www.w3.org/2000/svg" xmlns:xlink="http://www.w3.org/1999/xlink" width="96" zoomAndPan="magnify" viewBox="0 0 72 72" height="96" preserveAspectRatio="xMidYMid meet" version="1.0"><defs><clipPath id="c0ef7a1636"><path d="M 27.261719 27.261719 L 44.738281 27.261719 L 44.738281 44.738281 L 27.261719 44.738281 Z M 27.261719 27.261719 " clip-rule="nonzero"/></clipPath><clipPath id="74c0fea586"><path d="M 36 27.261719 C 31.175781 27.261719 27.261719 31.175781 27.261719 36 C 27.261719 40.824219 31.175781 44.738281 36 44.738281 C 40.824219 44.738281 44.738281 40.824219 44.738281 36 C 44.738281 31.175781 40.824219 27.261719 36 27.261719 Z M 36 27.261719 " clip-rule="nonzero"/></clipPath><clipPath id="5e99968f08"><path d="M 0.261719 0.261719 L 17.738281 0.261719 L 17.738281 17.738281 L 0.261719 17.738281 Z M 0.261719 0.261719 " clip-rule="nonzero"/></clipPath><clipPath id="cacc3973d6"><path d="M 9 0.261719 C 4.175781 0.261719 0.261719 4.175781 0.261719 9 C 0.261719 13.824219 4.175781 17.738281 9 17.738281 C 13.824219 17.738281 17.738281 13.824219 17.738281 9 C 17.738281 4.175781 13.824219 0.261719 9 0.261719 Z M 9 0.261719 " clip-rule="nonzero"/></clipPath><clipPath id="9bd5cdfaa1"><rect x="0" width="18" y="0" height="18"/></clipPath><clipPath id="1293093bbe"><path d="M 27.261719 48 L 44.738281 48 L 44.738281 65.476562 L 27.261719 65.476562 Z M 27.261719 48 " clip-rule="nonzero"/></clipPath><clipPath id="cf939af4d9"><path d="M 36 48 C 31.175781 48 27.261719 51.910156 27.261719 56.738281 C 27.261719 61.5625 31.175781 65.476562 36 65.476562 C 40.824219 65.476562 44.738281 61.5625 44.738281 56.738281 C 44.738281 51.910156 40.824219 48 36 48 Z M 36 48 " clip-rule="nonzero"/></clipPath><clipPath id="015be0f212"><path d="M 0.261719 0 L 17.738281 0 L 17.738281 17.476562 L 0.261719 17.476562 Z M 0.261719 0 " clip-rule="nonzero"/></clipPath><clipPath id="6072e01502"><path d="M 9 0 C 4.175781 0 0.261719 3.910156 0.261719 8.738281 C 0.261719 13.5625 4.175781 17.476562 9 17.476562 C 13.824219 17.476562 17.738281 13.5625 17.738281 8.738281 C 17.738281 3.910156 13.824219 0 9 0 Z M 9 0 " clip-rule="nonzero"/></clipPath><clipPath id="16ac362de5"><rect x="0" width="18" y="0" height="18"/></clipPath><clipPath id="1728b0e823"><path d="M 27.261719 6.523438 L 44.738281 6.523438 L 44.738281 24 L 27.261719 24 Z M 27.261719 6.523438 " clip-rule="nonzero"/></clipPath><clipPath id="98880a5cc5"><path d="M 36 6.523438 C 31.175781 6.523438 27.261719 10.4375 27.261719 15.261719 C 27.261719 20.089844 31.175781 24 36 24 C 40.824219 24 44.738281 20.089844 44.738281 15.261719 C 44.738281 10.4375 40.824219 6.523438 36 6.523438 Z M 36 6.523438 " clip-rule="nonzero"/></clipPath><clipPath id="7e18ea3027"><path d="M 0.261719 0.523438 L 17.738281 0.523438 L 17.738281 18 L 0.261719 18 Z M 0.261719 0.523438 " clip-rule="nonzero"/></clipPath><clipPath id="40462a3495"><path d="M 9 0.523438 C 4.175781 0.523438 0.261719 4.4375 0.261719 9.261719 C 0.261719 14.089844 4.175781 18 9 18 C 13.824219 18 17.738281 14.089844 17.738281 9.261719 C 17.738281 4.4375 13.824219 0.523438 9 0.523438 Z M 9 0.523438 " clip-rule="nonzero"/></clipPath><clipPath id="f7940830db"><rect x="0" width="18" y="0" height="18"/></clipPath></defs><path stroke-linecap="butt" transform="matrix(0, 0.75, -0.75, 0, 36.374998, 0.000002)" fill="none" stroke-linejoin="miter" d="M -0.00000266667 0.499998 L 96.000001 0.499998 " stroke="#000000" stroke-width="1" stroke-opacity="1" stroke-miterlimit="4"/><g clip-path="url(#c0ef7a1636)"><g clip-path="url(#74c0fea586)"><g transform="matrix(1, 0, 0, 1, 27, 27)"><g clip-path="url(#9bd5cdfaa1)"><g clip-path="url(#5e99968f08)"><g clip-path="url(#cacc3973d6)"><path fill="#000000" d="M 0.261719 0.261719 L 17.738281 0.261719 L 17.738281 17.738281 L 0.261719 17.738281 Z M 0.261719 0.261719 " fill-opacity="1" fill-rule="nonzero"/></g></g></g></g></g></g><g clip-path="url(#1293093bbe)"><g clip-path="url(#cf939af4d9)"><g transform="matrix(1, 0, 0, 1, 27, 48)"><g clip-path="url(#16ac362de5)"><g clip-path="url(#015be0f212)"><g clip-path="url(#6072e01502)"><path fill="#000000" d="M 0.261719 0 L 17.738281 0 L 17.738281 17.476562 L 0.261719 17.476562 Z M 0.261719 0 " fill-opacity="1" fill-rule="nonzero"/></g></g></g></g></g></g><g clip-path="url(#1728b0e823)"><g clip-path="url(#98880a5cc5)"><g transform="matrix(1, 0, 0, 1, 27, 6)"><g clip-path="url(#f7940830db)"><g clip-path="url(#7e18ea3027)"><g clip-path="url(#40462a3495)"><path fill="#000000" d="M 0.261719 0.523438 L 17.738281 0.523438 L 17.738281 18 L 0.261719 18 Z M 0.261719 0.523438 " fill-opacity="1" fill-rule="nonzero"/></g></g></g></g></g></g></svg>