<svg xmlns="http://www.w3.org/2000/svg" xmlns:xlink="http://www.w3.org/1999/xlink" width="96" zoomAndPan="magnify" viewBox="0 0 72 72" height="96" preserveAspectRatio="xMidYMid meet" version="1.0"><defs><g/><clipPath id="694f63bebb"><path d="M 43 12 L 61 12 L 61 27 L 43 27 Z M 43 12 " clip-rule="nonzero"/></clipPath><clipPath id="ffc383b90c"><path d="M 41.046875 23.808594 L 56.945312 11.964844 L 61.21875 17.703125 L 45.320312 29.546875 Z M 41.046875 23.808594 " clip-rule="nonzero"/></clipPath><clipPath id="e233ac852f"><path d="M 55.828125 12.832031 L 45.660156 20.40625 C 45.265625 20.699219 44.96875 21.097656 44.804688 21.558594 L 43.132812 26.214844 C 43.078125 26.371094 43.101562 26.546875 43.203125 26.679688 C 43.300781 26.8125 43.460938 26.890625 43.628906 26.878906 L 48.566406 26.609375 C 49.054688 26.585938 49.527344 26.414062 49.917969 26.121094 L 60.085938 18.546875 C 60.085938 18.546875 60.570312 16.871094 59.070312 14.859375 C 57.570312 12.84375 55.828125 12.832031 55.828125 12.832031 Z M 55.828125 12.832031 " clip-rule="nonzero"/></clipPath><clipPath id="70267a56f1"><path d="M 0 0.71875 L 17.71875 0.71875 L 17.71875 15 L 0 15 Z M 0 0.71875 " clip-rule="nonzero"/></clipPath><clipPath id="7fb4d0f8fb"><path d="M -1.953125 11.808594 L 13.945312 -0.0351562 L 18.21875 5.703125 L 2.320312 17.546875 Z M -1.953125 11.808594 " clip-rule="nonzero"/></clipPath><clipPath id="ce222918c8"><path d="M 12.828125 0.832031 L 2.660156 8.40625 C 2.265625 8.699219 1.96875 9.097656 1.804688 9.558594 L 0.132812 14.214844 C 0.078125 14.371094 0.101562 14.546875 0.203125 14.679688 C 0.300781 14.8125 0.460938 14.890625 0.628906 14.878906 L 5.566406 14.609375 C 6.054688 14.585938 6.527344 14.414062 6.917969 14.121094 L 17.085938 6.546875 C 17.085938 6.546875 17.570312 4.871094 16.070312 2.859375 C 14.570312 0.84375 12.828125 0.832031 12.828125 0.832031 Z M 12.828125 0.832031 " clip-rule="nonzero"/></clipPath><clipPath id="28ee98e60f"><rect x="0" width="18" y="0" height="15"/></clipPath><clipPath id="8a16bd2d53"><path d="M 17 40 L 25 40 L 25 60 L 17 60 Z M 17 40 " clip-rule="nonzero"/></clipPath><clipPath id="941184ee9c"><path d="M 24.390625 40.15625 L 24.507812 59.980469 L 17.351562 60.023438 L 17.238281 40.195312 Z M 24.390625 40.15625 " clip-rule="nonzero"/></clipPath><clipPath id="f13cd69e63"><path d="M 24.46875 58.566406 L 24.398438 45.886719 C 24.394531 45.398438 24.246094 44.921875 23.976562 44.515625 L 21.214844 40.410156 C 21.125 40.269531 20.96875 40.1875 20.800781 40.1875 C 20.632812 40.191406 20.476562 40.273438 20.386719 40.414062 L 17.675781 44.550781 C 17.40625 44.960938 17.265625 45.441406 17.269531 45.929688 L 17.34375 58.605469 C 17.34375 58.605469 18.402344 59.992188 20.914062 59.976562 C 23.425781 59.964844 24.46875 58.566406 24.46875 58.566406 Z M 24.46875 58.566406 " clip-rule="nonzero"/></clipPath><clipPath id="343b03afd1"><path d="M 0.0390625 0.078125 L 7.480469 0.078125 L 7.480469 20 L 0.0390625 20 Z M 0.0390625 0.078125 " clip-rule="nonzero"/></clipPath><clipPath id="5ec94c9634"><path d="M 7.390625 0.15625 L 7.507812 19.980469 L 0.351562 20.023438 L 0.238281 0.195312 Z M 7.390625 0.15625 " clip-rule="nonzero"/></clipPath><clipPath id="ff4f35113c"><path d="M 7.46875 18.566406 L 7.398438 5.886719 C 7.394531 5.398438 7.246094 4.921875 6.976562 4.515625 L 4.214844 0.410156 C 4.125 0.269531 3.96875 0.1875 3.800781 0.1875 C 3.632812 0.191406 3.476562 0.273438 3.386719 0.414062 L 0.675781 4.550781 C 0.40625 4.960938 0.265625 5.441406 0.269531 5.929688 L 0.34375 18.605469 C 0.34375 18.605469 1.402344 19.992188 3.914062 19.976562 C 6.425781 19.964844 7.46875 18.566406 7.46875 18.566406 Z M 7.46875 18.566406 " clip-rule="nonzero"/></clipPath><clipPath id="6cfaaf687d"><rect x="0" width="8" y="0" height="20"/></clipPath><clipPath id="14e077e812"><rect x="0" width="6" y="0" height="8"/></clipPath><clipPath id="a7474a7f93"><rect x="0" width="5" y="0" height="8"/></clipPath></defs><g clip-path="url(#694f63bebb)"><g clip-path="url(#ffc383b90c)"><g clip-path="url(#e233ac852f)"><g transform="matrix(1, 0, 0, 1, 43, 12)"><g clip-path="url(#28ee98e60f)"><g clip-path="url(#70267a56f1)"><g clip-path="url(#7fb4d0f8fb)"><g clip-path="url(#ce222918c8)"><path fill="#000000" d="M -2.25 12.0625 L 13.9375 0.00390625 L 18.195312 5.71875 L 2.007812 17.777344 Z M -2.25 12.0625 " fill-opacity="1" fill-rule="nonzero"/></g></g></g></g></g></g></g></g><g clip-path="url(#8a16bd2d53)"><g clip-path="url(#941184ee9c)"><g clip-path="url(#f13cd69e63)"><g transform="matrix(1, 0, 0, 1, 17, 40)"><g clip-path="url(#6cfaaf687d)"><g clip-path="url(#343b03afd1)"><g clip-path="url(#5ec94c9634)"><g clip-path="url(#ff4f35113c)"><path fill="#000000" d="M 7.363281 -0.234375 L 7.476562 19.953125 L 0.351562 19.992188 L 0.234375 -0.191406 Z M 7.363281 -0.234375 " fill-opacity="1" fill-rule="nonzero"/></g></g></g></g></g></g></g></g><path fill="#000000" d="M 20.554688 46.257812 L 20.542969 45.507812 L 21.292969 45.496094 L 21.304688 46.246094 M 20.53125 44.757812 L 20.519531 44.007812 L 21.269531 43.996094 L 21.28125 44.746094 M 20.511719 43.257812 L 20.5 42.507812 L 21.25 42.496094 L 21.261719 43.246094 M 20.488281 41.757812 L 20.476562 41.007812 L 21.226562 40.996094 L 21.238281 41.746094 M 20.46875 40.257812 L 20.457031 39.507812 L 21.207031 39.496094 L 21.214844 40.246094 M 20.445312 38.757812 L 20.433594 38.007812 L 21.183594 37.996094 L 21.195312 38.746094 M 20.421875 37.257812 L 20.414062 36.507812 L 21.164062 36.496094 L 21.171875 37.246094 " fill-opacity="1" fill-rule="nonzero"/><path stroke-linecap="round" transform="matrix(-0.0107727, -0.749923, 0.749923, -0.0107727, 20.553046, 46.255956)" fill="none" stroke-linejoin="round" d="M 11.101574 -0.999914 L 13.101103 0.497711 L 11.100146 2.000375 " stroke="#000000" stroke-width="1" stroke-opacity="1" stroke-miterlimit="4"/><path fill="#000000" d="M 46.5625 24.640625 L 45.960938 25.089844 L 45.515625 24.488281 L 46.117188 24.039062 M 45.359375 25.539062 L 44.761719 25.984375 L 44.3125 25.382812 L 44.914062 24.9375 M 44.160156 26.433594 L 43.558594 26.882812 L 43.109375 26.28125 L 43.710938 25.832031 M 42.957031 27.332031 L 42.355469 27.777344 L 41.90625 27.175781 L 42.507812 26.730469 M 41.753906 28.226562 L 41.152344 28.675781 L 40.703125 28.074219 L 41.304688 27.625 M 40.550781 29.121094 L 39.949219 29.570312 L 39.5 28.96875 L 40.101562 28.519531 " fill-opacity="1" fill-rule="nonzero"/><path stroke-linecap="round" transform="matrix(-0.601442, 0.448071, -0.448071, -0.601442, 46.564107, 24.641866)" fill="none" stroke-linejoin="round" d="M 9.021518 -0.999277 L 11.020101 0.502647 L 9.020734 2.000741 " stroke="#000000" stroke-width="1" stroke-opacity="1" stroke-miterlimit="4"/><g transform="matrix(1, 0, 0, 1, 18, 46)"><g clip-path="url(#14e077e812)"><g fill="#ffffff" fill-opacity="1"><g transform="translate(1.178116, 5.550538)"><g><path d="M 3.21875 0 L 2.765625 0 L 2.4375 -0.984375 L 0.90625 -0.984375 L 0.578125 0 L 0.140625 0 L 1.390625 -3.5625 L 1.96875 -3.5625 Z M 1.640625 -3.140625 L 1.03125 -1.328125 L 2.3125 -1.328125 L 1.703125 -3.140625 Z M 1.640625 -3.140625 "/></g></g></g></g></g><g transform="matrix(1, 0, 0, 1, 50, 16)"><g clip-path="url(#a7474a7f93)"><g fill="#ffffff" fill-opacity="1"><g transform="translate(0.705583, 5.769562)"><g><path d="M 0.546875 0 L 0.546875 -3.5625 L 1.890625 -3.5625 C 2.109375 -3.5625 2.296875 -3.523438 2.453125 -3.453125 C 2.609375 -3.390625 2.722656 -3.289062 2.796875 -3.15625 C 2.867188 -3.03125 2.90625 -2.878906 2.90625 -2.703125 C 2.90625 -2.546875 2.863281 -2.40625 2.78125 -2.28125 C 2.695312 -2.15625 2.578125 -2.054688 2.421875 -1.984375 L 2.421875 -1.9375 C 2.660156 -1.875 2.84375 -1.765625 2.96875 -1.609375 C 3.09375 -1.460938 3.15625 -1.269531 3.15625 -1.03125 C 3.15625 -0.695312 3.054688 -0.441406 2.859375 -0.265625 C 2.660156 -0.0859375 2.375 0 2 0 Z M 1.875 -2.078125 C 2.070312 -2.078125 2.222656 -2.125 2.328125 -2.21875 C 2.441406 -2.320312 2.5 -2.46875 2.5 -2.65625 C 2.5 -2.84375 2.445312 -2.984375 2.34375 -3.078125 C 2.238281 -3.171875 2.082031 -3.21875 1.875 -3.21875 L 0.953125 -3.21875 L 0.953125 -2.078125 Z M 1.96875 -0.34375 C 2.46875 -0.34375 2.71875 -0.570312 2.71875 -1.03125 C 2.71875 -1.488281 2.46875 -1.71875 1.96875 -1.71875 L 0.953125 -1.71875 L 0.953125 -0.34375 Z M 1.96875 -0.34375 "/></g></g></g></g></g></svg>