<svg xmlns="http://www.w3.org/2000/svg" xmlns:xlink="http://www.w3.org/1999/xlink" width="96" zoomAndPan="magnify" viewBox="0 0 72 72" height="96" preserveAspectRatio="xMidYMid meet" version="1.0"><defs><clipPath id="d1467f1484"><path d="M 42.34375 18.824219 L 52.695312 18.824219 L 52.695312 29.175781 L 42.34375 29.175781 Z M 42.34375 18.824219 " clip-rule="nonzero"/></clipPath><clipPath id="4d3aa675e5"><path d="M 47.519531 18.824219 C 44.660156 18.824219 42.34375 21.140625 42.34375 24 C 42.34375 26.859375 44.660156 29.175781 47.519531 29.175781 C 50.378906 29.175781 52.695312 26.859375 52.695312 24 C 52.695312 21.140625 50.378906 18.824219 47.519531 18.824219 Z M 47.519531 18.824219 " clip-rule="nonzero"/></clipPath><clipPath id="84b98fe841"><path d="M 0.34375 0.824219 L 10.695312 0.824219 L 10.695312 11.175781 L 0.34375 11.175781 Z M 0.34375 0.824219 " clip-rule="nonzero"/></clipPath><clipPath id="d056c6b37c"><path d="M 5.519531 0.824219 C 2.660156 0.824219 0.34375 3.140625 0.34375 6 C 0.34375 8.859375 2.660156 11.175781 5.519531 11.175781 C 8.378906 11.175781 10.695312 8.859375 10.695312 6 C 10.695312 3.140625 8.378906 0.824219 5.519531 0.824219 Z M 5.519531 0.824219 " clip-rule="nonzero"/></clipPath><clipPath id="f5c374fb5b"><rect x="0" width="11" y="0" height="12"/></clipPath><clipPath id="928640f93f"><path d="M 42.34375 32.476562 L 52.695312 32.476562 L 52.695312 42.824219 L 42.34375 42.824219 Z M 42.34375 32.476562 " clip-rule="nonzero"/></clipPath><clipPath id="ab86fd3b8b"><path d="M 47.519531 32.476562 C 44.660156 32.476562 42.34375 34.792969 42.34375 37.648438 C 42.34375 40.507812 44.660156 42.824219 47.519531 42.824219 C 50.378906 42.824219 52.695312 40.507812 52.695312 37.648438 C 52.695312 34.792969 50.378906 32.476562 47.519531 32.476562 Z M 47.519531 32.476562 " clip-rule="nonzero"/></clipPath><clipPath id="8d0028ed71"><path d="M 0.34375 0.476562 L 10.695312 0.476562 L 10.695312 10.824219 L 0.34375 10.824219 Z M 0.34375 0.476562 " clip-rule="nonzero"/></clipPath><clipPath id="ab650d43a1"><path d="M 5.519531 0.476562 C 2.660156 0.476562 0.34375 2.792969 0.34375 5.648438 C 0.34375 8.507812 2.660156 10.824219 5.519531 10.824219 C 8.378906 10.824219 10.695312 8.507812 10.695312 5.648438 C 10.695312 2.792969 8.378906 0.476562 5.519531 0.476562 Z M 5.519531 0.476562 " clip-rule="nonzero"/></clipPath><clipPath id="7eafa7e444"><rect x="0" width="11" y="0" height="11"/></clipPath><clipPath id="fc5f1dbdd7"><path d="M 19.304688 48 L 29.65625 48 L 29.65625 58.351562 L 19.304688 58.351562 Z M 19.304688 48 " clip-rule="nonzero"/></clipPath><clipPath id="cec4a1ec33"><path d="M 24.480469 48 C 21.621094 48 19.304688 50.316406 19.304688 53.175781 C 19.304688 56.03125 21.621094 58.351562 24.480469 58.351562 C 27.339844 58.351562 29.65625 56.03125 29.65625 53.175781 C 29.65625 50.316406 27.339844 48 24.480469 48 Z M 24.480469 48 " clip-rule="nonzero"/></clipPath><clipPath id="1d86e4734d"><path d="M 0.304688 0 L 10.65625 0 L 10.65625 10.351562 L 0.304688 10.351562 Z M 0.304688 0 " clip-rule="nonzero"/></clipPath><clipPath id="9ef4b4e86b"><path d="M 5.480469 0 C 2.621094 0 0.304688 2.316406 0.304688 5.175781 C 0.304688 8.03125 2.621094 10.351562 5.480469 10.351562 C 8.339844 10.351562 10.65625 8.03125 10.65625 5.175781 C 10.65625 2.316406 8.339844 0 5.480469 0 Z M 5.480469 0 " clip-rule="nonzero"/></clipPath><clipPath id="edf2941c32"><rect x="0" width="11" y="0" height="11"/></clipPath></defs><g clip-path="url(#d1467f1484)"><g clip-path="url(#4d3aa675e5)"><g transform="matrix(1, 0, 0, 1, 42, 18)"><g clip-path="url(#f5c374fb5b)"><g clip-path="url(#84b98fe841)"><g clip-path="url(#d056c6b37c)"><path fill="#ffffff" d="M 0.34375 0.824219 L 10.695312 0.824219 L 10.695312 11.175781 L 0.34375 11.175781 Z M 0.34375 0.824219 " fill-opacity="1" fill-rule="nonzero"/></g></g></g></g></g></g><g clip-path="url(#928640f93f)"><g clip-path="url(#ab86fd3b8b)"><g transform="matrix(1, 0, 0, 1, 42, 32)"><g clip-path="url(#7eafa7e444)"><g clip-path="url(#8d0028ed71)"><g clip-path="url(#ab650d43a1)"><path fill="#cc0000" d="M 0.34375 0.476562 L 10.695312 0.476562 L 10.695312 10.824219 L 0.34375 10.824219 Z M 0.34375 0.476562 " fill-opacity="1" fill-rule="nonzero"/></g></g></g></g></g></g><g clip-path="url(#fc5f1dbdd7)"><g clip-path="url(#cec4a1ec33)"><g transform="matrix(1, 0, 0, 1, 19, 48)"><g clip-path="url(#edf2941c32)"><g clip-path="url(#1d86e4734d)"><g clip-path="url(#9ef4b4e86b)"><path fill="#cc0000" d="M 0.304688 0 L 10.65625 0 L 10.65625 10.351562 L 0.304688 10.351562 Z M 0.304688 0 " fill-opacity="1" fill-rule="nonzero"/></g></g></g></g></g></g></svg>