<svg xmlns="http://www.w3.org/2000/svg" xmlns:xlink="http://www.w3.org/1999/xlink" width="96" zoomAndPan="magnify" viewBox="0 0 72 72" height="96" preserveAspectRatio="xMidYMid meet" version="1.0"><defs><g/><clipPath id="6d0eeb8441"><path d="M 14 14 L 33 14 L 33 28 L 14 28 Z M 14 14 " clip-rule="nonzero"/></clipPath><clipPath id="2968cd3f4d"><path d="M 30.710938 30.324219 L 13.820312 19.945312 L 17.570312 13.847656 L 34.457031 24.230469 Z M 30.710938 30.324219 " clip-rule="nonzero"/></clipPath><clipPath id="d0ac3e7801"><path d="M 15.042969 20.660156 L 25.84375 27.300781 C 26.257812 27.554688 26.742188 27.683594 27.230469 27.667969 L 32.175781 27.496094 C 32.339844 27.488281 32.492188 27.402344 32.582031 27.257812 C 32.667969 27.117188 32.679688 26.941406 32.609375 26.789062 L 30.53125 22.300781 C 30.324219 21.859375 29.992188 21.484375 29.574219 21.226562 L 18.773438 14.589844 C 18.773438 14.589844 17.039062 14.757812 15.722656 16.894531 C 14.40625 19.035156 15.042969 20.660156 15.042969 20.660156 Z M 15.042969 20.660156 " clip-rule="nonzero"/></clipPath><clipPath id="60910d733e"><path d="M 0.398438 0.398438 L 18.878906 0.398438 L 18.878906 13.839844 L 0.398438 13.839844 Z M 0.398438 0.398438 " clip-rule="nonzero"/></clipPath><clipPath id="03a55cee81"><path d="M 16.710938 16.324219 L -0.179688 5.945312 L 3.570312 -0.152344 L 20.457031 10.230469 Z M 16.710938 16.324219 " clip-rule="nonzero"/></clipPath><clipPath id="98a4d804a3"><path d="M 1.042969 6.660156 L 11.84375 13.300781 C 12.257812 13.554688 12.742188 13.683594 13.230469 13.667969 L 18.175781 13.496094 C 18.339844 13.488281 18.492188 13.402344 18.582031 13.257812 C 18.667969 13.117188 18.679688 12.941406 18.609375 12.789062 L 16.53125 8.300781 C 16.324219 7.859375 15.992188 7.484375 15.574219 7.226562 L 4.773438 0.589844 C 4.773438 0.589844 3.039062 0.757812 1.722656 2.894531 C 0.40625 5.035156 1.042969 6.660156 1.042969 6.660156 Z M 1.042969 6.660156 " clip-rule="nonzero"/></clipPath><clipPath id="171571b68b"><rect x="0" width="19" y="0" height="14"/></clipPath><clipPath id="7b3cb6a97e"><path d="M 47 38 L 55 38 L 55 59 L 47 59 Z M 47 38 " clip-rule="nonzero"/></clipPath><clipPath id="0313dad2e8"><path d="M 54.757812 38.292969 L 54.871094 58.117188 L 47.714844 58.160156 L 47.601562 38.335938 Z M 54.757812 38.292969 " clip-rule="nonzero"/></clipPath><clipPath id="627b08765d"><path d="M 54.835938 56.703125 L 54.761719 44.023438 C 54.757812 43.535156 54.613281 43.058594 54.339844 42.652344 L 51.582031 38.546875 C 51.488281 38.410156 51.332031 38.324219 51.164062 38.328125 C 50.996094 38.328125 50.84375 38.414062 50.75 38.550781 L 48.039062 42.6875 C 47.773438 43.097656 47.632812 43.578125 47.632812 44.066406 L 47.707031 56.746094 C 47.707031 56.746094 48.769531 58.128906 51.277344 58.117188 C 53.789062 58.101562 54.835938 56.703125 54.835938 56.703125 Z M 54.835938 56.703125 " clip-rule="nonzero"/></clipPath><clipPath id="e3309d817f"><path d="M 0.519531 0.160156 L 7.960938 0.160156 L 7.960938 20.320312 L 0.519531 20.320312 Z M 0.519531 0.160156 " clip-rule="nonzero"/></clipPath><clipPath id="b54b7121ce"><path d="M 7.757812 0.292969 L 7.871094 20.117188 L 0.714844 20.160156 L 0.601562 0.335938 Z M 7.757812 0.292969 " clip-rule="nonzero"/></clipPath><clipPath id="8ae7985994"><path d="M 7.835938 18.703125 L 7.761719 6.023438 C 7.757812 5.535156 7.613281 5.058594 7.339844 4.652344 L 4.582031 0.546875 C 4.488281 0.410156 4.332031 0.324219 4.164062 0.328125 C 3.996094 0.328125 3.84375 0.414062 3.75 0.550781 L 1.039062 4.6875 C 0.773438 5.097656 0.632812 5.578125 0.632812 6.066406 L 0.707031 18.746094 C 0.707031 18.746094 1.769531 20.128906 4.277344 20.117188 C 6.789062 20.101562 7.835938 18.703125 7.835938 18.703125 Z M 7.835938 18.703125 " clip-rule="nonzero"/></clipPath><clipPath id="3bc425ee28"><rect x="0" width="8" y="0" height="21"/></clipPath><clipPath id="b7263222cb"><path d="M 0.441406 2 L 4 2 L 4 6 L 0.441406 6 Z M 0.441406 2 " clip-rule="nonzero"/></clipPath><clipPath id="0d03231a8b"><rect x="0" width="5" y="0" height="8"/></clipPath><clipPath id="0a88e8d057"><path d="M 0.359375 2 L 4 2 L 4 6 L 0.359375 6 Z M 0.359375 2 " clip-rule="nonzero"/></clipPath><clipPath id="d5701c44b5"><rect x="0" width="5" y="0" height="8"/></clipPath></defs><g clip-path="url(#6d0eeb8441)"><g clip-path="url(#2968cd3f4d)"><g clip-path="url(#d0ac3e7801)"><g transform="matrix(1, 0, 0, 1, 14, 14)"><g clip-path="url(#171571b68b)"><g clip-path="url(#60910d733e)"><g clip-path="url(#03a55cee81)"><g clip-path="url(#98a4d804a3)"><path fill="#000000" d="M 17.058594 16.507812 L -0.140625 5.933594 L 3.59375 -0.136719 L 20.789062 10.433594 Z M 17.058594 16.507812 " fill-opacity="1" fill-rule="nonzero"/></g></g></g></g></g></g></g></g><g clip-path="url(#7b3cb6a97e)"><g clip-path="url(#0313dad2e8)"><g clip-path="url(#627b08765d)"><g transform="matrix(1, 0, 0, 1, 47, 38)"><g clip-path="url(#3bc425ee28)"><g clip-path="url(#e3309d817f)"><g clip-path="url(#b54b7121ce)"><g clip-path="url(#8ae7985994)"><path fill="#000000" d="M 7.726562 -0.0976562 L 7.84375 20.089844 L 0.714844 20.132812 L 0.597656 -0.0546875 Z M 7.726562 -0.0976562 " fill-opacity="1" fill-rule="nonzero"/></g></g></g></g></g></g></g></g><path fill="#000000" d="M 50.917969 44.394531 L 50.90625 43.644531 L 51.65625 43.632812 L 51.667969 44.382812 M 50.894531 42.894531 L 50.886719 42.144531 L 51.636719 42.132812 L 51.644531 42.882812 M 50.875 41.394531 L 50.863281 40.644531 L 51.613281 40.632812 L 51.625 41.382812 M 50.851562 39.894531 L 50.84375 39.144531 L 51.59375 39.132812 L 51.601562 39.882812 M 50.832031 38.394531 L 50.820312 37.644531 L 51.570312 37.632812 L 51.582031 38.382812 M 50.808594 36.894531 L 50.800781 36.144531 L 51.546875 36.132812 L 51.558594 36.882812 M 50.789062 35.394531 L 50.777344 34.644531 L 51.527344 34.632812 L 51.539062 35.382812 " fill-opacity="1" fill-rule="nonzero"/><path stroke-linecap="round" transform="matrix(-0.0107727, -0.749923, 0.749923, -0.0107727, 50.917347, 44.393686)" fill="none" stroke-linejoin="round" d="M 11.102942 -1.001253 L 13.102395 0.501579 L 11.101513 1.999036 " stroke="#000000" stroke-width="1" stroke-opacity="1" stroke-miterlimit="4"/><path fill="#000000" d="M 29.4375 24.890625 L 30.078125 25.285156 L 29.683594 25.921875 L 29.046875 25.53125 M 30.71875 25.675781 L 31.355469 26.070312 L 30.964844 26.710938 L 30.324219 26.316406 M 31.996094 26.464844 L 32.632812 26.855469 L 32.242188 27.496094 L 31.601562 27.101562 M 33.273438 27.25 L 33.910156 27.640625 L 33.519531 28.28125 L 32.878906 27.886719 M 34.550781 28.035156 L 35.191406 28.425781 L 34.796875 29.066406 L 34.15625 28.671875 M 35.828125 28.820312 L 36.46875 29.210938 L 36.074219 29.851562 L 35.4375 29.457031 " fill-opacity="1" fill-rule="nonzero"/><path stroke-linecap="round" transform="matrix(0.638925, 0.392778, -0.392778, 0.638925, 29.439284, 24.891812)" fill="none" stroke-linejoin="round" d="M 9.019179 -0.997729 L 11.021046 0.498375 L 9.020185 1.997407 " stroke="#000000" stroke-width="1" stroke-opacity="1" stroke-miterlimit="4"/><g transform="matrix(1, 0, 0, 1, 49, 44)"><g clip-path="url(#0d03231a8b)"><g clip-path="url(#b7263222cb)"><g fill="#ffffff" fill-opacity="1"><g transform="translate(0.542416, 5.688267)"><g><path d="M 3.21875 0 L 2.765625 0 L 2.4375 -0.984375 L 0.90625 -0.984375 L 0.578125 0 L 0.140625 0 L 1.390625 -3.5625 L 1.96875 -3.5625 Z M 1.640625 -3.140625 L 1.03125 -1.328125 L 2.3125 -1.328125 L 1.703125 -3.140625 Z M 1.640625 -3.140625 "/></g></g></g></g></g></g><g transform="matrix(1, 0, 0, 1, 21, 17)"><g clip-path="url(#d5701c44b5)"><g clip-path="url(#0a88e8d057)"><g fill="#ffffff" fill-opacity="1"><g transform="translate(0.389999, 5.833324)"><g><path d="M 0.546875 0 L 0.546875 -3.5625 L 1.890625 -3.5625 C 2.109375 -3.5625 2.296875 -3.523438 2.453125 -3.453125 C 2.609375 -3.390625 2.722656 -3.289062 2.796875 -3.15625 C 2.867188 -3.03125 2.90625 -2.878906 2.90625 -2.703125 C 2.90625 -2.546875 2.863281 -2.40625 2.78125 -2.28125 C 2.695312 -2.15625 2.578125 -2.054688 2.421875 -1.984375 L 2.421875 -1.9375 C 2.660156 -1.875 2.84375 -1.765625 2.96875 -1.609375 C 3.09375 -1.460938 3.15625 -1.269531 3.15625 -1.03125 C 3.15625 -0.695312 3.054688 -0.441406 2.859375 -0.265625 C 2.660156 -0.0859375 2.375 0 2 0 Z M 1.875 -2.078125 C 2.070312 -2.078125 2.222656 -2.125 2.328125 -2.21875 C 2.441406 -2.320312 2.5 -2.46875 2.5 -2.65625 C 2.5 -2.84375 2.445312 -2.984375 2.34375 -3.078125 C 2.238281 -3.171875 2.082031 -3.21875 1.875 -3.21875 L 0.953125 -3.21875 L 0.953125 -2.078125 Z M 1.96875 -0.34375 C 2.46875 -0.34375 2.71875 -0.570312 2.71875 -1.03125 C 2.71875 -1.488281 2.46875 -1.71875 1.96875 -1.71875 L 0.953125 -1.71875 L 0.953125 -0.34375 Z M 1.96875 -0.34375 "/></g></g></g></g></g></g></svg>