<svg xmlns="http://www.w3.org/2000/svg" xmlns:xlink="http://www.w3.org/1999/xlink" width="96" zoomAndPan="magnify" viewBox="0 0 72 72" height="96" preserveAspectRatio="xMidYMid meet" version="1.0"><defs><g/><clipPath id="407ae8c7c8"><path d="M 2.507812 23.996094 L 22.332031 23.996094 L 22.332031 31.152344 L 2.507812 31.152344 Z M 2.507812 23.996094 " clip-rule="nonzero"/></clipPath><clipPath id="0add37242d"><path d="M 3.925781 31.125 L 16.601562 31.125 C 17.089844 31.125 17.570312 30.980469 17.976562 30.710938 L 22.097656 27.976562 C 22.238281 27.882812 22.320312 27.726562 22.320312 27.5625 C 22.320312 27.394531 22.238281 27.238281 22.097656 27.144531 L 17.976562 24.410156 C 17.570312 24.140625 17.089844 23.996094 16.601562 23.996094 L 3.925781 23.996094 C 3.925781 23.996094 2.53125 25.050781 2.53125 27.5625 C 2.53125 30.070312 3.925781 31.125 3.925781 31.125 Z M 3.925781 31.125 " clip-rule="nonzero"/></clipPath><clipPath id="c4a03e70ea"><path d="M 0.507812 0.996094 L 20.332031 0.996094 L 20.332031 8.152344 L 0.507812 8.152344 Z M 0.507812 0.996094 " clip-rule="nonzero"/></clipPath><clipPath id="3179f31a18"><path d="M 1.925781 8.125 L 14.601562 8.125 C 15.089844 8.125 15.570312 7.980469 15.976562 7.710938 L 20.097656 4.976562 C 20.238281 4.882812 20.320312 4.726562 20.320312 4.5625 C 20.320312 4.394531 20.238281 4.238281 20.097656 4.144531 L 15.976562 1.410156 C 15.570312 1.140625 15.089844 0.996094 14.601562 0.996094 L 1.925781 0.996094 C 1.925781 0.996094 0.53125 2.050781 0.53125 4.5625 C 0.53125 7.070312 1.925781 8.125 1.925781 8.125 Z M 1.925781 8.125 " clip-rule="nonzero"/></clipPath><clipPath id="e317c993e0"><rect x="0" width="21" y="0" height="9"/></clipPath><clipPath id="b8f1033512"><path d="M 50.585938 39.503906 L 70.410156 39.503906 L 70.410156 46.660156 L 50.585938 46.660156 Z M 50.585938 39.503906 " clip-rule="nonzero"/></clipPath><clipPath id="3eff40d1fc"><path d="M 68.996094 39.53125 L 56.316406 39.53125 C 55.828125 39.53125 55.347656 39.675781 54.941406 39.945312 L 50.820312 42.679688 C 50.679688 42.773438 50.597656 42.929688 50.597656 43.097656 C 50.597656 43.261719 50.679688 43.417969 50.820312 43.511719 L 54.941406 46.246094 C 55.347656 46.515625 55.828125 46.660156 56.316406 46.660156 L 68.996094 46.660156 C 68.996094 46.660156 70.386719 45.605469 70.386719 43.097656 C 70.386719 40.585938 68.996094 39.53125 68.996094 39.53125 Z M 68.996094 39.53125 " clip-rule="nonzero"/></clipPath><clipPath id="e9a2cdca53"><path d="M 0.585938 0.503906 L 20.410156 0.503906 L 20.410156 7.660156 L 0.585938 7.660156 Z M 0.585938 0.503906 " clip-rule="nonzero"/></clipPath><clipPath id="e8375e9a88"><path d="M 18.996094 0.53125 L 6.316406 0.53125 C 5.828125 0.53125 5.347656 0.675781 4.941406 0.945312 L 0.820312 3.679688 C 0.679688 3.773438 0.597656 3.929688 0.597656 4.097656 C 0.597656 4.261719 0.679688 4.417969 0.820312 4.511719 L 4.941406 7.246094 C 5.347656 7.515625 5.828125 7.660156 6.316406 7.660156 L 18.996094 7.660156 C 18.996094 7.660156 20.386719 6.605469 20.386719 4.097656 C 20.386719 1.585938 18.996094 0.53125 18.996094 0.53125 Z M 18.996094 0.53125 " clip-rule="nonzero"/></clipPath><clipPath id="13e08a836c"><rect x="0" width="21" y="0" height="8"/></clipPath><clipPath id="d5910e2011"><path d="M 36.386719 38.195312 L 50.335938 38.195312 L 50.335938 48.003906 L 36.386719 48.003906 Z M 36.386719 38.195312 " clip-rule="nonzero"/></clipPath><clipPath id="90dc53ae10"><path d="M 0.386719 0.195312 L 14.335938 0.195312 L 14.335938 10.003906 L 0.386719 10.003906 Z M 0.386719 0.195312 " clip-rule="nonzero"/></clipPath><clipPath id="b1c5f88f35"><rect x="0" width="15" y="0" height="11"/></clipPath><clipPath id="17b4596c54"><path d="M 0.0390625 2 L 4 2 L 4 6 L 0.0390625 6 Z M 0.0390625 2 " clip-rule="nonzero"/></clipPath><clipPath id="2b8d8a7fe2"><rect x="0" width="5" y="0" height="8"/></clipPath><clipPath id="947ce183b1"><path d="M 0.078125 2 L 4 2 L 4 7 L 0.078125 7 Z M 0.078125 2 " clip-rule="nonzero"/></clipPath><clipPath id="ea9db0605b"><rect x="0" width="5" y="0" height="8"/></clipPath></defs><g clip-path="url(#407ae8c7c8)"><g clip-path="url(#0add37242d)"><g transform="matrix(1, 0, 0, 1, 2, 23)"><g clip-path="url(#e317c993e0)"><g clip-path="url(#c4a03e70ea)"><g clip-path="url(#3179f31a18)"><path fill="#000000" d="M 20.722656 8.125 L 0.535156 8.125 L 0.535156 0.996094 L 20.722656 0.996094 Z M 20.722656 8.125 " fill-opacity="1" fill-rule="nonzero"/></g></g></g></g></g></g><g clip-path="url(#b8f1033512)"><g clip-path="url(#3eff40d1fc)"><g transform="matrix(1, 0, 0, 1, 50, 39)"><g clip-path="url(#13e08a836c)"><g clip-path="url(#e9a2cdca53)"><g clip-path="url(#e8375e9a88)"><path fill="#000000" d="M 0.195312 0.53125 L 20.382812 0.53125 L 20.382812 7.660156 L 0.195312 7.660156 Z M 0.195312 0.53125 " fill-opacity="1" fill-rule="nonzero"/></g></g></g></g></g></g><path fill="#000000" d="M 40.074219 43.472656 L 39.324219 43.472656 L 39.324219 42.722656 L 40.074219 42.722656 M 38.574219 43.472656 L 37.824219 43.472656 L 37.824219 42.722656 L 38.574219 42.722656 M 37.074219 43.472656 L 36.324219 43.472656 L 36.324219 42.722656 L 37.074219 42.722656 M 35.574219 43.472656 L 34.824219 43.472656 L 34.824219 42.722656 L 35.574219 42.722656 M 34.074219 43.472656 L 33.324219 43.472656 L 33.324219 42.722656 L 34.074219 42.722656 M 32.574219 43.472656 L 31.824219 43.472656 L 31.824219 42.722656 L 32.574219 42.722656 " fill-opacity="1" fill-rule="nonzero"/><path stroke-linecap="round" transform="matrix(-0.75, 0, 0, -0.75, 40.075186, 43.470835)" fill="none" stroke-linejoin="round" d="M 9.022124 -1.002428 L 11.022124 0.497572 L 9.022124 1.997572 " stroke="#000000" stroke-width="1" stroke-opacity="1" stroke-miterlimit="4"/><path fill="#000000" d="M 18.402344 27.1875 L 19.152344 27.1875 L 19.152344 27.9375 L 18.402344 27.9375 M 19.902344 27.1875 L 20.652344 27.1875 L 20.652344 27.9375 L 19.902344 27.9375 M 21.402344 27.1875 L 22.152344 27.1875 L 22.152344 27.9375 L 21.402344 27.9375 M 22.902344 27.1875 L 23.652344 27.1875 L 23.652344 27.9375 L 22.902344 27.9375 M 24.402344 27.1875 L 25.152344 27.1875 L 25.152344 27.9375 L 24.402344 27.9375 M 25.902344 27.1875 L 26.652344 27.1875 L 26.652344 27.9375 L 25.902344 27.9375 " fill-opacity="1" fill-rule="nonzero"/><path stroke-linecap="round" transform="matrix(0.75, 0, 0, 0.75, 18.403802, 27.189)" fill="none" stroke-linejoin="round" d="M 9.01889 -1.002001 L 11.01889 0.498 L 9.01889 1.998 " stroke="#000000" stroke-width="1" stroke-opacity="1" stroke-miterlimit="4"/><g clip-path="url(#d5910e2011)"><g transform="matrix(1, 0, 0, 1, 36, 38)"><g clip-path="url(#b1c5f88f35)"><g clip-path="url(#90dc53ae10)"><path fill="#000000" d="M 14.335938 0.195312 L 14.335938 10.003906 L 0.390625 10.003906 L 0.390625 0.195312 Z M 14.335938 0.195312 " fill-opacity="1" fill-rule="nonzero"/></g></g></g></g><g transform="matrix(1, 0, 0, 1, 59, 39)"><g clip-path="url(#2b8d8a7fe2)"><g clip-path="url(#17b4596c54)"><g fill="#ffffff" fill-opacity="1"><g transform="translate(0.155837, 5.762518)"><g><path d="M 0.546875 0 L 0.546875 -3.5625 L 1.890625 -3.5625 C 2.109375 -3.5625 2.296875 -3.523438 2.453125 -3.453125 C 2.609375 -3.390625 2.722656 -3.289062 2.796875 -3.15625 C 2.867188 -3.03125 2.90625 -2.878906 2.90625 -2.703125 C 2.90625 -2.546875 2.863281 -2.40625 2.78125 -2.28125 C 2.695312 -2.15625 2.578125 -2.054688 2.421875 -1.984375 L 2.421875 -1.9375 C 2.660156 -1.875 2.84375 -1.765625 2.96875 -1.609375 C 3.09375 -1.460938 3.15625 -1.269531 3.15625 -1.03125 C 3.15625 -0.695312 3.054688 -0.441406 2.859375 -0.265625 C 2.660156 -0.0859375 2.375 0 2 0 Z M 1.875 -2.078125 C 2.070312 -2.078125 2.222656 -2.125 2.328125 -2.21875 C 2.441406 -2.320312 2.5 -2.46875 2.5 -2.65625 C 2.5 -2.84375 2.445312 -2.984375 2.34375 -3.078125 C 2.238281 -3.171875 2.082031 -3.21875 1.875 -3.21875 L 0.953125 -3.21875 L 0.953125 -2.078125 Z M 1.96875 -0.34375 C 2.46875 -0.34375 2.71875 -0.570312 2.71875 -1.03125 C 2.71875 -1.488281 2.46875 -1.71875 1.96875 -1.71875 L 0.953125 -1.71875 L 0.953125 -0.34375 Z M 1.96875 -0.34375 "/></g></g></g></g></g></g><g transform="matrix(1, 0, 0, 1, 10, 23)"><g clip-path="url(#ea9db0605b)"><g clip-path="url(#947ce183b1)"><g fill="#ffffff" fill-opacity="1"><g transform="translate(0.19637, 6.230683)"><g><path d="M 3.21875 0 L 2.765625 0 L 2.4375 -0.984375 L 0.90625 -0.984375 L 0.578125 0 L 0.140625 0 L 1.390625 -3.5625 L 1.96875 -3.5625 Z M 1.640625 -3.140625 L 1.03125 -1.328125 L 2.3125 -1.328125 L 1.703125 -3.140625 Z M 1.640625 -3.140625 "/></g></g></g></g></g></g></svg>