<svg xmlns="http://www.w3.org/2000/svg" xmlns:xlink="http://www.w3.org/1999/xlink" width="96" zoomAndPan="magnify" viewBox="0 0 72 72" height="96" preserveAspectRatio="xMidYMid meet" version="1.0"><defs><clipPath id="9d860bde50"><path d="M 27.335938 39.335938 L 44.664062 39.335938 L 44.664062 56.664062 L 27.335938 56.664062 Z M 27.335938 39.335938 " clip-rule="nonzero"/></clipPath><clipPath id="139e408f9c"><path d="M 36 39.335938 C 31.214844 39.335938 27.335938 43.214844 27.335938 48 C 27.335938 52.785156 31.214844 56.664062 36 56.664062 C 40.785156 56.664062 44.664062 52.785156 44.664062 48 C 44.664062 43.214844 40.785156 39.335938 36 39.335938 Z M 36 39.335938 " clip-rule="nonzero"/></clipPath><clipPath id="4ba9cddbc6"><path d="M 0.335938 0.335938 L 17.664062 0.335938 L 17.664062 17.664062 L 0.335938 17.664062 Z M 0.335938 0.335938 " clip-rule="nonzero"/></clipPath><clipPath id="98af323ed0"><path d="M 9 0.335938 C 4.214844 0.335938 0.335938 4.214844 0.335938 9 C 0.335938 13.785156 4.214844 17.664062 9 17.664062 C 13.785156 17.664062 17.664062 13.785156 17.664062 9 C 17.664062 4.214844 13.785156 0.335938 9 0.335938 Z M 9 0.335938 " clip-rule="nonzero"/></clipPath><clipPath id="c4ea42f2a7"><rect x="0" width="18" y="0" height="18"/></clipPath><clipPath id="1ea613f0f3"><path d="M 27.335938 15.335938 L 44.664062 15.335938 L 44.664062 32.664062 L 27.335938 32.664062 Z M 27.335938 15.335938 " clip-rule="nonzero"/></clipPath><clipPath id="2a48085dd3"><path d="M 36 15.335938 C 31.214844 15.335938 27.335938 19.214844 27.335938 24 C 27.335938 28.785156 31.214844 32.664062 36 32.664062 C 40.785156 32.664062 44.664062 28.785156 44.664062 24 C 44.664062 19.214844 40.785156 15.335938 36 15.335938 Z M 36 15.335938 " clip-rule="nonzero"/></clipPath><clipPath id="65f51f02a7"><path d="M 0.335938 0.335938 L 17.664062 0.335938 L 17.664062 17.664062 L 0.335938 17.664062 Z M 0.335938 0.335938 " clip-rule="nonzero"/></clipPath><clipPath id="a60293d85d"><path d="M 9 0.335938 C 4.214844 0.335938 0.335938 4.214844 0.335938 9 C 0.335938 13.785156 4.214844 17.664062 9 17.664062 C 13.785156 17.664062 17.664062 13.785156 17.664062 9 C 17.664062 4.214844 13.785156 0.335938 9 0.335938 Z M 9 0.335938 " clip-rule="nonzero"/></clipPath><clipPath id="57e3bc36ad"><rect x="0" width="18" y="0" height="18"/></clipPath></defs><path stroke-linecap="butt" transform="matrix(0, 0.75, -0.75, 0, 36.374998, 0.000002)" fill="none" stroke-linejoin="miter" d="M -0.00000266667 0.499998 L 96.000001 0.499998 " stroke="#000000" stroke-width="1" stroke-opacity="1" stroke-miterlimit="4"/><g clip-path="url(#9d860bde50)"><g clip-path="url(#139e408f9c)"><g transform="matrix(1, 0, 0, 1, 27, 39)"><g clip-path="url(#c4ea42f2a7)"><g clip-path="url(#4ba9cddbc6)"><g clip-path="url(#98af323ed0)"><path fill="#000000" d="M 0.335938 0.335938 L 17.664062 0.335938 L 17.664062 17.664062 L 0.335938 17.664062 Z M 0.335938 0.335938 " fill-opacity="1" fill-rule="nonzero"/></g></g></g></g></g></g><g clip-path="url(#1ea613f0f3)"><g clip-path="url(#2a48085dd3)"><g transform="matrix(1, 0, 0, 1, 27, 15)"><g clip-path="url(#57e3bc36ad)"><g clip-path="url(#65f51f02a7)"><g clip-path="url(#a60293d85d)"><path fill="#000000" d="M 0.335938 0.335938 L 17.664062 0.335938 L 17.664062 17.664062 L 0.335938 17.664062 Z M 0.335938 0.335938 " fill-opacity="1" fill-rule="nonzero"/></g></g></g></g></g></g></svg>