<svg xmlns="http://www.w3.org/2000/svg" xmlns:xlink="http://www.w3.org/1999/xlink" width="96" zoomAndPan="magnify" viewBox="0 0 72 72" height="96" preserveAspectRatio="xMidYMid meet" version="1.0"><defs><clipPath id="087880874e"><path d="M 30.824219 13.648438 L 41.175781 13.648438 L 41.175781 24 L 30.824219 24 Z M 30.824219 13.648438 " clip-rule="nonzero"/></clipPath><clipPath id="47555191ab"><path d="M 36 13.648438 C 33.140625 13.648438 30.824219 15.96875 30.824219 18.824219 C 30.824219 21.683594 33.140625 24 36 24 C 38.859375 24 41.175781 21.683594 41.175781 18.824219 C 41.175781 15.96875 38.859375 13.648438 36 13.648438 Z M 36 13.648438 " clip-rule="nonzero"/></clipPath><clipPath id="fa9f7263f9"><path d="M 0.824219 0.648438 L 11.175781 0.648438 L 11.175781 11 L 0.824219 11 Z M 0.824219 0.648438 " clip-rule="nonzero"/></clipPath><clipPath id="571fa217b3"><path d="M 6 0.648438 C 3.140625 0.648438 0.824219 2.96875 0.824219 5.824219 C 0.824219 8.683594 3.140625 11 6 11 C 8.859375 11 11.175781 8.683594 11.175781 5.824219 C 11.175781 2.96875 8.859375 0.648438 6 0.648438 Z M 6 0.648438 " clip-rule="nonzero"/></clipPath><clipPath id="adfbca554a"><rect x="0" width="12" y="0" height="11"/></clipPath><clipPath id="3475f632e9"><path d="M 30.824219 30.824219 L 41.175781 30.824219 L 41.175781 41.175781 L 30.824219 41.175781 Z M 30.824219 30.824219 " clip-rule="nonzero"/></clipPath><clipPath id="1f92bae8e3"><path d="M 36 30.824219 C 33.140625 30.824219 30.824219 33.140625 30.824219 36 C 30.824219 38.859375 33.140625 41.175781 36 41.175781 C 38.859375 41.175781 41.175781 38.859375 41.175781 36 C 41.175781 33.140625 38.859375 30.824219 36 30.824219 Z M 36 30.824219 " clip-rule="nonzero"/></clipPath><clipPath id="04dc7e191a"><path d="M 0.824219 0.824219 L 11.175781 0.824219 L 11.175781 11.175781 L 0.824219 11.175781 Z M 0.824219 0.824219 " clip-rule="nonzero"/></clipPath><clipPath id="b692d8fa9f"><path d="M 6 0.824219 C 3.140625 0.824219 0.824219 3.140625 0.824219 6 C 0.824219 8.859375 3.140625 11.175781 6 11.175781 C 8.859375 11.175781 11.175781 8.859375 11.175781 6 C 11.175781 3.140625 8.859375 0.824219 6 0.824219 Z M 6 0.824219 " clip-rule="nonzero"/></clipPath><clipPath id="5f4f01ee6d"><rect x="0" width="12" y="0" height="12"/></clipPath><clipPath id="906d0b107d"><path d="M 42.34375 48 L 52.695312 48 L 52.695312 58.351562 L 42.34375 58.351562 Z M 42.34375 48 " clip-rule="nonzero"/></clipPath><clipPath id="708d42cd99"><path d="M 47.519531 48 C 44.660156 48 42.34375 50.316406 42.34375 53.175781 C 42.34375 56.03125 44.660156 58.351562 47.519531 58.351562 C 50.378906 58.351562 52.695312 56.03125 52.695312 53.175781 C 52.695312 50.316406 50.378906 48 47.519531 48 Z M 47.519531 48 " clip-rule="nonzero"/></clipPath><clipPath id="189dec0ac3"><path d="M 0.34375 0 L 10.695312 0 L 10.695312 10.351562 L 0.34375 10.351562 Z M 0.34375 0 " clip-rule="nonzero"/></clipPath><clipPath id="c15184c717"><path d="M 5.519531 0 C 2.660156 0 0.34375 2.316406 0.34375 5.175781 C 0.34375 8.03125 2.660156 10.351562 5.519531 10.351562 C 8.378906 10.351562 10.695312 8.03125 10.695312 5.175781 C 10.695312 2.316406 8.378906 0 5.519531 0 Z M 5.519531 0 " clip-rule="nonzero"/></clipPath><clipPath id="8387553f34"><rect x="0" width="11" y="0" height="11"/></clipPath></defs><g clip-path="url(#087880874e)"><g clip-path="url(#47555191ab)"><g transform="matrix(1, 0, 0, 1, 30, 13)"><g clip-path="url(#adfbca554a)"><g clip-path="url(#fa9f7263f9)"><g clip-path="url(#571fa217b3)"><path fill="#cc0000" d="M 0.824219 0.648438 L 11.175781 0.648438 L 11.175781 11 L 0.824219 11 Z M 0.824219 0.648438 " fill-opacity="1" fill-rule="nonzero"/></g></g></g></g></g></g><g clip-path="url(#3475f632e9)"><g clip-path="url(#1f92bae8e3)"><g transform="matrix(1, 0, 0, 1, 30, 30)"><g clip-path="url(#5f4f01ee6d)"><g clip-path="url(#04dc7e191a)"><g clip-path="url(#b692d8fa9f)"><path fill="#ffffff" d="M 0.824219 0.824219 L 11.175781 0.824219 L 11.175781 11.175781 L 0.824219 11.175781 Z M 0.824219 0.824219 " fill-opacity="1" fill-rule="nonzero"/></g></g></g></g></g></g><g clip-path="url(#906d0b107d)"><g clip-path="url(#708d42cd99)"><g transform="matrix(1, 0, 0, 1, 42, 48)"><g clip-path="url(#8387553f34)"><g clip-path="url(#189dec0ac3)"><g clip-path="url(#c15184c717)"><path fill="#ffffff" d="M 0.34375 0 L 10.695312 0 L 10.695312 10.351562 L 0.34375 10.351562 Z M 0.34375 0 " fill-opacity="1" fill-rule="nonzero"/></g></g></g></g></g></g></svg>