<svg xmlns="http://www.w3.org/2000/svg" xmlns:xlink="http://www.w3.org/1999/xlink" width="96" zoomAndPan="magnify" viewBox="0 0 72 72" height="96" preserveAspectRatio="xMidYMid meet" version="1.0"><defs><g/><clipPath id="f73401d831"><path d="M 50.742188 32.40625 L 70.566406 32.40625 L 70.566406 39.5625 L 50.742188 39.5625 Z M 50.742188 32.40625 " clip-rule="nonzero"/></clipPath><clipPath id="7124e433e3"><path d="M 69.152344 32.4375 L 56.472656 32.4375 C 55.984375 32.4375 55.507812 32.582031 55.097656 32.851562 L 50.976562 35.585938 C 50.839844 35.675781 50.753906 35.832031 50.753906 36 C 50.753906 36.167969 50.839844 36.324219 50.976562 36.414062 L 55.097656 39.148438 C 55.507812 39.417969 55.984375 39.5625 56.472656 39.5625 L 69.152344 39.5625 C 69.152344 39.5625 70.542969 38.511719 70.542969 36 C 70.542969 33.488281 69.152344 32.4375 69.152344 32.4375 Z M 69.152344 32.4375 " clip-rule="nonzero"/></clipPath><clipPath id="447ae7d499"><path d="M 0.742188 0.40625 L 20.558594 0.40625 L 20.558594 7.5625 L 0.742188 7.5625 Z M 0.742188 0.40625 " clip-rule="nonzero"/></clipPath><clipPath id="970ac888cc"><path d="M 19.152344 0.4375 L 6.472656 0.4375 C 5.984375 0.4375 5.507812 0.582031 5.097656 0.851562 L 0.976562 3.585938 C 0.839844 3.675781 0.753906 3.832031 0.753906 4 C 0.753906 4.167969 0.839844 4.324219 0.976562 4.414062 L 5.097656 7.148438 C 5.507812 7.417969 5.984375 7.5625 6.472656 7.5625 L 19.152344 7.5625 C 19.152344 7.5625 20.542969 6.511719 20.542969 4 C 20.542969 1.488281 19.152344 0.4375 19.152344 0.4375 Z M 19.152344 0.4375 " clip-rule="nonzero"/></clipPath><clipPath id="0744dcd67f"><rect x="0" width="21" y="0" height="8"/></clipPath><clipPath id="c497b7fbf8"><path d="M 1.265625 32.433594 L 21.089844 32.433594 L 21.089844 39.589844 L 1.265625 39.589844 Z M 1.265625 32.433594 " clip-rule="nonzero"/></clipPath><clipPath id="e5070a098f"><path d="M 2.679688 39.5625 L 15.359375 39.5625 C 15.847656 39.5625 16.324219 39.417969 16.734375 39.144531 L 20.855469 36.410156 C 20.992188 36.320312 21.078125 36.164062 21.078125 35.996094 C 21.078125 35.832031 20.992188 35.675781 20.855469 35.582031 L 16.734375 32.847656 C 16.324219 32.578125 15.847656 32.433594 15.359375 32.433594 L 2.679688 32.433594 C 2.679688 32.433594 1.289062 33.484375 1.289062 35.996094 C 1.289062 38.507812 2.679688 39.5625 2.679688 39.5625 Z M 2.679688 39.5625 " clip-rule="nonzero"/></clipPath><clipPath id="8abb4136c5"><path d="M 0.265625 0.433594 L 20.089844 0.433594 L 20.089844 7.589844 L 0.265625 7.589844 Z M 0.265625 0.433594 " clip-rule="nonzero"/></clipPath><clipPath id="88a65d631c"><path d="M 1.679688 7.5625 L 14.359375 7.5625 C 14.847656 7.5625 15.324219 7.417969 15.734375 7.144531 L 19.855469 4.410156 C 19.992188 4.320312 20.078125 4.164062 20.078125 3.996094 C 20.078125 3.832031 19.992188 3.675781 19.855469 3.582031 L 15.734375 0.847656 C 15.324219 0.578125 14.847656 0.433594 14.359375 0.433594 L 1.679688 0.433594 C 1.679688 0.433594 0.289062 1.484375 0.289062 3.996094 C 0.289062 6.507812 1.679688 7.5625 1.679688 7.5625 Z M 1.679688 7.5625 " clip-rule="nonzero"/></clipPath><clipPath id="a3b189c27e"><rect x="0" width="21" y="0" height="8"/></clipPath><clipPath id="33fc644595"><path d="M 36.714844 31.085938 L 50.667969 31.085938 L 50.667969 40.894531 L 36.714844 40.894531 Z M 36.714844 31.085938 " clip-rule="nonzero"/></clipPath><clipPath id="2cbde4b735"><path d="M 0.714844 0.0859375 L 14.667969 0.0859375 L 14.667969 9.894531 L 0.714844 9.894531 Z M 0.714844 0.0859375 " clip-rule="nonzero"/></clipPath><clipPath id="6d51f1e611"><rect x="0" width="15" y="0" height="10"/></clipPath><clipPath id="ca0c638f35"><path d="M 0.121094 2 L 3.960938 2 L 3.960938 6 L 0.121094 6 Z M 0.121094 2 " clip-rule="nonzero"/></clipPath><clipPath id="a848e116d1"><rect x="0" width="4" y="0" height="8"/></clipPath><clipPath id="35fce8ab9d"><rect x="0" width="5" y="0" height="8"/></clipPath></defs><g clip-path="url(#f73401d831)"><g clip-path="url(#7124e433e3)"><g transform="matrix(1, 0, 0, 1, 50, 32)"><g clip-path="url(#0744dcd67f)"><g clip-path="url(#447ae7d499)"><g clip-path="url(#970ac888cc)"><path fill="#000000" d="M 0.351562 0.4375 L 20.539062 0.4375 L 20.539062 7.5625 L 0.351562 7.5625 Z M 0.351562 0.4375 " fill-opacity="1" fill-rule="nonzero"/></g></g></g></g></g></g><g clip-path="url(#c497b7fbf8)"><g clip-path="url(#e5070a098f)"><g transform="matrix(1, 0, 0, 1, 1, 32)"><g clip-path="url(#a3b189c27e)"><g clip-path="url(#8abb4136c5)"><g clip-path="url(#88a65d631c)"><path fill="#000000" d="M 20.480469 7.5625 L 0.292969 7.5625 L 0.292969 0.433594 L 20.480469 0.433594 Z M 20.480469 7.5625 " fill-opacity="1" fill-rule="nonzero"/></g></g></g></g></g></g><path fill="#000000" d="M 17.160156 35.625 L 17.910156 35.625 L 17.910156 36.375 L 17.160156 36.375 M 18.660156 35.625 L 19.410156 35.625 L 19.410156 36.375 L 18.660156 36.375 M 20.160156 35.625 L 20.910156 35.625 L 20.910156 36.375 L 20.160156 36.375 M 21.660156 35.625 L 22.410156 35.625 L 22.410156 36.375 L 21.660156 36.375 M 23.160156 35.625 L 23.910156 35.625 L 23.910156 36.375 L 23.160156 36.375 M 24.660156 35.625 L 25.410156 35.625 L 25.410156 36.375 L 24.660156 36.375 " fill-opacity="1" fill-rule="nonzero"/><path stroke-linecap="round" transform="matrix(0.75, 0, 0, 0.75, 17.159999, 35.625001)" fill="none" stroke-linejoin="round" d="M 9.021043 -1.000001 L 11.021043 0.499999 L 9.021043 1.999999 " stroke="#000000" stroke-width="1" stroke-opacity="1" stroke-miterlimit="4"/><path fill="#000000" d="M 41.035156 36.375 L 40.285156 36.375 L 40.285156 35.625 L 41.035156 35.625 M 39.535156 36.375 L 38.785156 36.375 L 38.785156 35.625 L 39.535156 35.625 M 38.035156 36.375 L 37.285156 36.375 L 37.285156 35.625 L 38.035156 35.625 M 36.535156 36.375 L 35.785156 36.375 L 35.785156 35.625 L 36.535156 35.625 M 35.035156 36.375 L 34.285156 36.375 L 34.285156 35.625 L 35.035156 35.625 M 33.535156 36.375 L 32.785156 36.375 L 32.785156 35.625 L 33.535156 35.625 " fill-opacity="1" fill-rule="nonzero"/><path stroke-linecap="round" transform="matrix(-0.75, 0, 0, -0.75, 41.036717, 36.375)" fill="none" stroke-linejoin="round" d="M 9.017707 -0.999999 L 11.017707 0.500001 L 9.017707 2.000001 " stroke="#000000" stroke-width="1" stroke-opacity="1" stroke-miterlimit="4"/><g clip-path="url(#33fc644595)"><g transform="matrix(1, 0, 0, 1, 36, 31)"><g clip-path="url(#6d51f1e611)"><g clip-path="url(#2cbde4b735)"><path fill="#000000" d="M 0.714844 9.894531 L 0.714844 0.0859375 L 14.664062 0.0859375 L 14.664062 9.894531 Z M 0.714844 9.894531 " fill-opacity="1" fill-rule="nonzero"/></g></g></g></g><g transform="matrix(1, 0, 0, 1, 9, 32)"><g clip-path="url(#a848e116d1)"><g clip-path="url(#ca0c638f35)"><g fill="#ffffff" fill-opacity="1"><g transform="translate(0.120294, 5.666676)"><g><path d="M 3.21875 0 L 2.765625 0 L 2.4375 -0.984375 L 0.90625 -0.984375 L 0.578125 0 L 0.140625 0 L 1.390625 -3.5625 L 1.96875 -3.5625 Z M 1.640625 -3.140625 L 1.03125 -1.328125 L 2.3125 -1.328125 L 1.703125 -3.140625 Z M 1.640625 -3.140625 "/></g></g></g></g></g></g><g transform="matrix(1, 0, 0, 1, 59, 32)"><g clip-path="url(#35fce8ab9d)"><g fill="#ffffff" fill-opacity="1"><g transform="translate(0.48123, 5.666676)"><g><path d="M 0.546875 0 L 0.546875 -3.5625 L 1.890625 -3.5625 C 2.109375 -3.5625 2.296875 -3.523438 2.453125 -3.453125 C 2.609375 -3.390625 2.722656 -3.289062 2.796875 -3.15625 C 2.867188 -3.03125 2.90625 -2.878906 2.90625 -2.703125 C 2.90625 -2.546875 2.863281 -2.40625 2.78125 -2.28125 C 2.695312 -2.15625 2.578125 -2.054688 2.421875 -1.984375 L 2.421875 -1.9375 C 2.660156 -1.875 2.84375 -1.765625 2.96875 -1.609375 C 3.09375 -1.460938 3.15625 -1.269531 3.15625 -1.03125 C 3.15625 -0.695312 3.054688 -0.441406 2.859375 -0.265625 C 2.660156 -0.0859375 2.375 0 2 0 Z M 1.875 -2.078125 C 2.070312 -2.078125 2.222656 -2.125 2.328125 -2.21875 C 2.441406 -2.320312 2.5 -2.46875 2.5 -2.65625 C 2.5 -2.84375 2.445312 -2.984375 2.34375 -3.078125 C 2.238281 -3.171875 2.082031 -3.21875 1.875 -3.21875 L 0.953125 -3.21875 L 0.953125 -2.078125 Z M 1.96875 -0.34375 C 2.46875 -0.34375 2.71875 -0.570312 2.71875 -1.03125 C 2.71875 -1.488281 2.46875 -1.71875 1.96875 -1.71875 L 0.953125 -1.71875 L 0.953125 -0.34375 Z M 1.96875 -0.34375 "/></g></g></g></g></g></svg>