<svg xmlns="http://www.w3.org/2000/svg" xmlns:xlink="http://www.w3.org/1999/xlink" width="96" zoomAndPan="magnify" viewBox="0 0 72 72" height="96" preserveAspectRatio="xMidYMid meet" version="1.0"><defs><clipPath id="c4f8432635"><path d="M 19.304688 12 L 29.65625 12 L 29.65625 22.351562 L 19.304688 22.351562 Z M 19.304688 12 " clip-rule="nonzero"/></clipPath><clipPath id="4ef6ab18ce"><path d="M 24.480469 12 C 21.621094 12 19.304688 14.316406 19.304688 17.175781 C 19.304688 20.03125 21.621094 22.351562 24.480469 22.351562 C 27.339844 22.351562 29.65625 20.03125 29.65625 17.175781 C 29.65625 14.316406 27.339844 12 24.480469 12 Z M 24.480469 12 " clip-rule="nonzero"/></clipPath><clipPath id="74f3faf9e7"><path d="M 0.304688 0 L 10.65625 0 L 10.65625 10.351562 L 0.304688 10.351562 Z M 0.304688 0 " clip-rule="nonzero"/></clipPath><clipPath id="b3c8df54fd"><path d="M 5.480469 0 C 2.621094 0 0.304688 2.316406 0.304688 5.175781 C 0.304688 8.03125 2.621094 10.351562 5.480469 10.351562 C 8.339844 10.351562 10.65625 8.03125 10.65625 5.175781 C 10.65625 2.316406 8.339844 0 5.480469 0 Z M 5.480469 0 " clip-rule="nonzero"/></clipPath><clipPath id="aac8be502e"><rect x="0" width="11" y="0" height="11"/></clipPath><clipPath id="af87d1d233"><path d="M 19.304688 25.648438 L 29.65625 25.648438 L 29.65625 36 L 19.304688 36 Z M 19.304688 25.648438 " clip-rule="nonzero"/></clipPath><clipPath id="9953139b7c"><path d="M 24.480469 25.648438 C 21.621094 25.648438 19.304688 27.96875 19.304688 30.824219 C 19.304688 33.683594 21.621094 36 24.480469 36 C 27.339844 36 29.65625 33.683594 29.65625 30.824219 C 29.65625 27.96875 27.339844 25.648438 24.480469 25.648438 Z M 24.480469 25.648438 " clip-rule="nonzero"/></clipPath><clipPath id="6d31990a94"><path d="M 0.304688 0.648438 L 10.65625 0.648438 L 10.65625 11 L 0.304688 11 Z M 0.304688 0.648438 " clip-rule="nonzero"/></clipPath><clipPath id="72ecf35755"><path d="M 5.480469 0.648438 C 2.621094 0.648438 0.304688 2.96875 0.304688 5.824219 C 0.304688 8.683594 2.621094 11 5.480469 11 C 8.339844 11 10.65625 8.683594 10.65625 5.824219 C 10.65625 2.96875 8.339844 0.648438 5.480469 0.648438 Z M 5.480469 0.648438 " clip-rule="nonzero"/></clipPath><clipPath id="6eccec029d"><rect x="0" width="11" y="0" height="11"/></clipPath><clipPath id="fb8156f131"><path d="M 42.34375 42.824219 L 52.695312 42.824219 L 52.695312 53.175781 L 42.34375 53.175781 Z M 42.34375 42.824219 " clip-rule="nonzero"/></clipPath><clipPath id="d63c716fe3"><path d="M 47.519531 42.824219 C 44.660156 42.824219 42.34375 45.140625 42.34375 48 C 42.34375 50.859375 44.660156 53.175781 47.519531 53.175781 C 50.378906 53.175781 52.695312 50.859375 52.695312 48 C 52.695312 45.140625 50.378906 42.824219 47.519531 42.824219 Z M 47.519531 42.824219 " clip-rule="nonzero"/></clipPath><clipPath id="bf73a6dc47"><path d="M 0.34375 0.824219 L 10.695312 0.824219 L 10.695312 11.175781 L 0.34375 11.175781 Z M 0.34375 0.824219 " clip-rule="nonzero"/></clipPath><clipPath id="54ff6905ac"><path d="M 5.519531 0.824219 C 2.660156 0.824219 0.34375 3.140625 0.34375 6 C 0.34375 8.859375 2.660156 11.175781 5.519531 11.175781 C 8.378906 11.175781 10.695312 8.859375 10.695312 6 C 10.695312 3.140625 8.378906 0.824219 5.519531 0.824219 Z M 5.519531 0.824219 " clip-rule="nonzero"/></clipPath><clipPath id="c668c4f06a"><rect x="0" width="11" y="0" height="12"/></clipPath></defs><g clip-path="url(#c4f8432635)"><g clip-path="url(#4ef6ab18ce)"><g transform="matrix(1, 0, 0, 1, 19, 12)"><g clip-path="url(#aac8be502e)"><g clip-path="url(#74f3faf9e7)"><g clip-path="url(#b3c8df54fd)"><path fill="#ffffff" d="M 0.304688 0 L 10.65625 0 L 10.65625 10.351562 L 0.304688 10.351562 Z M 0.304688 0 " fill-opacity="1" fill-rule="nonzero"/></g></g></g></g></g></g><g clip-path="url(#af87d1d233)"><g clip-path="url(#9953139b7c)"><g transform="matrix(1, 0, 0, 1, 19, 25)"><g clip-path="url(#6eccec029d)"><g clip-path="url(#6d31990a94)"><g clip-path="url(#72ecf35755)"><path fill="#cc0000" d="M 0.304688 0.648438 L 10.65625 0.648438 L 10.65625 11 L 0.304688 11 Z M 0.304688 0.648438 " fill-opacity="1" fill-rule="nonzero"/></g></g></g></g></g></g><g clip-path="url(#fb8156f131)"><g clip-path="url(#d63c716fe3)"><g transform="matrix(1, 0, 0, 1, 42, 42)"><g clip-path="url(#c668c4f06a)"><g clip-path="url(#bf73a6dc47)"><g clip-path="url(#54ff6905ac)"><path fill="#ffffff" d="M 0.34375 0.824219 L 10.695312 0.824219 L 10.695312 11.175781 L 0.34375 11.175781 Z M 0.34375 0.824219 " fill-opacity="1" fill-rule="nonzero"/></g></g></g></g></g></g></svg>