<svg xmlns="http://www.w3.org/2000/svg" xmlns:xlink="http://www.w3.org/1999/xlink" width="96" zoomAndPan="magnify" viewBox="0 0 72 72" height="96" preserveAspectRatio="xMidYMid meet" version="1.0"><defs><g/><clipPath id="a4a13fcb35"><path d="M 45 14.445312 L 64.824219 14.445312 L 64.824219 21.601562 L 45 21.601562 Z M 45 14.445312 " clip-rule="nonzero"/></clipPath><clipPath id="7366da01a8"><path d="M 63.40625 14.472656 L 50.730469 14.472656 C 50.242188 14.472656 49.761719 14.617188 49.355469 14.886719 L 45.234375 17.621094 C 45.09375 17.714844 45.011719 17.871094 45.011719 18.035156 C 45.011719 18.203125 45.09375 18.359375 45.234375 18.449219 L 49.355469 21.183594 C 49.761719 21.457031 50.242188 21.601562 50.730469 21.601562 L 63.40625 21.601562 C 63.40625 21.601562 64.800781 20.546875 64.800781 18.035156 C 64.800781 15.523438 63.40625 14.472656 63.40625 14.472656 Z M 63.40625 14.472656 " clip-rule="nonzero"/></clipPath><clipPath id="dbfee00924"><path d="M 0 0.445312 L 19.800781 0.445312 L 19.800781 7.601562 L 0 7.601562 Z M 0 0.445312 " clip-rule="nonzero"/></clipPath><clipPath id="aa68449aae"><path d="M 18.40625 0.472656 L 5.730469 0.472656 C 5.242188 0.472656 4.761719 0.617188 4.355469 0.886719 L 0.234375 3.621094 C 0.09375 3.714844 0.0117188 3.871094 0.0117188 4.035156 C 0.0117188 4.203125 0.09375 4.359375 0.234375 4.449219 L 4.355469 7.183594 C 4.761719 7.457031 5.242188 7.601562 5.730469 7.601562 L 18.40625 7.601562 C 18.40625 7.601562 19.800781 6.546875 19.800781 4.035156 C 19.800781 1.523438 18.40625 0.472656 18.40625 0.472656 Z M 18.40625 0.472656 " clip-rule="nonzero"/></clipPath><clipPath id="49cae1eef5"><rect x="0" width="20" y="0" height="8"/></clipPath><clipPath id="a455015784"><path d="M 13.730469 44.328125 L 20.886719 44.328125 L 20.886719 64.152344 L 13.730469 64.152344 Z M 13.730469 44.328125 " clip-rule="nonzero"/></clipPath><clipPath id="5ab062df5e"><path d="M 20.859375 62.738281 L 20.859375 50.058594 C 20.859375 49.570312 20.714844 49.09375 20.445312 48.683594 L 17.707031 44.5625 C 17.617188 44.425781 17.460938 44.339844 17.292969 44.339844 C 17.128906 44.339844 16.972656 44.425781 16.878906 44.5625 L 14.144531 48.683594 C 13.875 49.09375 13.730469 49.570312 13.730469 50.058594 L 13.730469 62.738281 C 13.730469 62.738281 14.78125 64.128906 17.292969 64.128906 C 19.804688 64.128906 20.859375 62.738281 20.859375 62.738281 Z M 20.859375 62.738281 " clip-rule="nonzero"/></clipPath><clipPath id="98c40e9195"><path d="M 0.730469 0.328125 L 7.878906 0.328125 L 7.878906 20.152344 L 0.730469 20.152344 Z M 0.730469 0.328125 " clip-rule="nonzero"/></clipPath><clipPath id="34f46f1430"><path d="M 7.859375 18.738281 L 7.859375 6.058594 C 7.859375 5.570312 7.714844 5.09375 7.445312 4.683594 L 4.707031 0.5625 C 4.617188 0.425781 4.460938 0.339844 4.292969 0.339844 C 4.128906 0.339844 3.972656 0.425781 3.878906 0.5625 L 1.144531 4.683594 C 0.875 5.09375 0.730469 5.570312 0.730469 6.058594 L 0.730469 18.738281 C 0.730469 18.738281 1.78125 20.128906 4.292969 20.128906 C 6.804688 20.128906 7.859375 18.738281 7.859375 18.738281 Z M 7.859375 18.738281 " clip-rule="nonzero"/></clipPath><clipPath id="6d1d705fa7"><rect x="0" width="8" y="0" height="21"/></clipPath><clipPath id="4b9a8972bf"><rect x="0" width="3" y="0" height="8"/></clipPath><clipPath id="4d3dc1ca4c"><rect x="0" width="5" y="0" height="8"/></clipPath><clipPath id="f52dc53ef4"><path d="M 0.199219 1 L 9 1 L 9 5 L 0.199219 5 Z M 0.199219 1 " clip-rule="nonzero"/></clipPath><clipPath id="b7b9c61f50"><rect x="0" width="10" y="0" height="6"/></clipPath></defs><g clip-path="url(#a4a13fcb35)"><g clip-path="url(#7366da01a8)"><g transform="matrix(1, 0, 0, 1, 45, 14)"><g clip-path="url(#49cae1eef5)"><g clip-path="url(#dbfee00924)"><g clip-path="url(#aa68449aae)"><path fill="#000000" d="M -0.390625 0.472656 L 19.796875 0.472656 L 19.796875 7.601562 L -0.390625 7.601562 Z M -0.390625 0.472656 " fill-opacity="1" fill-rule="nonzero"/></g></g></g></g></g></g><g clip-path="url(#a455015784)"><g clip-path="url(#5ab062df5e)"><g transform="matrix(1, 0, 0, 1, 13, 44)"><g clip-path="url(#6d1d705fa7)"><g clip-path="url(#98c40e9195)"><g clip-path="url(#34f46f1430)"><path fill="#000000" d="M 7.859375 -0.0625 L 7.859375 20.125 L 0.730469 20.125 L 0.730469 -0.0625 Z M 7.859375 -0.0625 " fill-opacity="1" fill-rule="nonzero"/></g></g></g></g></g></g><g transform="matrix(1, 0, 0, 1, 53, 14)"><g clip-path="url(#4b9a8972bf)"><g fill="#ffffff" fill-opacity="1"><g transform="translate(0.952269, 5.702683)"><g><path d="M 0.953125 0 L 0.546875 0 L 0.546875 -3.5625 L 0.953125 -3.5625 Z M 0.953125 0 "/></g></g></g></g></g><g transform="matrix(1, 0, 0, 1, 15, 50)"><g clip-path="url(#4d3dc1ca4c)"><g fill="#ffffff" fill-opacity="1"><g transform="translate(0.791843, 5.702681)"><g><path d="M 0.953125 0 L 0.546875 0 L 0.546875 -3.5625 L 0.953125 -3.5625 Z M 0.953125 0 "/></g></g><g transform="translate(2.293324, 5.702681)"><g><path d="M 0.953125 0 L 0.546875 0 L 0.546875 -3.5625 L 0.953125 -3.5625 Z M 0.953125 0 "/></g></g></g></g></g><path stroke-linecap="butt" transform="matrix(0.000000001309, -0.75, 0.75, 0.000000001309, 41.411857, 56.866216)" fill="none" stroke-linejoin="miter" d="M -0.00129476 0.497733 L 9.259122 0.497733 " stroke="#000000" stroke-width="1" stroke-opacity="1" stroke-miterlimit="4"/><path stroke-linecap="round" transform="matrix(0.000000001309, -0.75, 0.75, 0.000000001309, 41.411857, 56.866216)" fill-opacity="1" fill="#000000" fill-rule="nonzero" stroke-linejoin="round" d="M 9.509122 -1.002267 L 11.509122 0.497733 L 9.509122 1.997733 Z M 9.509122 -1.002267 " stroke="#000000" stroke-width="1" stroke-opacity="1" stroke-miterlimit="4"/><g transform="matrix(1, 0, 0, 1, 43, 51)"><g clip-path="url(#b7b9c61f50)"><g clip-path="url(#f52dc53ef4)"><g fill="#000000" fill-opacity="1"><g transform="translate(0.391017, 4.036015)"><g><path d="M 0.9375 0 L 0.609375 0 L 0.109375 -2.140625 L 0.359375 -2.140625 L 0.765625 -0.375 L 0.796875 -0.375 L 1.28125 -2.140625 L 1.515625 -2.140625 L 2 -0.375 L 2.03125 -0.375 L 2.4375 -2.140625 L 2.6875 -2.140625 L 2.1875 0 L 1.859375 0 L 1.40625 -1.625 L 1.390625 -1.625 Z M 0.9375 0 "/></g></g><g transform="translate(3.187456, 4.036015)"><g><path d="M 0.578125 0 L 0.328125 0 L 0.328125 -2.140625 L 0.578125 -2.140625 Z M 0.578125 0 "/></g></g><g transform="translate(4.088352, 4.036015)"><g><path d="M 0.5625 0 L 0.328125 0 L 0.328125 -2.140625 L 0.640625 -2.140625 L 1.671875 -0.5 L 1.71875 -0.515625 L 1.71875 -2.140625 L 1.953125 -2.140625 L 1.953125 0 L 1.6875 0 L 0.609375 -1.75 L 0.5625 -1.75 Z M 0.5625 0 "/></g></g><g transform="translate(6.372086, 4.036015)"><g><path d="M 1.015625 -2.140625 C 1.234375 -2.140625 1.421875 -2.097656 1.578125 -2.015625 C 1.734375 -1.941406 1.851562 -1.828125 1.9375 -1.671875 C 2.019531 -1.515625 2.0625 -1.316406 2.0625 -1.078125 C 2.0625 -0.828125 2.019531 -0.625 1.9375 -0.46875 C 1.851562 -0.3125 1.734375 -0.191406 1.578125 -0.109375 C 1.421875 -0.0351562 1.234375 0 1.015625 0 L 0.328125 0 L 0.328125 -2.140625 Z M 0.984375 -0.21875 C 1.171875 -0.21875 1.320312 -0.242188 1.4375 -0.296875 C 1.550781 -0.347656 1.640625 -0.4375 1.703125 -0.5625 C 1.765625 -0.695312 1.796875 -0.867188 1.796875 -1.078125 C 1.796875 -1.285156 1.765625 -1.453125 1.703125 -1.578125 C 1.640625 -1.703125 1.550781 -1.789062 1.4375 -1.84375 C 1.320312 -1.894531 1.171875 -1.921875 0.984375 -1.921875 L 0.578125 -1.921875 L 0.578125 -0.21875 Z M 0.984375 -0.21875 "/></g></g></g></g></g></g><path fill="#000000" d="M 48.957031 18.410156 L 48.207031 18.410156 L 48.207031 17.660156 L 48.957031 17.660156 M 47.457031 18.410156 L 46.707031 18.410156 L 46.707031 17.660156 L 47.457031 17.660156 M 45.957031 18.410156 L 45.207031 18.410156 L 45.207031 17.660156 L 45.957031 17.660156 M 44.457031 18.410156 L 43.707031 18.410156 L 43.707031 17.660156 L 44.457031 17.660156 M 42.957031 18.410156 L 42.207031 18.410156 L 42.207031 17.660156 L 42.957031 17.660156 M 41.457031 18.410156 L 40.707031 18.410156 L 40.707031 17.660156 L 41.457031 17.660156 " fill-opacity="1" fill-rule="nonzero"/><path stroke-linecap="round" transform="matrix(-0.75, 0, 0, -0.75, 48.956712, 18.411007)" fill="none" stroke-linejoin="round" d="M 9.020409 -0.998866 L 11.020409 0.501134 L 9.020409 2.001134 " stroke="#000000" stroke-width="1" stroke-opacity="1" stroke-miterlimit="4"/><path fill="#000000" d="M 16.917969 48.257812 L 16.917969 47.507812 L 17.667969 47.507812 L 17.667969 48.257812 M 16.917969 46.757812 L 16.917969 46.007812 L 17.667969 46.007812 L 17.667969 46.757812 M 16.917969 45.257812 L 16.917969 44.507812 L 17.667969 44.507812 L 17.667969 45.257812 M 16.917969 43.757812 L 16.917969 43.007812 L 17.667969 43.007812 L 17.667969 43.757812 M 16.917969 42.257812 L 16.917969 41.507812 L 17.667969 41.507812 L 17.667969 42.257812 M 16.917969 40.757812 L 16.917969 40.007812 L 17.667969 40.007812 L 17.667969 40.757812 " fill-opacity="1" fill-rule="nonzero"/><path stroke-linecap="round" transform="matrix(0, -0.75, 0.75, 0, 16.919124, 48.258588)" fill="none" stroke-linejoin="round" d="M 9.021868 -1.00154 L 11.021868 0.49846 L 9.021868 1.99846 " stroke="#000000" stroke-width="1" stroke-opacity="1" stroke-miterlimit="4"/></svg>