<svg xmlns="http://www.w3.org/2000/svg" xmlns:xlink="http://www.w3.org/1999/xlink" width="96" zoomAndPan="magnify" viewBox="0 0 72 72" height="96" preserveAspectRatio="xMidYMid meet" version="1.0"><defs><g/><clipPath id="57fb274319"><path d="M 45 14.445312 L 64.824219 14.445312 L 64.824219 21.601562 L 45 21.601562 Z M 45 14.445312 " clip-rule="nonzero"/></clipPath><clipPath id="126dd8934d"><path d="M 63.40625 14.472656 L 50.730469 14.472656 C 50.242188 14.472656 49.761719 14.617188 49.355469 14.886719 L 45.234375 17.621094 C 45.09375 17.714844 45.011719 17.871094 45.011719 18.035156 C 45.011719 18.203125 45.09375 18.359375 45.234375 18.449219 L 49.355469 21.183594 C 49.761719 21.457031 50.242188 21.601562 50.730469 21.601562 L 63.40625 21.601562 C 63.40625 21.601562 64.800781 20.546875 64.800781 18.035156 C 64.800781 15.523438 63.40625 14.472656 63.40625 14.472656 Z M 63.40625 14.472656 " clip-rule="nonzero"/></clipPath><clipPath id="2542245183"><path d="M 0 0.445312 L 19.800781 0.445312 L 19.800781 7.601562 L 0 7.601562 Z M 0 0.445312 " clip-rule="nonzero"/></clipPath><clipPath id="c59e89c1e7"><path d="M 18.40625 0.472656 L 5.730469 0.472656 C 5.242188 0.472656 4.761719 0.617188 4.355469 0.886719 L 0.234375 3.621094 C 0.09375 3.714844 0.0117188 3.871094 0.0117188 4.035156 C 0.0117188 4.203125 0.09375 4.359375 0.234375 4.449219 L 4.355469 7.183594 C 4.761719 7.457031 5.242188 7.601562 5.730469 7.601562 L 18.40625 7.601562 C 18.40625 7.601562 19.800781 6.546875 19.800781 4.035156 C 19.800781 1.523438 18.40625 0.472656 18.40625 0.472656 Z M 18.40625 0.472656 " clip-rule="nonzero"/></clipPath><clipPath id="a514b98053"><rect x="0" width="20" y="0" height="8"/></clipPath><clipPath id="7abe8fe4f9"><path d="M 13.730469 44.328125 L 20.886719 44.328125 L 20.886719 64.152344 L 13.730469 64.152344 Z M 13.730469 44.328125 " clip-rule="nonzero"/></clipPath><clipPath id="c4b97bbe93"><path d="M 20.859375 62.738281 L 20.859375 50.058594 C 20.859375 49.570312 20.714844 49.09375 20.445312 48.683594 L 17.707031 44.5625 C 17.617188 44.425781 17.460938 44.339844 17.292969 44.339844 C 17.128906 44.339844 16.972656 44.425781 16.878906 44.5625 L 14.144531 48.683594 C 13.875 49.09375 13.730469 49.570312 13.730469 50.058594 L 13.730469 62.738281 C 13.730469 62.738281 14.78125 64.128906 17.292969 64.128906 C 19.804688 64.128906 20.859375 62.738281 20.859375 62.738281 Z M 20.859375 62.738281 " clip-rule="nonzero"/></clipPath><clipPath id="e8cbaae60e"><path d="M 0.730469 0.328125 L 7.878906 0.328125 L 7.878906 20.152344 L 0.730469 20.152344 Z M 0.730469 0.328125 " clip-rule="nonzero"/></clipPath><clipPath id="c33546e98b"><path d="M 7.859375 18.738281 L 7.859375 6.058594 C 7.859375 5.570312 7.714844 5.09375 7.445312 4.683594 L 4.707031 0.5625 C 4.617188 0.425781 4.460938 0.339844 4.292969 0.339844 C 4.128906 0.339844 3.972656 0.425781 3.878906 0.5625 L 1.144531 4.683594 C 0.875 5.09375 0.730469 5.570312 0.730469 6.058594 L 0.730469 18.738281 C 0.730469 18.738281 1.78125 20.128906 4.292969 20.128906 C 6.804688 20.128906 7.859375 18.738281 7.859375 18.738281 Z M 7.859375 18.738281 " clip-rule="nonzero"/></clipPath><clipPath id="f887ae6658"><rect x="0" width="8" y="0" height="21"/></clipPath><clipPath id="c0eeb8949d"><path d="M 12.238281 29.988281 L 22.046875 29.988281 L 22.046875 43.941406 L 12.238281 43.941406 Z M 12.238281 29.988281 " clip-rule="nonzero"/></clipPath><clipPath id="94cad424af"><path d="M 0.238281 0.988281 L 10.046875 0.988281 L 10.046875 14.941406 L 0.238281 14.941406 Z M 0.238281 0.988281 " clip-rule="nonzero"/></clipPath><clipPath id="cdf2308bbe"><rect x="0" width="11" y="0" height="15"/></clipPath><clipPath id="20c53f918e"><path d="M 0.601562 2 L 4.679688 2 L 4.679688 6 L 0.601562 6 Z M 0.601562 2 " clip-rule="nonzero"/></clipPath><clipPath id="45fcd9cdff"><rect x="0" width="5" y="0" height="8"/></clipPath><clipPath id="c0fb18892a"><path d="M 1 2 L 4.878906 2 L 4.878906 6 L 1 6 Z M 1 2 " clip-rule="nonzero"/></clipPath><clipPath id="b609024d62"><rect x="0" width="5" y="0" height="8"/></clipPath></defs><g clip-path="url(#57fb274319)"><g clip-path="url(#126dd8934d)"><g transform="matrix(1, 0, 0, 1, 45, 14)"><g clip-path="url(#a514b98053)"><g clip-path="url(#2542245183)"><g clip-path="url(#c59e89c1e7)"><path fill="#000000" d="M -0.390625 0.472656 L 19.796875 0.472656 L 19.796875 7.601562 L -0.390625 7.601562 Z M -0.390625 0.472656 " fill-opacity="1" fill-rule="nonzero"/></g></g></g></g></g></g><g clip-path="url(#7abe8fe4f9)"><g clip-path="url(#c4b97bbe93)"><g transform="matrix(1, 0, 0, 1, 13, 44)"><g clip-path="url(#f887ae6658)"><g clip-path="url(#e8cbaae60e)"><g clip-path="url(#c33546e98b)"><path fill="#000000" d="M 7.859375 -0.0625 L 7.859375 20.125 L 0.730469 20.125 L 0.730469 -0.0625 Z M 7.859375 -0.0625 " fill-opacity="1" fill-rule="nonzero"/></g></g></g></g></g></g><g clip-path="url(#c0eeb8949d)"><g transform="matrix(1, 0, 0, 1, 12, 29)"><g clip-path="url(#cdf2308bbe)"><g clip-path="url(#94cad424af)"><path fill="#000000" d="M 0.238281 0.988281 L 10.046875 0.988281 L 10.046875 14.9375 L 0.238281 14.9375 Z M 0.238281 0.988281 " fill-opacity="1" fill-rule="nonzero"/></g></g></g></g><g transform="matrix(1, 0, 0, 1, 15, 50)"><g clip-path="url(#45fcd9cdff)"><g clip-path="url(#20c53f918e)"><g fill="#ffffff" fill-opacity="1"><g transform="translate(0.839459, 5.702666)"><g><path d="M 3.21875 0 L 2.765625 0 L 2.4375 -0.984375 L 0.90625 -0.984375 L 0.578125 0 L 0.140625 0 L 1.390625 -3.5625 L 1.96875 -3.5625 Z M 1.640625 -3.140625 L 1.03125 -1.328125 L 2.3125 -1.328125 L 1.703125 -3.140625 Z M 1.640625 -3.140625 "/></g></g></g></g></g></g><path fill="#000000" d="M 17.140625 32.636719 L 17.140625 31.886719 L 17.890625 31.886719 L 17.890625 32.636719 M 17.140625 31.136719 L 17.140625 30.386719 L 17.890625 30.386719 L 17.890625 31.136719 M 17.140625 29.636719 L 17.140625 28.886719 L 17.890625 28.886719 L 17.890625 29.636719 M 17.140625 28.136719 L 17.140625 27.386719 L 17.890625 27.386719 L 17.890625 28.136719 M 17.140625 26.636719 L 17.140625 25.886719 L 17.890625 25.886719 L 17.890625 26.636719 M 17.140625 25.136719 L 17.140625 24.386719 L 17.890625 24.386719 L 17.890625 25.136719 " fill-opacity="1" fill-rule="nonzero"/><path stroke-linecap="round" transform="matrix(0, -0.75, 0.75, 0, 17.142526, 32.63836)" fill="none" stroke-linejoin="round" d="M 9.017814 -1.002534 L 11.017814 0.497466 L 9.017814 1.997466 " stroke="#000000" stroke-width="1" stroke-opacity="1" stroke-miterlimit="4"/><path fill="#000000" d="M 47.515625 18.410156 L 46.765625 18.410156 L 46.765625 17.660156 L 47.515625 17.660156 M 46.015625 18.410156 L 45.265625 18.410156 L 45.265625 17.660156 L 46.015625 17.660156 M 44.515625 18.410156 L 43.765625 18.410156 L 43.765625 17.660156 L 44.515625 17.660156 M 43.015625 18.410156 L 42.265625 18.410156 L 42.265625 17.660156 L 43.015625 17.660156 M 41.515625 18.410156 L 40.765625 18.410156 L 40.765625 17.660156 L 41.515625 17.660156 M 40.015625 18.410156 L 39.265625 18.410156 L 39.265625 17.660156 L 40.015625 17.660156 " fill-opacity="1" fill-rule="nonzero"/><path stroke-linecap="round" transform="matrix(-0.75, 0, 0, -0.75, 47.516717, 18.411007)" fill="none" stroke-linejoin="round" d="M 9.02229 -0.998866 L 11.02229 0.501134 L 9.02229 2.001134 " stroke="#000000" stroke-width="1" stroke-opacity="1" stroke-miterlimit="4"/><g transform="matrix(1, 0, 0, 1, 52, 14)"><g clip-path="url(#b609024d62)"><g clip-path="url(#c0fb18892a)"><g fill="#ffffff" fill-opacity="1"><g transform="translate(0.985462, 5.702669)"><g><path d="M 0.546875 0 L 0.546875 -3.5625 L 1.890625 -3.5625 C 2.109375 -3.5625 2.296875 -3.523438 2.453125 -3.453125 C 2.609375 -3.390625 2.722656 -3.289062 2.796875 -3.15625 C 2.867188 -3.03125 2.90625 -2.878906 2.90625 -2.703125 C 2.90625 -2.546875 2.863281 -2.40625 2.78125 -2.28125 C 2.695312 -2.15625 2.578125 -2.054688 2.421875 -1.984375 L 2.421875 -1.9375 C 2.660156 -1.875 2.84375 -1.765625 2.96875 -1.609375 C 3.09375 -1.460938 3.15625 -1.269531 3.15625 -1.03125 C 3.15625 -0.695312 3.054688 -0.441406 2.859375 -0.265625 C 2.660156 -0.0859375 2.375 0 2 0 Z M 1.875 -2.078125 C 2.070312 -2.078125 2.222656 -2.125 2.328125 -2.21875 C 2.441406 -2.320312 2.5 -2.46875 2.5 -2.65625 C 2.5 -2.84375 2.445312 -2.984375 2.34375 -3.078125 C 2.238281 -3.171875 2.082031 -3.21875 1.875 -3.21875 L 0.953125 -3.21875 L 0.953125 -2.078125 Z M 1.96875 -0.34375 C 2.46875 -0.34375 2.71875 -0.570312 2.71875 -1.03125 C 2.71875 -1.488281 2.46875 -1.71875 1.96875 -1.71875 L 0.953125 -1.71875 L 0.953125 -0.34375 Z M 1.96875 -0.34375 "/></g></g></g></g></g></g></svg>