<svg xmlns="http://www.w3.org/2000/svg" xmlns:xlink="http://www.w3.org/1999/xlink" width="96" zoomAndPan="magnify" viewBox="0 0 72 72" height="96" preserveAspectRatio="xMidYMid meet" version="1.0"><defs><g/><clipPath id="715f390629"><path d="M 50.8125 34.316406 L 57.96875 34.316406 L 57.96875 54.140625 L 50.8125 54.140625 Z M 50.8125 34.316406 " clip-rule="nonzero"/></clipPath><clipPath id="de9cdee460"><path d="M 57.941406 52.726562 L 57.941406 40.046875 C 57.941406 39.558594 57.796875 39.082031 57.527344 38.671875 L 54.792969 34.550781 C 54.699219 34.414062 54.542969 34.328125 54.375 34.328125 C 54.210938 34.328125 54.054688 34.414062 53.960938 34.550781 L 51.226562 38.671875 C 50.957031 39.082031 50.8125 39.558594 50.8125 40.046875 L 50.8125 52.726562 C 50.8125 52.726562 51.867188 54.117188 54.375 54.117188 C 56.886719 54.117188 57.941406 52.726562 57.941406 52.726562 Z M 57.941406 52.726562 " clip-rule="nonzero"/></clipPath><clipPath id="3d776339d3"><path d="M 0.8125 0.320312 L 7.96875 0.320312 L 7.96875 20.140625 L 0.8125 20.140625 Z M 0.8125 0.320312 " clip-rule="nonzero"/></clipPath><clipPath id="9776f8b33b"><path d="M 7.941406 18.726562 L 7.941406 6.046875 C 7.941406 5.558594 7.796875 5.082031 7.527344 4.671875 L 4.792969 0.550781 C 4.699219 0.414062 4.542969 0.328125 4.375 0.328125 C 4.210938 0.328125 4.054688 0.414062 3.960938 0.550781 L 1.226562 4.671875 C 0.957031 5.082031 0.8125 5.558594 0.8125 6.046875 L 0.8125 18.726562 C 0.8125 18.726562 1.867188 20.117188 4.375 20.117188 C 6.886719 20.117188 7.941406 18.726562 7.941406 18.726562 Z M 7.941406 18.726562 " clip-rule="nonzero"/></clipPath><clipPath id="02a385c835"><rect x="0" width="8" y="0" height="21"/></clipPath><clipPath id="a8fb6cdfd3"><path d="M 14.035156 17.878906 L 33.859375 17.878906 L 33.859375 25.03125 L 14.035156 25.03125 Z M 14.035156 17.878906 " clip-rule="nonzero"/></clipPath><clipPath id="f7701ac827"><path d="M 15.449219 25.003906 L 28.128906 25.003906 C 28.617188 25.003906 29.09375 24.859375 29.503906 24.589844 L 33.625 21.855469 C 33.761719 21.761719 33.847656 21.609375 33.847656 21.441406 C 33.847656 21.273438 33.761719 21.117188 33.625 21.027344 L 29.503906 18.292969 C 29.09375 18.019531 28.617188 17.878906 28.128906 17.878906 L 15.449219 17.878906 C 15.449219 17.878906 14.058594 18.929688 14.058594 21.441406 C 14.058594 23.953125 15.449219 25.003906 15.449219 25.003906 Z M 15.449219 25.003906 " clip-rule="nonzero"/></clipPath><clipPath id="22cfa5fbf0"><path d="M 0.0351562 0.878906 L 19.859375 0.878906 L 19.859375 8.03125 L 0.0351562 8.03125 Z M 0.0351562 0.878906 " clip-rule="nonzero"/></clipPath><clipPath id="ef88736185"><path d="M 1.449219 8.003906 L 14.128906 8.003906 C 14.617188 8.003906 15.09375 7.859375 15.503906 7.589844 L 19.625 4.855469 C 19.761719 4.761719 19.847656 4.609375 19.847656 4.441406 C 19.847656 4.273438 19.761719 4.117188 19.625 4.027344 L 15.503906 1.292969 C 15.09375 1.019531 14.617188 0.878906 14.128906 0.878906 L 1.449219 0.878906 C 1.449219 0.878906 0.0585938 1.929688 0.0585938 4.441406 C 0.0585938 6.953125 1.449219 8.003906 1.449219 8.003906 Z M 1.449219 8.003906 " clip-rule="nonzero"/></clipPath><clipPath id="6dbdb0d844"><rect x="0" width="20" y="0" height="9"/></clipPath><clipPath id="e7d90f9d7f"><path d="M 0.320312 2 L 4 2 L 4 7 L 0.320312 7 Z M 0.320312 2 " clip-rule="nonzero"/></clipPath><clipPath id="87e170020b"><rect x="0" width="5" y="0" height="8"/></clipPath><clipPath id="2648d4aec9"><rect x="0" width="5" y="0" height="8"/></clipPath></defs><g clip-path="url(#715f390629)"><g clip-path="url(#de9cdee460)"><g transform="matrix(1, 0, 0, 1, 50, 34)"><g clip-path="url(#02a385c835)"><g clip-path="url(#3d776339d3)"><g clip-path="url(#9776f8b33b)"><path fill="#000000" d="M 7.941406 -0.0742188 L 7.941406 20.113281 L 0.8125 20.113281 L 0.8125 -0.0742188 Z M 7.941406 -0.0742188 " fill-opacity="1" fill-rule="nonzero"/></g></g></g></g></g></g><g clip-path="url(#a8fb6cdfd3)"><g clip-path="url(#f7701ac827)"><g transform="matrix(1, 0, 0, 1, 14, 17)"><g clip-path="url(#6dbdb0d844)"><g clip-path="url(#22cfa5fbf0)"><g clip-path="url(#ef88736185)"><path fill="#000000" d="M 20.25 8.003906 L 0.0625 8.003906 L 0.0625 0.878906 L 20.25 0.878906 Z M 20.25 8.003906 " fill-opacity="1" fill-rule="nonzero"/></g></g></g></g></g></g><g transform="matrix(1, 0, 0, 1, 22, 17)"><g clip-path="url(#87e170020b)"><g clip-path="url(#e7d90f9d7f)"><g fill="#ffffff" fill-opacity="1"><g transform="translate(0.474059, 6.110685)"><g><path d="M 3.21875 0 L 2.765625 0 L 2.4375 -0.984375 L 0.90625 -0.984375 L 0.578125 0 L 0.140625 0 L 1.390625 -3.5625 L 1.96875 -3.5625 Z M 1.640625 -3.140625 L 1.03125 -1.328125 L 2.3125 -1.328125 L 1.703125 -3.140625 Z M 1.640625 -3.140625 "/></g></g></g></g></g></g><path fill="#000000" d="M 54 38.277344 L 54 37.527344 L 54.75 37.527344 L 54.75 38.277344 M 54 36.777344 L 54 36.027344 L 54.75 36.027344 L 54.75 36.777344 M 54 35.277344 L 54 34.527344 L 54.75 34.527344 L 54.75 35.277344 M 54 33.777344 L 54 33.027344 L 54.75 33.027344 L 54.75 33.777344 M 54 32.277344 L 54 31.527344 L 54.75 31.527344 L 54.75 32.277344 M 54 30.777344 L 54 30.027344 L 54.75 30.027344 L 54.75 30.777344 " fill-opacity="1" fill-rule="nonzero"/><path stroke-linecap="round" transform="matrix(0, -0.75, 0.75, 0, 54.001361, 38.27836)" fill="none" stroke-linejoin="round" d="M 9.022188 -1.001815 L 11.022188 0.498185 L 9.022188 1.998185 " stroke="#000000" stroke-width="1" stroke-opacity="1" stroke-miterlimit="4"/><path fill="#000000" d="M 29.929688 21.070312 L 30.679688 21.070312 L 30.679688 21.820312 L 29.929688 21.820312 M 31.429688 21.070312 L 32.179688 21.070312 L 32.179688 21.820312 L 31.429688 21.820312 M 32.929688 21.070312 L 33.679688 21.070312 L 33.679688 21.820312 L 32.929688 21.820312 M 34.429688 21.070312 L 35.179688 21.070312 L 35.179688 21.820312 L 34.429688 21.820312 M 35.929688 21.070312 L 36.679688 21.070312 L 36.679688 21.820312 L 35.929688 21.820312 M 37.429688 21.070312 L 38.179688 21.070312 L 38.179688 21.820312 L 37.429688 21.820312 " fill-opacity="1" fill-rule="nonzero"/><path stroke-linecap="round" transform="matrix(0.75, 0, 0, 0.75, 29.929529, 21.068995)" fill="none" stroke-linejoin="round" d="M 9.021045 -0.998244 L 11.021045 0.501756 L 9.021045 2.001756 " stroke="#000000" stroke-width="1" stroke-opacity="1" stroke-miterlimit="4"/><g transform="matrix(1, 0, 0, 1, 52, 40)"><g clip-path="url(#2648d4aec9)"><g fill="#ffffff" fill-opacity="1"><g transform="translate(0.65923, 5.690921)"><g><path d="M 0.546875 0 L 0.546875 -3.5625 L 1.890625 -3.5625 C 2.109375 -3.5625 2.296875 -3.523438 2.453125 -3.453125 C 2.609375 -3.390625 2.722656 -3.289062 2.796875 -3.15625 C 2.867188 -3.03125 2.90625 -2.878906 2.90625 -2.703125 C 2.90625 -2.546875 2.863281 -2.40625 2.78125 -2.28125 C 2.695312 -2.15625 2.578125 -2.054688 2.421875 -1.984375 L 2.421875 -1.9375 C 2.660156 -1.875 2.84375 -1.765625 2.96875 -1.609375 C 3.09375 -1.460938 3.15625 -1.269531 3.15625 -1.03125 C 3.15625 -0.695312 3.054688 -0.441406 2.859375 -0.265625 C 2.660156 -0.0859375 2.375 0 2 0 Z M 1.875 -2.078125 C 2.070312 -2.078125 2.222656 -2.125 2.328125 -2.21875 C 2.441406 -2.320312 2.5 -2.46875 2.5 -2.65625 C 2.5 -2.84375 2.445312 -2.984375 2.34375 -3.078125 C 2.238281 -3.171875 2.082031 -3.21875 1.875 -3.21875 L 0.953125 -3.21875 L 0.953125 -2.078125 Z M 1.96875 -0.34375 C 2.46875 -0.34375 2.71875 -0.570312 2.71875 -1.03125 C 2.71875 -1.488281 2.46875 -1.71875 1.96875 -1.71875 L 0.953125 -1.71875 L 0.953125 -0.34375 Z M 1.96875 -0.34375 "/></g></g></g></g></g></svg>