<svg xmlns="http://www.w3.org/2000/svg" xmlns:xlink="http://www.w3.org/1999/xlink" width="96" zoomAndPan="magnify" viewBox="0 0 72 72" height="96" preserveAspectRatio="xMidYMid meet" version="1.0"><defs><g/><clipPath id="a0fca25e18"><path d="M 40.378906 42.617188 L 44.6875 42.617188 L 44.6875 46.921875 L 40.378906 46.921875 Z M 40.378906 42.617188 " clip-rule="nonzero"/></clipPath><clipPath id="f70fc9955c"><path d="M 42.53125 42.617188 C 41.34375 42.617188 40.378906 43.582031 40.378906 44.769531 C 40.378906 45.957031 41.34375 46.921875 42.53125 46.921875 C 43.722656 46.921875 44.6875 45.957031 44.6875 44.769531 C 44.6875 43.582031 43.722656 42.617188 42.53125 42.617188 Z M 42.53125 42.617188 " clip-rule="nonzero"/></clipPath><clipPath id="5f772381e6"><path d="M 0.378906 0.617188 L 4.6875 0.617188 L 4.6875 4.921875 L 0.378906 4.921875 Z M 0.378906 0.617188 " clip-rule="nonzero"/></clipPath><clipPath id="98e9f3ef48"><path d="M 2.53125 0.617188 C 1.34375 0.617188 0.378906 1.582031 0.378906 2.769531 C 0.378906 3.957031 1.34375 4.921875 2.53125 4.921875 C 3.722656 4.921875 4.6875 3.957031 4.6875 2.769531 C 4.6875 1.582031 3.722656 0.617188 2.53125 0.617188 Z M 2.53125 0.617188 " clip-rule="nonzero"/></clipPath><clipPath id="a00e8a943a"><rect x="0" width="5" y="0" height="5"/></clipPath><clipPath id="d10af11b1e"><path d="M 9.285156 38.3125 L 13.589844 38.3125 L 13.589844 42.617188 L 9.285156 42.617188 Z M 9.285156 38.3125 " clip-rule="nonzero"/></clipPath><clipPath id="b72c6ddf9a"><path d="M 11.4375 38.3125 C 10.25 38.3125 9.285156 39.273438 9.285156 40.464844 C 9.285156 41.652344 10.25 42.617188 11.4375 42.617188 C 12.625 42.617188 13.589844 41.652344 13.589844 40.464844 C 13.589844 39.273438 12.625 38.3125 11.4375 38.3125 Z M 11.4375 38.3125 " clip-rule="nonzero"/></clipPath><clipPath id="ce9082b49d"><path d="M 0.285156 0.3125 L 4.589844 0.3125 L 4.589844 4.617188 L 0.285156 4.617188 Z M 0.285156 0.3125 " clip-rule="nonzero"/></clipPath><clipPath id="ce3876f3df"><path d="M 2.4375 0.3125 C 1.25 0.3125 0.285156 1.273438 0.285156 2.464844 C 0.285156 3.652344 1.25 4.617188 2.4375 4.617188 C 3.625 4.617188 4.589844 3.652344 4.589844 2.464844 C 4.589844 1.273438 3.625 0.3125 2.4375 0.3125 Z M 2.4375 0.3125 " clip-rule="nonzero"/></clipPath><clipPath id="934bdfca9b"><rect x="0" width="5" y="0" height="5"/></clipPath><clipPath id="833b9caf37"><path d="M 1.230469 48.160156 L 5.535156 48.160156 L 5.535156 52.464844 L 1.230469 52.464844 Z M 1.230469 48.160156 " clip-rule="nonzero"/></clipPath><clipPath id="750dc34602"><path d="M 3.382812 48.160156 C 2.191406 48.160156 1.230469 49.121094 1.230469 50.3125 C 1.230469 51.5 2.191406 52.464844 3.382812 52.464844 C 4.570312 52.464844 5.535156 51.5 5.535156 50.3125 C 5.535156 49.121094 4.570312 48.160156 3.382812 48.160156 Z M 3.382812 48.160156 " clip-rule="nonzero"/></clipPath><clipPath id="993171fe74"><path d="M 0.230469 0.160156 L 4.535156 0.160156 L 4.535156 4.464844 L 0.230469 4.464844 Z M 0.230469 0.160156 " clip-rule="nonzero"/></clipPath><clipPath id="cf5d6fcac2"><path d="M 2.382812 0.160156 C 1.191406 0.160156 0.230469 1.121094 0.230469 2.3125 C 0.230469 3.5 1.191406 4.464844 2.382812 4.464844 C 3.570312 4.464844 4.535156 3.5 4.535156 2.3125 C 4.535156 1.121094 3.570312 0.160156 2.382812 0.160156 Z M 2.382812 0.160156 " clip-rule="nonzero"/></clipPath><clipPath id="623aea3338"><rect x="0" width="5" y="0" height="5"/></clipPath><clipPath id="e320f01a5c"><path d="M 49.433594 18.554688 L 53.738281 18.554688 L 53.738281 22.859375 L 49.433594 22.859375 Z M 49.433594 18.554688 " clip-rule="nonzero"/></clipPath><clipPath id="f82f039afe"><path d="M 51.585938 18.554688 C 50.398438 18.554688 49.433594 19.519531 49.433594 20.707031 C 49.433594 21.898438 50.398438 22.859375 51.585938 22.859375 C 52.773438 22.859375 53.738281 21.898438 53.738281 20.707031 C 53.738281 19.519531 52.773438 18.554688 51.585938 18.554688 Z M 51.585938 18.554688 " clip-rule="nonzero"/></clipPath><clipPath id="3c0497445f"><path d="M 0.433594 0.554688 L 4.738281 0.554688 L 4.738281 4.859375 L 0.433594 4.859375 Z M 0.433594 0.554688 " clip-rule="nonzero"/></clipPath><clipPath id="cf3feccabb"><path d="M 2.585938 0.554688 C 1.398438 0.554688 0.433594 1.519531 0.433594 2.707031 C 0.433594 3.898438 1.398438 4.859375 2.585938 4.859375 C 3.773438 4.859375 4.738281 3.898438 4.738281 2.707031 C 4.738281 1.519531 3.773438 0.554688 2.585938 0.554688 Z M 2.585938 0.554688 " clip-rule="nonzero"/></clipPath><clipPath id="6e20c233f8"><rect x="0" width="5" y="0" height="5"/></clipPath><clipPath id="a35b3c7540"><path d="M 9.285156 48.160156 L 13.589844 48.160156 L 13.589844 52.464844 L 9.285156 52.464844 Z M 9.285156 48.160156 " clip-rule="nonzero"/></clipPath><clipPath id="3fdb5648a5"><path d="M 11.4375 48.160156 C 10.25 48.160156 9.285156 49.121094 9.285156 50.3125 C 9.285156 51.5 10.25 52.464844 11.4375 52.464844 C 12.625 52.464844 13.589844 51.5 13.589844 50.3125 C 13.589844 49.121094 12.625 48.160156 11.4375 48.160156 Z M 11.4375 48.160156 " clip-rule="nonzero"/></clipPath><clipPath id="eef1424080"><path d="M 0.285156 0.160156 L 4.589844 0.160156 L 4.589844 4.464844 L 0.285156 4.464844 Z M 0.285156 0.160156 " clip-rule="nonzero"/></clipPath><clipPath id="9a157cd9d8"><path d="M 2.4375 0.160156 C 1.25 0.160156 0.285156 1.121094 0.285156 2.3125 C 0.285156 3.5 1.25 4.464844 2.4375 4.464844 C 3.625 4.464844 4.589844 3.5 4.589844 2.3125 C 4.589844 1.121094 3.625 0.160156 2.4375 0.160156 Z M 2.4375 0.160156 " clip-rule="nonzero"/></clipPath><clipPath id="c298cfec3f"><rect x="0" width="5" y="0" height="5"/></clipPath><clipPath id="0a3f3ead93"><path d="M 17.339844 38.3125 L 21.644531 38.3125 L 21.644531 42.617188 L 17.339844 42.617188 Z M 17.339844 38.3125 " clip-rule="nonzero"/></clipPath><clipPath id="b712cbe7b3"><path d="M 19.492188 38.3125 C 18.304688 38.3125 17.339844 39.273438 17.339844 40.464844 C 17.339844 41.652344 18.304688 42.617188 19.492188 42.617188 C 20.683594 42.617188 21.644531 41.652344 21.644531 40.464844 C 21.644531 39.273438 20.683594 38.3125 19.492188 38.3125 Z M 19.492188 38.3125 " clip-rule="nonzero"/></clipPath><clipPath id="9e53e4fcb6"><path d="M 0.339844 0.3125 L 4.644531 0.3125 L 4.644531 4.617188 L 0.339844 4.617188 Z M 0.339844 0.3125 " clip-rule="nonzero"/></clipPath><clipPath id="ce93af7085"><path d="M 2.492188 0.3125 C 1.304688 0.3125 0.339844 1.273438 0.339844 2.464844 C 0.339844 3.652344 1.304688 4.617188 2.492188 4.617188 C 3.683594 4.617188 4.644531 3.652344 4.644531 2.464844 C 4.644531 1.273438 3.683594 0.3125 2.492188 0.3125 Z M 2.492188 0.3125 " clip-rule="nonzero"/></clipPath><clipPath id="920ef1ca06"><rect x="0" width="5" y="0" height="5"/></clipPath><clipPath id="8f67d8aaf4"><path d="M 17.339844 48.160156 L 21.644531 48.160156 L 21.644531 52.464844 L 17.339844 52.464844 Z M 17.339844 48.160156 " clip-rule="nonzero"/></clipPath><clipPath id="a6c479689f"><path d="M 19.492188 48.160156 C 18.304688 48.160156 17.339844 49.121094 17.339844 50.3125 C 17.339844 51.5 18.304688 52.464844 19.492188 52.464844 C 20.683594 52.464844 21.644531 51.5 21.644531 50.3125 C 21.644531 49.121094 20.683594 48.160156 19.492188 48.160156 Z M 19.492188 48.160156 " clip-rule="nonzero"/></clipPath><clipPath id="491f9940cc"><path d="M 0.339844 0.160156 L 4.644531 0.160156 L 4.644531 4.464844 L 0.339844 4.464844 Z M 0.339844 0.160156 " clip-rule="nonzero"/></clipPath><clipPath id="27567d648d"><path d="M 2.492188 0.160156 C 1.304688 0.160156 0.339844 1.121094 0.339844 2.3125 C 0.339844 3.5 1.304688 4.464844 2.492188 4.464844 C 3.683594 4.464844 4.644531 3.5 4.644531 2.3125 C 4.644531 1.121094 3.683594 0.160156 2.492188 0.160156 Z M 2.492188 0.160156 " clip-rule="nonzero"/></clipPath><clipPath id="bf17f3b343"><rect x="0" width="5" y="0" height="5"/></clipPath><clipPath id="e34d339369"><path d="M 25.613281 48.160156 L 29.917969 48.160156 L 29.917969 52.464844 L 25.613281 52.464844 Z M 25.613281 48.160156 " clip-rule="nonzero"/></clipPath><clipPath id="5f3ed91694"><path d="M 27.765625 48.160156 C 26.578125 48.160156 25.613281 49.121094 25.613281 50.3125 C 25.613281 51.5 26.578125 52.464844 27.765625 52.464844 C 28.953125 52.464844 29.917969 51.5 29.917969 50.3125 C 29.917969 49.121094 28.953125 48.160156 27.765625 48.160156 Z M 27.765625 48.160156 " clip-rule="nonzero"/></clipPath><clipPath id="d01eaa761f"><path d="M 0.613281 0.160156 L 4.917969 0.160156 L 4.917969 4.464844 L 0.613281 4.464844 Z M 0.613281 0.160156 " clip-rule="nonzero"/></clipPath><clipPath id="f5338b1a36"><path d="M 2.765625 0.160156 C 1.578125 0.160156 0.613281 1.121094 0.613281 2.3125 C 0.613281 3.5 1.578125 4.464844 2.765625 4.464844 C 3.953125 4.464844 4.917969 3.5 4.917969 2.3125 C 4.917969 1.121094 3.953125 0.160156 2.765625 0.160156 Z M 2.765625 0.160156 " clip-rule="nonzero"/></clipPath><clipPath id="652d82a930"><rect x="0" width="5" y="0" height="5"/></clipPath><clipPath id="ee6fed80f0"><path d="M 33.886719 48.160156 L 38.191406 48.160156 L 38.191406 52.464844 L 33.886719 52.464844 Z M 33.886719 48.160156 " clip-rule="nonzero"/></clipPath><clipPath id="21d060bb42"><path d="M 36.039062 48.160156 C 34.847656 48.160156 33.886719 49.121094 33.886719 50.3125 C 33.886719 51.5 34.847656 52.464844 36.039062 52.464844 C 37.226562 52.464844 38.191406 51.5 38.191406 50.3125 C 38.191406 49.121094 37.226562 48.160156 36.039062 48.160156 Z M 36.039062 48.160156 " clip-rule="nonzero"/></clipPath><clipPath id="978ac0e443"><path d="M 0.886719 0.160156 L 5.191406 0.160156 L 5.191406 4.464844 L 0.886719 4.464844 Z M 0.886719 0.160156 " clip-rule="nonzero"/></clipPath><clipPath id="ec16ea22cf"><path d="M 3.039062 0.160156 C 1.847656 0.160156 0.886719 1.121094 0.886719 2.3125 C 0.886719 3.5 1.847656 4.464844 3.039062 4.464844 C 4.226562 4.464844 5.191406 3.5 5.191406 2.3125 C 5.191406 1.121094 4.226562 0.160156 3.039062 0.160156 Z M 3.039062 0.160156 " clip-rule="nonzero"/></clipPath><clipPath id="b8475dad04"><rect x="0" width="6" y="0" height="5"/></clipPath><clipPath id="e664e011db"><path d="M 40.378906 35.117188 L 44.6875 35.117188 L 44.6875 39.421875 L 40.378906 39.421875 Z M 40.378906 35.117188 " clip-rule="nonzero"/></clipPath><clipPath id="c2f49877fc"><path d="M 42.53125 35.117188 C 41.34375 35.117188 40.378906 36.082031 40.378906 37.269531 C 40.378906 38.457031 41.34375 39.421875 42.53125 39.421875 C 43.722656 39.421875 44.6875 38.457031 44.6875 37.269531 C 44.6875 36.082031 43.722656 35.117188 42.53125 35.117188 Z M 42.53125 35.117188 " clip-rule="nonzero"/></clipPath><clipPath id="7a0e104fc8"><path d="M 0.378906 0.117188 L 4.6875 0.117188 L 4.6875 4.421875 L 0.378906 4.421875 Z M 0.378906 0.117188 " clip-rule="nonzero"/></clipPath><clipPath id="550dee0a08"><path d="M 2.53125 0.117188 C 1.34375 0.117188 0.378906 1.082031 0.378906 2.269531 C 0.378906 3.457031 1.34375 4.421875 2.53125 4.421875 C 3.722656 4.421875 4.6875 3.457031 4.6875 2.269531 C 4.6875 1.082031 3.722656 0.117188 2.53125 0.117188 Z M 2.53125 0.117188 " clip-rule="nonzero"/></clipPath><clipPath id="77e94f61c7"><rect x="0" width="5" y="0" height="5"/></clipPath><clipPath id="09a89ce2f8"><path d="M 49.433594 25.058594 L 53.738281 25.058594 L 53.738281 29.363281 L 49.433594 29.363281 Z M 49.433594 25.058594 " clip-rule="nonzero"/></clipPath><clipPath id="9abc760268"><path d="M 51.585938 25.058594 C 50.398438 25.058594 49.433594 26.023438 49.433594 27.210938 C 49.433594 28.398438 50.398438 29.363281 51.585938 29.363281 C 52.773438 29.363281 53.738281 28.398438 53.738281 27.210938 C 53.738281 26.023438 52.773438 25.058594 51.585938 25.058594 Z M 51.585938 25.058594 " clip-rule="nonzero"/></clipPath><clipPath id="385c03482d"><path d="M 0.433594 0.0585938 L 4.738281 0.0585938 L 4.738281 4.363281 L 0.433594 4.363281 Z M 0.433594 0.0585938 " clip-rule="nonzero"/></clipPath><clipPath id="7d22d9f467"><path d="M 2.585938 0.0585938 C 1.398438 0.0585938 0.433594 1.023438 0.433594 2.210938 C 0.433594 3.398438 1.398438 4.363281 2.585938 4.363281 C 3.773438 4.363281 4.738281 3.398438 4.738281 2.210938 C 4.738281 1.023438 3.773438 0.0585938 2.585938 0.0585938 Z M 2.585938 0.0585938 " clip-rule="nonzero"/></clipPath><clipPath id="bea15121b3"><rect x="0" width="5" y="0" height="5"/></clipPath><clipPath id="b642973ba6"><path d="M 49.433594 12 L 53.738281 12 L 53.738281 16.304688 L 49.433594 16.304688 Z M 49.433594 12 " clip-rule="nonzero"/></clipPath><clipPath id="8bce78b0e3"><path d="M 51.585938 12 C 50.398438 12 49.433594 12.964844 49.433594 14.152344 C 49.433594 15.339844 50.398438 16.304688 51.585938 16.304688 C 52.773438 16.304688 53.738281 15.339844 53.738281 14.152344 C 53.738281 12.964844 52.773438 12 51.585938 12 Z M 51.585938 12 " clip-rule="nonzero"/></clipPath><clipPath id="f019fa38f8"><path d="M 0.433594 0 L 4.738281 0 L 4.738281 4.304688 L 0.433594 4.304688 Z M 0.433594 0 " clip-rule="nonzero"/></clipPath><clipPath id="a46584f04d"><path d="M 2.585938 0 C 1.398438 0 0.433594 0.964844 0.433594 2.152344 C 0.433594 3.339844 1.398438 4.304688 2.585938 4.304688 C 3.773438 4.304688 4.738281 3.339844 4.738281 2.152344 C 4.738281 0.964844 3.773438 0 2.585938 0 Z M 2.585938 0 " clip-rule="nonzero"/></clipPath><clipPath id="d184fdfed2"><rect x="0" width="5" y="0" height="5"/></clipPath><clipPath id="124f8a8495"><path d="M 58.367188 35.117188 L 62.671875 35.117188 L 62.671875 39.421875 L 58.367188 39.421875 Z M 58.367188 35.117188 " clip-rule="nonzero"/></clipPath><clipPath id="cb71a84af3"><path d="M 60.519531 35.117188 C 59.328125 35.117188 58.367188 36.082031 58.367188 37.269531 C 58.367188 38.457031 59.328125 39.421875 60.519531 39.421875 C 61.707031 39.421875 62.671875 38.457031 62.671875 37.269531 C 62.671875 36.082031 61.707031 35.117188 60.519531 35.117188 Z M 60.519531 35.117188 " clip-rule="nonzero"/></clipPath><clipPath id="58e6c7b6a6"><path d="M 0.367188 0.117188 L 4.671875 0.117188 L 4.671875 4.421875 L 0.367188 4.421875 Z M 0.367188 0.117188 " clip-rule="nonzero"/></clipPath><clipPath id="5881a171e0"><path d="M 2.519531 0.117188 C 1.328125 0.117188 0.367188 1.082031 0.367188 2.269531 C 0.367188 3.457031 1.328125 4.421875 2.519531 4.421875 C 3.707031 4.421875 4.671875 3.457031 4.671875 2.269531 C 4.671875 1.082031 3.707031 0.117188 2.519531 0.117188 Z M 2.519531 0.117188 " clip-rule="nonzero"/></clipPath><clipPath id="d972badf13"><rect x="0" width="5" y="0" height="5"/></clipPath><clipPath id="4b8828a332"><path d="M 58.367188 42.617188 L 62.671875 42.617188 L 62.671875 46.921875 L 58.367188 46.921875 Z M 58.367188 42.617188 " clip-rule="nonzero"/></clipPath><clipPath id="38623a043c"><path d="M 60.519531 42.617188 C 59.328125 42.617188 58.367188 43.582031 58.367188 44.769531 C 58.367188 45.957031 59.328125 46.921875 60.519531 46.921875 C 61.707031 46.921875 62.671875 45.957031 62.671875 44.769531 C 62.671875 43.582031 61.707031 42.617188 60.519531 42.617188 Z M 60.519531 42.617188 " clip-rule="nonzero"/></clipPath><clipPath id="606a5e1070"><path d="M 0.367188 0.617188 L 4.671875 0.617188 L 4.671875 4.921875 L 0.367188 4.921875 Z M 0.367188 0.617188 " clip-rule="nonzero"/></clipPath><clipPath id="9b78146515"><path d="M 2.519531 0.617188 C 1.328125 0.617188 0.367188 1.582031 0.367188 2.769531 C 0.367188 3.957031 1.328125 4.921875 2.519531 4.921875 C 3.707031 4.921875 4.671875 3.957031 4.671875 2.769531 C 4.671875 1.582031 3.707031 0.617188 2.519531 0.617188 Z M 2.519531 0.617188 " clip-rule="nonzero"/></clipPath><clipPath id="aa1141b0c6"><rect x="0" width="5" y="0" height="5"/></clipPath><clipPath id="1bcef5c543"><path d="M 1 2 L 4.761719 2 L 4.761719 6 L 1 6 Z M 1 2 " clip-rule="nonzero"/></clipPath><clipPath id="01b3e65fe4"><rect x="0" width="5" y="0" height="8"/></clipPath><clipPath id="1feca4dd50"><path d="M 0.238281 2 L 4 2 L 4 6 L 0.238281 6 Z M 0.238281 2 " clip-rule="nonzero"/></clipPath><clipPath id="e12d23814d"><rect x="0" width="5" y="0" height="8"/></clipPath><clipPath id="6f91c5a485"><path d="M 1 2 L 4.800781 2 L 4.800781 6 L 1 6 Z M 1 2 " clip-rule="nonzero"/></clipPath><clipPath id="80b2e825c8"><rect x="0" width="5" y="0" height="8"/></clipPath><clipPath id="29a36ce016"><rect x="0" width="6" y="0" height="8"/></clipPath></defs><g clip-path="url(#a0fca25e18)"><g clip-path="url(#f70fc9955c)"><g transform="matrix(1, 0, 0, 1, 40, 42)"><g clip-path="url(#a00e8a943a)"><g clip-path="url(#5f772381e6)"><g clip-path="url(#98e9f3ef48)"><path fill="#00bf63" d="M 0.378906 0.617188 L 4.6875 0.617188 L 4.6875 4.921875 L 0.378906 4.921875 Z M 0.378906 0.617188 " fill-opacity="1" fill-rule="nonzero"/></g></g></g></g></g></g><g clip-path="url(#d10af11b1e)"><g clip-path="url(#b72c6ddf9a)"><g transform="matrix(1, 0, 0, 1, 9, 38)"><g clip-path="url(#934bdfca9b)"><g clip-path="url(#ce9082b49d)"><g clip-path="url(#ce3876f3df)"><path fill="#cc0000" d="M 0.285156 0.3125 L 4.589844 0.3125 L 4.589844 4.617188 L 0.285156 4.617188 Z M 0.285156 0.3125 " fill-opacity="1" fill-rule="nonzero"/></g></g></g></g></g></g><g clip-path="url(#833b9caf37)"><g clip-path="url(#750dc34602)"><g transform="matrix(1, 0, 0, 1, 1, 48)"><g clip-path="url(#623aea3338)"><g clip-path="url(#993171fe74)"><g clip-path="url(#cf5d6fcac2)"><path fill="#ffde59" d="M 0.230469 0.160156 L 4.535156 0.160156 L 4.535156 4.464844 L 0.230469 4.464844 Z M 0.230469 0.160156 " fill-opacity="1" fill-rule="nonzero"/></g></g></g></g></g></g><g clip-path="url(#e320f01a5c)"><g clip-path="url(#f82f039afe)"><g transform="matrix(1, 0, 0, 1, 49, 18)"><g clip-path="url(#6e20c233f8)"><g clip-path="url(#3c0497445f)"><g clip-path="url(#cf3feccabb)"><path fill="#ffffff" d="M 0.433594 0.554688 L 4.738281 0.554688 L 4.738281 4.859375 L 0.433594 4.859375 Z M 0.433594 0.554688 " fill-opacity="1" fill-rule="nonzero"/></g></g></g></g></g></g><g clip-path="url(#a35b3c7540)"><g clip-path="url(#3fdb5648a5)"><g transform="matrix(1, 0, 0, 1, 9, 48)"><g clip-path="url(#c298cfec3f)"><g clip-path="url(#eef1424080)"><g clip-path="url(#9a157cd9d8)"><path fill="#cc0000" d="M 0.285156 0.160156 L 4.589844 0.160156 L 4.589844 4.464844 L 0.285156 4.464844 Z M 0.285156 0.160156 " fill-opacity="1" fill-rule="nonzero"/></g></g></g></g></g></g><g clip-path="url(#0a3f3ead93)"><g clip-path="url(#b712cbe7b3)"><g transform="matrix(1, 0, 0, 1, 17, 38)"><g clip-path="url(#920ef1ca06)"><g clip-path="url(#9e53e4fcb6)"><g clip-path="url(#ce93af7085)"><path fill="#cc0000" d="M 0.339844 0.3125 L 4.644531 0.3125 L 4.644531 4.617188 L 0.339844 4.617188 Z M 0.339844 0.3125 " fill-opacity="1" fill-rule="nonzero"/></g></g></g></g></g></g><g clip-path="url(#8f67d8aaf4)"><g clip-path="url(#a6c479689f)"><g transform="matrix(1, 0, 0, 1, 17, 48)"><g clip-path="url(#bf17f3b343)"><g clip-path="url(#491f9940cc)"><g clip-path="url(#27567d648d)"><path fill="#cc0000" d="M 0.339844 0.160156 L 4.644531 0.160156 L 4.644531 4.464844 L 0.339844 4.464844 Z M 0.339844 0.160156 " fill-opacity="1" fill-rule="nonzero"/></g></g></g></g></g></g><g clip-path="url(#e34d339369)"><g clip-path="url(#5f3ed91694)"><g transform="matrix(1, 0, 0, 1, 25, 48)"><g clip-path="url(#652d82a930)"><g clip-path="url(#d01eaa761f)"><g clip-path="url(#f5338b1a36)"><path fill="#ffde59" d="M 0.613281 0.160156 L 4.917969 0.160156 L 4.917969 4.464844 L 0.613281 4.464844 Z M 0.613281 0.160156 " fill-opacity="1" fill-rule="nonzero"/></g></g></g></g></g></g><g clip-path="url(#ee6fed80f0)"><g clip-path="url(#21d060bb42)"><g transform="matrix(1, 0, 0, 1, 33, 48)"><g clip-path="url(#b8475dad04)"><g clip-path="url(#978ac0e443)"><g clip-path="url(#ec16ea22cf)"><path fill="#ffde59" d="M 0.886719 0.160156 L 5.191406 0.160156 L 5.191406 4.464844 L 0.886719 4.464844 Z M 0.886719 0.160156 " fill-opacity="1" fill-rule="nonzero"/></g></g></g></g></g></g><g clip-path="url(#e664e011db)"><g clip-path="url(#c2f49877fc)"><g transform="matrix(1, 0, 0, 1, 40, 35)"><g clip-path="url(#77e94f61c7)"><g clip-path="url(#7a0e104fc8)"><g clip-path="url(#550dee0a08)"><path fill="#00bf63" d="M 0.378906 0.117188 L 4.6875 0.117188 L 4.6875 4.421875 L 0.378906 4.421875 Z M 0.378906 0.117188 " fill-opacity="1" fill-rule="nonzero"/></g></g></g></g></g></g><g clip-path="url(#09a89ce2f8)"><g clip-path="url(#9abc760268)"><g transform="matrix(1, 0, 0, 1, 49, 25)"><g clip-path="url(#bea15121b3)"><g clip-path="url(#385c03482d)"><g clip-path="url(#7d22d9f467)"><path fill="#cc0000" d="M 0.433594 0.0585938 L 4.738281 0.0585938 L 4.738281 4.363281 L 0.433594 4.363281 Z M 0.433594 0.0585938 " fill-opacity="1" fill-rule="nonzero"/></g></g></g></g></g></g><g clip-path="url(#b642973ba6)"><g clip-path="url(#8bce78b0e3)"><g transform="matrix(1, 0, 0, 1, 49, 12)"><g clip-path="url(#d184fdfed2)"><g clip-path="url(#f019fa38f8)"><g clip-path="url(#a46584f04d)"><path fill="#cc0000" d="M 0.433594 0 L 4.738281 0 L 4.738281 4.304688 L 0.433594 4.304688 Z M 0.433594 0 " fill-opacity="1" fill-rule="nonzero"/></g></g></g></g></g></g><g clip-path="url(#124f8a8495)"><g clip-path="url(#cb71a84af3)"><g transform="matrix(1, 0, 0, 1, 58, 35)"><g clip-path="url(#d972badf13)"><g clip-path="url(#58e6c7b6a6)"><g clip-path="url(#5881a171e0)"><path fill="#cc0000" d="M 0.367188 0.117188 L 4.671875 0.117188 L 4.671875 4.421875 L 0.367188 4.421875 Z M 0.367188 0.117188 " fill-opacity="1" fill-rule="nonzero"/></g></g></g></g></g></g><g clip-path="url(#4b8828a332)"><g clip-path="url(#38623a043c)"><g transform="matrix(1, 0, 0, 1, 58, 42)"><g clip-path="url(#aa1141b0c6)"><g clip-path="url(#606a5e1070)"><g clip-path="url(#9b78146515)"><path fill="#cc0000" d="M 0.367188 0.617188 L 4.671875 0.617188 L 4.671875 4.921875 L 0.367188 4.921875 Z M 0.367188 0.617188 " fill-opacity="1" fill-rule="nonzero"/></g></g></g></g></g></g><path stroke-linecap="butt" transform="matrix(0.75, 0.00000000000000011, -0.00000000000000011, 0.75, -0.487804, 56.116816)" fill="none" stroke-linejoin="miter" d="M -0.000636126 0.500495 L 96.65041 0.500495 " stroke="#ffffff" stroke-width="1" stroke-opacity="1" stroke-miterlimit="4"/><g transform="matrix(1, 0, 0, 1, 13, 58)"><g clip-path="url(#01b3e65fe4)"><g clip-path="url(#1bcef5c543)"><g fill="#ffffff" fill-opacity="1"><g transform="translate(0.980587, 5.63333)"><g><path d="M 3.21875 0 L 2.765625 0 L 2.4375 -0.984375 L 0.90625 -0.984375 L 0.578125 0 L 0.140625 0 L 1.390625 -3.5625 L 1.96875 -3.5625 Z M 1.640625 -3.140625 L 1.03125 -1.328125 L 2.3125 -1.328125 L 1.703125 -3.140625 Z M 1.640625 -3.140625 "/></g></g></g></g></g></g><g transform="matrix(1, 0, 0, 1, 30, 58)"><g clip-path="url(#e12d23814d)"><g clip-path="url(#1feca4dd50)"><g fill="#ffffff" fill-opacity="1"><g transform="translate(0.448069, 5.63333)"><g><path d="M 0.546875 0 L 0.546875 -3.5625 L 1.890625 -3.5625 C 2.109375 -3.5625 2.296875 -3.523438 2.453125 -3.453125 C 2.609375 -3.390625 2.722656 -3.289062 2.796875 -3.15625 C 2.867188 -3.03125 2.90625 -2.878906 2.90625 -2.703125 C 2.90625 -2.546875 2.863281 -2.40625 2.78125 -2.28125 C 2.695312 -2.15625 2.578125 -2.054688 2.421875 -1.984375 L 2.421875 -1.9375 C 2.660156 -1.875 2.84375 -1.765625 2.96875 -1.609375 C 3.09375 -1.460938 3.15625 -1.269531 3.15625 -1.03125 C 3.15625 -0.695312 3.054688 -0.441406 2.859375 -0.265625 C 2.660156 -0.0859375 2.375 0 2 0 Z M 1.875 -2.078125 C 2.070312 -2.078125 2.222656 -2.125 2.328125 -2.21875 C 2.441406 -2.320312 2.5 -2.46875 2.5 -2.65625 C 2.5 -2.84375 2.445312 -2.984375 2.34375 -3.078125 C 2.238281 -3.171875 2.082031 -3.21875 1.875 -3.21875 L 0.953125 -3.21875 L 0.953125 -2.078125 Z M 1.96875 -0.34375 C 2.46875 -0.34375 2.71875 -0.570312 2.71875 -1.03125 C 2.71875 -1.488281 2.46875 -1.71875 1.96875 -1.71875 L 0.953125 -1.71875 L 0.953125 -0.34375 Z M 1.96875 -0.34375 "/></g></g></g></g></g></g><g transform="matrix(1, 0, 0, 1, 54, 58)"><g clip-path="url(#80b2e825c8)"><g clip-path="url(#6f91c5a485)"><g fill="#ffffff" fill-opacity="1"><g transform="translate(0.895515, 5.63333)"><g><path d="M 1.96875 0.046875 C 1.65625 0.046875 1.375 -0.0195312 1.125 -0.15625 C 0.882812 -0.300781 0.695312 -0.507812 0.5625 -0.78125 C 0.425781 -1.0625 0.359375 -1.394531 0.359375 -1.78125 C 0.359375 -2.164062 0.425781 -2.492188 0.5625 -2.765625 C 0.695312 -3.046875 0.882812 -3.257812 1.125 -3.40625 C 1.375 -3.550781 1.65625 -3.625 1.96875 -3.625 C 2.300781 -3.625 2.578125 -3.5625 2.796875 -3.4375 C 3.023438 -3.3125 3.1875 -3.117188 3.28125 -2.859375 L 3.015625 -2.6875 L 2.953125 -2.6875 C 2.859375 -2.882812 2.734375 -3.023438 2.578125 -3.109375 C 2.421875 -3.203125 2.21875 -3.25 1.96875 -3.25 C 1.75 -3.25 1.550781 -3.195312 1.375 -3.09375 C 1.195312 -2.988281 1.054688 -2.828125 0.953125 -2.609375 C 0.859375 -2.398438 0.8125 -2.125 0.8125 -1.78125 C 0.8125 -1.445312 0.859375 -1.171875 0.953125 -0.953125 C 1.054688 -0.734375 1.195312 -0.570312 1.375 -0.46875 C 1.550781 -0.375 1.75 -0.328125 1.96875 -0.328125 C 2.226562 -0.328125 2.441406 -0.382812 2.609375 -0.5 C 2.773438 -0.613281 2.894531 -0.800781 2.96875 -1.0625 L 3.03125 -1.0625 L 3.3125 -0.921875 C 3.226562 -0.609375 3.070312 -0.367188 2.84375 -0.203125 C 2.613281 -0.0351562 2.320312 0.046875 1.96875 0.046875 Z M 1.96875 0.046875 "/></g></g></g></g></g></g><g transform="matrix(1, 0, 0, 1, 65, 58)"><g clip-path="url(#29a36ce016)"><g fill="#ffffff" fill-opacity="1"><g transform="translate(0.69903, 5.63333)"><g><path d="M 1.6875 -3.5625 C 2.050781 -3.5625 2.363281 -3.5 2.625 -3.375 C 2.882812 -3.25 3.082031 -3.050781 3.21875 -2.78125 C 3.363281 -2.519531 3.4375 -2.1875 3.4375 -1.78125 C 3.4375 -1.382812 3.363281 -1.050781 3.21875 -0.78125 C 3.082031 -0.519531 2.882812 -0.320312 2.625 -0.1875 C 2.363281 -0.0625 2.050781 0 1.6875 0 L 0.546875 0 L 0.546875 -3.5625 Z M 1.65625 -0.359375 C 1.945312 -0.359375 2.191406 -0.40625 2.390625 -0.5 C 2.585938 -0.59375 2.734375 -0.742188 2.828125 -0.953125 C 2.929688 -1.160156 2.984375 -1.4375 2.984375 -1.78125 C 2.984375 -2.132812 2.929688 -2.414062 2.828125 -2.625 C 2.734375 -2.832031 2.585938 -2.984375 2.390625 -3.078125 C 2.191406 -3.171875 1.945312 -3.21875 1.65625 -3.21875 L 0.953125 -3.21875 L 0.953125 -0.359375 Z M 1.65625 -0.359375 "/></g></g></g></g></g></svg>