<svg xmlns="http://www.w3.org/2000/svg" xmlns:xlink="http://www.w3.org/1999/xlink" width="96" zoomAndPan="magnify" viewBox="0 0 72 72" height="96" preserveAspectRatio="xMidYMid meet" version="1.0"><defs><clipPath id="0ec7fc9761"><path d="M 28.015625 27.128906 L 43.984375 27.128906 L 43.984375 44.90625 L 28.015625 44.90625 Z M 28.015625 27.128906 " clip-rule="nonzero"/></clipPath><clipPath id="8c95851b73"><path d="M 36 27.128906 L 43.984375 36 L 36 44.871094 L 28.015625 36 Z M 36 27.128906 " clip-rule="nonzero"/></clipPath><clipPath id="ca71e08418"><path d="M 0.015625 0.128906 L 15.984375 0.128906 L 15.984375 17.878906 L 0.015625 17.878906 Z M 0.015625 0.128906 " clip-rule="nonzero"/></clipPath><clipPath id="8358ba362f"><path d="M 8 0.128906 L 15.984375 9 L 8 17.871094 L 0.015625 9 Z M 8 0.128906 " clip-rule="nonzero"/></clipPath><clipPath id="541625f43d"><rect x="0" width="16" y="0" height="18"/></clipPath></defs><path stroke-linecap="butt" transform="matrix(0, 0.75, -0.75, 0, 36.374998, 0.000002)" fill="none" stroke-linejoin="miter" d="M -0.00000266667 0.499998 L 96.000001 0.499998 " stroke="#000000" stroke-width="1" stroke-opacity="1" stroke-miterlimit="4"/><g clip-path="url(#0ec7fc9761)"><g clip-path="url(#8c95851b73)"><g transform="matrix(1, 0, 0, 1, 28, 27)"><g clip-path="url(#541625f43d)"><g clip-path="url(#ca71e08418)"><g clip-path="url(#8358ba362f)"><path fill="#000000" d="M 0.015625 0.128906 L 15.984375 0.128906 L 15.984375 17.84375 L 0.015625 17.84375 Z M 0.015625 0.128906 " fill-opacity="1" fill-rule="nonzero"/></g></g></g></g></g></g></svg>