<svg xmlns="http://www.w3.org/2000/svg" xmlns:xlink="http://www.w3.org/1999/xlink" width="96" zoomAndPan="magnify" viewBox="0 0 72 72" height="96" preserveAspectRatio="xMidYMid meet" version="1.0"><defs><clipPath id="2350150c3e"><path d="M 27.148438 27.148438 L 44.851562 27.148438 L 44.851562 44.851562 L 27.148438 44.851562 Z M 27.148438 27.148438 " clip-rule="nonzero"/></clipPath><clipPath id="d63b7601a6"><path d="M 36 27.148438 C 31.113281 27.148438 27.148438 31.113281 27.148438 36 C 27.148438 40.886719 31.113281 44.851562 36 44.851562 C 40.886719 44.851562 44.851562 40.886719 44.851562 36 C 44.851562 31.113281 40.886719 27.148438 36 27.148438 Z M 36 27.148438 " clip-rule="nonzero"/></clipPath><clipPath id="27316a7792"><path d="M 0.148438 0.148438 L 17.851562 0.148438 L 17.851562 17.851562 L 0.148438 17.851562 Z M 0.148438 0.148438 " clip-rule="nonzero"/></clipPath><clipPath id="f186e816e1"><path d="M 9 0.148438 C 4.113281 0.148438 0.148438 4.113281 0.148438 9 C 0.148438 13.886719 4.113281 17.851562 9 17.851562 C 13.886719 17.851562 17.851562 13.886719 17.851562 9 C 17.851562 4.113281 13.886719 0.148438 9 0.148438 Z M 9 0.148438 " clip-rule="nonzero"/></clipPath><clipPath id="d5fd17c59f"><rect x="0" width="18" y="0" height="18"/></clipPath></defs><path stroke-linecap="butt" transform="matrix(0, 0.75, -0.75, 0, 36.374998, 0.000002)" fill="none" stroke-linejoin="miter" d="M -0.00000266667 0.499998 L 96.000001 0.499998 " stroke="#000000" stroke-width="1" stroke-opacity="1" stroke-miterlimit="4"/><g clip-path="url(#2350150c3e)"><g clip-path="url(#d63b7601a6)"><g transform="matrix(1, 0, 0, 1, 27, 27)"><g clip-path="url(#d5fd17c59f)"><g clip-path="url(#27316a7792)"><g clip-path="url(#f186e816e1)"><path fill="#222222" d="M 0.148438 0.148438 L 17.851562 0.148438 L 17.851562 17.851562 L 0.148438 17.851562 Z M 0.148438 0.148438 " fill-opacity="1" fill-rule="nonzero"/></g></g></g></g></g></g></svg>