<svg xmlns="http://www.w3.org/2000/svg" xmlns:xlink="http://www.w3.org/1999/xlink" width="96" zoomAndPan="magnify" viewBox="0 0 72 72" height="96" preserveAspectRatio="xMidYMid meet" version="1.0"><defs><clipPath id="2fa7c901d8"><path d="M 30.824219 3.976562 L 41.175781 3.976562 L 41.175781 14.324219 L 30.824219 14.324219 Z M 30.824219 3.976562 " clip-rule="nonzero"/></clipPath><clipPath id="bb586658b9"><path d="M 36 3.976562 C 33.140625 3.976562 30.824219 6.292969 30.824219 9.148438 C 30.824219 12.007812 33.140625 14.324219 36 14.324219 C 38.859375 14.324219 41.175781 12.007812 41.175781 9.148438 C 41.175781 6.292969 38.859375 3.976562 36 3.976562 Z M 36 3.976562 " clip-rule="nonzero"/></clipPath><clipPath id="67ed218757"><path d="M 0.824219 0.976562 L 11.175781 0.976562 L 11.175781 11.324219 L 0.824219 11.324219 Z M 0.824219 0.976562 " clip-rule="nonzero"/></clipPath><clipPath id="4c6bfd0e1a"><path d="M 6 0.976562 C 3.140625 0.976562 0.824219 3.292969 0.824219 6.148438 C 0.824219 9.007812 3.140625 11.324219 6 11.324219 C 8.859375 11.324219 11.175781 9.007812 11.175781 6.148438 C 11.175781 3.292969 8.859375 0.976562 6 0.976562 Z M 6 0.976562 " clip-rule="nonzero"/></clipPath><clipPath id="fce472d6aa"><rect x="0" width="12" y="0" height="12"/></clipPath><clipPath id="9f86dd8a74"><path d="M 10.800781 54.449219 L 21.148438 54.449219 L 21.148438 64.800781 L 10.800781 64.800781 Z M 10.800781 54.449219 " clip-rule="nonzero"/></clipPath><clipPath id="fab7944c59"><path d="M 15.976562 54.449219 C 13.117188 54.449219 10.800781 56.765625 10.800781 59.625 C 10.800781 62.484375 13.117188 64.800781 15.976562 64.800781 C 18.832031 64.800781 21.148438 62.484375 21.148438 59.625 C 21.148438 56.765625 18.832031 54.449219 15.976562 54.449219 Z M 15.976562 54.449219 " clip-rule="nonzero"/></clipPath><clipPath id="bbf57be4b8"><path d="M 0.800781 0.449219 L 11.148438 0.449219 L 11.148438 10.800781 L 0.800781 10.800781 Z M 0.800781 0.449219 " clip-rule="nonzero"/></clipPath><clipPath id="d9a20dad91"><path d="M 5.976562 0.449219 C 3.117188 0.449219 0.800781 2.765625 0.800781 5.625 C 0.800781 8.484375 3.117188 10.800781 5.976562 10.800781 C 8.832031 10.800781 11.148438 8.484375 11.148438 5.625 C 11.148438 2.765625 8.832031 0.449219 5.976562 0.449219 Z M 5.976562 0.449219 " clip-rule="nonzero"/></clipPath><clipPath id="2fbc2aa0af"><rect x="0" width="12" y="0" height="11"/></clipPath><clipPath id="8ac1808e57"><path d="M 50.851562 54.449219 L 61.199219 54.449219 L 61.199219 64.800781 L 50.851562 64.800781 Z M 50.851562 54.449219 " clip-rule="nonzero"/></clipPath><clipPath id="86a6bdf9a5"><path d="M 56.023438 54.449219 C 53.167969 54.449219 50.851562 56.765625 50.851562 59.625 C 50.851562 62.484375 53.167969 64.800781 56.023438 64.800781 C 58.882812 64.800781 61.199219 62.484375 61.199219 59.625 C 61.199219 56.765625 58.882812 54.449219 56.023438 54.449219 Z M 56.023438 54.449219 " clip-rule="nonzero"/></clipPath><clipPath id="a16f20a160"><path d="M 0.851562 0.449219 L 11.199219 0.449219 L 11.199219 10.800781 L 0.851562 10.800781 Z M 0.851562 0.449219 " clip-rule="nonzero"/></clipPath><clipPath id="8b7fb8ccb0"><path d="M 6.023438 0.449219 C 3.167969 0.449219 0.851562 2.765625 0.851562 5.625 C 0.851562 8.484375 3.167969 10.800781 6.023438 10.800781 C 8.882812 10.800781 11.199219 8.484375 11.199219 5.625 C 11.199219 2.765625 8.882812 0.449219 6.023438 0.449219 Z M 6.023438 0.449219 " clip-rule="nonzero"/></clipPath><clipPath id="a78538dbb0"><rect x="0" width="12" y="0" height="11"/></clipPath><clipPath id="cfb74ebcf0"><path d="M 30.824219 15.824219 L 41.175781 15.824219 L 41.175781 26.175781 L 30.824219 26.175781 Z M 30.824219 15.824219 " clip-rule="nonzero"/></clipPath><clipPath id="3480186b3a"><path d="M 36 15.824219 C 33.140625 15.824219 30.824219 18.140625 30.824219 21 C 30.824219 23.859375 33.140625 26.175781 36 26.175781 C 38.859375 26.175781 41.175781 23.859375 41.175781 21 C 41.175781 18.140625 38.859375 15.824219 36 15.824219 Z M 36 15.824219 " clip-rule="nonzero"/></clipPath><clipPath id="cd746fcbe9"><path d="M 0.824219 0.824219 L 11.175781 0.824219 L 11.175781 11.175781 L 0.824219 11.175781 Z M 0.824219 0.824219 " clip-rule="nonzero"/></clipPath><clipPath id="ecc65d38dc"><path d="M 6 0.824219 C 3.140625 0.824219 0.824219 3.140625 0.824219 6 C 0.824219 8.859375 3.140625 11.175781 6 11.175781 C 8.859375 11.175781 11.175781 8.859375 11.175781 6 C 11.175781 3.140625 8.859375 0.824219 6 0.824219 Z M 6 0.824219 " clip-rule="nonzero"/></clipPath><clipPath id="f790f553f7"><rect x="0" width="12" y="0" height="12"/></clipPath><clipPath id="7846fa2c1a"><path d="M 30.824219 27.675781 L 41.175781 27.675781 L 41.175781 38.023438 L 30.824219 38.023438 Z M 30.824219 27.675781 " clip-rule="nonzero"/></clipPath><clipPath id="9a3601a065"><path d="M 36 27.675781 C 33.140625 27.675781 30.824219 29.992188 30.824219 32.851562 C 30.824219 35.707031 33.140625 38.023438 36 38.023438 C 38.859375 38.023438 41.175781 35.707031 41.175781 32.851562 C 41.175781 29.992188 38.859375 27.675781 36 27.675781 Z M 36 27.675781 " clip-rule="nonzero"/></clipPath><clipPath id="4af8b0178d"><path d="M 0.824219 0.675781 L 11.175781 0.675781 L 11.175781 11.023438 L 0.824219 11.023438 Z M 0.824219 0.675781 " clip-rule="nonzero"/></clipPath><clipPath id="ce13506733"><path d="M 6 0.675781 C 3.140625 0.675781 0.824219 2.992188 0.824219 5.851562 C 0.824219 8.707031 3.140625 11.023438 6 11.023438 C 8.859375 11.023438 11.175781 8.707031 11.175781 5.851562 C 11.175781 2.992188 8.859375 0.675781 6 0.675781 Z M 6 0.675781 " clip-rule="nonzero"/></clipPath><clipPath id="855585d131"><rect x="0" width="12" y="0" height="12"/></clipPath><clipPath id="0123bdfa4a"><path d="M 30.824219 39.523438 L 41.175781 39.523438 L 41.175781 49.875 L 30.824219 49.875 Z M 30.824219 39.523438 " clip-rule="nonzero"/></clipPath><clipPath id="4e42acfdf1"><path d="M 36 39.523438 C 33.140625 39.523438 30.824219 41.84375 30.824219 44.699219 C 30.824219 47.558594 33.140625 49.875 36 49.875 C 38.859375 49.875 41.175781 47.558594 41.175781 44.699219 C 41.175781 41.84375 38.859375 39.523438 36 39.523438 Z M 36 39.523438 " clip-rule="nonzero"/></clipPath><clipPath id="d8f5bd3be1"><path d="M 0.824219 0.523438 L 11.175781 0.523438 L 11.175781 10.875 L 0.824219 10.875 Z M 0.824219 0.523438 " clip-rule="nonzero"/></clipPath><clipPath id="8e699302ff"><path d="M 6 0.523438 C 3.140625 0.523438 0.824219 2.84375 0.824219 5.699219 C 0.824219 8.558594 3.140625 10.875 6 10.875 C 8.859375 10.875 11.175781 8.558594 11.175781 5.699219 C 11.175781 2.84375 8.859375 0.523438 6 0.523438 Z M 6 0.523438 " clip-rule="nonzero"/></clipPath><clipPath id="d257798303"><rect x="0" width="12" y="0" height="11"/></clipPath></defs><g clip-path="url(#2fa7c901d8)"><g clip-path="url(#bb586658b9)"><g transform="matrix(1, 0, 0, 1, 30, 3)"><g clip-path="url(#fce472d6aa)"><g clip-path="url(#67ed218757)"><g clip-path="url(#4c6bfd0e1a)"><path fill="#ffffff" d="M 0.824219 0.976562 L 11.175781 0.976562 L 11.175781 11.324219 L 0.824219 11.324219 Z M 0.824219 0.976562 " fill-opacity="1" fill-rule="nonzero"/></g></g></g></g></g></g><g clip-path="url(#9f86dd8a74)"><g clip-path="url(#fab7944c59)"><g transform="matrix(1, 0, 0, 1, 10, 54)"><g clip-path="url(#2fbc2aa0af)"><g clip-path="url(#bbf57be4b8)"><g clip-path="url(#d9a20dad91)"><path fill="#00bf63" d="M 0.800781 0.449219 L 11.148438 0.449219 L 11.148438 10.800781 L 0.800781 10.800781 Z M 0.800781 0.449219 " fill-opacity="1" fill-rule="nonzero"/></g></g></g></g></g></g><g clip-path="url(#8ac1808e57)"><g clip-path="url(#86a6bdf9a5)"><g transform="matrix(1, 0, 0, 1, 50, 54)"><g clip-path="url(#a78538dbb0)"><g clip-path="url(#a16f20a160)"><g clip-path="url(#8b7fb8ccb0)"><path fill="#cc0000" d="M 0.851562 0.449219 L 11.199219 0.449219 L 11.199219 10.800781 L 0.851562 10.800781 Z M 0.851562 0.449219 " fill-opacity="1" fill-rule="nonzero"/></g></g></g></g></g></g><g clip-path="url(#cfb74ebcf0)"><g clip-path="url(#3480186b3a)"><g transform="matrix(1, 0, 0, 1, 30, 15)"><g clip-path="url(#f790f553f7)"><g clip-path="url(#cd746fcbe9)"><g clip-path="url(#ecc65d38dc)"><path fill="#ffffff" d="M 0.824219 0.824219 L 11.175781 0.824219 L 11.175781 11.175781 L 0.824219 11.175781 Z M 0.824219 0.824219 " fill-opacity="1" fill-rule="nonzero"/></g></g></g></g></g></g><g clip-path="url(#7846fa2c1a)"><g clip-path="url(#9a3601a065)"><g transform="matrix(1, 0, 0, 1, 30, 27)"><g clip-path="url(#855585d131)"><g clip-path="url(#4af8b0178d)"><g clip-path="url(#ce13506733)"><path fill="#ffffff" d="M 0.824219 0.675781 L 11.175781 0.675781 L 11.175781 11.023438 L 0.824219 11.023438 Z M 0.824219 0.675781 " fill-opacity="1" fill-rule="nonzero"/></g></g></g></g></g></g><g clip-path="url(#0123bdfa4a)"><g clip-path="url(#4e42acfdf1)"><g transform="matrix(1, 0, 0, 1, 30, 39)"><g clip-path="url(#d257798303)"><g clip-path="url(#d8f5bd3be1)"><g clip-path="url(#8e699302ff)"><path fill="#ffffff" d="M 0.824219 0.523438 L 11.175781 0.523438 L 11.175781 10.875 L 0.824219 10.875 Z M 0.824219 0.523438 " fill-opacity="1" fill-rule="nonzero"/></g></g></g></g></g></g></svg>