<svg xmlns="http://www.w3.org/2000/svg" xmlns:xlink="http://www.w3.org/1999/xlink" width="96" zoomAndPan="magnify" viewBox="0 0 72 72" height="96" preserveAspectRatio="xMidYMid meet" version="1.0"><defs><clipPath id="5e066f739e"><path d="M 54.449219 24 L 64.800781 24 L 64.800781 34.351562 L 54.449219 34.351562 Z M 54.449219 24 " clip-rule="nonzero"/></clipPath><clipPath id="b60fb3461d"><path d="M 59.625 24 C 56.765625 24 54.449219 26.316406 54.449219 29.175781 C 54.449219 32.03125 56.765625 34.351562 59.625 34.351562 C 62.484375 34.351562 64.800781 32.03125 64.800781 29.175781 C 64.800781 26.316406 62.484375 24 59.625 24 Z M 59.625 24 " clip-rule="nonzero"/></clipPath><clipPath id="eb5de0d614"><path d="M 0.449219 0 L 10.800781 0 L 10.800781 10.351562 L 0.449219 10.351562 Z M 0.449219 0 " clip-rule="nonzero"/></clipPath><clipPath id="2cdda86a1c"><path d="M 5.625 0 C 2.765625 0 0.449219 2.316406 0.449219 5.175781 C 0.449219 8.03125 2.765625 10.351562 5.625 10.351562 C 8.484375 10.351562 10.800781 8.03125 10.800781 5.175781 C 10.800781 2.316406 8.484375 0 5.625 0 Z M 5.625 0 " clip-rule="nonzero"/></clipPath><clipPath id="c64ecfbc55"><rect x="0" width="11" y="0" height="11"/></clipPath><clipPath id="d813465259"><path d="M 7.199219 49.648438 L 17.550781 49.648438 L 17.550781 60 L 7.199219 60 Z M 7.199219 49.648438 " clip-rule="nonzero"/></clipPath><clipPath id="0e03f736ee"><path d="M 12.375 49.648438 C 9.515625 49.648438 7.199219 51.96875 7.199219 54.824219 C 7.199219 57.683594 9.515625 60 12.375 60 C 15.234375 60 17.550781 57.683594 17.550781 54.824219 C 17.550781 51.96875 15.234375 49.648438 12.375 49.648438 Z M 12.375 49.648438 " clip-rule="nonzero"/></clipPath><clipPath id="e73e21d247"><path d="M 0.199219 0.648438 L 10.550781 0.648438 L 10.550781 11 L 0.199219 11 Z M 0.199219 0.648438 " clip-rule="nonzero"/></clipPath><clipPath id="988086190b"><path d="M 5.375 0.648438 C 2.515625 0.648438 0.199219 2.96875 0.199219 5.824219 C 0.199219 8.683594 2.515625 11 5.375 11 C 8.234375 11 10.550781 8.683594 10.550781 5.824219 C 10.550781 2.96875 8.234375 0.648438 5.375 0.648438 Z M 5.375 0.648438 " clip-rule="nonzero"/></clipPath><clipPath id="289424e56d"><rect x="0" width="11" y="0" height="11"/></clipPath></defs><g clip-path="url(#5e066f739e)"><g clip-path="url(#b60fb3461d)"><g transform="matrix(1, 0, 0, 1, 54, 24)"><g clip-path="url(#c64ecfbc55)"><g clip-path="url(#eb5de0d614)"><g clip-path="url(#2cdda86a1c)"><path fill="#ffffff" d="M 0.449219 0 L 10.800781 0 L 10.800781 10.351562 L 0.449219 10.351562 Z M 0.449219 0 " fill-opacity="1" fill-rule="nonzero"/></g></g></g></g></g></g><g clip-path="url(#d813465259)"><g clip-path="url(#0e03f736ee)"><g transform="matrix(1, 0, 0, 1, 7, 49)"><g clip-path="url(#289424e56d)"><g clip-path="url(#e73e21d247)"><g clip-path="url(#988086190b)"><path fill="#ffffff" d="M 0.199219 0.648438 L 10.550781 0.648438 L 10.550781 11 L 0.199219 11 Z M 0.199219 0.648438 " fill-opacity="1" fill-rule="nonzero"/></g></g></g></g></g></g></svg>