<svg xmlns="http://www.w3.org/2000/svg" xmlns:xlink="http://www.w3.org/1999/xlink" width="96" zoomAndPan="magnify" viewBox="0 0 72 72" height="96" preserveAspectRatio="xMidYMid meet" version="1.0"><defs><clipPath id="a5e621c04f"><path d="M 30.824219 30.824219 L 41.175781 30.824219 L 41.175781 41.175781 L 30.824219 41.175781 Z M 30.824219 30.824219 " clip-rule="nonzero"/></clipPath><clipPath id="0ce9bdfbc6"><path d="M 36 30.824219 C 33.140625 30.824219 30.824219 33.140625 30.824219 36 C 30.824219 38.859375 33.140625 41.175781 36 41.175781 C 38.859375 41.175781 41.175781 38.859375 41.175781 36 C 41.175781 33.140625 38.859375 30.824219 36 30.824219 Z M 36 30.824219 " clip-rule="nonzero"/></clipPath><clipPath id="c7054a3b4a"><path d="M 0.824219 0.824219 L 11.175781 0.824219 L 11.175781 11.175781 L 0.824219 11.175781 Z M 0.824219 0.824219 " clip-rule="nonzero"/></clipPath><clipPath id="3a07813425"><path d="M 6 0.824219 C 3.140625 0.824219 0.824219 3.140625 0.824219 6 C 0.824219 8.859375 3.140625 11.175781 6 11.175781 C 8.859375 11.175781 11.175781 8.859375 11.175781 6 C 11.175781 3.140625 8.859375 0.824219 6 0.824219 Z M 6 0.824219 " clip-rule="nonzero"/></clipPath><clipPath id="19ce245e0a"><rect x="0" width="12" y="0" height="12"/></clipPath><clipPath id="2ede165155"><path d="M 30.824219 18.824219 L 41.175781 18.824219 L 41.175781 29.175781 L 30.824219 29.175781 Z M 30.824219 18.824219 " clip-rule="nonzero"/></clipPath><clipPath id="109842db3c"><path d="M 36 18.824219 C 33.140625 18.824219 30.824219 21.140625 30.824219 24 C 30.824219 26.859375 33.140625 29.175781 36 29.175781 C 38.859375 29.175781 41.175781 26.859375 41.175781 24 C 41.175781 21.140625 38.859375 18.824219 36 18.824219 Z M 36 18.824219 " clip-rule="nonzero"/></clipPath><clipPath id="7b5a584af3"><path d="M 0.824219 0.824219 L 11.175781 0.824219 L 11.175781 11.175781 L 0.824219 11.175781 Z M 0.824219 0.824219 " clip-rule="nonzero"/></clipPath><clipPath id="775e6ca4ab"><path d="M 6 0.824219 C 3.140625 0.824219 0.824219 3.140625 0.824219 6 C 0.824219 8.859375 3.140625 11.175781 6 11.175781 C 8.859375 11.175781 11.175781 8.859375 11.175781 6 C 11.175781 3.140625 8.859375 0.824219 6 0.824219 Z M 6 0.824219 " clip-rule="nonzero"/></clipPath><clipPath id="e23d947349"><rect x="0" width="12" y="0" height="12"/></clipPath><clipPath id="93768b4b51"><path d="M 30.824219 42.824219 L 41.175781 42.824219 L 41.175781 53.175781 L 30.824219 53.175781 Z M 30.824219 42.824219 " clip-rule="nonzero"/></clipPath><clipPath id="35fd3a3607"><path d="M 36 42.824219 C 33.140625 42.824219 30.824219 45.140625 30.824219 48 C 30.824219 50.859375 33.140625 53.175781 36 53.175781 C 38.859375 53.175781 41.175781 50.859375 41.175781 48 C 41.175781 45.140625 38.859375 42.824219 36 42.824219 Z M 36 42.824219 " clip-rule="nonzero"/></clipPath><clipPath id="a036507ba3"><path d="M 0.824219 0.824219 L 11.175781 0.824219 L 11.175781 11.175781 L 0.824219 11.175781 Z M 0.824219 0.824219 " clip-rule="nonzero"/></clipPath><clipPath id="eb511996b8"><path d="M 6 0.824219 C 3.140625 0.824219 0.824219 3.140625 0.824219 6 C 0.824219 8.859375 3.140625 11.175781 6 11.175781 C 8.859375 11.175781 11.175781 8.859375 11.175781 6 C 11.175781 3.140625 8.859375 0.824219 6 0.824219 Z M 6 0.824219 " clip-rule="nonzero"/></clipPath><clipPath id="17faf3278d"><rect x="0" width="12" y="0" height="12"/></clipPath></defs><g clip-path="url(#a5e621c04f)"><g clip-path="url(#0ce9bdfbc6)"><g transform="matrix(1, 0, 0, 1, 30, 30)"><g clip-path="url(#19ce245e0a)"><g clip-path="url(#c7054a3b4a)"><g clip-path="url(#3a07813425)"><path fill="#ffffff" d="M 0.824219 0.824219 L 11.175781 0.824219 L 11.175781 11.175781 L 0.824219 11.175781 Z M 0.824219 0.824219 " fill-opacity="1" fill-rule="nonzero"/></g></g></g></g></g></g><g clip-path="url(#2ede165155)"><g clip-path="url(#109842db3c)"><g transform="matrix(1, 0, 0, 1, 30, 18)"><g clip-path="url(#e23d947349)"><g clip-path="url(#7b5a584af3)"><g clip-path="url(#775e6ca4ab)"><path fill="#cc0000" d="M 0.824219 0.824219 L 11.175781 0.824219 L 11.175781 11.175781 L 0.824219 11.175781 Z M 0.824219 0.824219 " fill-opacity="1" fill-rule="nonzero"/></g></g></g></g></g></g><g clip-path="url(#93768b4b51)"><g clip-path="url(#35fd3a3607)"><g transform="matrix(1, 0, 0, 1, 30, 42)"><g clip-path="url(#17faf3278d)"><g clip-path="url(#a036507ba3)"><g clip-path="url(#eb511996b8)"><path fill="#cc0000" d="M 0.824219 0.824219 L 11.175781 0.824219 L 11.175781 11.175781 L 0.824219 11.175781 Z M 0.824219 0.824219 " fill-opacity="1" fill-rule="nonzero"/></g></g></g></g></g></g></svg>