<svg xmlns="http://www.w3.org/2000/svg" xmlns:xlink="http://www.w3.org/1999/xlink" width="96" zoomAndPan="magnify" viewBox="0 0 72 72" height="96" preserveAspectRatio="xMidYMid meet" version="1.0"><defs><clipPath id="295e4c225b"><path d="M 28.078125 27.449219 L 35.28125 27.449219 L 35.28125 34.648438 L 28.078125 34.648438 Z M 28.078125 27.449219 " clip-rule="nonzero"/></clipPath><clipPath id="b22e508e4c"><path d="M 31.679688 27.449219 C 29.691406 27.449219 28.078125 29.0625 28.078125 31.050781 C 28.078125 33.039062 29.691406 34.648438 31.679688 34.648438 C 33.667969 34.648438 35.28125 33.039062 35.28125 31.050781 C 35.28125 29.0625 33.667969 27.449219 31.679688 27.449219 Z M 31.679688 27.449219 " clip-rule="nonzero"/></clipPath><clipPath id="83c9d17893"><path d="M 0.078125 0.449219 L 7.28125 0.449219 L 7.28125 7.648438 L 0.078125 7.648438 Z M 0.078125 0.449219 " clip-rule="nonzero"/></clipPath><clipPath id="2d466becff"><path d="M 3.679688 0.449219 C 1.691406 0.449219 0.078125 2.0625 0.078125 4.050781 C 0.078125 6.039062 1.691406 7.648438 3.679688 7.648438 C 5.667969 7.648438 7.28125 6.039062 7.28125 4.050781 C 7.28125 2.0625 5.667969 0.449219 3.679688 0.449219 Z M 3.679688 0.449219 " clip-rule="nonzero"/></clipPath><clipPath id="ac343b1646"><rect x="0" width="8" y="0" height="8"/></clipPath><clipPath id="c200963a70"><path d="M 36.71875 27.449219 L 43.921875 27.449219 L 43.921875 34.648438 L 36.71875 34.648438 Z M 36.71875 27.449219 " clip-rule="nonzero"/></clipPath><clipPath id="05c9ef2e52"><path d="M 40.320312 27.449219 C 38.332031 27.449219 36.71875 29.0625 36.71875 31.050781 C 36.71875 33.039062 38.332031 34.648438 40.320312 34.648438 C 42.308594 34.648438 43.921875 33.039062 43.921875 31.050781 C 43.921875 29.0625 42.308594 27.449219 40.320312 27.449219 Z M 40.320312 27.449219 " clip-rule="nonzero"/></clipPath><clipPath id="f701776fe4"><path d="M 0.71875 0.449219 L 7.921875 0.449219 L 7.921875 7.648438 L 0.71875 7.648438 Z M 0.71875 0.449219 " clip-rule="nonzero"/></clipPath><clipPath id="e0cb00698b"><path d="M 4.320312 0.449219 C 2.332031 0.449219 0.71875 2.0625 0.71875 4.050781 C 0.71875 6.039062 2.332031 7.648438 4.320312 7.648438 C 6.308594 7.648438 7.921875 6.039062 7.921875 4.050781 C 7.921875 2.0625 6.308594 0.449219 4.320312 0.449219 Z M 4.320312 0.449219 " clip-rule="nonzero"/></clipPath><clipPath id="f42a99ac9e"><rect x="0" width="8" y="0" height="8"/></clipPath><clipPath id="e9e9327cde"><path d="M 36.71875 36 L 43.921875 36 L 43.921875 43.199219 L 36.71875 43.199219 Z M 36.71875 36 " clip-rule="nonzero"/></clipPath><clipPath id="dbe0f97210"><path d="M 40.320312 36 C 38.332031 36 36.71875 37.613281 36.71875 39.601562 C 36.71875 41.589844 38.332031 43.199219 40.320312 43.199219 C 42.308594 43.199219 43.921875 41.589844 43.921875 39.601562 C 43.921875 37.613281 42.308594 36 40.320312 36 Z M 40.320312 36 " clip-rule="nonzero"/></clipPath><clipPath id="7e19483595"><path d="M 0.71875 0 L 7.921875 0 L 7.921875 7.199219 L 0.71875 7.199219 Z M 0.71875 0 " clip-rule="nonzero"/></clipPath><clipPath id="043f3d3d12"><path d="M 4.320312 0 C 2.332031 0 0.71875 1.613281 0.71875 3.601562 C 0.71875 5.589844 2.332031 7.199219 4.320312 7.199219 C 6.308594 7.199219 7.921875 5.589844 7.921875 3.601562 C 7.921875 1.613281 6.308594 0 4.320312 0 Z M 4.320312 0 " clip-rule="nonzero"/></clipPath><clipPath id="3c2c77c132"><rect x="0" width="8" y="0" height="8"/></clipPath><clipPath id="ad6d45525a"><path d="M 28.078125 36 L 35.28125 36 L 35.28125 43.199219 L 28.078125 43.199219 Z M 28.078125 36 " clip-rule="nonzero"/></clipPath><clipPath id="08cfbc350f"><path d="M 31.679688 36 C 29.691406 36 28.078125 37.613281 28.078125 39.601562 C 28.078125 41.589844 29.691406 43.199219 31.679688 43.199219 C 33.667969 43.199219 35.28125 41.589844 35.28125 39.601562 C 35.28125 37.613281 33.667969 36 31.679688 36 Z M 31.679688 36 " clip-rule="nonzero"/></clipPath><clipPath id="4ce564fbec"><path d="M 0.078125 0 L 7.28125 0 L 7.28125 7.199219 L 0.078125 7.199219 Z M 0.078125 0 " clip-rule="nonzero"/></clipPath><clipPath id="dbec40d9ef"><path d="M 3.679688 0 C 1.691406 0 0.078125 1.613281 0.078125 3.601562 C 0.078125 5.589844 1.691406 7.199219 3.679688 7.199219 C 5.667969 7.199219 7.28125 5.589844 7.28125 3.601562 C 7.28125 1.613281 5.667969 0 3.679688 0 Z M 3.679688 0 " clip-rule="nonzero"/></clipPath><clipPath id="77de1eb576"><rect x="0" width="8" y="0" height="8"/></clipPath><clipPath id="7b22335327"><path d="M 19.378906 36 L 26.578125 36 L 26.578125 43.199219 L 19.378906 43.199219 Z M 19.378906 36 " clip-rule="nonzero"/></clipPath><clipPath id="bd6f053c02"><path d="M 22.980469 36 C 20.992188 36 19.378906 37.613281 19.378906 39.601562 C 19.378906 41.589844 20.992188 43.199219 22.980469 43.199219 C 24.96875 43.199219 26.578125 41.589844 26.578125 39.601562 C 26.578125 37.613281 24.96875 36 22.980469 36 Z M 22.980469 36 " clip-rule="nonzero"/></clipPath><clipPath id="78b4591bcd"><path d="M 0.378906 0 L 7.578125 0 L 7.578125 7.199219 L 0.378906 7.199219 Z M 0.378906 0 " clip-rule="nonzero"/></clipPath><clipPath id="5a2294ac4d"><path d="M 3.980469 0 C 1.992188 0 0.378906 1.613281 0.378906 3.601562 C 0.378906 5.589844 1.992188 7.199219 3.980469 7.199219 C 5.96875 7.199219 7.578125 5.589844 7.578125 3.601562 C 7.578125 1.613281 5.96875 0 3.980469 0 Z M 3.980469 0 " clip-rule="nonzero"/></clipPath><clipPath id="bb1b9c372d"><rect x="0" width="8" y="0" height="8"/></clipPath><clipPath id="14a0bf133d"><path d="M 10.679688 36 L 17.878906 36 L 17.878906 43.199219 L 10.679688 43.199219 Z M 10.679688 36 " clip-rule="nonzero"/></clipPath><clipPath id="da341f5d0c"><path d="M 14.28125 36 C 12.292969 36 10.679688 37.613281 10.679688 39.601562 C 10.679688 41.589844 12.292969 43.199219 14.28125 43.199219 C 16.269531 43.199219 17.878906 41.589844 17.878906 39.601562 C 17.878906 37.613281 16.269531 36 14.28125 36 Z M 14.28125 36 " clip-rule="nonzero"/></clipPath><clipPath id="4cd3e7d099"><path d="M 0.679688 0 L 7.878906 0 L 7.878906 7.199219 L 0.679688 7.199219 Z M 0.679688 0 " clip-rule="nonzero"/></clipPath><clipPath id="6987ce80ff"><path d="M 4.28125 0 C 2.292969 0 0.679688 1.613281 0.679688 3.601562 C 0.679688 5.589844 2.292969 7.199219 4.28125 7.199219 C 6.269531 7.199219 7.878906 5.589844 7.878906 3.601562 C 7.878906 1.613281 6.269531 0 4.28125 0 Z M 4.28125 0 " clip-rule="nonzero"/></clipPath><clipPath id="50b9950b95"><rect x="0" width="8" y="0" height="8"/></clipPath><clipPath id="73a64d36d2"><path d="M 1.980469 36 L 9.179688 36 L 9.179688 43.199219 L 1.980469 43.199219 Z M 1.980469 36 " clip-rule="nonzero"/></clipPath><clipPath id="f563c22900"><path d="M 5.578125 36 C 3.589844 36 1.980469 37.613281 1.980469 39.601562 C 1.980469 41.589844 3.589844 43.199219 5.578125 43.199219 C 7.566406 43.199219 9.179688 41.589844 9.179688 39.601562 C 9.179688 37.613281 7.566406 36 5.578125 36 Z M 5.578125 36 " clip-rule="nonzero"/></clipPath><clipPath id="2a1cf9605b"><path d="M 0.980469 0 L 8.179688 0 L 8.179688 7.199219 L 0.980469 7.199219 Z M 0.980469 0 " clip-rule="nonzero"/></clipPath><clipPath id="45f8e277f2"><path d="M 4.578125 0 C 2.589844 0 0.980469 1.613281 0.980469 3.601562 C 0.980469 5.589844 2.589844 7.199219 4.578125 7.199219 C 6.566406 7.199219 8.179688 5.589844 8.179688 3.601562 C 8.179688 1.613281 6.566406 0 4.578125 0 Z M 4.578125 0 " clip-rule="nonzero"/></clipPath><clipPath id="4926819412"><rect x="0" width="9" y="0" height="8"/></clipPath><clipPath id="1f2d9b88bd"><path d="M 45.359375 36 L 52.558594 36 L 52.558594 43.199219 L 45.359375 43.199219 Z M 45.359375 36 " clip-rule="nonzero"/></clipPath><clipPath id="8f23ee5ad0"><path d="M 48.960938 36 C 46.972656 36 45.359375 37.613281 45.359375 39.601562 C 45.359375 41.589844 46.972656 43.199219 48.960938 43.199219 C 50.949219 43.199219 52.558594 41.589844 52.558594 39.601562 C 52.558594 37.613281 50.949219 36 48.960938 36 Z M 48.960938 36 " clip-rule="nonzero"/></clipPath><clipPath id="177d9032cd"><path d="M 0.359375 0 L 7.558594 0 L 7.558594 7.199219 L 0.359375 7.199219 Z M 0.359375 0 " clip-rule="nonzero"/></clipPath><clipPath id="d799b84d6d"><path d="M 3.960938 0 C 1.972656 0 0.359375 1.613281 0.359375 3.601562 C 0.359375 5.589844 1.972656 7.199219 3.960938 7.199219 C 5.949219 7.199219 7.558594 5.589844 7.558594 3.601562 C 7.558594 1.613281 5.949219 0 3.960938 0 Z M 3.960938 0 " clip-rule="nonzero"/></clipPath><clipPath id="d68c7612c2"><rect x="0" width="8" y="0" height="8"/></clipPath><clipPath id="28f08d93fb"><path d="M 54 36 L 61.199219 36 L 61.199219 43.199219 L 54 43.199219 Z M 54 36 " clip-rule="nonzero"/></clipPath><clipPath id="64108dd969"><path d="M 57.601562 36 C 55.613281 36 54 37.613281 54 39.601562 C 54 41.589844 55.613281 43.199219 57.601562 43.199219 C 59.589844 43.199219 61.199219 41.589844 61.199219 39.601562 C 61.199219 37.613281 59.589844 36 57.601562 36 Z M 57.601562 36 " clip-rule="nonzero"/></clipPath><clipPath id="c99c51c62e"><path d="M 0 0 L 7.199219 0 L 7.199219 7.199219 L 0 7.199219 Z M 0 0 " clip-rule="nonzero"/></clipPath><clipPath id="e8a7e143c6"><path d="M 3.601562 0 C 1.613281 0 0 1.613281 0 3.601562 C 0 5.589844 1.613281 7.199219 3.601562 7.199219 C 5.589844 7.199219 7.199219 5.589844 7.199219 3.601562 C 7.199219 1.613281 5.589844 0 3.601562 0 Z M 3.601562 0 " clip-rule="nonzero"/></clipPath><clipPath id="706a1a8ada"><rect x="0" width="8" y="0" height="8"/></clipPath><clipPath id="58a50139c9"><path d="M 62.699219 36 L 69.898438 36 L 69.898438 43.199219 L 62.699219 43.199219 Z M 62.699219 36 " clip-rule="nonzero"/></clipPath><clipPath id="ca20a85b6f"><path d="M 66.300781 36 C 64.3125 36 62.699219 37.613281 62.699219 39.601562 C 62.699219 41.589844 64.3125 43.199219 66.300781 43.199219 C 68.289062 43.199219 69.898438 41.589844 69.898438 39.601562 C 69.898438 37.613281 68.289062 36 66.300781 36 Z M 66.300781 36 " clip-rule="nonzero"/></clipPath><clipPath id="bc1982553c"><path d="M 0.699219 0 L 7.898438 0 L 7.898438 7.199219 L 0.699219 7.199219 Z M 0.699219 0 " clip-rule="nonzero"/></clipPath><clipPath id="e71b2f8717"><path d="M 4.300781 0 C 2.3125 0 0.699219 1.613281 0.699219 3.601562 C 0.699219 5.589844 2.3125 7.199219 4.300781 7.199219 C 6.289062 7.199219 7.898438 5.589844 7.898438 3.601562 C 7.898438 1.613281 6.289062 0 4.300781 0 Z M 4.300781 0 " clip-rule="nonzero"/></clipPath><clipPath id="f0d60bc0a2"><rect x="0" width="8" y="0" height="8"/></clipPath></defs><g clip-path="url(#295e4c225b)"><g clip-path="url(#b22e508e4c)"><g transform="matrix(1, 0, 0, 1, 28, 27)"><g clip-path="url(#ac343b1646)"><g clip-path="url(#83c9d17893)"><g clip-path="url(#2d466becff)"><path fill="#cc0000" d="M 0.078125 0.449219 L 7.28125 0.449219 L 7.28125 7.648438 L 0.078125 7.648438 Z M 0.078125 0.449219 " fill-opacity="1" fill-rule="nonzero"/></g></g></g></g></g></g><g clip-path="url(#c200963a70)"><g clip-path="url(#05c9ef2e52)"><g transform="matrix(1, 0, 0, 1, 36, 27)"><g clip-path="url(#f42a99ac9e)"><g clip-path="url(#f701776fe4)"><g clip-path="url(#e0cb00698b)"><path fill="#cc0000" d="M 0.71875 0.449219 L 7.921875 0.449219 L 7.921875 7.648438 L 0.71875 7.648438 Z M 0.71875 0.449219 " fill-opacity="1" fill-rule="nonzero"/></g></g></g></g></g></g><g clip-path="url(#e9e9327cde)"><g clip-path="url(#dbe0f97210)"><g transform="matrix(1, 0, 0, 1, 36, 36)"><g clip-path="url(#3c2c77c132)"><g clip-path="url(#7e19483595)"><g clip-path="url(#043f3d3d12)"><path fill="#cc0000" d="M 0.71875 0 L 7.921875 0 L 7.921875 7.199219 L 0.71875 7.199219 Z M 0.71875 0 " fill-opacity="1" fill-rule="nonzero"/></g></g></g></g></g></g><g clip-path="url(#ad6d45525a)"><g clip-path="url(#08cfbc350f)"><g transform="matrix(1, 0, 0, 1, 28, 36)"><g clip-path="url(#77de1eb576)"><g clip-path="url(#4ce564fbec)"><g clip-path="url(#dbec40d9ef)"><path fill="#cc0000" d="M 0.078125 0 L 7.28125 0 L 7.28125 7.199219 L 0.078125 7.199219 Z M 0.078125 0 " fill-opacity="1" fill-rule="nonzero"/></g></g></g></g></g></g><g clip-path="url(#7b22335327)"><g clip-path="url(#bd6f053c02)"><g transform="matrix(1, 0, 0, 1, 19, 36)"><g clip-path="url(#bb1b9c372d)"><g clip-path="url(#78b4591bcd)"><g clip-path="url(#5a2294ac4d)"><path fill="#ffde59" d="M 0.378906 0 L 7.578125 0 L 7.578125 7.199219 L 0.378906 7.199219 Z M 0.378906 0 " fill-opacity="1" fill-rule="nonzero"/></g></g></g></g></g></g><g clip-path="url(#14a0bf133d)"><g clip-path="url(#da341f5d0c)"><g transform="matrix(1, 0, 0, 1, 10, 36)"><g clip-path="url(#50b9950b95)"><g clip-path="url(#4cd3e7d099)"><g clip-path="url(#6987ce80ff)"><path fill="#ffde59" d="M 0.679688 0 L 7.878906 0 L 7.878906 7.199219 L 0.679688 7.199219 Z M 0.679688 0 " fill-opacity="1" fill-rule="nonzero"/></g></g></g></g></g></g><g clip-path="url(#73a64d36d2)"><g clip-path="url(#f563c22900)"><g transform="matrix(1, 0, 0, 1, 1, 36)"><g clip-path="url(#4926819412)"><g clip-path="url(#2a1cf9605b)"><g clip-path="url(#45f8e277f2)"><path fill="#ffde59" d="M 0.980469 0 L 8.179688 0 L 8.179688 7.199219 L 0.980469 7.199219 Z M 0.980469 0 " fill-opacity="1" fill-rule="nonzero"/></g></g></g></g></g></g><g clip-path="url(#1f2d9b88bd)"><g clip-path="url(#8f23ee5ad0)"><g transform="matrix(1, 0, 0, 1, 45, 36)"><g clip-path="url(#d68c7612c2)"><g clip-path="url(#177d9032cd)"><g clip-path="url(#d799b84d6d)"><path fill="#ffde59" d="M 0.359375 0 L 7.558594 0 L 7.558594 7.199219 L 0.359375 7.199219 Z M 0.359375 0 " fill-opacity="1" fill-rule="nonzero"/></g></g></g></g></g></g><g clip-path="url(#28f08d93fb)"><g clip-path="url(#64108dd969)"><g transform="matrix(1, 0, 0, 1, 54, 36)"><g clip-path="url(#706a1a8ada)"><g clip-path="url(#c99c51c62e)"><g clip-path="url(#e8a7e143c6)"><path fill="#ffde59" d="M 0 0 L 7.199219 0 L 7.199219 7.199219 L 0 7.199219 Z M 0 0 " fill-opacity="1" fill-rule="nonzero"/></g></g></g></g></g></g><g clip-path="url(#58a50139c9)"><g clip-path="url(#ca20a85b6f)"><g transform="matrix(1, 0, 0, 1, 62, 36)"><g clip-path="url(#f0d60bc0a2)"><g clip-path="url(#bc1982553c)"><g clip-path="url(#e71b2f8717)"><path fill="#ffde59" d="M 0.699219 0 L 7.898438 0 L 7.898438 7.199219 L 0.699219 7.199219 Z M 0.699219 0 " fill-opacity="1" fill-rule="nonzero"/></g></g></g></g></g></g></svg>