<svg xmlns="http://www.w3.org/2000/svg" xmlns:xlink="http://www.w3.org/1999/xlink" width="96" zoomAndPan="magnify" viewBox="0 0 72 72" height="96" preserveAspectRatio="xMidYMid meet" version="1.0"><defs><clipPath id="10925227f5"><path d="M 30.824219 24 L 41.175781 24 L 41.175781 34.351562 L 30.824219 34.351562 Z M 30.824219 24 " clip-rule="nonzero"/></clipPath><clipPath id="59c5df6d5f"><path d="M 36 24 C 33.140625 24 30.824219 26.316406 30.824219 29.175781 C 30.824219 32.03125 33.140625 34.351562 36 34.351562 C 38.859375 34.351562 41.175781 32.03125 41.175781 29.175781 C 41.175781 26.316406 38.859375 24 36 24 Z M 36 24 " clip-rule="nonzero"/></clipPath><clipPath id="8efd804454"><path d="M 0.824219 0 L 11.175781 0 L 11.175781 10.351562 L 0.824219 10.351562 Z M 0.824219 0 " clip-rule="nonzero"/></clipPath><clipPath id="d30e1c6438"><path d="M 6 0 C 3.140625 0 0.824219 2.316406 0.824219 5.175781 C 0.824219 8.03125 3.140625 10.351562 6 10.351562 C 8.859375 10.351562 11.175781 8.03125 11.175781 5.175781 C 11.175781 2.316406 8.859375 0 6 0 Z M 6 0 " clip-rule="nonzero"/></clipPath><clipPath id="b3e52ef227"><rect x="0" width="12" y="0" height="11"/></clipPath><clipPath id="6d386fec22"><path d="M 30.824219 37.648438 L 41.175781 37.648438 L 41.175781 48 L 30.824219 48 Z M 30.824219 37.648438 " clip-rule="nonzero"/></clipPath><clipPath id="034333914b"><path d="M 36 37.648438 C 33.140625 37.648438 30.824219 39.96875 30.824219 42.824219 C 30.824219 45.683594 33.140625 48 36 48 C 38.859375 48 41.175781 45.683594 41.175781 42.824219 C 41.175781 39.96875 38.859375 37.648438 36 37.648438 Z M 36 37.648438 " clip-rule="nonzero"/></clipPath><clipPath id="13e5388b83"><path d="M 0.824219 0.648438 L 11.175781 0.648438 L 11.175781 11 L 0.824219 11 Z M 0.824219 0.648438 " clip-rule="nonzero"/></clipPath><clipPath id="ba74a19787"><path d="M 6 0.648438 C 3.140625 0.648438 0.824219 2.96875 0.824219 5.824219 C 0.824219 8.683594 3.140625 11 6 11 C 8.859375 11 11.175781 8.683594 11.175781 5.824219 C 11.175781 2.96875 8.859375 0.648438 6 0.648438 Z M 6 0.648438 " clip-rule="nonzero"/></clipPath><clipPath id="8356613f42"><rect x="0" width="12" y="0" height="11"/></clipPath></defs><g clip-path="url(#10925227f5)"><g clip-path="url(#59c5df6d5f)"><g transform="matrix(1, 0, 0, 1, 30, 24)"><g clip-path="url(#b3e52ef227)"><g clip-path="url(#8efd804454)"><g clip-path="url(#d30e1c6438)"><path fill="#cc0000" d="M 0.824219 0 L 11.175781 0 L 11.175781 10.351562 L 0.824219 10.351562 Z M 0.824219 0 " fill-opacity="1" fill-rule="nonzero"/></g></g></g></g></g></g><g clip-path="url(#6d386fec22)"><g clip-path="url(#034333914b)"><g transform="matrix(1, 0, 0, 1, 30, 37)"><g clip-path="url(#8356613f42)"><g clip-path="url(#13e5388b83)"><g clip-path="url(#ba74a19787)"><path fill="#cc0000" d="M 0.824219 0.648438 L 11.175781 0.648438 L 11.175781 11 L 0.824219 11 Z M 0.824219 0.648438 " fill-opacity="1" fill-rule="nonzero"/></g></g></g></g></g></g></svg>