<svg xmlns="http://www.w3.org/2000/svg" xmlns:xlink="http://www.w3.org/1999/xlink" width="96" zoomAndPan="magnify" viewBox="0 0 72 72" height="96" preserveAspectRatio="xMidYMid meet" version="1.0"><defs><clipPath id="68d297d40d"><path d="M 30.824219 13.648438 L 41.175781 13.648438 L 41.175781 24 L 30.824219 24 Z M 30.824219 13.648438 " clip-rule="nonzero"/></clipPath><clipPath id="9b47cf0ec5"><path d="M 36 13.648438 C 33.140625 13.648438 30.824219 15.96875 30.824219 18.824219 C 30.824219 21.683594 33.140625 24 36 24 C 38.859375 24 41.175781 21.683594 41.175781 18.824219 C 41.175781 15.96875 38.859375 13.648438 36 13.648438 Z M 36 13.648438 " clip-rule="nonzero"/></clipPath><clipPath id="cdf5201d15"><path d="M 0.824219 0.648438 L 11.175781 0.648438 L 11.175781 11 L 0.824219 11 Z M 0.824219 0.648438 " clip-rule="nonzero"/></clipPath><clipPath id="f01cfb5c97"><path d="M 6 0.648438 C 3.140625 0.648438 0.824219 2.96875 0.824219 5.824219 C 0.824219 8.683594 3.140625 11 6 11 C 8.859375 11 11.175781 8.683594 11.175781 5.824219 C 11.175781 2.96875 8.859375 0.648438 6 0.648438 Z M 6 0.648438 " clip-rule="nonzero"/></clipPath><clipPath id="cb11ce9e40"><rect x="0" width="12" y="0" height="11"/></clipPath><clipPath id="fef9ff4d45"><path d="M 47.519531 36 L 57.871094 36 L 57.871094 46.351562 L 47.519531 46.351562 Z M 47.519531 36 " clip-rule="nonzero"/></clipPath><clipPath id="b0bcfbaa89"><path d="M 52.695312 36 C 49.835938 36 47.519531 38.316406 47.519531 41.175781 C 47.519531 44.03125 49.835938 46.351562 52.695312 46.351562 C 55.554688 46.351562 57.871094 44.03125 57.871094 41.175781 C 57.871094 38.316406 55.554688 36 52.695312 36 Z M 52.695312 36 " clip-rule="nonzero"/></clipPath><clipPath id="121486afdf"><path d="M 0.519531 0 L 10.871094 0 L 10.871094 10.351562 L 0.519531 10.351562 Z M 0.519531 0 " clip-rule="nonzero"/></clipPath><clipPath id="3a460532be"><path d="M 5.695312 0 C 2.835938 0 0.519531 2.316406 0.519531 5.175781 C 0.519531 8.03125 2.835938 10.351562 5.695312 10.351562 C 8.554688 10.351562 10.871094 8.03125 10.871094 5.175781 C 10.871094 2.316406 8.554688 0 5.695312 0 Z M 5.695312 0 " clip-rule="nonzero"/></clipPath><clipPath id="b0712607aa"><rect x="0" width="11" y="0" height="11"/></clipPath><clipPath id="223f4d687b"><path d="M 14.128906 49.648438 L 24.480469 49.648438 L 24.480469 60 L 14.128906 60 Z M 14.128906 49.648438 " clip-rule="nonzero"/></clipPath><clipPath id="63b85e9f43"><path d="M 19.304688 49.648438 C 16.445312 49.648438 14.128906 51.96875 14.128906 54.824219 C 14.128906 57.683594 16.445312 60 19.304688 60 C 22.164062 60 24.480469 57.683594 24.480469 54.824219 C 24.480469 51.96875 22.164062 49.648438 19.304688 49.648438 Z M 19.304688 49.648438 " clip-rule="nonzero"/></clipPath><clipPath id="f1ff97041d"><path d="M 0.128906 0.648438 L 10.480469 0.648438 L 10.480469 11 L 0.128906 11 Z M 0.128906 0.648438 " clip-rule="nonzero"/></clipPath><clipPath id="b6af2cce64"><path d="M 5.304688 0.648438 C 2.445312 0.648438 0.128906 2.96875 0.128906 5.824219 C 0.128906 8.683594 2.445312 11 5.304688 11 C 8.164062 11 10.480469 8.683594 10.480469 5.824219 C 10.480469 2.96875 8.164062 0.648438 5.304688 0.648438 Z M 5.304688 0.648438 " clip-rule="nonzero"/></clipPath><clipPath id="cdb42e0056"><rect x="0" width="11" y="0" height="11"/></clipPath></defs><g clip-path="url(#68d297d40d)"><g clip-path="url(#9b47cf0ec5)"><g transform="matrix(1, 0, 0, 1, 30, 13)"><g clip-path="url(#cb11ce9e40)"><g clip-path="url(#cdf5201d15)"><g clip-path="url(#f01cfb5c97)"><path fill="#ffffff" d="M 0.824219 0.648438 L 11.175781 0.648438 L 11.175781 11 L 0.824219 11 Z M 0.824219 0.648438 " fill-opacity="1" fill-rule="nonzero"/></g></g></g></g></g></g><g clip-path="url(#fef9ff4d45)"><g clip-path="url(#b0bcfbaa89)"><g transform="matrix(1, 0, 0, 1, 47, 36)"><g clip-path="url(#b0712607aa)"><g clip-path="url(#121486afdf)"><g clip-path="url(#3a460532be)"><path fill="#ffffff" d="M 0.519531 0 L 10.871094 0 L 10.871094 10.351562 L 0.519531 10.351562 Z M 0.519531 0 " fill-opacity="1" fill-rule="nonzero"/></g></g></g></g></g></g><g clip-path="url(#223f4d687b)"><g clip-path="url(#63b85e9f43)"><g transform="matrix(1, 0, 0, 1, 14, 49)"><g clip-path="url(#cdb42e0056)"><g clip-path="url(#f1ff97041d)"><g clip-path="url(#b6af2cce64)"><path fill="#00bf63" d="M 0.128906 0.648438 L 10.480469 0.648438 L 10.480469 11 L 0.128906 11 Z M 0.128906 0.648438 " fill-opacity="1" fill-rule="nonzero"/></g></g></g></g></g></g></svg>