<svg xmlns="http://www.w3.org/2000/svg" xmlns:xlink="http://www.w3.org/1999/xlink" width="96" zoomAndPan="magnify" viewBox="0 0 72 72" height="96" preserveAspectRatio="xMidYMid meet" version="1.0"><defs><clipPath id="d7c575dd16"><path d="M 30.824219 30.824219 L 41.175781 30.824219 L 41.175781 41.175781 L 30.824219 41.175781 Z M 30.824219 30.824219 " clip-rule="nonzero"/></clipPath><clipPath id="461d12dae8"><path d="M 36 30.824219 C 33.140625 30.824219 30.824219 33.140625 30.824219 36 C 30.824219 38.859375 33.140625 41.175781 36 41.175781 C 38.859375 41.175781 41.175781 38.859375 41.175781 36 C 41.175781 33.140625 38.859375 30.824219 36 30.824219 Z M 36 30.824219 " clip-rule="nonzero"/></clipPath><clipPath id="b2210df2dc"><path d="M 0.824219 0.824219 L 11.175781 0.824219 L 11.175781 11.175781 L 0.824219 11.175781 Z M 0.824219 0.824219 " clip-rule="nonzero"/></clipPath><clipPath id="bb2f4d4bf9"><path d="M 6 0.824219 C 3.140625 0.824219 0.824219 3.140625 0.824219 6 C 0.824219 8.859375 3.140625 11.175781 6 11.175781 C 8.859375 11.175781 11.175781 8.859375 11.175781 6 C 11.175781 3.140625 8.859375 0.824219 6 0.824219 Z M 6 0.824219 " clip-rule="nonzero"/></clipPath><clipPath id="46efabe89c"><rect x="0" width="12" y="0" height="12"/></clipPath></defs><g clip-path="url(#d7c575dd16)"><g clip-path="url(#461d12dae8)"><g transform="matrix(1, 0, 0, 1, 30, 30)"><g clip-path="url(#46efabe89c)"><g clip-path="url(#b2210df2dc)"><g clip-path="url(#bb2f4d4bf9)"><path fill="#00bf63" d="M 0.824219 0.824219 L 11.175781 0.824219 L 11.175781 11.175781 L 0.824219 11.175781 Z M 0.824219 0.824219 " fill-opacity="1" fill-rule="nonzero"/></g></g></g></g></g></g></svg>