<svg xmlns="http://www.w3.org/2000/svg" xmlns:xlink="http://www.w3.org/1999/xlink" width="96" zoomAndPan="magnify" viewBox="0 0 72 72" height="96" preserveAspectRatio="xMidYMid meet" version="1.0"><defs><clipPath id="d62fce513f"><path d="M 30.824219 24 L 41.175781 24 L 41.175781 34.351562 L 30.824219 34.351562 Z M 30.824219 24 " clip-rule="nonzero"/></clipPath><clipPath id="b21d8af01b"><path d="M 36 24 C 33.140625 24 30.824219 26.316406 30.824219 29.175781 C 30.824219 32.03125 33.140625 34.351562 36 34.351562 C 38.859375 34.351562 41.175781 32.03125 41.175781 29.175781 C 41.175781 26.316406 38.859375 24 36 24 Z M 36 24 " clip-rule="nonzero"/></clipPath><clipPath id="5f408688c6"><path d="M 0.824219 0 L 11.175781 0 L 11.175781 10.351562 L 0.824219 10.351562 Z M 0.824219 0 " clip-rule="nonzero"/></clipPath><clipPath id="d9974f111e"><path d="M 6 0 C 3.140625 0 0.824219 2.316406 0.824219 5.175781 C 0.824219 8.03125 3.140625 10.351562 6 10.351562 C 8.859375 10.351562 11.175781 8.03125 11.175781 5.175781 C 11.175781 2.316406 8.859375 0 6 0 Z M 6 0 " clip-rule="nonzero"/></clipPath><clipPath id="1d553d264a"><rect x="0" width="12" y="0" height="11"/></clipPath><clipPath id="d08e6987b0"><path d="M 30.824219 37.648438 L 41.175781 37.648438 L 41.175781 48 L 30.824219 48 Z M 30.824219 37.648438 " clip-rule="nonzero"/></clipPath><clipPath id="377412bbd9"><path d="M 36 37.648438 C 33.140625 37.648438 30.824219 39.96875 30.824219 42.824219 C 30.824219 45.683594 33.140625 48 36 48 C 38.859375 48 41.175781 45.683594 41.175781 42.824219 C 41.175781 39.96875 38.859375 37.648438 36 37.648438 Z M 36 37.648438 " clip-rule="nonzero"/></clipPath><clipPath id="3c72f7d013"><path d="M 0.824219 0.648438 L 11.175781 0.648438 L 11.175781 11 L 0.824219 11 Z M 0.824219 0.648438 " clip-rule="nonzero"/></clipPath><clipPath id="b02f81156b"><path d="M 6 0.648438 C 3.140625 0.648438 0.824219 2.96875 0.824219 5.824219 C 0.824219 8.683594 3.140625 11 6 11 C 8.859375 11 11.175781 8.683594 11.175781 5.824219 C 11.175781 2.96875 8.859375 0.648438 6 0.648438 Z M 6 0.648438 " clip-rule="nonzero"/></clipPath><clipPath id="fc245b564c"><rect x="0" width="12" y="0" height="11"/></clipPath><clipPath id="f07af7cd45"><path d="M 54.585938 54.449219 L 64.933594 54.449219 L 64.933594 64.800781 L 54.585938 64.800781 Z M 54.585938 54.449219 " clip-rule="nonzero"/></clipPath><clipPath id="0685383b1a"><path d="M 59.761719 54.449219 C 56.902344 54.449219 54.585938 56.765625 54.585938 59.625 C 54.585938 62.484375 56.902344 64.800781 59.761719 64.800781 C 62.617188 64.800781 64.933594 62.484375 64.933594 59.625 C 64.933594 56.765625 62.617188 54.449219 59.761719 54.449219 Z M 59.761719 54.449219 " clip-rule="nonzero"/></clipPath><clipPath id="4191667f84"><path d="M 0.585938 0.449219 L 10.933594 0.449219 L 10.933594 10.800781 L 0.585938 10.800781 Z M 0.585938 0.449219 " clip-rule="nonzero"/></clipPath><clipPath id="78a37a9cff"><path d="M 5.761719 0.449219 C 2.902344 0.449219 0.585938 2.765625 0.585938 5.625 C 0.585938 8.484375 2.902344 10.800781 5.761719 10.800781 C 8.617188 10.800781 10.933594 8.484375 10.933594 5.625 C 10.933594 2.765625 8.617188 0.449219 5.761719 0.449219 Z M 5.761719 0.449219 " clip-rule="nonzero"/></clipPath><clipPath id="e8a4846aed"><rect x="0" width="11" y="0" height="11"/></clipPath><clipPath id="4d39e1ed1e"><path d="M 7.199219 54.449219 L 17.550781 54.449219 L 17.550781 64.800781 L 7.199219 64.800781 Z M 7.199219 54.449219 " clip-rule="nonzero"/></clipPath><clipPath id="0427ce1f5a"><path d="M 12.375 54.449219 C 9.515625 54.449219 7.199219 56.765625 7.199219 59.625 C 7.199219 62.484375 9.515625 64.800781 12.375 64.800781 C 15.234375 64.800781 17.550781 62.484375 17.550781 59.625 C 17.550781 56.765625 15.234375 54.449219 12.375 54.449219 Z M 12.375 54.449219 " clip-rule="nonzero"/></clipPath><clipPath id="2b18d63525"><path d="M 0.199219 0.449219 L 10.550781 0.449219 L 10.550781 10.800781 L 0.199219 10.800781 Z M 0.199219 0.449219 " clip-rule="nonzero"/></clipPath><clipPath id="650242c64b"><path d="M 5.375 0.449219 C 2.515625 0.449219 0.199219 2.765625 0.199219 5.625 C 0.199219 8.484375 2.515625 10.800781 5.375 10.800781 C 8.234375 10.800781 10.550781 8.484375 10.550781 5.625 C 10.550781 2.765625 8.234375 0.449219 5.375 0.449219 Z M 5.375 0.449219 " clip-rule="nonzero"/></clipPath><clipPath id="024e227781"><rect x="0" width="11" y="0" height="11"/></clipPath></defs><g clip-path="url(#d62fce513f)"><g clip-path="url(#b21d8af01b)"><g transform="matrix(1, 0, 0, 1, 30, 24)"><g clip-path="url(#1d553d264a)"><g clip-path="url(#5f408688c6)"><g clip-path="url(#d9974f111e)"><path fill="#cc0000" d="M 0.824219 0 L 11.175781 0 L 11.175781 10.351562 L 0.824219 10.351562 Z M 0.824219 0 " fill-opacity="1" fill-rule="nonzero"/></g></g></g></g></g></g><g clip-path="url(#d08e6987b0)"><g clip-path="url(#377412bbd9)"><g transform="matrix(1, 0, 0, 1, 30, 37)"><g clip-path="url(#fc245b564c)"><g clip-path="url(#3c72f7d013)"><g clip-path="url(#b02f81156b)"><path fill="#00bf63" d="M 0.824219 0.648438 L 11.175781 0.648438 L 11.175781 11 L 0.824219 11 Z M 0.824219 0.648438 " fill-opacity="1" fill-rule="nonzero"/></g></g></g></g></g></g><g clip-path="url(#f07af7cd45)"><g clip-path="url(#0685383b1a)"><g transform="matrix(1, 0, 0, 1, 54, 54)"><g clip-path="url(#e8a4846aed)"><g clip-path="url(#4191667f84)"><g clip-path="url(#78a37a9cff)"><path fill="#cc0000" d="M 0.585938 0.449219 L 10.933594 0.449219 L 10.933594 10.800781 L 0.585938 10.800781 Z M 0.585938 0.449219 " fill-opacity="1" fill-rule="nonzero"/></g></g></g></g></g></g><g clip-path="url(#4d39e1ed1e)"><g clip-path="url(#0427ce1f5a)"><g transform="matrix(1, 0, 0, 1, 7, 54)"><g clip-path="url(#024e227781)"><g clip-path="url(#2b18d63525)"><g clip-path="url(#650242c64b)"><path fill="#00bf63" d="M 0.199219 0.449219 L 10.550781 0.449219 L 10.550781 10.800781 L 0.199219 10.800781 Z M 0.199219 0.449219 " fill-opacity="1" fill-rule="nonzero"/></g></g></g></g></g></g></svg>