<svg xmlns="http://www.w3.org/2000/svg" xmlns:xlink="http://www.w3.org/1999/xlink" width="96" zoomAndPan="magnify" viewBox="0 0 72 72" height="96" preserveAspectRatio="xMidYMid meet" version="1.0"><defs><g/><clipPath id="d55b15d3d1"><path d="M 12.238281 13.019531 L 22.320312 13.019531 L 22.320312 23.101562 L 12.238281 23.101562 Z M 12.238281 13.019531 " clip-rule="nonzero"/></clipPath><clipPath id="4876c876c7"><path d="M 17.28125 13.019531 C 14.496094 13.019531 12.238281 15.277344 12.238281 18.058594 C 12.238281 20.84375 14.496094 23.101562 17.28125 23.101562 C 20.0625 23.101562 22.320312 20.84375 22.320312 18.058594 C 22.320312 15.277344 20.0625 13.019531 17.28125 13.019531 Z M 17.28125 13.019531 " clip-rule="nonzero"/></clipPath><clipPath id="2fb72704fe"><path d="M 0.238281 0.0195312 L 10.320312 0.0195312 L 10.320312 10.101562 L 0.238281 10.101562 Z M 0.238281 0.0195312 " clip-rule="nonzero"/></clipPath><clipPath id="255bbc5244"><path d="M 5.28125 0.0195312 C 2.496094 0.0195312 0.238281 2.277344 0.238281 5.058594 C 0.238281 7.84375 2.496094 10.101562 5.28125 10.101562 C 8.0625 10.101562 10.320312 7.84375 10.320312 5.058594 C 10.320312 2.277344 8.0625 0.0195312 5.28125 0.0195312 Z M 5.28125 0.0195312 " clip-rule="nonzero"/></clipPath><clipPath id="46f34c46a4"><rect x="0" width="11" y="0" height="11"/></clipPath><clipPath id="933d872e60"><path d="M 49.605469 10.980469 L 59.699219 10.980469 L 59.699219 19.800781 L 49.605469 19.800781 Z M 49.605469 10.980469 " clip-rule="nonzero"/></clipPath><clipPath id="92c929119f"><path d="M 54.644531 19.800781 L 59.683594 10.980469 L 49.605469 10.980469 Z M 54.644531 19.800781 " clip-rule="nonzero"/></clipPath><clipPath id="46ce259bb2"><path d="M 0.605469 0.980469 L 10.699219 0.980469 L 10.699219 9.800781 L 0.605469 9.800781 Z M 0.605469 0.980469 " clip-rule="nonzero"/></clipPath><clipPath id="97412773e3"><path d="M 5.644531 9.800781 L 10.683594 0.980469 L 0.605469 0.980469 Z M 5.644531 9.800781 " clip-rule="nonzero"/></clipPath><clipPath id="2029d844f5"><rect x="0" width="11" y="0" height="10"/></clipPath><clipPath id="01cfd897da"><path d="M 49.84375 18.898438 L 59.460938 18.898438 L 59.460938 27.300781 L 49.84375 27.300781 Z M 49.84375 18.898438 " clip-rule="nonzero"/></clipPath><clipPath id="2cc6402ae3"><path d="M 54.644531 18.898438 L 59.445312 27.300781 L 49.84375 27.300781 Z M 54.644531 18.898438 " clip-rule="nonzero"/></clipPath><clipPath id="e6a1528868"><path d="M 0.84375 0.898438 L 10.460938 0.898438 L 10.460938 9.300781 L 0.84375 9.300781 Z M 0.84375 0.898438 " clip-rule="nonzero"/></clipPath><clipPath id="2ca450648e"><path d="M 5.644531 0.898438 L 10.445312 9.300781 L 0.84375 9.300781 Z M 5.644531 0.898438 " clip-rule="nonzero"/></clipPath><clipPath id="ddd5321140"><rect x="0" width="11" y="0" height="10"/></clipPath><clipPath id="538218bb8b"><path d="M 5.398438 39.839844 L 15.480469 39.839844 L 15.480469 49.921875 L 5.398438 49.921875 Z M 5.398438 39.839844 " clip-rule="nonzero"/></clipPath><clipPath id="8c70b73a58"><path d="M 10.441406 39.839844 C 7.65625 39.839844 5.398438 42.097656 5.398438 44.878906 C 5.398438 47.664062 7.65625 49.921875 10.441406 49.921875 C 13.222656 49.921875 15.480469 47.664062 15.480469 44.878906 C 15.480469 42.097656 13.222656 39.839844 10.441406 39.839844 Z M 10.441406 39.839844 " clip-rule="nonzero"/></clipPath><clipPath id="5f4d301433"><path d="M 0.398438 0.839844 L 10.480469 0.839844 L 10.480469 10.921875 L 0.398438 10.921875 Z M 0.398438 0.839844 " clip-rule="nonzero"/></clipPath><clipPath id="61299a2b3d"><path d="M 5.441406 0.839844 C 2.65625 0.839844 0.398438 3.097656 0.398438 5.878906 C 0.398438 8.664062 2.65625 10.921875 5.441406 10.921875 C 8.222656 10.921875 10.480469 8.664062 10.480469 5.878906 C 10.480469 3.097656 8.222656 0.839844 5.441406 0.839844 Z M 5.441406 0.839844 " clip-rule="nonzero"/></clipPath><clipPath id="f99908e462"><rect x="0" width="11" y="0" height="11"/></clipPath><clipPath id="790b50eb70"><path d="M 19.816406 52.019531 L 29.910156 52.019531 L 29.910156 60.839844 L 19.816406 60.839844 Z M 19.816406 52.019531 " clip-rule="nonzero"/></clipPath><clipPath id="6febcc6db2"><path d="M 24.855469 60.839844 L 29.894531 52.019531 L 19.816406 52.019531 Z M 24.855469 60.839844 " clip-rule="nonzero"/></clipPath><clipPath id="e1f9dfc031"><path d="M 0.816406 0.0195312 L 10.910156 0.0195312 L 10.910156 8.839844 L 0.816406 8.839844 Z M 0.816406 0.0195312 " clip-rule="nonzero"/></clipPath><clipPath id="3e2992528e"><path d="M 5.855469 8.839844 L 10.894531 0.0195312 L 0.816406 0.0195312 Z M 5.855469 8.839844 " clip-rule="nonzero"/></clipPath><clipPath id="eba7c94ca9"><rect x="0" width="11" y="0" height="9"/></clipPath><clipPath id="dcd6e4452c"><path d="M 20.054688 60 L 29.667969 60 L 29.667969 68.398438 L 20.054688 68.398438 Z M 20.054688 60 " clip-rule="nonzero"/></clipPath><clipPath id="8c22963818"><path d="M 24.855469 60 L 29.65625 68.398438 L 20.054688 68.398438 Z M 24.855469 60 " clip-rule="nonzero"/></clipPath><clipPath id="f8c9501d23"><path d="M 0.0546875 0 L 9.667969 0 L 9.667969 8.398438 L 0.0546875 8.398438 Z M 0.0546875 0 " clip-rule="nonzero"/></clipPath><clipPath id="279ef2c4ff"><path d="M 4.855469 0 L 9.65625 8.398438 L 0.0546875 8.398438 Z M 4.855469 0 " clip-rule="nonzero"/></clipPath><clipPath id="efe70acc35"><rect x="0" width="10" y="0" height="9"/></clipPath><clipPath id="30594db333"><path d="M 56.773438 60 L 66.390625 60 L 66.390625 68.398438 L 56.773438 68.398438 Z M 56.773438 60 " clip-rule="nonzero"/></clipPath><clipPath id="62b6f0e84f"><path d="M 61.574219 60 L 66.375 68.398438 L 56.773438 68.398438 Z M 61.574219 60 " clip-rule="nonzero"/></clipPath><clipPath id="4c11ffbc6b"><path d="M 0.773438 0 L 10.390625 0 L 10.390625 8.398438 L 0.773438 8.398438 Z M 0.773438 0 " clip-rule="nonzero"/></clipPath><clipPath id="071188263a"><path d="M 5.574219 0 L 10.375 8.398438 L 0.773438 8.398438 Z M 5.574219 0 " clip-rule="nonzero"/></clipPath><clipPath id="5475bd0480"><rect x="0" width="11" y="0" height="9"/></clipPath><clipPath id="d1aba14257"><path d="M 42.480469 51.390625 L 52.558594 51.390625 L 52.558594 61.46875 L 42.480469 61.46875 Z M 42.480469 51.390625 " clip-rule="nonzero"/></clipPath><clipPath id="b17657d691"><path d="M 47.519531 51.390625 C 44.738281 51.390625 42.480469 53.644531 42.480469 56.429688 C 42.480469 59.214844 44.738281 61.46875 47.519531 61.46875 C 50.304688 61.46875 52.558594 59.214844 52.558594 56.429688 C 52.558594 53.644531 50.304688 51.390625 47.519531 51.390625 Z M 47.519531 51.390625 " clip-rule="nonzero"/></clipPath><clipPath id="d92ba52265"><path d="M 0.480469 0.390625 L 10.558594 0.390625 L 10.558594 10.46875 L 0.480469 10.46875 Z M 0.480469 0.390625 " clip-rule="nonzero"/></clipPath><clipPath id="e0ce324a40"><path d="M 5.519531 0.390625 C 2.738281 0.390625 0.480469 2.644531 0.480469 5.429688 C 0.480469 8.214844 2.738281 10.46875 5.519531 10.46875 C 8.304688 10.46875 10.558594 8.214844 10.558594 5.429688 C 10.558594 2.644531 8.304688 0.390625 5.519531 0.390625 Z M 5.519531 0.390625 " clip-rule="nonzero"/></clipPath><clipPath id="e516321747"><rect x="0" width="11" y="0" height="11"/></clipPath><clipPath id="713cbd98c7"><path d="M 42.480469 39.839844 L 52.558594 39.839844 L 52.558594 49.921875 L 42.480469 49.921875 Z M 42.480469 39.839844 " clip-rule="nonzero"/></clipPath><clipPath id="b895d11298"><path d="M 47.519531 39.839844 C 44.738281 39.839844 42.480469 42.097656 42.480469 44.878906 C 42.480469 47.664062 44.738281 49.921875 47.519531 49.921875 C 50.304688 49.921875 52.558594 47.664062 52.558594 44.878906 C 52.558594 42.097656 50.304688 39.839844 47.519531 39.839844 Z M 47.519531 39.839844 " clip-rule="nonzero"/></clipPath><clipPath id="71a998e406"><path d="M 0.480469 0.839844 L 10.558594 0.839844 L 10.558594 10.921875 L 0.480469 10.921875 Z M 0.480469 0.839844 " clip-rule="nonzero"/></clipPath><clipPath id="12d140a06b"><path d="M 5.519531 0.839844 C 2.738281 0.839844 0.480469 3.097656 0.480469 5.878906 C 0.480469 8.664062 2.738281 10.921875 5.519531 10.921875 C 8.304688 10.921875 10.558594 8.664062 10.558594 5.878906 C 10.558594 3.097656 8.304688 0.839844 5.519531 0.839844 Z M 5.519531 0.839844 " clip-rule="nonzero"/></clipPath><clipPath id="54cd32d514"><rect x="0" width="11" y="0" height="11"/></clipPath><clipPath id="010ca2dac2"><path d="M 0.679688 0 L 4 0 L 4 5 L 0.679688 5 Z M 0.679688 0 " clip-rule="nonzero"/></clipPath><clipPath id="90d81c4a77"><rect x="0" width="5" y="0" height="7"/></clipPath><clipPath id="d5a4ec892a"><path d="M 0.160156 0 L 4 0 L 4 5 L 0.160156 5 Z M 0.160156 0 " clip-rule="nonzero"/></clipPath><clipPath id="80bb96b623"><rect x="0" width="5" y="0" height="7"/></clipPath><clipPath id="9b37159e89"><path d="M 0.441406 1 L 4 1 L 4 6 L 0.441406 6 Z M 0.441406 1 " clip-rule="nonzero"/></clipPath><clipPath id="ad9d9baf39"><rect x="0" width="5" y="0" height="8"/></clipPath><clipPath id="91e54b9214"><rect x="0" width="6" y="0" height="8"/></clipPath></defs><path stroke-linecap="butt" transform="matrix(0.75, 0, 0, 0.75, 0, 35.250001)" fill="none" stroke-linejoin="miter" d="M 0 0.999999 L 96.000004 0.999999 " stroke="#000000" stroke-width="2" stroke-opacity="1" stroke-miterlimit="4"/><path stroke-linecap="butt" transform="matrix(0.000000001309, 0.75, -0.75, 0.000000001309, 36.749998, 0.00000199869)" fill="none" stroke-linejoin="miter" d="M -0.00000266667 0.999998 L 96.000001 0.999998 " stroke="#000000" stroke-width="2" stroke-opacity="1" stroke-miterlimit="4"/><path stroke-linecap="butt" transform="matrix(0, 0.75, -0.75, 0, 17.924999, 0.000002)" fill="none" stroke-linejoin="miter" d="M -0.00000266667 0.498957 L 47.999999 0.498957 " stroke="#000000" stroke-width="1" stroke-opacity="1" stroke-miterlimit="4"/><path stroke-linecap="butt" transform="matrix(0, 0.75, -0.75, 0, 55.019998, 0.000002)" fill="none" stroke-linejoin="miter" d="M -0.00000266667 0.500622 L 47.999999 0.500622 " stroke="#000000" stroke-width="1" stroke-opacity="1" stroke-miterlimit="4"/><path stroke-linecap="butt" transform="matrix(0, 0.75, -0.75, 0, 48.269998, 36.000001)" fill="none" stroke-linejoin="miter" d="M -0.000000666667 0.500622 L 48.000001 0.500622 " stroke="#000000" stroke-width="1" stroke-opacity="1" stroke-miterlimit="4"/><path stroke-linecap="butt" transform="matrix(0, 0.75, -0.75, 0, 61.949997, 36.000001)" fill="none" stroke-linejoin="miter" d="M -0.000000666667 0.501038 L 48.000001 0.501038 " stroke="#000000" stroke-width="1" stroke-opacity="1" stroke-miterlimit="4"/><path stroke-linecap="butt" transform="matrix(0, 0.75, -0.75, 0, 25.229999, 36.000001)" fill="none" stroke-linejoin="miter" d="M -0.000000666667 0.499374 L 48.000001 0.499374 " stroke="#000000" stroke-width="1" stroke-opacity="1" stroke-miterlimit="4"/><path stroke-linecap="butt" transform="matrix(0, 0.75, -0.75, 0, 10.8, 36.000001)" fill="none" stroke-linejoin="miter" d="M -0.000000666667 0.498958 L 48.000001 0.498958 " stroke="#000000" stroke-width="1" stroke-opacity="1" stroke-miterlimit="4"/><g clip-path="url(#d55b15d3d1)"><g clip-path="url(#4876c876c7)"><g transform="matrix(1, 0, 0, 1, 12, 13)"><g clip-path="url(#46f34c46a4)"><g clip-path="url(#2fb72704fe)"><g clip-path="url(#255bbc5244)"><path fill="#222222" d="M 0.238281 0.0195312 L 10.320312 0.0195312 L 10.320312 10.101562 L 0.238281 10.101562 Z M 0.238281 0.0195312 " fill-opacity="1" fill-rule="nonzero"/></g></g></g></g></g></g><g clip-path="url(#933d872e60)"><g clip-path="url(#92c929119f)"><g transform="matrix(1, 0, 0, 1, 49, 10)"><g clip-path="url(#2029d844f5)"><g clip-path="url(#46ce259bb2)"><g clip-path="url(#97412773e3)"><path fill="#222222" d="M 0.605469 0.980469 L 10.699219 0.980469 L 10.699219 9.800781 L 0.605469 9.800781 Z M 0.605469 0.980469 " fill-opacity="1" fill-rule="nonzero"/></g></g></g></g></g></g><g clip-path="url(#01cfd897da)"><g clip-path="url(#2cc6402ae3)"><g transform="matrix(1, 0, 0, 1, 49, 18)"><g clip-path="url(#ddd5321140)"><g clip-path="url(#e6a1528868)"><g clip-path="url(#2ca450648e)"><path fill="#222222" d="M 0.84375 0.898438 L 10.460938 0.898438 L 10.460938 9.300781 L 0.84375 9.300781 Z M 0.84375 0.898438 " fill-opacity="1" fill-rule="nonzero"/></g></g></g></g></g></g><g clip-path="url(#538218bb8b)"><g clip-path="url(#8c70b73a58)"><g transform="matrix(1, 0, 0, 1, 5, 39)"><g clip-path="url(#f99908e462)"><g clip-path="url(#5f4d301433)"><g clip-path="url(#61299a2b3d)"><path fill="#222222" d="M 0.398438 0.839844 L 10.480469 0.839844 L 10.480469 10.921875 L 0.398438 10.921875 Z M 0.398438 0.839844 " fill-opacity="1" fill-rule="nonzero"/></g></g></g></g></g></g><path stroke-linecap="butt" transform="matrix(0, 0.75, -0.75, 0, 25.229999, 36.000001)" fill="none" stroke-linejoin="miter" d="M -0.000000666667 0.499374 L 48.000001 0.499374 " stroke="#000000" stroke-width="1" stroke-opacity="1" stroke-miterlimit="4"/><g clip-path="url(#790b50eb70)"><g clip-path="url(#6febcc6db2)"><g transform="matrix(1, 0, 0, 1, 19, 52)"><g clip-path="url(#eba7c94ca9)"><g clip-path="url(#e1f9dfc031)"><g clip-path="url(#3e2992528e)"><path fill="#222222" d="M 0.816406 0.0195312 L 10.910156 0.0195312 L 10.910156 8.839844 L 0.816406 8.839844 Z M 0.816406 0.0195312 " fill-opacity="1" fill-rule="nonzero"/></g></g></g></g></g></g><g clip-path="url(#dcd6e4452c)"><g clip-path="url(#8c22963818)"><g transform="matrix(1, 0, 0, 1, 20, 60)"><g clip-path="url(#efe70acc35)"><g clip-path="url(#f8c9501d23)"><g clip-path="url(#279ef2c4ff)"><path fill="#222222" d="M 0.0546875 0 L 9.667969 0 L 9.667969 8.398438 L 0.0546875 8.398438 Z M 0.0546875 0 " fill-opacity="1" fill-rule="nonzero"/></g></g></g></g></g></g><g clip-path="url(#30594db333)"><g clip-path="url(#62b6f0e84f)"><g transform="matrix(1, 0, 0, 1, 56, 60)"><g clip-path="url(#5475bd0480)"><g clip-path="url(#4c11ffbc6b)"><g clip-path="url(#071188263a)"><path fill="#222222" d="M 0.773438 0 L 10.390625 0 L 10.390625 8.398438 L 0.773438 8.398438 Z M 0.773438 0 " fill-opacity="1" fill-rule="nonzero"/></g></g></g></g></g></g><g clip-path="url(#d1aba14257)"><g clip-path="url(#b17657d691)"><g transform="matrix(1, 0, 0, 1, 42, 51)"><g clip-path="url(#e516321747)"><g clip-path="url(#d92ba52265)"><g clip-path="url(#e0ce324a40)"><path fill="#222222" d="M 0.480469 0.390625 L 10.558594 0.390625 L 10.558594 10.46875 L 0.480469 10.46875 Z M 0.480469 0.390625 " fill-opacity="1" fill-rule="nonzero"/></g></g></g></g></g></g><g clip-path="url(#713cbd98c7)"><g clip-path="url(#b895d11298)"><g transform="matrix(1, 0, 0, 1, 42, 39)"><g clip-path="url(#54cd32d514)"><g clip-path="url(#71a998e406)"><g clip-path="url(#12d140a06b)"><path fill="#222222" d="M 0.480469 0.839844 L 10.558594 0.839844 L 10.558594 10.921875 L 0.480469 10.921875 Z M 0.480469 0.839844 " fill-opacity="1" fill-rule="nonzero"/></g></g></g></g></g></g><g transform="matrix(1, 0, 0, 1, 1, -0.000000000000001479)"><g clip-path="url(#90d81c4a77)"><g clip-path="url(#010ca2dac2)"><g fill="#000000" fill-opacity="1"><g transform="translate(0.718769, 4.500052)"><g><path d="M 3.21875 0 L 2.765625 0 L 2.4375 -0.984375 L 0.90625 -0.984375 L 0.578125 0 L 0.140625 0 L 1.390625 -3.5625 L 1.96875 -3.5625 Z M 1.640625 -3.140625 L 1.03125 -1.328125 L 2.3125 -1.328125 L 1.703125 -3.140625 Z M 1.640625 -3.140625 "/></g></g></g></g></g></g><g transform="matrix(1, 0, 0, 1, 38, -0.000000000000001479)"><g clip-path="url(#80bb96b623)"><g clip-path="url(#d5a4ec892a)"><g fill="#000000" fill-opacity="1"><g transform="translate(0.399705, 4.500052)"><g><path d="M 0.546875 0 L 0.546875 -3.5625 L 1.890625 -3.5625 C 2.109375 -3.5625 2.296875 -3.523438 2.453125 -3.453125 C 2.609375 -3.390625 2.722656 -3.289062 2.796875 -3.15625 C 2.867188 -3.03125 2.90625 -2.878906 2.90625 -2.703125 C 2.90625 -2.546875 2.863281 -2.40625 2.78125 -2.28125 C 2.695312 -2.15625 2.578125 -2.054688 2.421875 -1.984375 L 2.421875 -1.9375 C 2.660156 -1.875 2.84375 -1.765625 2.96875 -1.609375 C 3.09375 -1.460938 3.15625 -1.269531 3.15625 -1.03125 C 3.15625 -0.695312 3.054688 -0.441406 2.859375 -0.265625 C 2.660156 -0.0859375 2.375 0 2 0 Z M 1.875 -2.078125 C 2.070312 -2.078125 2.222656 -2.125 2.328125 -2.21875 C 2.441406 -2.320312 2.5 -2.46875 2.5 -2.65625 C 2.5 -2.84375 2.445312 -2.984375 2.34375 -3.078125 C 2.238281 -3.171875 2.082031 -3.21875 1.875 -3.21875 L 0.953125 -3.21875 L 0.953125 -2.078125 Z M 1.96875 -0.34375 C 2.46875 -0.34375 2.71875 -0.570312 2.71875 -1.03125 C 2.71875 -1.488281 2.46875 -1.71875 1.96875 -1.71875 L 0.953125 -1.71875 L 0.953125 -0.34375 Z M 1.96875 -0.34375 "/></g></g></g></g></g></g><g transform="matrix(1, 0, 0, 1, 1, 36)"><g clip-path="url(#ad9d9baf39)"><g clip-path="url(#9b37159e89)"><g fill="#000000" fill-opacity="1"><g transform="translate(0.640643, 5.506683)"><g><path d="M 1.96875 0.046875 C 1.65625 0.046875 1.375 -0.0195312 1.125 -0.15625 C 0.882812 -0.300781 0.695312 -0.507812 0.5625 -0.78125 C 0.425781 -1.0625 0.359375 -1.394531 0.359375 -1.78125 C 0.359375 -2.164062 0.425781 -2.492188 0.5625 -2.765625 C 0.695312 -3.046875 0.882812 -3.257812 1.125 -3.40625 C 1.375 -3.550781 1.65625 -3.625 1.96875 -3.625 C 2.300781 -3.625 2.578125 -3.5625 2.796875 -3.4375 C 3.023438 -3.3125 3.1875 -3.117188 3.28125 -2.859375 L 3.015625 -2.6875 L 2.953125 -2.6875 C 2.859375 -2.882812 2.734375 -3.023438 2.578125 -3.109375 C 2.421875 -3.203125 2.21875 -3.25 1.96875 -3.25 C 1.75 -3.25 1.550781 -3.195312 1.375 -3.09375 C 1.195312 -2.988281 1.054688 -2.828125 0.953125 -2.609375 C 0.859375 -2.398438 0.8125 -2.125 0.8125 -1.78125 C 0.8125 -1.445312 0.859375 -1.171875 0.953125 -0.953125 C 1.054688 -0.734375 1.195312 -0.570312 1.375 -0.46875 C 1.550781 -0.375 1.75 -0.328125 1.96875 -0.328125 C 2.226562 -0.328125 2.441406 -0.382812 2.609375 -0.5 C 2.773438 -0.613281 2.894531 -0.800781 2.96875 -1.0625 L 3.03125 -1.0625 L 3.3125 -0.921875 C 3.226562 -0.609375 3.070312 -0.367188 2.84375 -0.203125 C 2.613281 -0.0351562 2.320312 0.046875 1.96875 0.046875 Z M 1.96875 0.046875 "/></g></g></g></g></g></g><g transform="matrix(1, 0, 0, 1, 37, 36)"><g clip-path="url(#91e54b9214)"><g fill="#000000" fill-opacity="1"><g transform="translate(1.041628, 5.506683)"><g><path d="M 1.6875 -3.5625 C 2.050781 -3.5625 2.363281 -3.5 2.625 -3.375 C 2.882812 -3.25 3.082031 -3.050781 3.21875 -2.78125 C 3.363281 -2.519531 3.4375 -2.1875 3.4375 -1.78125 C 3.4375 -1.382812 3.363281 -1.050781 3.21875 -0.78125 C 3.082031 -0.519531 2.882812 -0.320312 2.625 -0.1875 C 2.363281 -0.0625 2.050781 0 1.6875 0 L 0.546875 0 L 0.546875 -3.5625 Z M 1.65625 -0.359375 C 1.945312 -0.359375 2.191406 -0.40625 2.390625 -0.5 C 2.585938 -0.59375 2.734375 -0.742188 2.828125 -0.953125 C 2.929688 -1.160156 2.984375 -1.4375 2.984375 -1.78125 C 2.984375 -2.132812 2.929688 -2.414062 2.828125 -2.625 C 2.734375 -2.832031 2.585938 -2.984375 2.390625 -3.078125 C 2.191406 -3.171875 1.945312 -3.21875 1.65625 -3.21875 L 0.953125 -3.21875 L 0.953125 -0.359375 Z M 1.65625 -0.359375 "/></g></g></g></g></g></svg>