<svg xmlns="http://www.w3.org/2000/svg" xmlns:xlink="http://www.w3.org/1999/xlink" width="96" zoomAndPan="magnify" viewBox="0 0 72 72" height="96" preserveAspectRatio="xMidYMid meet" version="1.0"><defs><clipPath id="ed061e7c2b"><path d="M 10.800781 18 L 21.148438 18 L 21.148438 28.351562 L 10.800781 28.351562 Z M 10.800781 18 " clip-rule="nonzero"/></clipPath><clipPath id="c3dbe67836"><path d="M 15.976562 18 C 13.117188 18 10.800781 20.316406 10.800781 23.175781 C 10.800781 26.03125 13.117188 28.351562 15.976562 28.351562 C 18.832031 28.351562 21.148438 26.03125 21.148438 23.175781 C 21.148438 20.316406 18.832031 18 15.976562 18 Z M 15.976562 18 " clip-rule="nonzero"/></clipPath><clipPath id="ac2b25bd97"><path d="M 0.800781 0 L 11.148438 0 L 11.148438 10.351562 L 0.800781 10.351562 Z M 0.800781 0 " clip-rule="nonzero"/></clipPath><clipPath id="21b74c10c0"><path d="M 5.976562 0 C 3.117188 0 0.800781 2.316406 0.800781 5.175781 C 0.800781 8.03125 3.117188 10.351562 5.976562 10.351562 C 8.832031 10.351562 11.148438 8.03125 11.148438 5.175781 C 11.148438 2.316406 8.832031 0 5.976562 0 Z M 5.976562 0 " clip-rule="nonzero"/></clipPath><clipPath id="6d067772b6"><rect x="0" width="12" y="0" height="11"/></clipPath><clipPath id="7cfe81a4ad"><path d="M 10.800781 30.824219 L 21.148438 30.824219 L 21.148438 41.175781 L 10.800781 41.175781 Z M 10.800781 30.824219 " clip-rule="nonzero"/></clipPath><clipPath id="848a782083"><path d="M 15.976562 30.824219 C 13.117188 30.824219 10.800781 33.140625 10.800781 36 C 10.800781 38.859375 13.117188 41.175781 15.976562 41.175781 C 18.832031 41.175781 21.148438 38.859375 21.148438 36 C 21.148438 33.140625 18.832031 30.824219 15.976562 30.824219 Z M 15.976562 30.824219 " clip-rule="nonzero"/></clipPath><clipPath id="403a27bc55"><path d="M 0.800781 0.824219 L 11.148438 0.824219 L 11.148438 11.175781 L 0.800781 11.175781 Z M 0.800781 0.824219 " clip-rule="nonzero"/></clipPath><clipPath id="e76c8db5d3"><path d="M 5.976562 0.824219 C 3.117188 0.824219 0.800781 3.140625 0.800781 6 C 0.800781 8.859375 3.117188 11.175781 5.976562 11.175781 C 8.832031 11.175781 11.148438 8.859375 11.148438 6 C 11.148438 3.140625 8.832031 0.824219 5.976562 0.824219 Z M 5.976562 0.824219 " clip-rule="nonzero"/></clipPath><clipPath id="4415d422f9"><rect x="0" width="12" y="0" height="12"/></clipPath><clipPath id="bfb140962b"><path d="M 10.800781 43.648438 L 21.148438 43.648438 L 21.148438 54 L 10.800781 54 Z M 10.800781 43.648438 " clip-rule="nonzero"/></clipPath><clipPath id="80fe123f39"><path d="M 15.976562 43.648438 C 13.117188 43.648438 10.800781 45.96875 10.800781 48.824219 C 10.800781 51.683594 13.117188 54 15.976562 54 C 18.832031 54 21.148438 51.683594 21.148438 48.824219 C 21.148438 45.96875 18.832031 43.648438 15.976562 43.648438 Z M 15.976562 43.648438 " clip-rule="nonzero"/></clipPath><clipPath id="eff1632aaa"><path d="M 0.800781 0.648438 L 11.148438 0.648438 L 11.148438 11 L 0.800781 11 Z M 0.800781 0.648438 " clip-rule="nonzero"/></clipPath><clipPath id="3ecf576838"><path d="M 5.976562 0.648438 C 3.117188 0.648438 0.800781 2.96875 0.800781 5.824219 C 0.800781 8.683594 3.117188 11 5.976562 11 C 8.832031 11 11.148438 8.683594 11.148438 5.824219 C 11.148438 2.96875 8.832031 0.648438 5.976562 0.648438 Z M 5.976562 0.648438 " clip-rule="nonzero"/></clipPath><clipPath id="ff23943666"><rect x="0" width="12" y="0" height="11"/></clipPath><clipPath id="39af4cacae"><path d="M 49.410156 54.449219 L 59.761719 54.449219 L 59.761719 64.800781 L 49.410156 64.800781 Z M 49.410156 54.449219 " clip-rule="nonzero"/></clipPath><clipPath id="b16a6d6cf0"><path d="M 54.585938 54.449219 C 51.726562 54.449219 49.410156 56.765625 49.410156 59.625 C 49.410156 62.484375 51.726562 64.800781 54.585938 64.800781 C 57.441406 64.800781 59.761719 62.484375 59.761719 59.625 C 59.761719 56.765625 57.441406 54.449219 54.585938 54.449219 Z M 54.585938 54.449219 " clip-rule="nonzero"/></clipPath><clipPath id="5e36d7b6d4"><path d="M 0.410156 0.449219 L 10.761719 0.449219 L 10.761719 10.800781 L 0.410156 10.800781 Z M 0.410156 0.449219 " clip-rule="nonzero"/></clipPath><clipPath id="036cd00a97"><path d="M 5.585938 0.449219 C 2.726562 0.449219 0.410156 2.765625 0.410156 5.625 C 0.410156 8.484375 2.726562 10.800781 5.585938 10.800781 C 8.441406 10.800781 10.761719 8.484375 10.761719 5.625 C 10.761719 2.765625 8.441406 0.449219 5.585938 0.449219 Z M 5.585938 0.449219 " clip-rule="nonzero"/></clipPath><clipPath id="895fea5410"><rect x="0" width="11" y="0" height="11"/></clipPath><clipPath id="d336b5e5a9"><path d="M 49.410156 6.824219 L 59.761719 6.824219 L 59.761719 17.175781 L 49.410156 17.175781 Z M 49.410156 6.824219 " clip-rule="nonzero"/></clipPath><clipPath id="d23ae0a4c5"><path d="M 54.585938 6.824219 C 51.726562 6.824219 49.410156 9.140625 49.410156 12 C 49.410156 14.859375 51.726562 17.175781 54.585938 17.175781 C 57.441406 17.175781 59.761719 14.859375 59.761719 12 C 59.761719 9.140625 57.441406 6.824219 54.585938 6.824219 Z M 54.585938 6.824219 " clip-rule="nonzero"/></clipPath><clipPath id="dd0d88d853"><path d="M 0.410156 0.824219 L 10.761719 0.824219 L 10.761719 11.175781 L 0.410156 11.175781 Z M 0.410156 0.824219 " clip-rule="nonzero"/></clipPath><clipPath id="f4d3d849fd"><path d="M 5.585938 0.824219 C 2.726562 0.824219 0.410156 3.140625 0.410156 6 C 0.410156 8.859375 2.726562 11.175781 5.585938 11.175781 C 8.441406 11.175781 10.761719 8.859375 10.761719 6 C 10.761719 3.140625 8.441406 0.824219 5.585938 0.824219 Z M 5.585938 0.824219 " clip-rule="nonzero"/></clipPath><clipPath id="05a51070fc"><rect x="0" width="11" y="0" height="12"/></clipPath></defs><g clip-path="url(#ed061e7c2b)"><g clip-path="url(#c3dbe67836)"><g transform="matrix(1, 0, 0, 1, 10, 18)"><g clip-path="url(#6d067772b6)"><g clip-path="url(#ac2b25bd97)"><g clip-path="url(#21b74c10c0)"><path fill="#ffffff" d="M 0.800781 0 L 11.148438 0 L 11.148438 10.351562 L 0.800781 10.351562 Z M 0.800781 0 " fill-opacity="1" fill-rule="nonzero"/></g></g></g></g></g></g><g clip-path="url(#7cfe81a4ad)"><g clip-path="url(#848a782083)"><g transform="matrix(1, 0, 0, 1, 10, 30)"><g clip-path="url(#4415d422f9)"><g clip-path="url(#403a27bc55)"><g clip-path="url(#e76c8db5d3)"><path fill="#ffffff" d="M 0.800781 0.824219 L 11.148438 0.824219 L 11.148438 11.175781 L 0.800781 11.175781 Z M 0.800781 0.824219 " fill-opacity="1" fill-rule="nonzero"/></g></g></g></g></g></g><g clip-path="url(#bfb140962b)"><g clip-path="url(#80fe123f39)"><g transform="matrix(1, 0, 0, 1, 10, 43)"><g clip-path="url(#ff23943666)"><g clip-path="url(#eff1632aaa)"><g clip-path="url(#3ecf576838)"><path fill="#ffffff" d="M 0.800781 0.648438 L 11.148438 0.648438 L 11.148438 11 L 0.800781 11 Z M 0.800781 0.648438 " fill-opacity="1" fill-rule="nonzero"/></g></g></g></g></g></g><g clip-path="url(#39af4cacae)"><g clip-path="url(#b16a6d6cf0)"><g transform="matrix(1, 0, 0, 1, 49, 54)"><g clip-path="url(#895fea5410)"><g clip-path="url(#5e36d7b6d4)"><g clip-path="url(#036cd00a97)"><path fill="#cc0000" d="M 0.410156 0.449219 L 10.761719 0.449219 L 10.761719 10.800781 L 0.410156 10.800781 Z M 0.410156 0.449219 " fill-opacity="1" fill-rule="nonzero"/></g></g></g></g></g></g><g clip-path="url(#d336b5e5a9)"><g clip-path="url(#d23ae0a4c5)"><g transform="matrix(1, 0, 0, 1, 49, 6)"><g clip-path="url(#05a51070fc)"><g clip-path="url(#dd0d88d853)"><g clip-path="url(#f4d3d849fd)"><path fill="#ffffff" d="M 0.410156 0.824219 L 10.761719 0.824219 L 10.761719 11.175781 L 0.410156 11.175781 Z M 0.410156 0.824219 " fill-opacity="1" fill-rule="nonzero"/></g></g></g></g></g></g></svg>