<svg xmlns="http://www.w3.org/2000/svg" xmlns:xlink="http://www.w3.org/1999/xlink" width="96" zoomAndPan="magnify" viewBox="0 0 72 72" height="96" preserveAspectRatio="xMidYMid meet" version="1.0"><defs><clipPath id="21582567f4"><path d="M 30.824219 18.824219 L 41.175781 18.824219 L 41.175781 29.175781 L 30.824219 29.175781 Z M 30.824219 18.824219 " clip-rule="nonzero"/></clipPath><clipPath id="c5a83d8941"><path d="M 36 18.824219 C 33.140625 18.824219 30.824219 21.140625 30.824219 24 C 30.824219 26.859375 33.140625 29.175781 36 29.175781 C 38.859375 29.175781 41.175781 26.859375 41.175781 24 C 41.175781 21.140625 38.859375 18.824219 36 18.824219 Z M 36 18.824219 " clip-rule="nonzero"/></clipPath><clipPath id="a7816b278b"><path d="M 0.824219 0.824219 L 11.175781 0.824219 L 11.175781 11.175781 L 0.824219 11.175781 Z M 0.824219 0.824219 " clip-rule="nonzero"/></clipPath><clipPath id="aff0d67319"><path d="M 6 0.824219 C 3.140625 0.824219 0.824219 3.140625 0.824219 6 C 0.824219 8.859375 3.140625 11.175781 6 11.175781 C 8.859375 11.175781 11.175781 8.859375 11.175781 6 C 11.175781 3.140625 8.859375 0.824219 6 0.824219 Z M 6 0.824219 " clip-rule="nonzero"/></clipPath><clipPath id="6ab24eb3e5"><rect x="0" width="12" y="0" height="12"/></clipPath><clipPath id="6ab2aa4fd9"><path d="M 47.519531 37.648438 L 57.871094 37.648438 L 57.871094 48 L 47.519531 48 Z M 47.519531 37.648438 " clip-rule="nonzero"/></clipPath><clipPath id="1150212459"><path d="M 52.695312 37.648438 C 49.835938 37.648438 47.519531 39.96875 47.519531 42.824219 C 47.519531 45.683594 49.835938 48 52.695312 48 C 55.554688 48 57.871094 45.683594 57.871094 42.824219 C 57.871094 39.96875 55.554688 37.648438 52.695312 37.648438 Z M 52.695312 37.648438 " clip-rule="nonzero"/></clipPath><clipPath id="d1cfec43cd"><path d="M 0.519531 0.648438 L 10.871094 0.648438 L 10.871094 11 L 0.519531 11 Z M 0.519531 0.648438 " clip-rule="nonzero"/></clipPath><clipPath id="f2674faf27"><path d="M 5.695312 0.648438 C 2.835938 0.648438 0.519531 2.96875 0.519531 5.824219 C 0.519531 8.683594 2.835938 11 5.695312 11 C 8.554688 11 10.871094 8.683594 10.871094 5.824219 C 10.871094 2.96875 8.554688 0.648438 5.695312 0.648438 Z M 5.695312 0.648438 " clip-rule="nonzero"/></clipPath><clipPath id="11c9537e44"><rect x="0" width="11" y="0" height="11"/></clipPath><clipPath id="6de1a4c7c6"><path d="M 14.128906 37.648438 L 24.480469 37.648438 L 24.480469 48 L 14.128906 48 Z M 14.128906 37.648438 " clip-rule="nonzero"/></clipPath><clipPath id="3322bad744"><path d="M 19.304688 37.648438 C 16.445312 37.648438 14.128906 39.96875 14.128906 42.824219 C 14.128906 45.683594 16.445312 48 19.304688 48 C 22.164062 48 24.480469 45.683594 24.480469 42.824219 C 24.480469 39.96875 22.164062 37.648438 19.304688 37.648438 Z M 19.304688 37.648438 " clip-rule="nonzero"/></clipPath><clipPath id="9f097e766a"><path d="M 0.128906 0.648438 L 10.480469 0.648438 L 10.480469 11 L 0.128906 11 Z M 0.128906 0.648438 " clip-rule="nonzero"/></clipPath><clipPath id="a173c0f934"><path d="M 5.304688 0.648438 C 2.445312 0.648438 0.128906 2.96875 0.128906 5.824219 C 0.128906 8.683594 2.445312 11 5.304688 11 C 8.164062 11 10.480469 8.683594 10.480469 5.824219 C 10.480469 2.96875 8.164062 0.648438 5.304688 0.648438 Z M 5.304688 0.648438 " clip-rule="nonzero"/></clipPath><clipPath id="c7bbd947c2"><rect x="0" width="11" y="0" height="11"/></clipPath></defs><g clip-path="url(#21582567f4)"><g clip-path="url(#c5a83d8941)"><g transform="matrix(1, 0, 0, 1, 30, 18)"><g clip-path="url(#6ab24eb3e5)"><g clip-path="url(#a7816b278b)"><g clip-path="url(#aff0d67319)"><path fill="#ffffff" d="M 0.824219 0.824219 L 11.175781 0.824219 L 11.175781 11.175781 L 0.824219 11.175781 Z M 0.824219 0.824219 " fill-opacity="1" fill-rule="nonzero"/></g></g></g></g></g></g><g clip-path="url(#6ab2aa4fd9)"><g clip-path="url(#1150212459)"><g transform="matrix(1, 0, 0, 1, 47, 37)"><g clip-path="url(#11c9537e44)"><g clip-path="url(#d1cfec43cd)"><g clip-path="url(#f2674faf27)"><path fill="#cc0000" d="M 0.519531 0.648438 L 10.871094 0.648438 L 10.871094 11 L 0.519531 11 Z M 0.519531 0.648438 " fill-opacity="1" fill-rule="nonzero"/></g></g></g></g></g></g><g clip-path="url(#6de1a4c7c6)"><g clip-path="url(#3322bad744)"><g transform="matrix(1, 0, 0, 1, 14, 37)"><g clip-path="url(#c7bbd947c2)"><g clip-path="url(#9f097e766a)"><g clip-path="url(#a173c0f934)"><path fill="#00bf63" d="M 0.128906 0.648438 L 10.480469 0.648438 L 10.480469 11 L 0.128906 11 Z M 0.128906 0.648438 " fill-opacity="1" fill-rule="nonzero"/></g></g></g></g></g></g></svg>