<svg xmlns="http://www.w3.org/2000/svg" xmlns:xlink="http://www.w3.org/1999/xlink" width="96" zoomAndPan="magnify" viewBox="0 0 72 72" height="96" preserveAspectRatio="xMidYMid meet" version="1.0"><defs><clipPath id="f63d23f95d"><path d="M 30.824219 25.648438 L 41.175781 25.648438 L 41.175781 36 L 30.824219 36 Z M 30.824219 25.648438 " clip-rule="nonzero"/></clipPath><clipPath id="d99dfe1157"><path d="M 36 25.648438 C 33.140625 25.648438 30.824219 27.96875 30.824219 30.824219 C 30.824219 33.683594 33.140625 36 36 36 C 38.859375 36 41.175781 33.683594 41.175781 30.824219 C 41.175781 27.96875 38.859375 25.648438 36 25.648438 Z M 36 25.648438 " clip-rule="nonzero"/></clipPath><clipPath id="05c5470dc5"><path d="M 0.824219 0.648438 L 11.175781 0.648438 L 11.175781 11 L 0.824219 11 Z M 0.824219 0.648438 " clip-rule="nonzero"/></clipPath><clipPath id="f32c7ce268"><path d="M 6 0.648438 C 3.140625 0.648438 0.824219 2.96875 0.824219 5.824219 C 0.824219 8.683594 3.140625 11 6 11 C 8.859375 11 11.175781 8.683594 11.175781 5.824219 C 11.175781 2.96875 8.859375 0.648438 6 0.648438 Z M 6 0.648438 " clip-rule="nonzero"/></clipPath><clipPath id="49872776d8"><rect x="0" width="12" y="0" height="11"/></clipPath><clipPath id="2c2f5afc5c"><path d="M 30.824219 49.648438 L 41.175781 49.648438 L 41.175781 60 L 30.824219 60 Z M 30.824219 49.648438 " clip-rule="nonzero"/></clipPath><clipPath id="3f823068b5"><path d="M 36 49.648438 C 33.140625 49.648438 30.824219 51.96875 30.824219 54.824219 C 30.824219 57.683594 33.140625 60 36 60 C 38.859375 60 41.175781 57.683594 41.175781 54.824219 C 41.175781 51.96875 38.859375 49.648438 36 49.648438 Z M 36 49.648438 " clip-rule="nonzero"/></clipPath><clipPath id="8aa979ab69"><path d="M 0.824219 0.648438 L 11.175781 0.648438 L 11.175781 11 L 0.824219 11 Z M 0.824219 0.648438 " clip-rule="nonzero"/></clipPath><clipPath id="b2360e203f"><path d="M 6 0.648438 C 3.140625 0.648438 0.824219 2.96875 0.824219 5.824219 C 0.824219 8.683594 3.140625 11 6 11 C 8.859375 11 11.175781 8.683594 11.175781 5.824219 C 11.175781 2.96875 8.859375 0.648438 6 0.648438 Z M 6 0.648438 " clip-rule="nonzero"/></clipPath><clipPath id="3fa14a4139"><rect x="0" width="12" y="0" height="11"/></clipPath><clipPath id="35e03c81f2"><path d="M 30.824219 13.648438 L 41.175781 13.648438 L 41.175781 24 L 30.824219 24 Z M 30.824219 13.648438 " clip-rule="nonzero"/></clipPath><clipPath id="ca202c5a97"><path d="M 36 13.648438 C 33.140625 13.648438 30.824219 15.96875 30.824219 18.824219 C 30.824219 21.683594 33.140625 24 36 24 C 38.859375 24 41.175781 21.683594 41.175781 18.824219 C 41.175781 15.96875 38.859375 13.648438 36 13.648438 Z M 36 13.648438 " clip-rule="nonzero"/></clipPath><clipPath id="aed49b5cd6"><path d="M 0.824219 0.648438 L 11.175781 0.648438 L 11.175781 11 L 0.824219 11 Z M 0.824219 0.648438 " clip-rule="nonzero"/></clipPath><clipPath id="1a63913aa8"><path d="M 6 0.648438 C 3.140625 0.648438 0.824219 2.96875 0.824219 5.824219 C 0.824219 8.683594 3.140625 11 6 11 C 8.859375 11 11.175781 8.683594 11.175781 5.824219 C 11.175781 2.96875 8.859375 0.648438 6 0.648438 Z M 6 0.648438 " clip-rule="nonzero"/></clipPath><clipPath id="ccc712ab84"><rect x="0" width="12" y="0" height="11"/></clipPath><clipPath id="7e1ce437a8"><path d="M 30.824219 37.648438 L 41.175781 37.648438 L 41.175781 48 L 30.824219 48 Z M 30.824219 37.648438 " clip-rule="nonzero"/></clipPath><clipPath id="40fec73ba2"><path d="M 36 37.648438 C 33.140625 37.648438 30.824219 39.96875 30.824219 42.824219 C 30.824219 45.683594 33.140625 48 36 48 C 38.859375 48 41.175781 45.683594 41.175781 42.824219 C 41.175781 39.96875 38.859375 37.648438 36 37.648438 Z M 36 37.648438 " clip-rule="nonzero"/></clipPath><clipPath id="19d49d0aba"><path d="M 0.824219 0.648438 L 11.175781 0.648438 L 11.175781 11 L 0.824219 11 Z M 0.824219 0.648438 " clip-rule="nonzero"/></clipPath><clipPath id="1cfa561a26"><path d="M 6 0.648438 C 3.140625 0.648438 0.824219 2.96875 0.824219 5.824219 C 0.824219 8.683594 3.140625 11 6 11 C 8.859375 11 11.175781 8.683594 11.175781 5.824219 C 11.175781 2.96875 8.859375 0.648438 6 0.648438 Z M 6 0.648438 " clip-rule="nonzero"/></clipPath><clipPath id="be67d9c6e4"><rect x="0" width="12" y="0" height="11"/></clipPath></defs><g clip-path="url(#f63d23f95d)"><g clip-path="url(#d99dfe1157)"><g transform="matrix(1, 0, 0, 1, 30, 25)"><g clip-path="url(#49872776d8)"><g clip-path="url(#05c5470dc5)"><g clip-path="url(#f32c7ce268)"><path fill="#ffffff" d="M 0.824219 0.648438 L 11.175781 0.648438 L 11.175781 11 L 0.824219 11 Z M 0.824219 0.648438 " fill-opacity="1" fill-rule="nonzero"/></g></g></g></g></g></g><g clip-path="url(#2c2f5afc5c)"><g clip-path="url(#3f823068b5)"><g transform="matrix(1, 0, 0, 1, 30, 49)"><g clip-path="url(#3fa14a4139)"><g clip-path="url(#8aa979ab69)"><g clip-path="url(#b2360e203f)"><path fill="#ffffff" d="M 0.824219 0.648438 L 11.175781 0.648438 L 11.175781 11 L 0.824219 11 Z M 0.824219 0.648438 " fill-opacity="1" fill-rule="nonzero"/></g></g></g></g></g></g><g clip-path="url(#35e03c81f2)"><g clip-path="url(#ca202c5a97)"><g transform="matrix(1, 0, 0, 1, 30, 13)"><g clip-path="url(#ccc712ab84)"><g clip-path="url(#aed49b5cd6)"><g clip-path="url(#1a63913aa8)"><path fill="#cc0000" d="M 0.824219 0.648438 L 11.175781 0.648438 L 11.175781 11 L 0.824219 11 Z M 0.824219 0.648438 " fill-opacity="1" fill-rule="nonzero"/></g></g></g></g></g></g><g clip-path="url(#7e1ce437a8)"><g clip-path="url(#40fec73ba2)"><g transform="matrix(1, 0, 0, 1, 30, 37)"><g clip-path="url(#be67d9c6e4)"><g clip-path="url(#19d49d0aba)"><g clip-path="url(#1cfa561a26)"><path fill="#cc0000" d="M 0.824219 0.648438 L 11.175781 0.648438 L 11.175781 11 L 0.824219 11 Z M 0.824219 0.648438 " fill-opacity="1" fill-rule="nonzero"/></g></g></g></g></g></g></svg>