<svg xmlns="http://www.w3.org/2000/svg" xmlns:xlink="http://www.w3.org/1999/xlink" width="96" zoomAndPan="magnify" viewBox="0 0 72 72" height="96" preserveAspectRatio="xMidYMid meet" version="1.0"><defs><g/><clipPath id="11d22eafeb"><path d="M 7.175781 26.714844 L 27 26.714844 L 27 33.871094 L 7.175781 33.871094 Z M 7.175781 26.714844 " clip-rule="nonzero"/></clipPath><clipPath id="c1155a0cc3"><path d="M 8.59375 33.84375 L 21.269531 33.84375 C 21.757812 33.84375 22.238281 33.699219 22.644531 33.429688 L 26.765625 30.695312 C 26.90625 30.601562 26.988281 30.445312 26.988281 30.277344 C 26.988281 30.113281 26.90625 29.957031 26.765625 29.863281 L 22.644531 27.128906 C 22.238281 26.859375 21.757812 26.714844 21.269531 26.714844 L 8.59375 26.714844 C 8.59375 26.714844 7.199219 27.769531 7.199219 30.277344 C 7.199219 32.789062 8.59375 33.84375 8.59375 33.84375 Z M 8.59375 33.84375 " clip-rule="nonzero"/></clipPath><clipPath id="bd1171f73d"><path d="M 0.175781 0.714844 L 20 0.714844 L 20 7.871094 L 0.175781 7.871094 Z M 0.175781 0.714844 " clip-rule="nonzero"/></clipPath><clipPath id="84c54ad8f5"><path d="M 1.59375 7.84375 L 14.269531 7.84375 C 14.757812 7.84375 15.238281 7.699219 15.644531 7.429688 L 19.765625 4.695312 C 19.90625 4.601562 19.988281 4.445312 19.988281 4.277344 C 19.988281 4.113281 19.90625 3.957031 19.765625 3.863281 L 15.644531 1.128906 C 15.238281 0.859375 14.757812 0.714844 14.269531 0.714844 L 1.59375 0.714844 C 1.59375 0.714844 0.199219 1.769531 0.199219 4.277344 C 0.199219 6.789062 1.59375 7.84375 1.59375 7.84375 Z M 1.59375 7.84375 " clip-rule="nonzero"/></clipPath><clipPath id="6193059921"><rect x="0" width="20" y="0" height="8"/></clipPath><clipPath id="6cc6667171"><path d="M 1 2 L 4.960938 2 L 4.960938 6 L 1 6 Z M 1 2 " clip-rule="nonzero"/></clipPath><clipPath id="270d74a39f"><rect x="0" width="5" y="0" height="8"/></clipPath><clipPath id="ac38e87651"><path d="M 45 38.425781 L 64.824219 38.425781 L 64.824219 45.582031 L 45 45.582031 Z M 45 38.425781 " clip-rule="nonzero"/></clipPath><clipPath id="f5c4fe4a3a"><path d="M 63.40625 38.453125 L 50.730469 38.453125 C 50.242188 38.453125 49.761719 38.597656 49.355469 38.867188 L 45.234375 41.601562 C 45.09375 41.695312 45.011719 41.851562 45.011719 42.019531 C 45.011719 42.183594 45.09375 42.339844 45.234375 42.433594 L 49.355469 45.167969 C 49.761719 45.4375 50.242188 45.582031 50.730469 45.582031 L 63.40625 45.582031 C 63.40625 45.582031 64.800781 44.527344 64.800781 42.019531 C 64.800781 39.507812 63.40625 38.453125 63.40625 38.453125 Z M 63.40625 38.453125 " clip-rule="nonzero"/></clipPath><clipPath id="9ada56748a"><path d="M 0 0.425781 L 19.800781 0.425781 L 19.800781 7.582031 L 0 7.582031 Z M 0 0.425781 " clip-rule="nonzero"/></clipPath><clipPath id="fa796d597f"><path d="M 18.40625 0.453125 L 5.730469 0.453125 C 5.242188 0.453125 4.761719 0.597656 4.355469 0.867188 L 0.234375 3.601562 C 0.09375 3.695312 0.0117188 3.851562 0.0117188 4.019531 C 0.0117188 4.183594 0.09375 4.339844 0.234375 4.433594 L 4.355469 7.167969 C 4.761719 7.4375 5.242188 7.582031 5.730469 7.582031 L 18.40625 7.582031 C 18.40625 7.582031 19.800781 6.527344 19.800781 4.019531 C 19.800781 1.507812 18.40625 0.453125 18.40625 0.453125 Z M 18.40625 0.453125 " clip-rule="nonzero"/></clipPath><clipPath id="a3573afa20"><rect x="0" width="20" y="0" height="8"/></clipPath><clipPath id="90ae33620a"><rect x="0" width="5" y="0" height="8"/></clipPath></defs><g clip-path="url(#11d22eafeb)"><g clip-path="url(#c1155a0cc3)"><g transform="matrix(1, 0, 0, 1, 7, 26)"><g clip-path="url(#6193059921)"><g clip-path="url(#bd1171f73d)"><g clip-path="url(#84c54ad8f5)"><path fill="#000000" d="M 20.390625 7.84375 L 0.203125 7.84375 L 0.203125 0.714844 L 20.390625 0.714844 Z M 20.390625 7.84375 " fill-opacity="1" fill-rule="nonzero"/></g></g></g></g></g></g><path fill="#000000" d="M 23.070312 29.90625 L 23.820312 29.90625 L 23.820312 30.65625 L 23.070312 30.65625 M 24.570312 29.90625 L 25.320312 29.90625 L 25.320312 30.65625 L 24.570312 30.65625 M 26.070312 29.90625 L 26.820312 29.90625 L 26.820312 30.65625 L 26.070312 30.65625 M 27.570312 29.90625 L 28.320312 29.90625 L 28.320312 30.65625 L 27.570312 30.65625 M 29.070312 29.90625 L 29.820312 29.90625 L 29.820312 30.65625 L 29.070312 30.65625 M 30.570312 29.90625 L 31.320312 29.90625 L 31.320312 30.65625 L 30.570312 30.65625 " fill-opacity="1" fill-rule="nonzero"/><path stroke-linecap="round" transform="matrix(0.75, 0, 0, 0.75, 23.071528, 29.907013)" fill="none" stroke-linejoin="round" d="M 9.019213 -1.001017 L 11.019213 0.498983 L 9.019213 1.998983 " stroke="#000000" stroke-width="1" stroke-opacity="1" stroke-miterlimit="4"/><g transform="matrix(1, 0, 0, 1, 14, 26)"><g clip-path="url(#270d74a39f)"><g clip-path="url(#6cc6667171)"><g fill="#ffffff" fill-opacity="1"><g transform="translate(1.031822, 5.948673)"><g><path d="M 3.21875 0 L 2.765625 0 L 2.4375 -0.984375 L 0.90625 -0.984375 L 0.578125 0 L 0.140625 0 L 1.390625 -3.5625 L 1.96875 -3.5625 Z M 1.640625 -3.140625 L 1.03125 -1.328125 L 2.3125 -1.328125 L 1.703125 -3.140625 Z M 1.640625 -3.140625 "/></g></g></g></g></g></g><g clip-path="url(#ac38e87651)"><g clip-path="url(#f5c4fe4a3a)"><g transform="matrix(1, 0, 0, 1, 45, 38)"><g clip-path="url(#a3573afa20)"><g clip-path="url(#9ada56748a)"><g clip-path="url(#fa796d597f)"><path fill="#000000" d="M -0.390625 0.453125 L 19.796875 0.453125 L 19.796875 7.582031 L -0.390625 7.582031 Z M -0.390625 0.453125 " fill-opacity="1" fill-rule="nonzero"/></g></g></g></g></g></g><path fill="#000000" d="M 48.925781 42.394531 L 48.175781 42.394531 L 48.175781 41.644531 L 48.925781 41.644531 M 47.425781 42.394531 L 46.675781 42.394531 L 46.675781 41.644531 L 47.425781 41.644531 M 45.925781 42.394531 L 45.175781 42.394531 L 45.175781 41.644531 L 45.925781 41.644531 M 44.425781 42.394531 L 43.675781 42.394531 L 43.675781 41.644531 L 44.425781 41.644531 M 42.925781 42.394531 L 42.175781 42.394531 L 42.175781 41.644531 L 42.925781 41.644531 M 41.425781 42.394531 L 40.675781 42.394531 L 40.675781 41.644531 L 41.425781 41.644531 " fill-opacity="1" fill-rule="nonzero"/><path stroke-linecap="round" transform="matrix(-0.75, 0, 0, -0.75, 48.925186, 42.392988)" fill="none" stroke-linejoin="round" d="M 9.02004 -1.002057 L 11.02004 0.497943 L 9.02004 1.997943 " stroke="#000000" stroke-width="1" stroke-opacity="1" stroke-miterlimit="4"/><g transform="matrix(1, 0, 0, 1, 53, 38)"><g clip-path="url(#90ae33620a)"><g fill="#ffffff" fill-opacity="1"><g transform="translate(0.656042, 5.684679)"><g><path d="M 0.546875 0 L 0.546875 -3.5625 L 1.890625 -3.5625 C 2.109375 -3.5625 2.296875 -3.523438 2.453125 -3.453125 C 2.609375 -3.390625 2.722656 -3.289062 2.796875 -3.15625 C 2.867188 -3.03125 2.90625 -2.878906 2.90625 -2.703125 C 2.90625 -2.546875 2.863281 -2.40625 2.78125 -2.28125 C 2.695312 -2.15625 2.578125 -2.054688 2.421875 -1.984375 L 2.421875 -1.9375 C 2.660156 -1.875 2.84375 -1.765625 2.96875 -1.609375 C 3.09375 -1.460938 3.15625 -1.269531 3.15625 -1.03125 C 3.15625 -0.695312 3.054688 -0.441406 2.859375 -0.265625 C 2.660156 -0.0859375 2.375 0 2 0 Z M 1.875 -2.078125 C 2.070312 -2.078125 2.222656 -2.125 2.328125 -2.21875 C 2.441406 -2.320312 2.5 -2.46875 2.5 -2.65625 C 2.5 -2.84375 2.445312 -2.984375 2.34375 -3.078125 C 2.238281 -3.171875 2.082031 -3.21875 1.875 -3.21875 L 0.953125 -3.21875 L 0.953125 -2.078125 Z M 1.96875 -0.34375 C 2.46875 -0.34375 2.71875 -0.570312 2.71875 -1.03125 C 2.71875 -1.488281 2.46875 -1.71875 1.96875 -1.71875 L 0.953125 -1.71875 L 0.953125 -0.34375 Z M 1.96875 -0.34375 "/></g></g></g></g></g></svg>