<svg xmlns="http://www.w3.org/2000/svg" xmlns:xlink="http://www.w3.org/1999/xlink" width="96" zoomAndPan="magnify" viewBox="0 0 72 72" height="96" preserveAspectRatio="xMidYMid meet" version="1.0"><defs><g/><clipPath id="3803b65345"><path d="M 48 41 L 64 41 L 64 58 L 48 58 Z M 48 41 " clip-rule="nonzero"/></clipPath><clipPath id="a07300b78d"><path d="M 50.816406 38.996094 L 64.835938 53.015625 L 59.773438 58.074219 L 45.757812 44.054688 Z M 50.816406 38.996094 " clip-rule="nonzero"/></clipPath><clipPath id="9ff7080676"><path d="M 63.816406 52.035156 L 54.851562 43.070312 C 54.503906 42.722656 54.0625 42.488281 53.585938 42.390625 L 48.738281 41.410156 C 48.574219 41.375 48.402344 41.425781 48.285156 41.546875 C 48.167969 41.664062 48.117188 41.832031 48.148438 41.996094 L 49.128906 46.84375 C 49.226562 47.324219 49.464844 47.761719 49.808594 48.109375 L 58.773438 57.074219 C 58.773438 57.074219 60.503906 57.3125 62.277344 55.539062 C 64.054688 53.761719 63.816406 52.035156 63.816406 52.035156 Z M 63.816406 52.035156 " clip-rule="nonzero"/></clipPath><clipPath id="83a20ae90f"><path d="M 0 0.28125 L 16 0.28125 L 16 16.359375 L 0 16.359375 Z M 0 0.28125 " clip-rule="nonzero"/></clipPath><clipPath id="25b7a42ca5"><path d="M 2.816406 -2.003906 L 16.835938 12.015625 L 11.773438 17.074219 L -2.242188 3.054688 Z M 2.816406 -2.003906 " clip-rule="nonzero"/></clipPath><clipPath id="379d01bfe4"><path d="M 15.816406 11.035156 L 6.851562 2.070312 C 6.503906 1.722656 6.0625 1.488281 5.585938 1.390625 L 0.738281 0.410156 C 0.574219 0.375 0.402344 0.425781 0.285156 0.546875 C 0.167969 0.664062 0.117188 0.832031 0.148438 0.996094 L 1.128906 5.84375 C 1.226562 6.324219 1.464844 6.761719 1.808594 7.109375 L 10.773438 16.074219 C 10.773438 16.074219 12.503906 16.3125 14.277344 14.539062 C 16.054688 12.761719 15.816406 11.035156 15.816406 11.035156 Z M 15.816406 11.035156 " clip-rule="nonzero"/></clipPath><clipPath id="0c7172e9ed"><rect x="0" width="16" y="0" height="17"/></clipPath><clipPath id="14de6b72a2"><path d="M 10.746094 23.996094 L 30.570312 23.996094 L 30.570312 31.152344 L 10.746094 31.152344 Z M 10.746094 23.996094 " clip-rule="nonzero"/></clipPath><clipPath id="bbbee32048"><path d="M 12.160156 31.125 L 24.839844 31.125 C 25.328125 31.125 25.804688 30.980469 26.214844 30.710938 L 30.335938 27.976562 C 30.472656 27.882812 30.558594 27.726562 30.558594 27.5625 C 30.558594 27.394531 30.472656 27.238281 30.335938 27.144531 L 26.214844 24.410156 C 25.804688 24.140625 25.328125 23.996094 24.839844 23.996094 L 12.160156 23.996094 C 12.160156 23.996094 10.769531 25.050781 10.769531 27.5625 C 10.769531 30.070312 12.160156 31.125 12.160156 31.125 Z M 12.160156 31.125 " clip-rule="nonzero"/></clipPath><clipPath id="877b1fae2c"><path d="M 0.746094 0.996094 L 20.570312 0.996094 L 20.570312 8.152344 L 0.746094 8.152344 Z M 0.746094 0.996094 " clip-rule="nonzero"/></clipPath><clipPath id="864d59ac73"><path d="M 2.160156 8.125 L 14.839844 8.125 C 15.328125 8.125 15.804688 7.980469 16.214844 7.710938 L 20.335938 4.976562 C 20.472656 4.882812 20.558594 4.726562 20.558594 4.5625 C 20.558594 4.394531 20.472656 4.238281 20.335938 4.144531 L 16.214844 1.410156 C 15.804688 1.140625 15.328125 0.996094 14.839844 0.996094 L 2.160156 0.996094 C 2.160156 0.996094 0.769531 2.050781 0.769531 4.5625 C 0.769531 7.070312 2.160156 8.125 2.160156 8.125 Z M 2.160156 8.125 " clip-rule="nonzero"/></clipPath><clipPath id="8ab70a1588"><rect x="0" width="21" y="0" height="9"/></clipPath><clipPath id="95b252acb3"><rect x="0" width="5" y="0" height="8"/></clipPath><clipPath id="fdf5bf9463"><path d="M 0.28125 2 L 4 2 L 4 6 L 0.28125 6 Z M 0.28125 2 " clip-rule="nonzero"/></clipPath><clipPath id="5db50fd81a"><rect x="0" width="5" y="0" height="8"/></clipPath></defs><g clip-path="url(#3803b65345)"><g clip-path="url(#a07300b78d)"><g clip-path="url(#9ff7080676)"><g transform="matrix(1, 0, 0, 1, 48, 41)"><g clip-path="url(#0c7172e9ed)"><g clip-path="url(#83a20ae90f)"><g clip-path="url(#25b7a42ca5)"><g clip-path="url(#379d01bfe4)"><path fill="#000000" d="M 2.519531 -2.257812 L 16.796875 12.015625 L 11.753906 17.054688 L -2.519531 2.78125 Z M 2.519531 -2.257812 " fill-opacity="1" fill-rule="nonzero"/></g></g></g></g></g></g></g></g><g clip-path="url(#14de6b72a2)"><g clip-path="url(#bbbee32048)"><g transform="matrix(1, 0, 0, 1, 10, 23)"><g clip-path="url(#8ab70a1588)"><g clip-path="url(#877b1fae2c)"><g clip-path="url(#864d59ac73)"><path fill="#000000" d="M 20.960938 8.125 L 0.773438 8.125 L 0.773438 0.996094 L 20.960938 0.996094 Z M 20.960938 8.125 " fill-opacity="1" fill-rule="nonzero"/></g></g></g></g></g></g><path fill="#000000" d="M 26.640625 27.1875 L 27.390625 27.1875 L 27.390625 27.9375 L 26.640625 27.9375 M 28.140625 27.1875 L 28.890625 27.1875 L 28.890625 27.9375 L 28.140625 27.9375 M 29.640625 27.1875 L 30.390625 27.1875 L 30.390625 27.9375 L 29.640625 27.9375 M 31.140625 27.1875 L 31.890625 27.1875 L 31.890625 27.9375 L 31.140625 27.9375 M 32.640625 27.1875 L 33.390625 27.1875 L 33.390625 27.9375 L 32.640625 27.9375 M 34.140625 27.1875 L 34.890625 27.1875 L 34.890625 27.9375 L 34.140625 27.9375 " fill-opacity="1" fill-rule="nonzero"/><path stroke-linecap="round" transform="matrix(0.75, 0, 0, 0.75, 26.639999, 27.189024)" fill="none" stroke-linejoin="round" d="M 9.021669 -1.002033 L 11.021669 0.497968 L 9.021669 1.997968 " stroke="#000000" stroke-width="1" stroke-opacity="1" stroke-miterlimit="4"/><path fill="#000000" d="M 50.789062 44.578125 L 50.257812 44.050781 L 50.789062 43.519531 L 51.320312 44.050781 M 49.726562 43.519531 L 49.199219 42.988281 L 49.726562 42.457031 L 50.257812 42.988281 M 48.667969 42.457031 L 48.136719 41.929688 L 48.667969 41.398438 L 49.199219 41.929688 M 47.605469 41.398438 L 47.078125 40.867188 L 47.605469 40.335938 L 48.136719 40.867188 M 46.546875 40.335938 L 46.015625 39.808594 L 46.546875 39.277344 L 47.078125 39.808594 M 45.484375 39.277344 L 44.957031 38.746094 L 45.484375 38.214844 L 46.015625 38.746094 " fill-opacity="1" fill-rule="nonzero"/><path stroke-linecap="round" transform="matrix(-0.53033, -0.53033, 0.53033, -0.53033, 50.789038, 44.579796)" fill="none" stroke-linejoin="round" d="M 9.017164 -1.000136 L 11.020633 0.502466 L 9.020847 2.001385 " stroke="#000000" stroke-width="1" stroke-opacity="1" stroke-miterlimit="4"/><g transform="matrix(1, 0, 0, 1, 18, 23)"><g clip-path="url(#95b252acb3)"><g fill="#ffffff" fill-opacity="1"><g transform="translate(0.56123, 6.230685)"><g><path d="M 0.546875 0 L 0.546875 -3.5625 L 1.890625 -3.5625 C 2.109375 -3.5625 2.296875 -3.523438 2.453125 -3.453125 C 2.609375 -3.390625 2.722656 -3.289062 2.796875 -3.15625 C 2.867188 -3.03125 2.90625 -2.878906 2.90625 -2.703125 C 2.90625 -2.546875 2.863281 -2.40625 2.78125 -2.28125 C 2.695312 -2.15625 2.578125 -2.054688 2.421875 -1.984375 L 2.421875 -1.9375 C 2.660156 -1.875 2.84375 -1.765625 2.96875 -1.609375 C 3.09375 -1.460938 3.15625 -1.269531 3.15625 -1.03125 C 3.15625 -0.695312 3.054688 -0.441406 2.859375 -0.265625 C 2.660156 -0.0859375 2.375 0 2 0 Z M 1.875 -2.078125 C 2.070312 -2.078125 2.222656 -2.125 2.328125 -2.21875 C 2.441406 -2.320312 2.5 -2.46875 2.5 -2.65625 C 2.5 -2.84375 2.445312 -2.984375 2.34375 -3.078125 C 2.238281 -3.171875 2.082031 -3.21875 1.875 -3.21875 L 0.953125 -3.21875 L 0.953125 -2.078125 Z M 1.96875 -0.34375 C 2.46875 -0.34375 2.71875 -0.570312 2.71875 -1.03125 C 2.71875 -1.488281 2.46875 -1.71875 1.96875 -1.71875 L 0.953125 -1.71875 L 0.953125 -0.34375 Z M 1.96875 -0.34375 "/></g></g></g></g></g><g transform="matrix(1, 0, 0, 1, 53, 44)"><g clip-path="url(#5db50fd81a)"><g clip-path="url(#fdf5bf9463)"><g fill="#ffffff" fill-opacity="1"><g transform="translate(0.461382, 5.66669)"><g><path d="M 3.21875 0 L 2.765625 0 L 2.4375 -0.984375 L 0.90625 -0.984375 L 0.578125 0 L 0.140625 0 L 1.390625 -3.5625 L 1.96875 -3.5625 Z M 1.640625 -3.140625 L 1.03125 -1.328125 L 2.3125 -1.328125 L 1.703125 -3.140625 Z M 1.640625 -3.140625 "/></g></g></g></g></g></g></svg>