<svg xmlns="http://www.w3.org/2000/svg" xmlns:xlink="http://www.w3.org/1999/xlink" width="96" zoomAndPan="magnify" viewBox="0 0 72 72" height="96" preserveAspectRatio="xMidYMid meet" version="1.0"><defs><g/><clipPath id="d4438e1e39"><path d="M 0.679688 0 L 4 0 L 4 5 L 0.679688 5 Z M 0.679688 0 " clip-rule="nonzero"/></clipPath><clipPath id="20a153878f"><rect x="0" width="5" y="0" height="7"/></clipPath><clipPath id="914f6c9ccf"><path d="M 0.160156 0 L 4 0 L 4 5 L 0.160156 5 Z M 0.160156 0 " clip-rule="nonzero"/></clipPath><clipPath id="93c2fee21a"><rect x="0" width="5" y="0" height="7"/></clipPath><clipPath id="3499c638a4"><path d="M 0.441406 1 L 4 1 L 4 6 L 0.441406 6 Z M 0.441406 1 " clip-rule="nonzero"/></clipPath><clipPath id="43a4cc3e66"><rect x="0" width="5" y="0" height="8"/></clipPath><clipPath id="1f0df7f727"><rect x="0" width="6" y="0" height="8"/></clipPath><clipPath id="7ce4af7760"><path d="M 43.78125 50.527344 L 58.121094 50.527344 L 58.121094 64.8125 L 43.78125 64.8125 Z M 43.78125 50.527344 " clip-rule="nonzero"/></clipPath><clipPath id="84d336e7c8"><path d="M 43.78125 50.527344 C 47.542969 50.527344 51.222656 52.050781 53.882812 54.710938 C 56.542969 57.371094 58.066406 61.050781 58.066406 64.8125 L 43.78125 64.8125 Z M 43.78125 50.527344 " clip-rule="nonzero"/></clipPath><clipPath id="83d25c97a4"><path d="M 0.78125 0.527344 L 15.078125 0.527344 L 15.078125 14.8125 L 0.78125 14.8125 Z M 0.78125 0.527344 " clip-rule="nonzero"/></clipPath><clipPath id="e41f9f0453"><path d="M 0.78125 0.527344 C 4.542969 0.527344 8.222656 2.050781 10.882812 4.710938 C 13.542969 7.371094 15.066406 11.050781 15.066406 14.8125 L 0.78125 14.8125 Z M 0.78125 0.527344 " clip-rule="nonzero"/></clipPath><clipPath id="8b0a5fedec"><rect x="0" width="16" y="0" height="15"/></clipPath><clipPath id="4f86bddc94"><path d="M 13.207031 49.832031 L 28.125 49.832031 L 28.125 64.808594 L 13.207031 64.808594 Z M 13.207031 49.832031 " clip-rule="nonzero"/></clipPath><clipPath id="34ddb5b47d"><path d="M 13.207031 64.808594 C 13.207031 60.878906 14.796875 57.039062 17.574219 54.261719 C 20.355469 51.480469 24.195312 49.890625 28.125 49.890625 L 28.125 64.808594 Z M 13.207031 64.808594 " clip-rule="nonzero"/></clipPath><clipPath id="db99a71b40"><path d="M 0.207031 0.832031 L 15.125 0.832031 L 15.125 15.808594 L 0.207031 15.808594 Z M 0.207031 0.832031 " clip-rule="nonzero"/></clipPath><clipPath id="1764c3f294"><path d="M 0.207031 15.808594 C 0.207031 11.878906 1.796875 8.039062 4.574219 5.261719 C 7.355469 2.480469 11.195312 0.890625 15.125 0.890625 L 15.125 15.808594 Z M 0.207031 15.808594 " clip-rule="nonzero"/></clipPath><clipPath id="87efbee700"><rect x="0" width="16" y="0" height="16"/></clipPath><clipPath id="9a0ada6698"><path d="M 12.234375 9.695312 L 24.105469 9.695312 L 24.105469 21.613281 L 12.234375 21.613281 Z M 12.234375 9.695312 " clip-rule="nonzero"/></clipPath><clipPath id="49ce96bc1c"><path d="M 12.234375 21.613281 C 12.234375 18.488281 13.5 15.429688 15.710938 13.21875 C 17.921875 11.007812 20.976562 9.742188 24.105469 9.742188 L 24.105469 21.613281 Z M 12.234375 21.613281 " clip-rule="nonzero"/></clipPath><clipPath id="4dcd1c4eb6"><path d="M 0.234375 0.695312 L 12.105469 0.695312 L 12.105469 12.613281 L 0.234375 12.613281 Z M 0.234375 0.695312 " clip-rule="nonzero"/></clipPath><clipPath id="007f26cb6f"><path d="M 0.234375 12.613281 C 0.234375 9.488281 1.5 6.429688 3.710938 4.21875 C 5.921875 2.007812 8.976562 0.742188 12.105469 0.742188 L 12.105469 12.613281 Z M 0.234375 12.613281 " clip-rule="nonzero"/></clipPath><clipPath id="b9a4e1c33e"><rect x="0" width="13" y="0" height="13"/></clipPath><clipPath id="004232e8a1"><path d="M 12 11 L 25 11 L 25 29 L 12 29 Z M 12 11 " clip-rule="nonzero"/></clipPath><clipPath id="369051365d"><path d="M 7.738281 17.972656 L 17.832031 11.722656 L 24.105469 21.855469 L 14.011719 28.105469 Z M 7.738281 17.972656 " clip-rule="nonzero"/></clipPath><clipPath id="559ae1a7ec"><path d="M 14.011719 28.105469 C 12.367188 25.449219 11.832031 22.183594 12.546875 19.136719 C 13.265625 16.09375 15.195312 13.410156 17.855469 11.761719 L 24.105469 21.855469 Z M 14.011719 28.105469 " clip-rule="nonzero"/></clipPath><clipPath id="973cb4f83c"><path d="M 0 0.761719 L 12.238281 0.761719 L 12.238281 17.320312 L 0 17.320312 Z M 0 0.761719 " clip-rule="nonzero"/></clipPath><clipPath id="9620975209"><path d="M -4.261719 6.972656 L 5.832031 0.722656 L 12.105469 10.855469 L 2.011719 17.105469 Z M -4.261719 6.972656 " clip-rule="nonzero"/></clipPath><clipPath id="38eb6fb21c"><path d="M 2.011719 17.105469 C 0.367188 14.449219 -0.167969 11.183594 0.546875 8.136719 C 1.265625 5.09375 3.195312 2.410156 5.855469 0.761719 L 12.105469 10.855469 Z M 2.011719 17.105469 " clip-rule="nonzero"/></clipPath><clipPath id="1de67b4407"><rect x="0" width="13" y="0" height="18"/></clipPath><clipPath id="1e7194c540"><path d="M 47 11 L 60 11 L 60 28 L 47 28 Z M 47 11 " clip-rule="nonzero"/></clipPath><clipPath id="616f656239"><path d="M 64.238281 17.992188 L 57.75 27.765625 L 47.941406 21.253906 L 54.425781 11.480469 Z M 64.238281 17.992188 " clip-rule="nonzero"/></clipPath><clipPath id="d6b3eeecb0"><path d="M 54.425781 11.480469 C 57 13.191406 58.824219 15.902344 59.4375 18.929688 C 60.046875 21.957031 59.421875 25.167969 57.710938 27.742188 L 47.941406 21.253906 Z M 54.425781 11.480469 " clip-rule="nonzero"/></clipPath><clipPath id="9ff5b88858"><path d="M 0.761719 0.28125 L 13 0.28125 L 13 16.839844 L 0.761719 16.839844 Z M 0.761719 0.28125 " clip-rule="nonzero"/></clipPath><clipPath id="e9a40680af"><path d="M 17.238281 6.992188 L 10.75 16.765625 L 0.941406 10.253906 L 7.425781 0.480469 Z M 17.238281 6.992188 " clip-rule="nonzero"/></clipPath><clipPath id="b0c7aab333"><path d="M 7.425781 0.480469 C 10 2.191406 11.824219 4.902344 12.4375 7.929688 C 13.046875 10.957031 12.421875 14.167969 10.710938 16.742188 L 0.941406 10.253906 Z M 7.425781 0.480469 " clip-rule="nonzero"/></clipPath><clipPath id="6408826444"><rect x="0" width="13" y="0" height="17"/></clipPath><clipPath id="0794ad6639"><path d="M 47 9 L 60 9 L 60 22 L 47 22 Z M 47 9 " clip-rule="nonzero"/></clipPath><clipPath id="bac2875099"><path d="M 59.882812 9.773438 L 59.511719 21.496094 L 47.742188 21.125 L 48.113281 9.402344 Z M 59.882812 9.773438 " clip-rule="nonzero"/></clipPath><clipPath id="0b1893696e"><path d="M 48.113281 9.402344 C 51.199219 9.5 54.179688 10.84375 56.292969 13.097656 C 58.40625 15.347656 59.5625 18.40625 59.464844 21.496094 L 47.742188 21.125 Z M 48.113281 9.402344 " clip-rule="nonzero"/></clipPath><clipPath id="63c23180b9"><path d="M 0.519531 0.359375 L 12.761719 0.359375 L 12.761719 12.601562 L 0.519531 12.601562 Z M 0.519531 0.359375 " clip-rule="nonzero"/></clipPath><clipPath id="e99d61914a"><path d="M 12.882812 0.773438 L 12.511719 12.496094 L 0.742188 12.125 L 1.113281 0.402344 Z M 12.882812 0.773438 " clip-rule="nonzero"/></clipPath><clipPath id="9c54657fa1"><path d="M 1.113281 0.402344 C 4.199219 0.5 7.179688 1.84375 9.292969 4.097656 C 11.40625 6.347656 12.5625 9.40625 12.464844 12.496094 L 0.742188 12.125 Z M 1.113281 0.402344 " clip-rule="nonzero"/></clipPath><clipPath id="740eeaa346"><rect x="0" width="13" y="0" height="13"/></clipPath></defs><path stroke-linecap="butt" transform="matrix(0.75, 0, 0, 0.75, 0, 35.250001)" fill="none" stroke-linejoin="miter" d="M 0 0.999999 L 96.000004 0.999999 " stroke="#000000" stroke-width="2" stroke-opacity="1" stroke-miterlimit="4"/><path stroke-linecap="butt" transform="matrix(0.000000001309, 0.75, -0.75, 0.000000001309, 36.749998, 0.000002)" fill="none" stroke-linejoin="miter" d="M -0.00000266841 0.999998 L 96.000001 0.999998 " stroke="#000000" stroke-width="2" stroke-opacity="1" stroke-miterlimit="4"/><g transform="matrix(1, 0, 0, 1, 1, -0.000000000000001479)"><g clip-path="url(#20a153878f)"><g clip-path="url(#d4438e1e39)"><g fill="#000000" fill-opacity="1"><g transform="translate(0.718769, 4.500052)"><g><path d="M 3.21875 0 L 2.765625 0 L 2.4375 -0.984375 L 0.90625 -0.984375 L 0.578125 0 L 0.140625 0 L 1.390625 -3.5625 L 1.96875 -3.5625 Z M 1.640625 -3.140625 L 1.03125 -1.328125 L 2.3125 -1.328125 L 1.703125 -3.140625 Z M 1.640625 -3.140625 "/></g></g></g></g></g></g><g transform="matrix(1, 0, 0, 1, 38, -0.000000000000001479)"><g clip-path="url(#93c2fee21a)"><g clip-path="url(#914f6c9ccf)"><g fill="#000000" fill-opacity="1"><g transform="translate(0.399705, 4.500052)"><g><path d="M 0.546875 0 L 0.546875 -3.5625 L 1.890625 -3.5625 C 2.109375 -3.5625 2.296875 -3.523438 2.453125 -3.453125 C 2.609375 -3.390625 2.722656 -3.289062 2.796875 -3.15625 C 2.867188 -3.03125 2.90625 -2.878906 2.90625 -2.703125 C 2.90625 -2.546875 2.863281 -2.40625 2.78125 -2.28125 C 2.695312 -2.15625 2.578125 -2.054688 2.421875 -1.984375 L 2.421875 -1.9375 C 2.660156 -1.875 2.84375 -1.765625 2.96875 -1.609375 C 3.09375 -1.460938 3.15625 -1.269531 3.15625 -1.03125 C 3.15625 -0.695312 3.054688 -0.441406 2.859375 -0.265625 C 2.660156 -0.0859375 2.375 0 2 0 Z M 1.875 -2.078125 C 2.070312 -2.078125 2.222656 -2.125 2.328125 -2.21875 C 2.441406 -2.320312 2.5 -2.46875 2.5 -2.65625 C 2.5 -2.84375 2.445312 -2.984375 2.34375 -3.078125 C 2.238281 -3.171875 2.082031 -3.21875 1.875 -3.21875 L 0.953125 -3.21875 L 0.953125 -2.078125 Z M 1.96875 -0.34375 C 2.46875 -0.34375 2.71875 -0.570312 2.71875 -1.03125 C 2.71875 -1.488281 2.46875 -1.71875 1.96875 -1.71875 L 0.953125 -1.71875 L 0.953125 -0.34375 Z M 1.96875 -0.34375 "/></g></g></g></g></g></g><g transform="matrix(1, 0, 0, 1, 1, 36)"><g clip-path="url(#43a4cc3e66)"><g clip-path="url(#3499c638a4)"><g fill="#000000" fill-opacity="1"><g transform="translate(0.640643, 5.506676)"><g><path d="M 1.96875 0.046875 C 1.65625 0.046875 1.375 -0.0195312 1.125 -0.15625 C 0.882812 -0.300781 0.695312 -0.507812 0.5625 -0.78125 C 0.425781 -1.0625 0.359375 -1.394531 0.359375 -1.78125 C 0.359375 -2.164062 0.425781 -2.492188 0.5625 -2.765625 C 0.695312 -3.046875 0.882812 -3.257812 1.125 -3.40625 C 1.375 -3.550781 1.65625 -3.625 1.96875 -3.625 C 2.300781 -3.625 2.578125 -3.5625 2.796875 -3.4375 C 3.023438 -3.3125 3.1875 -3.117188 3.28125 -2.859375 L 3.015625 -2.6875 L 2.953125 -2.6875 C 2.859375 -2.882812 2.734375 -3.023438 2.578125 -3.109375 C 2.421875 -3.203125 2.21875 -3.25 1.96875 -3.25 C 1.75 -3.25 1.550781 -3.195312 1.375 -3.09375 C 1.195312 -2.988281 1.054688 -2.828125 0.953125 -2.609375 C 0.859375 -2.398438 0.8125 -2.125 0.8125 -1.78125 C 0.8125 -1.445312 0.859375 -1.171875 0.953125 -0.953125 C 1.054688 -0.734375 1.195312 -0.570312 1.375 -0.46875 C 1.550781 -0.375 1.75 -0.328125 1.96875 -0.328125 C 2.226562 -0.328125 2.441406 -0.382812 2.609375 -0.5 C 2.773438 -0.613281 2.894531 -0.800781 2.96875 -1.0625 L 3.03125 -1.0625 L 3.3125 -0.921875 C 3.226562 -0.609375 3.070312 -0.367188 2.84375 -0.203125 C 2.613281 -0.0351562 2.320312 0.046875 1.96875 0.046875 Z M 1.96875 0.046875 "/></g></g></g></g></g></g><g transform="matrix(1, 0, 0, 1, 37, 36)"><g clip-path="url(#1f0df7f727)"><g fill="#000000" fill-opacity="1"><g transform="translate(1.041628, 5.506676)"><g><path d="M 1.6875 -3.5625 C 2.050781 -3.5625 2.363281 -3.5 2.625 -3.375 C 2.882812 -3.25 3.082031 -3.050781 3.21875 -2.78125 C 3.363281 -2.519531 3.4375 -2.1875 3.4375 -1.78125 C 3.4375 -1.382812 3.363281 -1.050781 3.21875 -0.78125 C 3.082031 -0.519531 2.882812 -0.320312 2.625 -0.1875 C 2.363281 -0.0625 2.050781 0 1.6875 0 L 0.546875 0 L 0.546875 -3.5625 Z M 1.65625 -0.359375 C 1.945312 -0.359375 2.191406 -0.40625 2.390625 -0.5 C 2.585938 -0.59375 2.734375 -0.742188 2.828125 -0.953125 C 2.929688 -1.160156 2.984375 -1.4375 2.984375 -1.78125 C 2.984375 -2.132812 2.929688 -2.414062 2.828125 -2.625 C 2.734375 -2.832031 2.585938 -2.984375 2.390625 -3.078125 C 2.191406 -3.171875 1.945312 -3.21875 1.65625 -3.21875 L 0.953125 -3.21875 L 0.953125 -0.359375 Z M 1.65625 -0.359375 "/></g></g></g></g></g><g clip-path="url(#7ce4af7760)"><g clip-path="url(#84d336e7c8)"><g transform="matrix(1, 0, 0, 1, 43, 50)"><g clip-path="url(#8b0a5fedec)"><g clip-path="url(#83d25c97a4)"><g clip-path="url(#e41f9f0453)"><path fill="#222222" d="M 15.066406 0.527344 L 15.066406 14.8125 L 0.78125 14.8125 L 0.78125 0.527344 Z M 15.066406 0.527344 " fill-opacity="1" fill-rule="nonzero"/></g></g></g></g></g></g><path stroke-linecap="butt" transform="matrix(-0.75, 0, 0, -0.75, 63.678506, 65.187215)" fill="none" stroke-linejoin="miter" d="M -0.00157514 0.49962 L 26.967176 0.49962 " stroke="#000000" stroke-width="1" stroke-opacity="1" stroke-miterlimit="4"/><path stroke-linecap="butt" transform="matrix(0, -0.75, 0.75, 0, 43.41548, 64.809858)" fill="none" stroke-linejoin="miter" d="M 0.00168633 0.49811 L 27.710021 0.49811 " stroke="#000000" stroke-width="1" stroke-opacity="1" stroke-miterlimit="4"/><g clip-path="url(#4f86bddc94)"><g clip-path="url(#34ddb5b47d)"><g transform="matrix(1, 0, 0, 1, 13, 49)"><g clip-path="url(#87efbee700)"><g clip-path="url(#db99a71b40)"><g clip-path="url(#1764c3f294)"><path fill="#222222" d="M 0.207031 0.890625 L 15.125 0.890625 L 15.125 15.808594 L 0.207031 15.808594 Z M 0.207031 0.890625 " fill-opacity="1" fill-rule="nonzero"/></g></g></g></g></g></g><path stroke-linecap="butt" transform="matrix(0, 0.75, -0.75, 0, 28.497034, 44.033115)" fill="none" stroke-linejoin="miter" d="M -0.00248609 0.501254 L 28.164182 0.501254 " stroke="#000000" stroke-width="1" stroke-opacity="1" stroke-miterlimit="4"/><path stroke-linecap="butt" transform="matrix(-0.75, 0.000000001309, -0.000000001309, -0.75, 28.122944, 65.184477)" fill="none" stroke-linejoin="miter" d="M 0.00246757 0.501178 L 28.939969 0.501178 " stroke="#000000" stroke-width="1" stroke-opacity="1" stroke-miterlimit="4"/><g clip-path="url(#9a0ada6698)"><g clip-path="url(#49ce96bc1c)"><g transform="matrix(1, 0, 0, 1, 12, 9)"><g clip-path="url(#b9a4e1c33e)"><g clip-path="url(#4dcd1c4eb6)"><g clip-path="url(#007f26cb6f)"><path fill="#222222" d="M 0.234375 0.742188 L 12.105469 0.742188 L 12.105469 12.613281 L 0.234375 12.613281 Z M 0.234375 0.742188 " fill-opacity="1" fill-rule="nonzero"/></g></g></g></g></g></g><path stroke-linecap="butt" transform="matrix(0, 0.75, -0.75, 0, 24.478424, 5.080124)" fill="none" stroke-linejoin="miter" d="M 0.00254328 0.502482 L 22.408794 0.502482 " stroke="#000000" stroke-width="1" stroke-opacity="1" stroke-miterlimit="4"/><path stroke-linecap="butt" transform="matrix(-0.627556, 0.410698, -0.410698, -0.627556, 24.30875, 21.927086)" fill="none" stroke-linejoin="miter" d="M 0.00203108 0.501372 L 21.894691 0.499923 " stroke="#000000" stroke-width="1" stroke-opacity="1" stroke-miterlimit="4"/><g clip-path="url(#004232e8a1)"><g clip-path="url(#369051365d)"><g clip-path="url(#559ae1a7ec)"><g transform="matrix(1, 0, 0, 1, 12, 11)"><g clip-path="url(#1de67b4407)"><g clip-path="url(#973cb4f83c)"><g clip-path="url(#9620975209)"><g clip-path="url(#38eb6fb21c)"><path fill="#222222" d="M -4.238281 7.011719 L 5.855469 0.761719 L 12.105469 10.855469 L 2.011719 17.105469 Z M -4.238281 7.011719 " fill-opacity="1" fill-rule="nonzero"/></g></g></g></g></g></g></g></g><g clip-path="url(#1e7194c540)"><g clip-path="url(#616f656239)"><g clip-path="url(#d6b3eeecb0)"><g transform="matrix(1, 0, 0, 1, 47, 11)"><g clip-path="url(#6408826444)"><g clip-path="url(#9ff5b88858)"><g clip-path="url(#e9a40680af)"><g clip-path="url(#b0c7aab333)"><path fill="#222222" d="M 17.199219 6.96875 L 10.710938 16.742188 L 0.941406 10.253906 L 7.425781 0.480469 Z M 17.199219 6.96875 " fill-opacity="1" fill-rule="nonzero"/></g></g></g></g></g></g></g></g><path stroke-linecap="butt" transform="matrix(-0.624856, -0.414795, 0.414795, -0.624856, 61.354692, 30.604176)" fill="none" stroke-linejoin="miter" d="M -0.00135714 0.498946 L 22.140472 0.497802 " stroke="#000000" stroke-width="1" stroke-opacity="1" stroke-miterlimit="4"/><path stroke-linecap="butt" transform="matrix(0.00490593, -0.749984, 0.749984, 0.00490593, 47.575868, 21.253185)" fill="none" stroke-linejoin="miter" d="M 0.00229432 0.497797 L 21.627786 0.502173 " stroke="#000000" stroke-width="1" stroke-opacity="1" stroke-miterlimit="4"/><g clip-path="url(#0794ad6639)"><g clip-path="url(#bac2875099)"><g clip-path="url(#0b1893696e)"><g transform="matrix(1, 0, 0, 1, 47, 9)"><g clip-path="url(#740eeaa346)"><g clip-path="url(#63c23180b9)"><g clip-path="url(#e99d61914a)"><g clip-path="url(#9c54657fa1)"><path fill="#222222" d="M 12.835938 0.773438 L 12.464844 12.496094 L 0.742188 12.125 L 1.113281 0.402344 Z M 12.835938 0.773438 " fill-opacity="1" fill-rule="nonzero"/></g></g></g></g></g></g></g></g></svg>