<svg xmlns="http://www.w3.org/2000/svg" xmlns:xlink="http://www.w3.org/1999/xlink" width="96" zoomAndPan="magnify" viewBox="0 0 72 72" height="96" preserveAspectRatio="xMidYMid meet" version="1.0"><defs><g/><clipPath id="91be65d435"><path d="M 41.398438 16.84375 L 61.222656 16.84375 L 61.222656 24 L 41.398438 24 Z M 41.398438 16.84375 " clip-rule="nonzero"/></clipPath><clipPath id="0c22f7a287"><path d="M 59.808594 16.871094 L 47.128906 16.871094 C 46.640625 16.871094 46.164062 17.015625 45.753906 17.285156 L 41.632812 20.019531 C 41.496094 20.113281 41.410156 20.269531 41.410156 20.4375 C 41.410156 20.601562 41.496094 20.757812 41.632812 20.851562 L 45.753906 23.585938 C 46.164062 23.855469 46.640625 24 47.128906 24 L 59.808594 24 C 59.808594 24 61.199219 22.945312 61.199219 20.4375 C 61.199219 17.925781 59.808594 16.871094 59.808594 16.871094 Z M 59.808594 16.871094 " clip-rule="nonzero"/></clipPath><clipPath id="83f8fa43dc"><path d="M 0.398438 0.84375 L 20.199219 0.84375 L 20.199219 8 L 0.398438 8 Z M 0.398438 0.84375 " clip-rule="nonzero"/></clipPath><clipPath id="e566dc1d27"><path d="M 18.808594 0.871094 L 6.128906 0.871094 C 5.640625 0.871094 5.164062 1.015625 4.753906 1.285156 L 0.632812 4.019531 C 0.496094 4.113281 0.410156 4.269531 0.410156 4.4375 C 0.410156 4.601562 0.496094 4.757812 0.632812 4.851562 L 4.753906 7.585938 C 5.164062 7.855469 5.640625 8 6.128906 8 L 18.808594 8 C 18.808594 8 20.199219 6.945312 20.199219 4.4375 C 20.199219 1.925781 18.808594 0.871094 18.808594 0.871094 Z M 18.808594 0.871094 " clip-rule="nonzero"/></clipPath><clipPath id="f8e7b8a9ab"><rect x="0" width="21" y="0" height="8"/></clipPath><clipPath id="46b025aaa8"><path d="M 17.351562 40.195312 L 24.507812 40.195312 L 24.507812 60 L 17.351562 60 Z M 17.351562 40.195312 " clip-rule="nonzero"/></clipPath><clipPath id="614eab16e7"><path d="M 24.476562 58.605469 L 24.476562 45.929688 C 24.476562 45.4375 24.335938 44.960938 24.0625 44.554688 L 21.328125 40.433594 C 21.238281 40.292969 21.082031 40.210938 20.914062 40.210938 C 20.746094 40.210938 20.59375 40.292969 20.5 40.433594 L 17.765625 44.554688 C 17.496094 44.960938 17.351562 45.4375 17.351562 45.929688 L 17.351562 58.605469 C 17.351562 58.605469 18.402344 60 20.914062 60 C 23.425781 60 24.476562 58.605469 24.476562 58.605469 Z M 24.476562 58.605469 " clip-rule="nonzero"/></clipPath><clipPath id="a967d8cb77"><path d="M 0.351562 0.195312 L 7.480469 0.195312 L 7.480469 20 L 0.351562 20 Z M 0.351562 0.195312 " clip-rule="nonzero"/></clipPath><clipPath id="04ecffae26"><path d="M 7.476562 18.605469 L 7.476562 5.929688 C 7.476562 5.4375 7.335938 4.960938 7.0625 4.554688 L 4.328125 0.433594 C 4.238281 0.292969 4.082031 0.210938 3.914062 0.210938 C 3.746094 0.210938 3.59375 0.292969 3.5 0.433594 L 0.765625 4.554688 C 0.496094 4.960938 0.351562 5.4375 0.351562 5.929688 L 0.351562 18.605469 C 0.351562 18.605469 1.402344 20 3.914062 20 C 6.425781 20 7.476562 18.605469 7.476562 18.605469 Z M 7.476562 18.605469 " clip-rule="nonzero"/></clipPath><clipPath id="5ae7f6b9a6"><rect x="0" width="8" y="0" height="20"/></clipPath><clipPath id="e5ad728d4d"><path d="M 0.441406 2 L 4 2 L 4 6 L 0.441406 6 Z M 0.441406 2 " clip-rule="nonzero"/></clipPath><clipPath id="f79a0a35ad"><rect x="0" width="5" y="0" height="8"/></clipPath><clipPath id="0ebe0863f2"><path d="M 0.199219 2 L 4 2 L 4 7 L 0.199219 7 Z M 0.199219 2 " clip-rule="nonzero"/></clipPath><clipPath id="946e2456fc"><rect x="0" width="5" y="0" height="8"/></clipPath></defs><g clip-path="url(#91be65d435)"><g clip-path="url(#0c22f7a287)"><g transform="matrix(1, 0, 0, 1, 41, 16)"><g clip-path="url(#f8e7b8a9ab)"><g clip-path="url(#83f8fa43dc)"><g clip-path="url(#e566dc1d27)"><path fill="#000000" d="M 0.0078125 0.871094 L 20.195312 0.871094 L 20.195312 8 L 0.0078125 8 Z M 0.0078125 0.871094 " fill-opacity="1" fill-rule="nonzero"/></g></g></g></g></g></g><g clip-path="url(#46b025aaa8)"><g clip-path="url(#614eab16e7)"><g transform="matrix(1, 0, 0, 1, 17, 40)"><g clip-path="url(#5ae7f6b9a6)"><g clip-path="url(#a967d8cb77)"><g clip-path="url(#04ecffae26)"><path fill="#000000" d="M 7.476562 -0.191406 L 7.476562 19.992188 L 0.351562 19.992188 L 0.351562 -0.191406 Z M 7.476562 -0.191406 " fill-opacity="1" fill-rule="nonzero"/></g></g></g></g></g></g><g transform="matrix(1, 0, 0, 1, 19, 46)"><g clip-path="url(#f79a0a35ad)"><g clip-path="url(#e5ad728d4d)"><g fill="#ffffff" fill-opacity="1"><g transform="translate(0.459694, 5.570921)"><g><path d="M 3.21875 0 L 2.765625 0 L 2.4375 -0.984375 L 0.90625 -0.984375 L 0.578125 0 L 0.140625 0 L 1.390625 -3.5625 L 1.96875 -3.5625 Z M 1.640625 -3.140625 L 1.03125 -1.328125 L 2.3125 -1.328125 L 1.703125 -3.140625 Z M 1.640625 -3.140625 "/></g></g></g></g></g></g><path fill="#000000" d="M 20.539062 44.125 L 20.539062 43.375 L 21.289062 43.375 L 21.289062 44.125 M 20.539062 42.625 L 20.539062 41.875 L 21.289062 41.875 L 21.289062 42.625 M 20.539062 41.125 L 20.539062 40.375 L 21.289062 40.375 L 21.289062 41.125 M 20.539062 39.625 L 20.539062 38.875 L 21.289062 38.875 L 21.289062 39.625 M 20.539062 38.125 L 20.539062 37.375 L 21.289062 37.375 L 21.289062 38.125 M 20.539062 36.625 L 20.539062 35.875 L 21.289062 35.875 L 21.289062 36.625 " fill-opacity="1" fill-rule="nonzero"/><path stroke-linecap="round" transform="matrix(0, -0.75, 0.75, 0, 20.539359, 44.12683)" fill="none" stroke-linejoin="round" d="M 9.018065 -1.000395 L 11.018065 0.499605 L 9.018065 1.999605 " stroke="#000000" stroke-width="1" stroke-opacity="1" stroke-miterlimit="4"/><path fill="#000000" d="M 43.917969 20.8125 L 43.167969 20.8125 L 43.167969 20.0625 L 43.917969 20.0625 M 42.417969 20.8125 L 41.667969 20.8125 L 41.667969 20.0625 L 42.417969 20.0625 M 40.917969 20.8125 L 40.167969 20.8125 L 40.167969 20.0625 L 40.917969 20.0625 M 39.417969 20.8125 L 38.667969 20.8125 L 38.667969 20.0625 L 39.417969 20.0625 M 37.917969 20.8125 L 37.167969 20.8125 L 37.167969 20.0625 L 37.917969 20.0625 M 36.417969 20.8125 L 35.667969 20.8125 L 35.667969 20.0625 L 36.417969 20.0625 " fill-opacity="1" fill-rule="nonzero"/><path stroke-linecap="round" transform="matrix(-0.75, 0, 0, -0.75, 43.916717, 20.811)" fill="none" stroke-linejoin="round" d="M 9.019165 -1.002 L 11.019165 0.498 L 9.019165 1.998 " stroke="#000000" stroke-width="1" stroke-opacity="1" stroke-miterlimit="4"/><g transform="matrix(1, 0, 0, 1, 49, 16)"><g clip-path="url(#946e2456fc)"><g clip-path="url(#0ebe0863f2)"><g fill="#ffffff" fill-opacity="1"><g transform="translate(0.385465, 6.102686)"><g><path d="M 0.546875 0 L 0.546875 -3.5625 L 1.890625 -3.5625 C 2.109375 -3.5625 2.296875 -3.523438 2.453125 -3.453125 C 2.609375 -3.390625 2.722656 -3.289062 2.796875 -3.15625 C 2.867188 -3.03125 2.90625 -2.878906 2.90625 -2.703125 C 2.90625 -2.546875 2.863281 -2.40625 2.78125 -2.28125 C 2.695312 -2.15625 2.578125 -2.054688 2.421875 -1.984375 L 2.421875 -1.9375 C 2.660156 -1.875 2.84375 -1.765625 2.96875 -1.609375 C 3.09375 -1.460938 3.15625 -1.269531 3.15625 -1.03125 C 3.15625 -0.695312 3.054688 -0.441406 2.859375 -0.265625 C 2.660156 -0.0859375 2.375 0 2 0 Z M 1.875 -2.078125 C 2.070312 -2.078125 2.222656 -2.125 2.328125 -2.21875 C 2.441406 -2.320312 2.5 -2.46875 2.5 -2.65625 C 2.5 -2.84375 2.445312 -2.984375 2.34375 -3.078125 C 2.238281 -3.171875 2.082031 -3.21875 1.875 -3.21875 L 0.953125 -3.21875 L 0.953125 -2.078125 Z M 1.96875 -0.34375 C 2.46875 -0.34375 2.71875 -0.570312 2.71875 -1.03125 C 2.71875 -1.488281 2.46875 -1.71875 1.96875 -1.71875 L 0.953125 -1.71875 L 0.953125 -0.34375 Z M 1.96875 -0.34375 "/></g></g></g></g></g></g></svg>